%TF.GenerationSoftware,KiCad,Pcbnew,9.0.4*%
%TF.CreationDate,2026-03-09T16:52:57+09:00*%
%TF.ProjectId,dasicHotswap,64617369-6348-46f7-9473-7761702e6b69,rev?*%
%TF.SameCoordinates,Original*%
%TF.FileFunction,Paste,Top*%
%TF.FilePolarity,Positive*%
%FSLAX46Y46*%
G04 Gerber Fmt 4.6, Leading zero omitted, Abs format (unit mm)*
G04 Created by KiCad (PCBNEW 9.0.4) date 2026-03-09 16:52:57*
%MOMM*%
%LPD*%
G01*
G04 APERTURE LIST*
G04 Aperture macros list*
%AMRotRect*
0 Rectangle, with rotation*
0 The origin of the aperture is its center*
0 $1 length*
0 $2 width*
0 $3 Rotation angle, in degrees counterclockwise*
0 Add horizontal line*
21,1,$1,$2,0,0,$3*%
G04 Aperture macros list end*
%ADD10RotRect,2.500000X2.500000X190.000000*%
%ADD11R,1.400000X0.940000*%
%ADD12R,2.500000X2.500000*%
%ADD13R,1.000000X1.700000*%
%ADD14RotRect,2.500000X2.500000X185.000000*%
%ADD15RotRect,2.500000X2.500000X10.000000*%
%ADD16C,1.600000*%
%ADD17R,1.600000X1.600000*%
G04 APERTURE END LIST*
D10*
%TO.C,SW29*%
X119053317Y-115497704D03*
X132224994Y-115754366D03*
%TD*%
D11*
%TO.C,D13*%
X70725001Y-106999998D03*
X74275001Y-107000002D03*
%TD*%
D12*
%TO.C,SW24*%
X160657999Y-91420000D03*
X173584999Y-93960000D03*
%TD*%
%TO.C,SW30*%
X163033000Y-110419999D03*
X175960002Y-112959998D03*
%TD*%
%TO.C,SW19*%
X189157999Y-72419999D03*
X202084999Y-74959999D03*
%TD*%
%TO.C,SW26*%
X198658000Y-91420000D03*
X211585000Y-93960000D03*
%TD*%
%TO.C,SW11*%
X160658000Y-53420000D03*
X173585000Y-55960000D03*
%TD*%
D11*
%TO.C,D1*%
X70725000Y-76999998D03*
X74275000Y-77000002D03*
%TD*%
D12*
%TO.C,SW13*%
X198658000Y-53420000D03*
X211585000Y-55960000D03*
%TD*%
D11*
%TO.C,D9*%
X70724999Y-96999998D03*
X74274999Y-97000002D03*
%TD*%
%TO.C,D15*%
X70725002Y-111999997D03*
X74275002Y-112000001D03*
%TD*%
%TO.C,D11*%
X70724999Y-101999997D03*
X74274999Y-102000001D03*
%TD*%
D12*
%TO.C,SW32*%
X208157999Y-110419998D03*
X221084999Y-112959998D03*
%TD*%
D11*
%TO.C,D18*%
X70724999Y-119499996D03*
X74274999Y-119500000D03*
%TD*%
D12*
%TO.C,SW27*%
X217658000Y-91420000D03*
X230585000Y-93960000D03*
%TD*%
D11*
%TO.C,D14*%
X70725001Y-109499997D03*
X74275001Y-109500001D03*
%TD*%
%TO.C,D17*%
X70725002Y-116999996D03*
X74275002Y-117000000D03*
%TD*%
%TO.C,D2*%
X70725001Y-79499998D03*
X74275001Y-79500002D03*
%TD*%
%TO.C,D8*%
X70725001Y-94499998D03*
X74275001Y-94500002D03*
%TD*%
D13*
%TO.C,SW34*%
X79649999Y-67849999D03*
X79650002Y-74149999D03*
X75849998Y-67850001D03*
X75850001Y-74150001D03*
%TD*%
D12*
%TO.C,SW25*%
X179658000Y-91419998D03*
X192585000Y-93959998D03*
%TD*%
D11*
%TO.C,D16*%
X70725001Y-114499998D03*
X74275001Y-114500002D03*
%TD*%
D12*
%TO.C,SW17*%
X151158000Y-72420000D03*
X164085000Y-74960000D03*
%TD*%
D11*
%TO.C,D10*%
X70724996Y-99499996D03*
X74274996Y-99500000D03*
%TD*%
%TO.C,D7*%
X70724998Y-91999998D03*
X74274998Y-92000002D03*
%TD*%
D12*
%TO.C,SW6*%
X189158000Y-34419999D03*
X202085000Y-36959999D03*
%TD*%
D14*
%TO.C,SW23*%
X140445649Y-92812625D03*
X153544834Y-94216297D03*
%TD*%
D10*
%TO.C,SW28*%
X98003051Y-119209434D03*
X111174728Y-119466096D03*
%TD*%
%TO.C,SW8*%
X97091227Y-61490896D03*
X110262904Y-61747558D03*
%TD*%
%TO.C,SW1*%
X92314700Y-43040021D03*
X105486377Y-43296683D03*
%TD*%
%TO.C,SW2*%
X111026047Y-39740706D03*
X124197724Y-39997368D03*
%TD*%
D11*
%TO.C,D4*%
X70725000Y-84499997D03*
X74275000Y-84500001D03*
%TD*%
D15*
%TO.C,SW21*%
X112652083Y-107650044D03*
X99480406Y-107393382D03*
%TD*%
D10*
%TO.C,SW21*%
X108736997Y-98023644D03*
X121908674Y-98280306D03*
%TD*%
D14*
%TO.C,SW3*%
X130909500Y-34984646D03*
X144008685Y-36388318D03*
%TD*%
D11*
%TO.C,D6*%
X70725000Y-89499995D03*
X74275000Y-89499999D03*
%TD*%
D12*
%TO.C,SW5*%
X170158000Y-34420000D03*
X183085000Y-36960000D03*
%TD*%
D11*
%TO.C,D19*%
X70725001Y-121999995D03*
X74275001Y-121999999D03*
%TD*%
D12*
%TO.C,SW20*%
X208158000Y-72420001D03*
X221085000Y-74960001D03*
%TD*%
%TO.C,SW31*%
X179658000Y-110419999D03*
X192585002Y-112959998D03*
%TD*%
D11*
%TO.C,D20*%
X70725000Y-124499998D03*
X74275000Y-124500002D03*
%TD*%
D12*
%TO.C,SW18*%
X170158000Y-72419999D03*
X183085000Y-74959999D03*
%TD*%
D11*
%TO.C,D5*%
X70725001Y-86999996D03*
X74275001Y-87000000D03*
%TD*%
D10*
%TO.C,SW9*%
X120480411Y-57366752D03*
X133652088Y-57623414D03*
%TD*%
D11*
%TO.C,D12*%
X70725000Y-104499997D03*
X74275000Y-104500001D03*
%TD*%
D15*
%TO.C,SW22*%
X133702349Y-103938314D03*
X120530672Y-103681652D03*
%TD*%
D12*
%TO.C,SW7*%
X208158000Y-34420000D03*
X221085000Y-36960000D03*
%TD*%
%TO.C,SW12*%
X179658000Y-53419999D03*
X192585000Y-55959999D03*
%TD*%
%TO.C,SW4*%
X151158000Y-34420000D03*
X164085000Y-36960000D03*
%TD*%
D10*
%TO.C,SW15*%
X99528836Y-80354185D03*
X112700513Y-80610847D03*
%TD*%
D12*
%TO.C,SW10*%
X141658000Y-53420000D03*
X154585000Y-55960000D03*
%TD*%
D11*
%TO.C,D3*%
X70725001Y-81999996D03*
X74275001Y-82000000D03*
%TD*%
D10*
%TO.C,SW16*%
X129934775Y-74992798D03*
X143106452Y-75249460D03*
%TD*%
D12*
%TO.C,SW14*%
X217657999Y-53420000D03*
X230584999Y-55960000D03*
%TD*%
D11*
%TO.C,D28*%
X81975001Y-120749999D03*
X85525001Y-120749999D03*
%TD*%
%TO.C,D22*%
X81975002Y-105749999D03*
X85525002Y-105749999D03*
%TD*%
%TO.C,D29*%
X81975000Y-118250000D03*
X85525000Y-118250000D03*
%TD*%
%TO.C,D31*%
X81974994Y-113250003D03*
X85524994Y-113250003D03*
%TD*%
%TO.C,D25*%
X81975001Y-98250004D03*
X85525001Y-98250004D03*
%TD*%
%TO.C,D23*%
X81974998Y-103249997D03*
X85524998Y-103249997D03*
%TD*%
%TO.C,D21*%
X81974999Y-108249997D03*
X85524999Y-108249997D03*
%TD*%
%TO.C,D24*%
X81975000Y-100750000D03*
X85525000Y-100750000D03*
%TD*%
%TO.C,D26*%
X81974998Y-95750001D03*
X85524998Y-95750001D03*
%TD*%
D16*
%TO.C,U1*%
X83620000Y-32280000D03*
D17*
X83620000Y-32280000D03*
D16*
X68380000Y-32280000D03*
X83620000Y-34820000D03*
X68380000Y-34820000D03*
X83620000Y-37360000D03*
X68380000Y-37360000D03*
X83620000Y-39900000D03*
X68380000Y-39900000D03*
X83620000Y-42440000D03*
X68380000Y-42440000D03*
X83620000Y-44980000D03*
X68380000Y-44980000D03*
X83620000Y-47520000D03*
X68380000Y-47520000D03*
X83620000Y-50060000D03*
X68380000Y-50060000D03*
X83620000Y-52600000D03*
X68380000Y-52600000D03*
X83620000Y-55140000D03*
X68380000Y-55140000D03*
X83620000Y-57680000D03*
X68380000Y-57680000D03*
X83620000Y-60220000D03*
X68380000Y-60220000D03*
%TD*%
D11*
%TO.C,D30*%
X81974992Y-115749997D03*
X85524992Y-115749997D03*
%TD*%
%TO.C,D27*%
X81975002Y-93250001D03*
X85525002Y-93250001D03*
%TD*%
%TO.C,D32*%
X81974997Y-110750001D03*
X85524997Y-110750001D03*
%TD*%
M02*
