%TF.GenerationSoftware,KiCad,Pcbnew,9.0.4*%
%TF.CreationDate,2026-03-09T16:52:57+09:00*%
%TF.ProjectId,dasicHotswap,64617369-6348-46f7-9473-7761702e6b69,rev?*%
%TF.SameCoordinates,Original*%
%TF.FileFunction,Paste,Bot*%
%TF.FilePolarity,Positive*%
%FSLAX46Y46*%
G04 Gerber Fmt 4.6, Leading zero omitted, Abs format (unit mm)*
G04 Created by KiCad (PCBNEW 9.0.4) date 2026-03-09 16:52:57*
%MOMM*%
%LPD*%
G01*
G04 APERTURE LIST*
G04 Aperture macros list*
%AMRotRect*
0 Rectangle, with rotation*
0 The origin of the aperture is its center*
0 $1 length*
0 $2 width*
0 $3 Rotation angle, in degrees counterclockwise*
0 Add horizontal line*
21,1,$1,$2,0,0,$3*%
G04 Aperture macros list end*
%ADD10RotRect,2.500000X2.500000X190.000000*%
%ADD11R,1.400000X0.940000*%
%ADD12R,2.500000X2.500000*%
%ADD13RotRect,2.500000X2.500000X185.000000*%
%ADD14RotRect,2.500000X2.500000X10.000000*%
%ADD15R,1.000000X1.700000*%
%ADD16C,1.600000*%
%ADD17R,1.600000X1.600000*%
G04 APERTURE END LIST*
D10*
%TO.C,SW29*%
X118270268Y-118214961D03*
X130559811Y-113468799D03*
%TD*%
D11*
%TO.C,D13*%
X70725001Y-106999998D03*
X74275001Y-107000002D03*
%TD*%
D12*
%TO.C,SW24*%
X159414999Y-93960000D03*
X172341999Y-91420000D03*
%TD*%
%TO.C,SW19*%
X187914999Y-74959999D03*
X200841999Y-72419999D03*
%TD*%
%TO.C,SW26*%
X197415000Y-93960000D03*
X210342000Y-91420000D03*
%TD*%
%TO.C,SW11*%
X159415000Y-55960000D03*
X172342000Y-53420000D03*
%TD*%
D11*
%TO.C,D1*%
X70725000Y-76999998D03*
X74275000Y-77000002D03*
%TD*%
D12*
%TO.C,SW13*%
X197415000Y-55960000D03*
X210342000Y-53420000D03*
%TD*%
D11*
%TO.C,D9*%
X70724999Y-96999998D03*
X74274999Y-97000002D03*
%TD*%
%TO.C,D15*%
X70725002Y-111999997D03*
X74275002Y-112000001D03*
%TD*%
%TO.C,D11*%
X70724999Y-101999997D03*
X74274999Y-102000001D03*
%TD*%
%TO.C,D18*%
X70724999Y-119499996D03*
X74274999Y-119500000D03*
%TD*%
D12*
%TO.C,SW27*%
X216415000Y-93960000D03*
X229342000Y-91420000D03*
%TD*%
D11*
%TO.C,D14*%
X70725001Y-109499997D03*
X74275001Y-109500001D03*
%TD*%
%TO.C,D17*%
X70725002Y-116999996D03*
X74275002Y-117000000D03*
%TD*%
%TO.C,D2*%
X70725001Y-79499998D03*
X74275001Y-79500002D03*
%TD*%
%TO.C,D8*%
X70725001Y-94499998D03*
X74275001Y-94500002D03*
%TD*%
D12*
%TO.C,SW25*%
X178415000Y-93959998D03*
X191342000Y-91419998D03*
%TD*%
D11*
%TO.C,D16*%
X70725001Y-114499998D03*
X74275001Y-114500002D03*
%TD*%
D12*
%TO.C,SW17*%
X149915000Y-74960000D03*
X162842000Y-72420000D03*
%TD*%
D11*
%TO.C,D10*%
X70724996Y-99499996D03*
X74274996Y-99500000D03*
%TD*%
%TO.C,D7*%
X70724998Y-91999998D03*
X74274998Y-92000002D03*
%TD*%
D12*
%TO.C,SW6*%
X187915000Y-36959999D03*
X200842000Y-34419999D03*
%TD*%
D13*
%TO.C,SW23*%
X139428755Y-95451294D03*
X152085188Y-91794297D03*
%TD*%
D10*
%TO.C,SW28*%
X97220002Y-121926691D03*
X109509545Y-117180529D03*
%TD*%
%TO.C,SW8*%
X96308178Y-64208153D03*
X108597721Y-59461991D03*
%TD*%
%TO.C,SW1*%
X91531651Y-45757278D03*
X103821194Y-41011116D03*
%TD*%
%TO.C,SW2*%
X110242998Y-42457963D03*
X122532541Y-37711801D03*
%TD*%
D11*
%TO.C,D4*%
X70725000Y-84499997D03*
X74275000Y-84500001D03*
%TD*%
D14*
%TO.C,SW21*%
X113435132Y-104932787D03*
X101145589Y-109678949D03*
%TD*%
D10*
%TO.C,SW21*%
X107953948Y-100740901D03*
X120243491Y-95994739D03*
%TD*%
D13*
%TO.C,SW3*%
X129892606Y-37623315D03*
X142549039Y-33966318D03*
%TD*%
D11*
%TO.C,D6*%
X70725000Y-89499995D03*
X74275000Y-89499999D03*
%TD*%
D12*
%TO.C,SW5*%
X168915000Y-36960000D03*
X181842000Y-34420000D03*
%TD*%
D11*
%TO.C,D19*%
X70725001Y-121999995D03*
X74275001Y-121999999D03*
%TD*%
D12*
%TO.C,SW20*%
X206915000Y-74960001D03*
X219842000Y-72420001D03*
%TD*%
D11*
%TO.C,D20*%
X70725000Y-124499998D03*
X74275000Y-124500002D03*
%TD*%
D12*
%TO.C,SW18*%
X168915000Y-74959999D03*
X181842000Y-72419999D03*
%TD*%
D11*
%TO.C,D5*%
X70725001Y-86999996D03*
X74275001Y-87000000D03*
%TD*%
D10*
%TO.C,SW9*%
X119697362Y-60084009D03*
X131986905Y-55337847D03*
%TD*%
D11*
%TO.C,D12*%
X70725000Y-104499997D03*
X74275000Y-104500001D03*
%TD*%
D14*
%TO.C,SW22*%
X134485398Y-101221057D03*
X122195855Y-105967219D03*
%TD*%
D12*
%TO.C,SW7*%
X206915000Y-36960000D03*
X219842000Y-34420000D03*
%TD*%
%TO.C,SW12*%
X178415000Y-55959999D03*
X191342000Y-53419999D03*
%TD*%
%TO.C,SW4*%
X149915000Y-36960000D03*
X162842000Y-34420000D03*
%TD*%
%TO.C,SW10*%
X140415000Y-55960000D03*
X153342000Y-53420000D03*
%TD*%
D11*
%TO.C,D3*%
X70725001Y-81999996D03*
X74275001Y-82000000D03*
%TD*%
D10*
%TO.C,SW16*%
X129151726Y-77710055D03*
X141441269Y-72963893D03*
%TD*%
D12*
%TO.C,SW14*%
X216414999Y-55960000D03*
X229341999Y-53420000D03*
%TD*%
D11*
%TO.C,D28*%
X81975001Y-120749999D03*
X85525001Y-120749999D03*
%TD*%
%TO.C,D22*%
X81975002Y-105749999D03*
X85525002Y-105749999D03*
%TD*%
%TO.C,D29*%
X81975000Y-118250000D03*
X85525000Y-118250000D03*
%TD*%
D12*
%TO.C,SW32*%
X212717003Y-110419998D03*
X199790003Y-112959998D03*
%TD*%
D11*
%TO.C,D31*%
X81974994Y-113250003D03*
X85524994Y-113250003D03*
%TD*%
%TO.C,D25*%
X81975001Y-98250004D03*
X85525001Y-98250004D03*
%TD*%
%TO.C,D23*%
X81974998Y-103249997D03*
X85524998Y-103249997D03*
%TD*%
D15*
%TO.C,SW34*%
X79650002Y-74149999D03*
X79649999Y-67849999D03*
X75850001Y-74150001D03*
X75849998Y-67850001D03*
%TD*%
D14*
%TO.C,SW15*%
X94067950Y-83896271D03*
X106357493Y-79150109D03*
%TD*%
D11*
%TO.C,D21*%
X81974999Y-108249997D03*
X85524999Y-108249997D03*
%TD*%
%TO.C,D24*%
X81975000Y-100750000D03*
X85525000Y-100750000D03*
%TD*%
%TO.C,D26*%
X81974998Y-95750001D03*
X85524998Y-95750001D03*
%TD*%
D16*
%TO.C,U1*%
X83620000Y-32280000D03*
X68380000Y-32280000D03*
D17*
X68380000Y-32280000D03*
D16*
X83620000Y-34820000D03*
X68380000Y-34820000D03*
X83620000Y-37360000D03*
X68380000Y-37360000D03*
X83620000Y-39900000D03*
X68380000Y-39900000D03*
X83620000Y-42440000D03*
X68380000Y-42440000D03*
X83620000Y-44980000D03*
X68380000Y-44980000D03*
X83620000Y-47520000D03*
X68380000Y-47520000D03*
X83620000Y-50060000D03*
X68380000Y-50060000D03*
X83620000Y-52600000D03*
X68380000Y-52600000D03*
X83620000Y-55140000D03*
X68380000Y-55140000D03*
X83620000Y-57680000D03*
X68380000Y-57680000D03*
X83620000Y-60220000D03*
X68380000Y-60220000D03*
%TD*%
D11*
%TO.C,D30*%
X81974992Y-115749997D03*
X85524992Y-115749997D03*
%TD*%
%TO.C,D27*%
X81975002Y-93250001D03*
X85525002Y-93250001D03*
%TD*%
D12*
%TO.C,SW30*%
X159415000Y-112959999D03*
X172342000Y-110419999D03*
%TD*%
D11*
%TO.C,D32*%
X81974997Y-110750001D03*
X85524997Y-110750001D03*
%TD*%
M02*
