%TF.GenerationSoftware,KiCad,Pcbnew,9.0.4*%
%TF.CreationDate,2026-03-31T05:57:06+09:00*%
%TF.ProjectId,dasicHotswap,64617369-6348-46f7-9473-7761702e6b69,rev?*%
%TF.SameCoordinates,Original*%
%TF.FileFunction,Soldermask,Top*%
%TF.FilePolarity,Negative*%
%FSLAX46Y46*%
G04 Gerber Fmt 4.6, Leading zero omitted, Abs format (unit mm)*
G04 Created by KiCad (PCBNEW 9.0.4) date 2026-03-31 05:57:06*
%MOMM*%
%LPD*%
G01*
G04 APERTURE LIST*
G04 Aperture macros list*
%AMRotRect*
0 Rectangle, with rotation*
0 The origin of the aperture is its center*
0 $1 length*
0 $2 width*
0 $3 Rotation angle, in degrees counterclockwise*
0 Add horizontal line*
21,1,$1,$2,0,0,$3*%
%AMFreePoly0*
4,1,6,1.000000,0.000000,0.500000,-0.750000,-0.500000,-0.750000,-0.500000,0.750000,0.500000,0.750000,1.000000,0.000000,1.000000,0.000000,$1*%
%AMFreePoly1*
4,1,6,0.500000,-0.750000,-0.650000,-0.750000,-0.150000,0.000000,-0.650000,0.750000,0.500000,0.750000,0.500000,-0.750000,0.500000,-0.750000,$1*%
%AMFreePoly2*
4,1,80,0.290285,2.861940,0.471397,2.786921,0.634393,2.678010,0.773010,2.539393,0.881921,2.376397,0.956940,2.195285,0.995185,2.003017,0.995185,1.931495,0.998079,1.924509,1.000000,1.905000,1.000000,0.000000,0.998079,-0.019509,0.995185,-0.026495,0.995185,-0.098017,0.956940,-0.290285,0.881921,-0.471397,0.773010,-0.634393,0.634393,-0.773010,0.471397,-0.881921,0.290285,-0.956940,
0.098017,-0.995185,-0.098017,-0.995185,-0.290285,-0.956940,-0.471397,-0.881921,-0.634393,-0.773010,-0.773010,-0.634393,-0.881921,-0.471397,-0.956940,-0.290285,-0.995185,-0.098017,-0.995185,-0.026495,-0.998079,-0.019509,-1.000000,0.000000,-1.000000,1.905000,-0.998079,1.924509,-0.995185,1.931495,-0.995185,1.983793,-0.800000,1.983793,-0.800000,1.826207,-0.769257,1.671649,-0.708951,1.526058,
-0.621401,1.395030,-0.509970,1.283599,-0.378942,1.196049,-0.233351,1.135743,-0.078793,1.105000,0.078793,1.105000,0.233351,1.135743,0.378942,1.196049,0.509970,1.283599,0.621401,1.395030,0.708951,1.526058,0.769257,1.671649,0.800000,1.826207,0.800000,1.983793,0.769257,2.138351,0.708951,2.283942,0.621401,2.414970,0.509970,2.526401,0.378942,2.613951,0.233351,2.674257,
0.078793,2.705000,-0.078793,2.705000,-0.233351,2.674257,-0.378942,2.613951,-0.509970,2.526401,-0.621401,2.414970,-0.708951,2.283942,-0.769257,2.138351,-0.800000,1.983793,-0.995185,1.983793,-0.995185,2.003017,-0.956940,2.195285,-0.881921,2.376397,-0.773010,2.539393,-0.634393,2.678010,-0.471397,2.786921,-0.290285,2.861940,-0.098017,2.900185,0.098017,2.900185,0.290285,2.861940,
0.290285,2.861940,$1*%
G04 Aperture macros list end*
%ADD10C,0.000000*%
%ADD11C,1.701800*%
%ADD12C,3.000000*%
%ADD13C,4.000000*%
%ADD14R,2.500000X2.500000*%
%ADD15R,1.397000X1.397000*%
%ADD16R,1.400000X0.940000*%
%ADD17C,1.397000*%
%ADD18FreePoly0,180.000000*%
%ADD19FreePoly1,180.000000*%
%ADD20FreePoly0,0.000000*%
%ADD21FreePoly1,0.000000*%
%ADD22R,1.000000X1.700000*%
%ADD23C,0.800000*%
%ADD24O,1.600000X2.000000*%
%ADD25RotRect,2.500000X2.500000X190.000000*%
%ADD26C,1.000000*%
%ADD27FreePoly2,90.000000*%
%ADD28C,0.200000*%
%ADD29FreePoly2,270.000000*%
%ADD30R,2.000000X2.000000*%
%ADD31RotRect,2.500000X2.500000X185.000000*%
%ADD32RotRect,2.500000X2.500000X10.000000*%
G04 APERTURE END LIST*
D10*
%TO.C,JP3*%
G36*
X230475003Y-44743794D02*
G01*
X230474996Y-46243792D01*
X228024997Y-46243788D01*
X228025004Y-44743790D01*
X230475003Y-44743794D01*
G37*
%TO.C,JP6*%
G36*
X228025000Y-48250000D02*
G01*
X230475000Y-48250000D01*
X230475000Y-49750000D01*
X228025000Y-49750000D01*
X228025000Y-48250000D01*
G37*
%TO.C,JP1*%
G36*
X230475003Y-42250003D02*
G01*
X230474996Y-43750001D01*
X228024997Y-43749997D01*
X228025004Y-42249999D01*
X230475003Y-42250003D01*
G37*
%TD*%
D11*
%TO.C,SW32*%
X226205001Y-115499999D03*
D12*
X224935000Y-118040000D03*
X223665002Y-120580002D03*
D13*
X221125000Y-115500000D03*
D12*
X218585001Y-120580000D03*
X217315001Y-118039998D03*
D11*
X216044999Y-115500001D03*
D14*
X226967000Y-120580000D03*
X214039998Y-118040001D03*
%TD*%
D11*
%TO.C,SW31*%
X202455001Y-115499999D03*
D12*
X201185000Y-118040000D03*
X199915002Y-120580002D03*
D13*
X197375000Y-115500000D03*
D12*
X194835001Y-120580000D03*
X193565001Y-118039998D03*
D11*
X192294999Y-115500001D03*
D14*
X203217000Y-120580000D03*
X190289998Y-118040001D03*
%TD*%
D11*
%TO.C,SW32*%
X211955003Y-115499998D03*
D12*
X210685003Y-112959998D03*
X209415003Y-110419998D03*
D13*
X206875003Y-115499998D03*
D12*
X204335003Y-110419998D03*
X203065003Y-112959998D03*
D11*
X201795003Y-115499998D03*
D14*
X213960003Y-112959998D03*
X201033003Y-110419998D03*
%TD*%
D15*
%TO.C,D13*%
X68690001Y-106999997D03*
D16*
X70725001Y-106999998D03*
X74275001Y-107000002D03*
D17*
X76310001Y-107000003D03*
%TD*%
D15*
%TO.C,D1*%
X68690000Y-76999997D03*
D16*
X70725000Y-76999998D03*
X74275000Y-77000002D03*
D17*
X76310000Y-77000003D03*
%TD*%
D18*
%TO.C,JP3*%
X229975001Y-45493789D03*
D19*
X228524999Y-45493793D03*
%TD*%
D15*
%TO.C,D9*%
X68689999Y-96999997D03*
D16*
X70724999Y-96999998D03*
X74274999Y-97000002D03*
D17*
X76309999Y-97000003D03*
%TD*%
D15*
%TO.C,D15*%
X68690002Y-111999996D03*
D16*
X70725002Y-111999997D03*
X74275002Y-112000001D03*
D17*
X76310002Y-112000002D03*
%TD*%
D20*
%TO.C,JP6*%
X228525000Y-49000000D03*
D21*
X229975000Y-49000000D03*
%TD*%
D15*
%TO.C,D11*%
X68689999Y-101999996D03*
D16*
X70724999Y-101999997D03*
X74274999Y-102000001D03*
D17*
X76309999Y-102000002D03*
%TD*%
D15*
%TO.C,D18*%
X68689999Y-119499995D03*
D16*
X70724999Y-119499996D03*
X74274999Y-119500000D03*
D17*
X76309999Y-119500001D03*
%TD*%
D15*
%TO.C,D14*%
X68690001Y-109499996D03*
D16*
X70725001Y-109499997D03*
X74275001Y-109500001D03*
D17*
X76310001Y-109500002D03*
%TD*%
D15*
%TO.C,D17*%
X68690002Y-116999995D03*
D16*
X70725002Y-116999996D03*
X74275002Y-117000000D03*
D17*
X76310002Y-117000001D03*
%TD*%
D15*
%TO.C,D2*%
X68690001Y-79499997D03*
D16*
X70725001Y-79499998D03*
X74275001Y-79500002D03*
D17*
X76310001Y-79500003D03*
%TD*%
D15*
%TO.C,D8*%
X68690001Y-94499997D03*
D16*
X70725001Y-94499998D03*
X74275001Y-94500002D03*
D17*
X76310001Y-94500003D03*
%TD*%
D22*
%TO.C,SW34*%
X79649999Y-67849999D03*
X79650002Y-74149999D03*
X75849998Y-67850001D03*
X75850001Y-74150001D03*
%TD*%
D15*
%TO.C,D16*%
X68690001Y-114499997D03*
D16*
X70725001Y-114499998D03*
X74275001Y-114500002D03*
D17*
X76310001Y-114500003D03*
%TD*%
D15*
%TO.C,D10*%
X68689996Y-99499995D03*
D16*
X70724996Y-99499996D03*
X74274996Y-99500000D03*
D17*
X76309996Y-99500001D03*
%TD*%
D15*
%TO.C,D7*%
X68689998Y-91999997D03*
D16*
X70724998Y-91999998D03*
X74274998Y-92000002D03*
D17*
X76309998Y-92000003D03*
%TD*%
D23*
%TO.C,J1*%
X229000000Y-29100000D03*
X229000000Y-36100000D03*
D24*
X231300000Y-33700000D03*
X231300000Y-30700000D03*
X226700000Y-38800000D03*
X231300000Y-37700000D03*
%TD*%
D15*
%TO.C,D4*%
X68690000Y-84499996D03*
D16*
X70725000Y-84499997D03*
X74275000Y-84500001D03*
D17*
X76310000Y-84500002D03*
%TD*%
D15*
%TO.C,D6*%
X68690000Y-89499994D03*
D16*
X70725000Y-89499995D03*
X74275000Y-89499999D03*
D17*
X76310000Y-89500000D03*
%TD*%
D18*
%TO.C,JP1*%
X229975001Y-42999998D03*
D19*
X228524999Y-43000002D03*
%TD*%
D15*
%TO.C,D19*%
X68690001Y-121999994D03*
D16*
X70725001Y-121999995D03*
X74275001Y-121999999D03*
D17*
X76310001Y-122000000D03*
%TD*%
D15*
%TO.C,D20*%
X68690000Y-124499997D03*
D16*
X70725000Y-124499998D03*
X74275000Y-124500002D03*
D17*
X76310000Y-124500003D03*
%TD*%
D15*
%TO.C,D5*%
X68690001Y-86999995D03*
D16*
X70725001Y-86999996D03*
X74275001Y-87000000D03*
D17*
X76310001Y-87000001D03*
%TD*%
D15*
%TO.C,D12*%
X68690000Y-104499996D03*
D16*
X70725000Y-104499997D03*
X74275000Y-104500001D03*
D17*
X76310000Y-104500002D03*
%TD*%
D11*
%TO.C,SW15*%
X101161393Y-85224689D03*
D12*
X102780672Y-79780799D03*
D13*
X106164216Y-84342556D03*
D12*
X109475267Y-81179545D03*
D11*
X111167039Y-83460423D03*
D25*
X99528836Y-80354185D03*
X112700513Y-80610847D03*
%TD*%
D15*
%TO.C,D3*%
X68690001Y-81999995D03*
D16*
X70725001Y-81999996D03*
X74275001Y-82000000D03*
D17*
X76310001Y-82000001D03*
%TD*%
D15*
%TO.C,D28*%
X79940003Y-120749999D03*
D16*
X81975001Y-120749999D03*
X85525001Y-120749999D03*
D17*
X87559999Y-120749999D03*
%TD*%
D23*
%TO.C,J2*%
X229000000Y-36100000D03*
X229000000Y-29100000D03*
D24*
X226700000Y-33700000D03*
X226700000Y-30700000D03*
X231300000Y-38800000D03*
X226700000Y-37700000D03*
%TD*%
D15*
%TO.C,D22*%
X79940004Y-105749999D03*
D16*
X81975002Y-105749999D03*
X85525002Y-105749999D03*
D17*
X87560000Y-105749999D03*
%TD*%
D15*
%TO.C,D29*%
X79940002Y-118250000D03*
D16*
X81975000Y-118250000D03*
X85525000Y-118250000D03*
D17*
X87559998Y-118250000D03*
%TD*%
D15*
%TO.C,D31*%
X79939996Y-113250003D03*
D16*
X81974994Y-113250003D03*
X85524994Y-113250003D03*
D17*
X87559992Y-113250003D03*
%TD*%
D15*
%TO.C,D25*%
X79940003Y-98250004D03*
D16*
X81975001Y-98250004D03*
X85525001Y-98250004D03*
D17*
X87559999Y-98250004D03*
%TD*%
D15*
%TO.C,D23*%
X79940000Y-103249997D03*
D16*
X81974998Y-103249997D03*
X85524998Y-103249997D03*
D17*
X87559996Y-103249997D03*
%TD*%
D11*
%TO.C,SW15*%
X106489202Y-84285252D03*
D12*
X103105658Y-79723495D03*
D13*
X101486379Y-85167385D03*
D12*
X97293195Y-83327573D03*
D11*
X96483556Y-86049518D03*
%TD*%
D15*
%TO.C,D21*%
X79940001Y-108249997D03*
D16*
X81974999Y-108249997D03*
X85524999Y-108249997D03*
D17*
X87559997Y-108249997D03*
%TD*%
D15*
%TO.C,D24*%
X79940002Y-100750000D03*
D16*
X81975000Y-100750000D03*
X85525000Y-100750000D03*
D17*
X87559998Y-100750000D03*
%TD*%
D15*
%TO.C,D26*%
X79940000Y-95750001D03*
D16*
X81974998Y-95750001D03*
X85524998Y-95750001D03*
D17*
X87559996Y-95750001D03*
%TD*%
D26*
%TO.C,U1*%
X83620000Y-32280000D03*
X68380000Y-32280000D03*
X83620000Y-34820000D03*
X68380000Y-34820000D03*
X83620000Y-37360000D03*
X68380000Y-37360000D03*
X83620000Y-39900000D03*
X68380000Y-39900000D03*
X83620000Y-42440000D03*
X68380000Y-42440000D03*
X83620000Y-44980000D03*
X68380000Y-44980000D03*
X83620000Y-47520000D03*
X68380000Y-47520000D03*
X83620000Y-50060000D03*
X68380000Y-50060000D03*
X83620000Y-52600000D03*
X68380000Y-52600000D03*
X83620000Y-55140000D03*
X68380000Y-55140000D03*
X83620000Y-57680000D03*
X68380000Y-57680000D03*
X83620000Y-60220000D03*
X68380000Y-60220000D03*
D27*
X70285000Y-32261772D03*
D28*
X67384815Y-32280000D03*
D27*
X70285000Y-34801772D03*
D28*
X67384815Y-34820000D03*
D27*
X70285000Y-37341772D03*
D28*
X67384815Y-37360000D03*
D27*
X70285000Y-39881772D03*
D28*
X67384815Y-39900000D03*
D27*
X70285000Y-42421772D03*
D28*
X67384815Y-42440000D03*
D27*
X70285000Y-44961772D03*
D28*
X67384815Y-44980000D03*
D27*
X70285000Y-47501772D03*
D28*
X67384815Y-47520000D03*
D27*
X70285000Y-50041772D03*
D28*
X67384815Y-50060000D03*
D27*
X70285000Y-52581772D03*
D28*
X67384815Y-52600000D03*
D27*
X70285000Y-55121772D03*
D28*
X67384815Y-55140000D03*
D27*
X70285000Y-57661772D03*
D28*
X67384815Y-57680000D03*
D27*
X70285000Y-60201772D03*
D28*
X67384815Y-60220000D03*
D29*
X81715000Y-60201772D03*
D28*
X84615185Y-60220000D03*
D29*
X81715000Y-57661772D03*
D28*
X84615185Y-57680000D03*
D29*
X81715000Y-55121772D03*
D28*
X84615185Y-55140000D03*
D29*
X81715000Y-52581772D03*
D28*
X84615185Y-52600000D03*
D29*
X81715000Y-50041772D03*
D28*
X84615185Y-50060000D03*
D29*
X81715000Y-47501772D03*
D28*
X84615185Y-47520000D03*
D29*
X81715000Y-44961772D03*
D28*
X84615185Y-44980000D03*
D29*
X81715000Y-42421772D03*
D28*
X84615185Y-42440000D03*
D29*
X81715000Y-39881772D03*
D28*
X84615185Y-39900000D03*
D29*
X81715000Y-37341772D03*
D28*
X84615185Y-37360000D03*
D29*
X81715000Y-34801772D03*
D28*
X84615185Y-34820000D03*
D29*
X81715000Y-32261772D03*
D30*
X81715000Y-32261772D03*
D28*
X84615185Y-32280000D03*
%TD*%
D15*
%TO.C,D30*%
X79939994Y-115749997D03*
D16*
X81974992Y-115749997D03*
X85524992Y-115749997D03*
D17*
X87559990Y-115749997D03*
%TD*%
D15*
%TO.C,D27*%
X79940004Y-93250001D03*
D16*
X81975002Y-93250001D03*
X85525002Y-93250001D03*
D17*
X87560000Y-93250001D03*
%TD*%
D15*
%TO.C,D32*%
X79939999Y-110750001D03*
D16*
X81974997Y-110750001D03*
X85524997Y-110750001D03*
D17*
X87559995Y-110750001D03*
%TD*%
D11*
%TO.C,SW30*%
X166169999Y-115500001D03*
D12*
X167440000Y-112960000D03*
X168709998Y-110419998D03*
D13*
X171250000Y-115500000D03*
D12*
X173789999Y-110420000D03*
X175059999Y-112960002D03*
D11*
X176330001Y-115499999D03*
D14*
X165408000Y-110420000D03*
X178335002Y-112959999D03*
%TD*%
D11*
%TO.C,SW30*%
X168545000Y-115500000D03*
D12*
X169815000Y-118040000D03*
X171085000Y-120580000D03*
D13*
X173625000Y-115500000D03*
D12*
X176165000Y-120580000D03*
X177435000Y-118040000D03*
D11*
X178705000Y-115500000D03*
D14*
X166540000Y-118040000D03*
X179467000Y-120580000D03*
%TD*%
D11*
%TO.C,SW29*%
X120685874Y-120368208D03*
D12*
X121495513Y-117646263D03*
X122305153Y-114924318D03*
D13*
X125688697Y-119486075D03*
D12*
X127307976Y-114042185D03*
X128999748Y-116323064D03*
D11*
X130691520Y-118603942D03*
D25*
X119053317Y-115497704D03*
X132224994Y-115754366D03*
%TD*%
D11*
%TO.C,SW24*%
X161419999Y-96500000D03*
D12*
X162689999Y-93960000D03*
X163959999Y-91420000D03*
D13*
X166499999Y-96500000D03*
D12*
X169039999Y-91420000D03*
X170309999Y-93960000D03*
D11*
X171579999Y-96500000D03*
D14*
X160657999Y-91420000D03*
X173584999Y-93960000D03*
%TD*%
D11*
%TO.C,SW19*%
X189919999Y-77499999D03*
D12*
X191189999Y-74959999D03*
X192459999Y-72419999D03*
D13*
X194999999Y-77499999D03*
D12*
X197539999Y-72419999D03*
X198809999Y-74959999D03*
D11*
X200079999Y-77499999D03*
D14*
X189157999Y-72419999D03*
X202084999Y-74959999D03*
%TD*%
D11*
%TO.C,SW26*%
X199420000Y-96500000D03*
D12*
X200690000Y-93960000D03*
X201960000Y-91420000D03*
D13*
X204500000Y-96500000D03*
D12*
X207040000Y-91420000D03*
X208310000Y-93960000D03*
D11*
X209580000Y-96500000D03*
D14*
X198658000Y-91420000D03*
X211585000Y-93960000D03*
%TD*%
D11*
%TO.C,SW11*%
X161420000Y-58500000D03*
D12*
X162690000Y-55960000D03*
X163960000Y-53420000D03*
D13*
X166500000Y-58500000D03*
D12*
X169040000Y-53420000D03*
X170310000Y-55960000D03*
D11*
X171580000Y-58500000D03*
D14*
X160658000Y-53420000D03*
X173585000Y-55960000D03*
%TD*%
D11*
%TO.C,SW13*%
X199420000Y-58500000D03*
D12*
X200690000Y-55960000D03*
X201960000Y-53420000D03*
D13*
X204500000Y-58500000D03*
D12*
X207040000Y-53420000D03*
X208310000Y-55960000D03*
D11*
X209580000Y-58500000D03*
D14*
X198658000Y-53420000D03*
X211585000Y-55960000D03*
%TD*%
D11*
%TO.C,SW27*%
X218420000Y-96500000D03*
D12*
X219690000Y-93960000D03*
X220960000Y-91420000D03*
D13*
X223500000Y-96500000D03*
D12*
X226040000Y-91420000D03*
X227310000Y-93960000D03*
D11*
X228580000Y-96500000D03*
D14*
X217658000Y-91420000D03*
X230585000Y-93960000D03*
%TD*%
D11*
%TO.C,SW25*%
X180420000Y-96499998D03*
D12*
X181690000Y-93959998D03*
X182960000Y-91419998D03*
D13*
X185500000Y-96499998D03*
D12*
X188040000Y-91419998D03*
X189310000Y-93959998D03*
D11*
X190580000Y-96499998D03*
D14*
X179658000Y-91419998D03*
X192585000Y-93959998D03*
%TD*%
D11*
%TO.C,SW17*%
X151920000Y-77500000D03*
D12*
X153190000Y-74960000D03*
X154460000Y-72420000D03*
D13*
X157000000Y-77500000D03*
D12*
X159540000Y-72420000D03*
X160810000Y-74960000D03*
D11*
X162080000Y-77500000D03*
D14*
X151158000Y-72420000D03*
X164085000Y-74960000D03*
%TD*%
D11*
%TO.C,SW6*%
X189920000Y-39499999D03*
D12*
X191190000Y-36959999D03*
X192460000Y-34419999D03*
D13*
X195000000Y-39499999D03*
D12*
X197540000Y-34419999D03*
X198810000Y-36959999D03*
D11*
X200080000Y-39499999D03*
D14*
X189158000Y-34419999D03*
X202085000Y-36959999D03*
%TD*%
D11*
%TO.C,SW23*%
X141647501Y-97806881D03*
D12*
X142691293Y-95165859D03*
X143735084Y-92524837D03*
D13*
X146708170Y-97364130D03*
D12*
X148795753Y-92082085D03*
X150282296Y-94501732D03*
D11*
X151768839Y-96921379D03*
D31*
X140445649Y-92812625D03*
X153544834Y-94216297D03*
%TD*%
D11*
%TO.C,SW28*%
X99635608Y-124079938D03*
D12*
X100445247Y-121357993D03*
X101254887Y-118636048D03*
D13*
X104638431Y-123197805D03*
D12*
X106257710Y-117753915D03*
X107949482Y-120034794D03*
D11*
X109641254Y-122315672D03*
D25*
X98003051Y-119209434D03*
X111174728Y-119466096D03*
%TD*%
D11*
%TO.C,SW8*%
X98723784Y-66361400D03*
D12*
X99533423Y-63639455D03*
X100343063Y-60917510D03*
D13*
X103726607Y-65479267D03*
D12*
X105345886Y-60035377D03*
X107037658Y-62316256D03*
D11*
X108729430Y-64597134D03*
D25*
X97091227Y-61490896D03*
X110262904Y-61747558D03*
%TD*%
D11*
%TO.C,SW1*%
X93947257Y-47910525D03*
D12*
X94756896Y-45188580D03*
X95566536Y-42466635D03*
D13*
X98950080Y-47028392D03*
D12*
X100569359Y-41584502D03*
X102261131Y-43865381D03*
D11*
X103952903Y-46146259D03*
D25*
X92314700Y-43040021D03*
X105486377Y-43296683D03*
%TD*%
D11*
%TO.C,SW2*%
X112658604Y-44611210D03*
D12*
X113468243Y-41889265D03*
X114277883Y-39167320D03*
D13*
X117661427Y-43729077D03*
D12*
X119280706Y-38285187D03*
X120972478Y-40566066D03*
D11*
X122664250Y-42846944D03*
D25*
X111026047Y-39740706D03*
X124197724Y-39997368D03*
%TD*%
D11*
%TO.C,SW21*%
X111019526Y-102779540D03*
D12*
X110209887Y-105501485D03*
X109400247Y-108223430D03*
D13*
X106016703Y-103661673D03*
D12*
X104397424Y-109105563D03*
X102705652Y-106824684D03*
D11*
X101013880Y-104543806D03*
D32*
X112652083Y-107650044D03*
X99480406Y-107393382D03*
%TD*%
D11*
%TO.C,SW21*%
X110369554Y-102894148D03*
D12*
X111179193Y-100172203D03*
X111988833Y-97450258D03*
D13*
X115372377Y-102012015D03*
D12*
X116991656Y-96568125D03*
X118683428Y-98849004D03*
D11*
X120375200Y-101129882D03*
D25*
X108736997Y-98023644D03*
X121908674Y-98280306D03*
%TD*%
D11*
%TO.C,SW3*%
X132111352Y-39978902D03*
D12*
X133155144Y-37337880D03*
X134198935Y-34696858D03*
D13*
X137172021Y-39536151D03*
D12*
X139259604Y-34254106D03*
X140746147Y-36673753D03*
D11*
X142232690Y-39093400D03*
D31*
X130909500Y-34984646D03*
X144008685Y-36388318D03*
%TD*%
D11*
%TO.C,SW5*%
X170920000Y-39500000D03*
D12*
X172190000Y-36960000D03*
X173460000Y-34420000D03*
D13*
X176000000Y-39500000D03*
D12*
X178540000Y-34420000D03*
X179810000Y-36960000D03*
D11*
X181080000Y-39500000D03*
D14*
X170158000Y-34420000D03*
X183085000Y-36960000D03*
%TD*%
D11*
%TO.C,SW20*%
X208920000Y-77500001D03*
D12*
X210190000Y-74960001D03*
X211460000Y-72420001D03*
D13*
X214000000Y-77500001D03*
D12*
X216540000Y-72420001D03*
X217810000Y-74960001D03*
D11*
X219080000Y-77500001D03*
D14*
X208158000Y-72420001D03*
X221085000Y-74960001D03*
%TD*%
D11*
%TO.C,SW18*%
X170920000Y-77499999D03*
D12*
X172190000Y-74959999D03*
X173460000Y-72419999D03*
D13*
X176000000Y-77499999D03*
D12*
X178540000Y-72419999D03*
X179810000Y-74959999D03*
D11*
X181080000Y-77499999D03*
D14*
X170158000Y-72419999D03*
X183085000Y-74959999D03*
%TD*%
D11*
%TO.C,SW9*%
X122112968Y-62237256D03*
D12*
X122922607Y-59515311D03*
X123732247Y-56793366D03*
D13*
X127115791Y-61355123D03*
D12*
X128735070Y-55911233D03*
X130426842Y-58192112D03*
D11*
X132118614Y-60472990D03*
D25*
X120480411Y-57366752D03*
X133652088Y-57623414D03*
%TD*%
D11*
%TO.C,SW22*%
X132069792Y-99067810D03*
D12*
X131260153Y-101789755D03*
X130450513Y-104511700D03*
D13*
X127066969Y-99949943D03*
D12*
X125447690Y-105393833D03*
X123755918Y-103112954D03*
D11*
X122064146Y-100832076D03*
D32*
X133702349Y-103938314D03*
X120530672Y-103681652D03*
%TD*%
D11*
%TO.C,SW7*%
X208920000Y-39500000D03*
D12*
X210190000Y-36960000D03*
X211460000Y-34420000D03*
D13*
X214000000Y-39500000D03*
D12*
X216540000Y-34420000D03*
X217810000Y-36960000D03*
D11*
X219080000Y-39500000D03*
D14*
X208158000Y-34420000D03*
X221085000Y-36960000D03*
%TD*%
D11*
%TO.C,SW12*%
X180420000Y-58499999D03*
D12*
X181690000Y-55959999D03*
X182960000Y-53419999D03*
D13*
X185500000Y-58499999D03*
D12*
X188040000Y-53419999D03*
X189310000Y-55959999D03*
D11*
X190580000Y-58499999D03*
D14*
X179658000Y-53419999D03*
X192585000Y-55959999D03*
%TD*%
D11*
%TO.C,SW4*%
X151920000Y-39500000D03*
D12*
X153190000Y-36960000D03*
X154460000Y-34420000D03*
D13*
X157000000Y-39500000D03*
D12*
X159540000Y-34420000D03*
X160810000Y-36960000D03*
D11*
X162080000Y-39500000D03*
D14*
X151158000Y-34420000D03*
X164085000Y-36960000D03*
%TD*%
D11*
%TO.C,SW10*%
X142420000Y-58500000D03*
D12*
X143690000Y-55960000D03*
X144960000Y-53420000D03*
D13*
X147500000Y-58500000D03*
D12*
X150040000Y-53420000D03*
X151310000Y-55960000D03*
D11*
X152580000Y-58500000D03*
D14*
X141658000Y-53420000D03*
X154585000Y-55960000D03*
%TD*%
D11*
%TO.C,SW16*%
X131567332Y-79863302D03*
D12*
X132376971Y-77141357D03*
X133186611Y-74419412D03*
D13*
X136570155Y-78981169D03*
D12*
X138189434Y-73537279D03*
X139881206Y-75818158D03*
D11*
X141572978Y-78099036D03*
D25*
X129934775Y-74992798D03*
X143106452Y-75249460D03*
%TD*%
D11*
%TO.C,SW14*%
X218419999Y-58500000D03*
D12*
X219689999Y-55960000D03*
X220959999Y-53420000D03*
D13*
X223499999Y-58500000D03*
D12*
X226039999Y-53420000D03*
X227309999Y-55960000D03*
D11*
X228579999Y-58500000D03*
D14*
X217657999Y-53420000D03*
X230584999Y-55960000D03*
%TD*%
M02*
