M48
; DRILL file {KiCad 9.0.4} date 2026-03-31T17:18:41+0900
; FORMAT={-:-/ absolute / metric / decimal}
; #@! TF.CreationDate,2026-03-31T17:18:41+09:00
; #@! TF.GenerationSoftware,Kicad,Pcbnew,9.0.4
; #@! TF.FileFunction,Plated,1,2,PTH
FMAT,2
METRIC
; #@! TA.AperFunction,Plated,PTH,ViaDrill
T1C0.300
; #@! TA.AperFunction,Plated,PTH,ComponentDrill
T2C0.300
; #@! TA.AperFunction,Plated,PTH,ComponentDrill
T3C0.400
; #@! TA.AperFunction,Plated,PTH,ComponentDrill
T4C0.600
; #@! TA.AperFunction,Plated,PTH,ComponentDrill
T5C0.813
; #@! TA.AperFunction,Plated,PTH,ComponentDrill
T6C0.900
%
G90
G05
T1
X66.75Y-60.5
X67.0Y-29.0
X67.0Y-70.5
X67.0Y-126.5
X72.5Y-62.0
X74.0Y-65.25
X75.0Y-65.25
X75.75Y-62.5
X76.0Y-65.25
X76.25Y-71.0
X76.75Y-62.5
X77.75Y-62.5
X78.25Y-93.25
X78.25Y-122.0
X78.25Y-124.5
X79.65Y-71.0
X80.0Y-77.0
X80.0Y-78.0
X80.0Y-79.0
X80.0Y-80.0
X80.0Y-81.0
X80.0Y-82.0
X80.0Y-83.0
X84.0Y-29.0
X85.0Y-126.5
X88.25Y-53.68
X88.25Y-49.68
X88.25Y-50.68
X88.25Y-51.68
X88.25Y-54.68
X88.25Y-52.68
X88.25Y-55.68
X89.0Y-69.25
X90.0Y-69.25
X90.0Y-94.5
X90.0Y-97.0
X90.0Y-99.5
X90.0Y-102.0
X90.0Y-104.5
X90.0Y-107.0
X90.0Y-109.5
X90.0Y-112.0
X90.0Y-114.5
X90.0Y-117.0
X90.0Y-119.5
X91.0Y-69.25
X92.0Y-69.25
X92.5Y-37.75
X93.0Y-69.25
X93.5Y-37.75
X93.75Y-121.0
X94.0Y-69.25
X94.068Y-83.896
X94.95Y-88.899
X95.0Y-69.25
X95.5Y-50.0
X95.5Y-133.0
X96.0Y-29.0
X98.5Y-112.0
X99.529Y-80.354
X99.75Y-101.5
X101.293Y-90.36
X102.625Y-39.125
X103.25Y-62.5
X105.0Y-47.75
X106.0Y-47.75
X106.357Y-79.15
X107.0Y-47.75
X108.0Y-47.75
X108.122Y-89.156
X109.0Y-47.75
X109.5Y-53.75
X110.0Y-47.75
X111.0Y-47.75
X112.701Y-80.611
X113.583Y-85.614
X114.75Y-45.75
X115.0Y-118.5
X116.125Y-81.0
X119.0Y-108.5
X120.5Y-72.5
X121.5Y-72.5
X122.5Y-72.5
X123.5Y-72.5
X124.0Y-34.0
X124.5Y-72.5
X125.0Y-96.0
X125.5Y-72.5
X126.75Y-57.75
X128.75Y-48.25
X130.0Y-35.0
X134.0Y-42.0
X135.5Y-103.5
X135.5Y-126.0
X137.5Y-84.5
X137.5Y-106.5
X145.25Y-30.25
X147.0Y-101.5
X147.5Y-62.0
X152.5Y-46.75
X157.0Y-42.5
X157.0Y-81.0
X162.75Y-124.0
X166.5Y-62.0
X166.5Y-100.0
X171.5Y-46.75
X176.0Y-42.5
X176.0Y-81.0
X185.5Y-62.0
X185.5Y-100.0
X190.5Y-46.75
X195.0Y-42.5
X195.0Y-81.5
X199.125Y-113.625
X200.25Y-115.5
X204.5Y-62.0
X204.5Y-100.0
X205.125Y-117.375
X209.5Y-46.75
X214.0Y-42.5
X214.0Y-81.5
X221.0Y-46.75
X223.099Y-44.599
X223.5Y-62.0
X223.5Y-100.0
X224.5Y-37.7
X225.5Y-29.0
X227.25Y-43.0
X231.25Y-49.0
X232.0Y-29.0
X232.0Y-67.0
X232.0Y-88.0
X232.0Y-124.0
T2
X92.745Y-44.383
X97.521Y-62.834
X98.433Y-120.552
X101.091Y-108.27
X103.876Y-42.42
X108.653Y-60.871
X109.167Y-99.366
X109.565Y-118.589
X111.456Y-41.083
X112.222Y-106.307
X119.484Y-116.84
X120.298Y-97.404
X120.911Y-58.709
X122.141Y-104.558
X122.588Y-39.121
X130.365Y-76.335
X130.615Y-114.878
X131.221Y-36.36
X132.042Y-56.747
X133.272Y-102.596
X140.757Y-94.188
X141.496Y-74.373
X141.849Y-54.817
X142.481Y-35.375
X151.349Y-35.817
X151.349Y-73.817
X152.017Y-93.203
X153.151Y-54.817
X160.848Y-92.817
X160.849Y-54.817
X162.651Y-35.817
X162.651Y-73.817
X165.598Y-111.817
X167.974Y-119.183
X170.349Y-35.817
X170.349Y-73.817
X172.151Y-92.817
X172.151Y-54.817
X176.902Y-111.817
X179.276Y-119.183
X179.849Y-54.817
X179.849Y-92.817
X181.651Y-35.817
X181.651Y-73.817
X189.348Y-73.817
X189.349Y-35.817
X191.151Y-54.817
X191.151Y-92.817
X191.723Y-119.183
X198.849Y-54.817
X198.849Y-92.817
X200.651Y-73.817
X200.651Y-35.817
X201.224Y-111.817
X203.027Y-119.183
X208.349Y-35.817
X208.349Y-73.817
X210.151Y-54.817
X210.151Y-92.817
X212.527Y-111.817
X215.473Y-119.183
X217.848Y-54.817
X217.849Y-92.817
X219.651Y-35.817
X219.651Y-73.817
X226.777Y-119.183
X229.151Y-54.817
X229.151Y-92.817
T3
X72.19Y-34.82
X72.19Y-37.36
X72.19Y-39.9
X72.19Y-42.44
X72.19Y-44.98
X72.19Y-47.52
X72.19Y-50.06
X72.19Y-52.6
X72.19Y-55.14
X72.19Y-57.68
X72.19Y-60.22
X79.81Y-32.28
X79.81Y-34.82
X79.81Y-37.36
X79.81Y-39.9
X79.81Y-42.44
X79.81Y-44.98
X79.81Y-47.52
X79.81Y-50.06
X79.81Y-52.6
X79.81Y-55.14
X79.81Y-57.68
X79.81Y-60.22
T4
X72.19Y-32.28
T5
X68.69Y-99.5
X68.69Y-92.0
X68.69Y-97.0
X68.69Y-102.0
X68.69Y-119.5
X68.69Y-77.0
X68.69Y-84.5
X68.69Y-89.5
X68.69Y-104.5
X68.69Y-124.5
X68.69Y-79.5
X68.69Y-82.0
X68.69Y-87.0
X68.69Y-94.5
X68.69Y-107.0
X68.69Y-109.5
X68.69Y-114.5
X68.69Y-122.0
X68.69Y-112.0
X68.69Y-117.0
X76.31Y-99.5
X76.31Y-92.0
X76.31Y-97.0
X76.31Y-102.0
X76.31Y-119.5
X76.31Y-77.0
X76.31Y-84.5
X76.31Y-89.5
X76.31Y-104.5
X76.31Y-124.5
X76.31Y-79.5
X76.31Y-82.0
X76.31Y-87.0
X76.31Y-94.5
X76.31Y-107.0
X76.31Y-109.5
X76.31Y-114.5
X76.31Y-122.0
X76.31Y-112.0
X76.31Y-117.0
X79.94Y-115.75
X79.94Y-113.25
X79.94Y-110.75
X79.94Y-95.75
X79.94Y-103.25
X79.94Y-108.25
X79.94Y-100.75
X79.94Y-118.25
X79.94Y-98.25
X79.94Y-120.75
X79.94Y-93.25
X79.94Y-105.75
X87.56Y-115.75
X87.56Y-113.25
X87.56Y-110.75
X87.56Y-95.75
X87.56Y-103.25
X87.56Y-108.25
X87.56Y-100.75
X87.56Y-118.25
X87.56Y-98.25
X87.56Y-120.75
X87.56Y-93.25
X87.56Y-105.75
T6
G00X226.7Y-30.9
M15
G01X226.7Y-30.5
M16
G05
G00X226.7Y-33.9
M15
G01X226.7Y-33.5
M16
G05
G00X226.7Y-37.9
M15
G01X226.7Y-37.5
M16
G05
G00X226.7Y-38.6
M15
G01X226.7Y-39.0
M16
G05
G00X231.3Y-30.5
M15
G01X231.3Y-30.9
M16
G05
G00X231.3Y-33.5
M15
G01X231.3Y-33.9
M16
G05
G00X231.3Y-37.5
M15
G01X231.3Y-37.9
M16
G05
G00X231.3Y-39.0
M15
G01X231.3Y-38.6
M16
G05
M30
