  0
SECTION
  2
HEADER
  9
$ACADVER
  1
AC1015
  9
$ACADMAINTVER
 70
    20
  9
$DWGCODEPAGE
  3
ANSI_1252
  9
$INSBASE
 10
0.0
 20
0.0
 30
0.0
  9
$EXTMIN
 10
-179.0
 20
21.095459162895
 30
0.0
  9
$EXTMAX
 10
-2.0
 20
132.5
 30
0.0
  9
$LIMMIN
 10
-179.0
 20
21.095459162895
  9
$LIMMAX
 10
-2.0
 20
132.5
  9
$ORTHOMODE
 70
     0
  9
$REGENMODE
 70
     1
  9
$FILLMODE
 70
     1
  9
$QTEXTMODE
 70
     0
  9
$MIRRTEXT
 70
     0
  9
$LTSCALE
 40
1.0
  9
$ATTMODE
 70
     1
  9
$TEXTSIZE
 40
2.5
  9
$TRACEWID
 40
1.0
  9
$TEXTSTYLE
  7
Standard
  9
$CLAYER
  8
0
  9
$CELTYPE
  6
ByLayer
  9
$CECOLOR
 62
   256
  9
$CELTSCALE
 40
1.0
  9
$DISPSILH
 70
     0
  9
$DIMSCALE
 40
1.0
  9
$DIMASZ
 40
2.5
  9
$DIMEXO
 40
0.625
  9
$DIMDLI
 40
3.75
  9
$DIMRND
 40
0.0
  9
$DIMDLE
 40
0.0
  9
$DIMEXE
 40
1.25
  9
$DIMTP
 40
0.0
  9
$DIMTM
 40
0.0
  9
$DIMTXT
 40
2.5
  9
$DIMCEN
 40
2.5
  9
$DIMTSZ
 40
0.0
  9
$DIMTOL
 70
     0
  9
$DIMLIM
 70
     0
  9
$DIMTIH
 70
     0
  9
$DIMTOH
 70
     0
  9
$DIMSE1
 70
     0
  9
$DIMSE2
 70
     0
  9
$DIMTAD
 70
     1
  9
$DIMZIN
 70
     8
  9
$DIMBLK
  1

  9
$DIMASO
 70
     1
  9
$DIMSHO
 70
     1
  9
$DIMPOST
  1

  9
$DIMAPOST
  1

  9
$DIMALT
 70
     0
  9
$DIMALTD
 70
     3
  9
$DIMALTF
 40
0.03937007874
  9
$DIMLFAC
 40
1.0
  9
$DIMTOFL
 70
     1
  9
$DIMTVP
 40
0.0
  9
$DIMTIX
 70
     0
  9
$DIMSOXD
 70
     0
  9
$DIMSAH
 70
     0
  9
$DIMBLK1
  1

  9
$DIMBLK2
  1

  9
$DIMSTYLE
  2
ISO-25
  9
$DIMCLRD
 70
     0
  9
$DIMCLRE
 70
     0
  9
$DIMCLRT
 70
     0
  9
$DIMTFAC
 40
1.0
  9
$DIMGAP
 40
0.625
  9
$DIMJUST
 70
     0
  9
$DIMSD1
 70
     0
  9
$DIMSD2
 70
     0
  9
$DIMTOLJ
 70
     0
  9
$DIMTZIN
 70
     8
  9
$DIMALTZ
 70
     0
  9
$DIMALTTZ
 70
     0
  9
$DIMUPT
 70
     0
  9
$DIMDEC
 70
     2
  9
$DIMTDEC
 70
     2
  9
$DIMALTU
 70
     2
  9
$DIMALTTD
 70
     3
  9
$DIMTXSTY
  7
Standard
  9
$DIMAUNIT
 70
     0
  9
$DIMADEC
 70
     0
  9
$DIMALTRND
 40
0.0
  9
$DIMAZIN
 70
     0
  9
$DIMDSEP
 70
    44
  9
$DIMATFIT
 70
     3
  9
$DIMFRAC
 70
     0
  9
$DIMLDRBLK
  1

  9
$DIMLUNIT
 70
     2
  9
$DIMLWD
 70
    -2
  9
$DIMLWE
 70
    -2
  9
$DIMTMOVE
 70
     0
  9
$LUNITS
 70
     2
  9
$LUPREC
 70
     4
  9
$SKETCHINC
 40
1.0
  9
$FILLETRAD
 40
0.0
  9
$AUNITS
 70
     0
  9
$AUPREC
 70
     0
  9
$MENU
  1
.
  9
$ELEVATION
 40
0.0
  9
$PELEVATION
 40
0.0
  9
$THICKNESS
 40
0.0
  9
$LIMCHECK
 70
     0
  9
$CHAMFERA
 40
0.0
  9
$CHAMFERB
 40
0.0
  9
$CHAMFERC
 40
0.0
  9
$CHAMFERD
 40
0.0
  9
$SKPOLY
 70
     0
  9
$TDCREATE
 40
2456236.994979560841
  9
$TDUCREATE
 40
2456237.328312892932
  9
$TDUPDATE
 40
2456236.997909063008
  9
$TDUUPDATE
 40
2456237.331242396031
  9
$TDINDWG
 40
0.0029298727
  9
$TDUSRTIMER
 40
0.0029298727
  9
$USRTIMER
 70
     1
  9
$ANGBASE
 50
0.0
  9
$ANGDIR
 70
     0
  9
$PDMODE
 70
     0
  9
$PDSIZE
 40
0.0
  9
$PLINEWID
 40
0.0
  9
$SPLFRAME
 70
     0
  9
$SPLINETYPE
 70
     6
  9
$SPLINESEGS
 70
     8
  9
$HANDSEED
  5
cd
  9
$SURFTAB1
 70
     6
  9
$SURFTAB2
 70
     6
  9
$SURFTYPE
 70
     6
  9
$SURFU
 70
     6
  9
$SURFV
 70
     6
  9
$UCSBASE
  2

  9
$UCSNAME
  2

  9
$UCSORG
 10
0.0
 20
0.0
 30
0.0
  9
$UCSXDIR
 10
1.0
 20
0.0
 30
0.0
  9
$UCSYDIR
 10
0.0
 20
1.0
 30
0.0
  9
$UCSORTHOREF
  2

  9
$UCSORTHOVIEW
 70
     0
  9
$UCSORGTOP
 10
0.0
 20
0.0
 30
0.0
  9
$UCSORGBOTTOM
 10
0.0
 20
0.0
 30
0.0
  9
$UCSORGLEFT
 10
0.0
 20
0.0
 30
0.0
  9
$UCSORGRIGHT
 10
0.0
 20
0.0
 30
0.0
  9
$UCSORGFRONT
 10
0.0
 20
0.0
 30
0.0
  9
$UCSORGBACK
 10
0.0
 20
0.0
 30
0.0
  9
$PUCSBASE
  2

  9
$PUCSNAME
  2

  9
$PUCSORG
 10
0.0
 20
0.0
 30
0.0
  9
$PUCSXDIR
 10
1.0
 20
0.0
 30
0.0
  9
$PUCSYDIR
 10
0.0
 20
1.0
 30
0.0
  9
$PUCSORTHOREF
  2

  9
$PUCSORTHOVIEW
 70
     0
  9
$PUCSORGTOP
 10
0.0
 20
0.0
 30
0.0
  9
$PUCSORGBOTTOM
 10
0.0
 20
0.0
 30
0.0
  9
$PUCSORGLEFT
 10
0.0
 20
0.0
 30
0.0
  9
$PUCSORGRIGHT
 10
0.0
 20
0.0
 30
0.0
  9
$PUCSORGFRONT
 10
0.0
 20
0.0
 30
0.0
  9
$PUCSORGBACK
 10
0.0
 20
0.0
 30
0.0
  9
$USERI1
 70
     0
  9
$USERI2
 70
     0
  9
$USERI3
 70
     0
  9
$USERI4
 70
     0
  9
$USERI5
 70
     0
  9
$USERR1
 40
0.0
  9
$USERR2
 40
0.0
  9
$USERR3
 40
0.0
  9
$USERR4
 40
0.0
  9
$USERR5
 40
0.0
  9
$WORLDVIEW
 70
     1
  9
$SHADEDGE
 70
     3
  9
$SHADEDIF
 70
    70
  9
$TILEMODE
 70
     1
  9
$MAXACTVP
 70
    64
  9
$PINSBASE
 10
0.0
 20
0.0
 30
0.0
  9
$PLIMCHECK
 70
     0
  9
$PEXTMIN
 10
100000000000000000000.0
 20
100000000000000000000.0
 30
100000000000000000000.0
  9
$PEXTMAX
 10
-100000000000000000000.0
 20
-100000000000000000000.0
 30
-100000000000000000000.0
  9
$PLIMMIN
 10
0.0
 20
0.0
  9
$PLIMMAX
 10
420.0
 20
297.0
  9
$UNITMODE
 70
     0
  9
$VISRETAIN
 70
     1
  9
$PLINEGEN
 70
     0
  9
$PSLTSCALE
 70
     1
  9
$TREEDEPTH
 70
  3020
  9
$CMLSTYLE
  2
Standard
  9
$CMLJUST
 70
     0
  9
$CMLSCALE
 40
20.0
  9
$PROXYGRAPHICS
 70
     1
  9
$MEASUREMENT
 70
     1
  9
$CELWEIGHT
370
-1
  9
$ENDCAPS
280
     0
  9
$JOINSTYLE
280
     0
  9
$LWDISPLAY
290
0
  9
$INSUNITS
 70
     0
  9
$HYPERLINKBASE
  1

  9
$STYLESHEET
  1

  9
$XEDIT
290
1
  9
$CEPSNTYPE
380
0
  9
$PSTYLEMODE
290
1
  9
$FINGERPRINTGUID
  2
{9F64BE1D-7005-473A-A8E1-C681473DCB35}
  9
$VERSIONGUID
  2
{14C65E86-4364-4B17-B71B-D4CF0DEE0ACB}
  9
$EXTNAMES
290
1
  9
$PSVPSCALE
 40
0.0
  9
$OLESTARTUP
290
0
  0
ENDSEC
  0
SECTION
  2
CLASSES
  0
CLASS
  1
ACDBDICTIONARYWDFLT
  2
AcDbDictionaryWithDefault
  3
ObjectDBX Classes
 90
     0
280
     0
281
     0
  0
CLASS
  1
MATERIAL
  2
AcDbMaterial
  3
ObjectDBX Classes
 90
  1153
280
     0
281
     0
  0
CLASS
  1
VISUALSTYLE
  2
AcDbVisualStyle
  3
ObjectDBX Classes
 90
  4095
280
     0
281
     0
  0
CLASS
  1
SCALE
  2
AcDbScale
  3
ObjectDBX Classes
 90
  1153
280
     0
281
     0
  0
CLASS
  1
TABLESTYLE
  2
AcDbTableStyle
  3
ObjectDBX Classes
 90
  4095
280
     0
281
     0
  0
CLASS
  1
MLEADERSTYLE
  2
AcDbMLeaderStyle
  3
ACDB_MLEADERSTYLE_CLASS
 90
  4095
280
     0
281
     0
  0
CLASS
  1
DICTIONARYVAR
  2
AcDbDictionaryVar
  3
ObjectDBX Classes
 90
     0
280
     0
281
     0
  0
CLASS
  1
CELLSTYLEMAP
  2
AcDbCellStyleMap
  3
ObjectDBX Classes
 90
  1152
280
     0
281
     0
  0
CLASS
  1
ACDBPLACEHOLDER
  2
AcDbPlaceHolder
  3
ObjectDBX Classes
 90
     0
280
     0
281
     0
  0
CLASS
  1
LAYOUT
  2
AcDbLayout
  3
ObjectDBX Classes
 90
     0
280
     0
281
     0
  0
ENDSEC
  0
SECTION
  2
TABLES
  0
TABLE
  2
VPORT
  5
8
330
0
100
AcDbSymbolTable
 70
     1
  0
VPORT
  5
5F
330
8
100
AcDbSymbolTableRecord
100
AcDbViewportTableRecord
  2
*Active
 70
     0
 10
0.0
 20
0.0
 11
1.0
 21
1.0
 12
362.004492939666
 22
148.5
 13
0.0
 23
0.0
 14
10.0
 24
10.0
 15
10.0
 25
10.0
 16
0.0
 26
0.0
 36
1.0
 17
-179.0
 27
21.095459162895
 37
0.0
 40
297.0
 41
2.437740693196
 42
50.0
 43
0.0
 44
0.0
 50
0.0
 51
0.0
 71
     0
 72
  1000
 73
     1
 74
     3
 75
     0
 76
     0
 77
     0
 78
     0
281
     0
 65
     1
110
0.0
120
0.0
130
0.0
111
1.0
121
0.0
131
0.0
112
0.0
122
1.0
132
0.0
 79
     0
146
0.0
  0
ENDTAB
  0
TABLE
  2
LTYPE
  5
5
330
0
100
AcDbSymbolTable
 70
     3
  0
LTYPE
  5
63
330
5
100
AcDbSymbolTableRecord
100
AcDbLinetypeTableRecord
  2
ByBlock
 70
     0
  3

 72
    65
 73
     0
 40
0.0
  0
LTYPE
  5
64
330
5
100
AcDbSymbolTableRecord
100
AcDbLinetypeTableRecord
  2
ByLayer
 70
     0
  3

 72
    65
 73
     0
 40
0.0
  0
LTYPE
  5
65
330
5
100
AcDbSymbolTableRecord
100
AcDbLinetypeTableRecord
  2
Continuous
 70
     0
  3
Solid line
 72
    65
 73
     0
 40
0.0
  0
ENDTAB
  0
TABLE
  2
LAYER
  5
2
330
0
100
AcDbSymbolTable
 70
     2
  0
LAYER
  5
5C
102
{ACAD_XDICTIONARY
360
9A
102
}
330
2
100
AcDbSymbolTableRecord
100
AcDbLayerTableRecord
 70
     0
  6
Continuous
370
-3
390
F
  2
0
 62
     7
  0
LAYER
  5
b8
100
AcDbSymbolTableRecord
100
AcDbLayerTableRecord
  6
Continuous
 70
     0
370
-3
390
F
  2
BackPlate
 62
   120
  0
ENDTAB
  0
TABLE
  2
STYLE
  5
3
330
0
100
AcDbSymbolTable
 70
     2
  0
STYLE
  5
5D
330
3
100
AcDbSymbolTableRecord
100
AcDbTextStyleTableRecord
  2
Standard
 70
     0
 40
0.0
 41
1.0
 50
0.0
 71
     0
 42
2.5
  3
txt
  4

  0
STYLE
  5
62
330
3
100
AcDbSymbolTableRecord
100
AcDbTextStyleTableRecord
  2
Annotative
 70
     0
 40
0.0
 41
1.0
 50
0.0
 71
     0
 42
0.2
  3

  4

1001
AcadAnnotative
1000
AnnotativeData
1002
{
1070
     1
1070
     1
1002
}
  0
ENDTAB
  0
TABLE
  2
VIEW
  5
6
330
0
100
AcDbSymbolTable
 70
     0
  0
ENDTAB
  0
TABLE
  2
UCS
  5
7
330
0
100
AcDbSymbolTable
 70
     0
  0
ENDTAB
  0
TABLE
  2
APPID
  5
9
330
0
100
AcDbSymbolTable
 70
     5
  0
APPID
  5
5E
330
9
100
AcDbSymbolTableRecord
100
AcDbRegAppTableRecord
  2
ACAD
 70
     0
  0
APPID
  5
66
330
9
100
AcDbSymbolTableRecord
100
AcDbRegAppTableRecord
  2
AcadAnnotative
 70
     0
  0
APPID
  5
70
330
9
100
AcDbSymbolTableRecord
100
AcDbRegAppTableRecord
  2
ACAD_MLEADERVER
 70
     0
  0
APPID
  5
80
330
9
100
AcDbSymbolTableRecord
100
AcDbRegAppTableRecord
  2
ACAD_EXEMPT_FROM_CAD_STANDARDS
 70
     0
  0
APPID
  5
AF
330
9
100
AcDbSymbolTableRecord
100
AcDbRegAppTableRecord
  2
ACAD_DSTYLE_DIMJOGGED_JOGANGLE_SYMBOL
 70
     0
  0
ENDTAB
  0
TABLE
  2
DIMSTYLE
  5
A
330
0
100
AcDbSymbolTable
100
AcDbDimStyleTable
 71
     1
340
60
 70
     2
  0
DIMSTYLE
105
60
330
A
100
AcDbSymbolTableRecord
100
AcDbDimStyleTableRecord
  2
ISO-25
 70
     0
 41
2.5
 42
0.625
 43
3.75
 44
1.25
 73
     0
 74
     0
 77
     1
 78
     8
140
2.5
141
2.5
143
0.03937007874
147
0.625
171
     3
172
     1
271
     2
272
     2
274
     3
278
44
283
     0
284
     8
340
5D
1001
ACAD_DSTYLE_DIMJOGGED_JOGANGLE_SYMBOL
1070
   384
1040
1.570796326794896
  0
DIMSTYLE
105
61
330
A
100
AcDbSymbolTableRecord
100
AcDbDimStyleTableRecord
  2
Annotative
 70
     0
340
5D
1001
AcadAnnotative
1000
AnnotativeData
1002
{
1070
     1
1070
     1
1002
}
  0
ENDTAB
  0
TABLE
  2
BLOCK_RECORD
  5
1
330
0
100
AcDbSymbolTable
 70
     3
  0
BLOCK_RECORD
  5
75
330
1
100
AcDbSymbolTableRecord
100
AcDbBlockTableRecord
  2
*Model_Space
340
78
  0
BLOCK_RECORD
  5
71
330
1
100
AcDbSymbolTableRecord
100
AcDbBlockTableRecord
  2
*Paper_Space
340
74
  0
BLOCK_RECORD
  5
79
330
1
100
AcDbSymbolTableRecord
100
AcDbBlockTableRecord
  2
*Paper_Space0
340
7C
  0
ENDTAB
  0
ENDSEC
  0
SECTION
  2
BLOCKS
  0
BLOCK
  5
76
102
{ACAD_REACTORS
330
75
102
}
100
AcDbEntity
  8
0
100
AcDbBlockBegin
  2
*Model_Space
 70
     0
 10
0.0
 20
0.0
 30
0.0
  3
*Model_Space
  1

  0
ENDBLK
  5
77
102
{ACAD_REACTORS
330
75
102
}
100
AcDbEntity
  8
0
100
AcDbBlockEnd
  0
BLOCK
  5
72
102
{ACAD_REACTORS
330
71
102
}
100
AcDbEntity
 67
     1
  8
0
100
AcDbBlockBegin
  2
*Paper_Space
 70
     0
 10
0.0
 20
0.0
 30
0.0
  3
*Paper_Space
  1

  0
ENDBLK
  5
73
102
{ACAD_REACTORS
330
71
102
}
100
AcDbEntity
 67
     1
  8
0
100
AcDbBlockEnd
  0
BLOCK
  5
7A
102
{ACAD_REACTORS
330
79
102
}
100
AcDbEntity
 67
     1
  8
0
100
AcDbBlockBegin
  2
*Paper_Space0
 70
     0
 10
0.0
 20
0.0
 30
0.0
  3
*Paper_Space0
  1

  0
ENDBLK
  5
7B
102
{ACAD_REACTORS
330
79
102
}
100
AcDbEntity
 67
     1
  8
0
100
AcDbBlockEnd
  0
ENDSEC
  0
SECTION
  2
ENTITIES
  0
CIRCLE
  5
b9
100
AcDbEntity
  8
BackPlate
100
AcDbCircle
 10
-6.5
 20
79.0
 30
0.0
 40
1.25
  0
CIRCLE
  5
ba
100
AcDbEntity
  8
BackPlate
100
AcDbCircle
 10
-6.500000000001
 20
128.0
 30
0.0
 40
1.25
  0
CIRCLE
  5
bb
100
AcDbEntity
  8
BackPlate
100
AcDbCircle
 10
-6.5
 20
35.0
 30
0.0
 40
1.25
  0
CIRCLE
  5
bc
100
AcDbEntity
  8
BackPlate
100
AcDbCircle
 10
-174.5
 20
25.595459162895
 30
0.0
 40
1.25
  0
CIRCLE
  5
bd
100
AcDbEntity
  8
BackPlate
100
AcDbCircle
 10
-93.887500687943
 20
34.5
 30
0.0
 40
1.25
  0
CIRCLE
  5
be
100
AcDbEntity
  8
BackPlate
100
AcDbCircle
 10
-174.5
 20
93.5
 30
0.0
 40
1.25
  0
CIRCLE
  5
bf
100
AcDbEntity
  8
BackPlate
100
AcDbCircle
 10
-154.5
 20
128.0
 30
0.0
 40
1.25
  0
SPLINE
  5
c0
100
AcDbEntity
  8
BackPlate
100
AcDbSpline
 70
     9
 71
     3
 72
    68
 73
    64
 74
     0
 42
0.0000001
 43
0.0000001
 40
360.433468639396
 40
360.433468639396
 40
360.433468639396
 40
360.433468639396
 40
434.752434156636
 40
434.752434156636
 40
434.752434156636
 40
435.752434156636
 40
435.752434156636
 40
435.752434156636
 40
544.752434156636
 40
544.752434156636
 40
544.752434156636
 40
545.752434156636
 40
545.752434156636
 40
545.752434156636
 40
628.752502257245
 40
628.752502257245
 40
628.752502257245
 40
629.002502257245
 40
629.002502257245
 40
629.002502257245
 40
629.252502257245
 40
629.252502257245
 40
629.252502257245
 40
629.752463145084
 40
629.752463145084
 40
629.752463145084
 40
652.810005285738
 40
652.810005285738
 40
652.810005285738
 40
653.810005285738
 40
653.810005285738
 40
653.810005285738
 40
684.350327476166
 40
684.350327476166
 40
684.350327476166
 40
685.350327476166
 40
685.350327476166
 40
685.350327476166
 40
803.754868313271
 40
803.754868313271
 40
803.754868313271
 40
804.754868313271
 40
804.754868313271
 40
804.754868313271
 40
879.073833830512
 40
879.073833830512
 40
879.073833830512
 40
879.573833830513
 40
879.573833830513
 40
879.573833830513
 40
880.573833830513
 40
880.573833830513
 40
880.573833830513
 40
892.866727049327
 40
892.866727049327
 40
892.866727049327
 40
905.15962026814
 40
905.15962026814
 40
905.15962026814
 40
906.15962026814
 40
906.15962026814
 40
906.15962026814
 40
906.659620268141
 40
906.659620268141
 40
906.659620268141
 40
906.659620268141
 10
-77.499999999999
 20
132.5
 30
0.0
 10
-52.833333333332
 20
132.5
 30
0.0
 10
-28.166666666666
 20
132.5
 30
0.0
 10
-3.5
 20
132.5
 30
0.0
 10
-2.672324
 20
132.5
 30
0.0
 10
-2.0
 20
131.827676
 30
0.0
 10
-2.0
 20
131.0
 30
0.0
 10
-2.0
 20
98.0
 30
0.0
 10
-2.0
 20
65.0
 30
0.0
 10
-2.0
 20
32.0
 30
0.0
 10
-2.0
 20
31.172324
 30
0.0
 10
-2.672324
 20
30.5
 30
0.0
 10
-3.5
 20
30.5
 30
0.0
 10
-31.166712067091
 20
30.5
 30
0.0
 10
-58.833424134183
 20
30.5
 30
0.0
 10
-86.500136201274
 20
30.5
 30
0.0
 10
-87.619110774503
 20
30.5
 30
0.0
 10
-89.298444446179
 20
30.39241161588
 30
0.0
 10
-91.481028576009
 20
30.170200964758
 30
0.0
 10
-93.66361270584
 20
29.947990313637
 30
0.0
 10
-96.356726623166
 20
29.612702139857
 30
0.0
 10
-99.552184792917
 20
29.164488845603
 30
0.0
 10
-105.942601207322
 20
28.268132379455
 30
0.0
 10
-114.349061096557
 20
26.954696064644
 30
0.0
 10
-124.74196365123
 20
25.122146936382
 30
0.0
 10
-132.311044281844
 20
23.787513802047
 30
0.0
 10
-139.880124912458
 20
22.452880667711
 30
0.0
 10
-147.449205543072
 20
21.118247533376
 30
0.0
 10
-147.535200813232
 20
21.103084247034
 30
0.0
 10
-147.622355923755
 20
21.095459162895
 30
0.0
 10
-147.709677809572
 20
21.095459162895
 30
0.0
 10
-157.639785206381
 20
21.095459162895
 30
0.0
 10
-167.569892603191
 20
21.095459162895
 30
0.0
 10
-177.5
 20
21.095459162895
 30
0.0
 10
-178.327676
 20
21.095459162895
 30
0.0
 10
-179.0
 20
21.767783162895
 30
0.0
 10
-179.0
 20
22.595459162895
 30
0.0
 10
-179.0
 20
58.730306108596
 30
0.0
 10
-179.0
 20
94.865153054298
 30
0.0
 10
-179.0
 20
131.0
 30
0.0
 10
-179.0
 20
131.827676
 30
0.0
 10
-178.327676
 20
132.5
 30
0.0
 10
-177.5
 20
132.5
 30
0.0
 10
-152.833333333333
 20
132.5
 30
0.0
 10
-128.166666666667
 20
132.5
 30
0.0
 10
-103.5
 20
132.5
 30
0.0
 10
-103.382148869804
 20
132.382148869802
 30
0.0
 10
-103.264297739607
 20
132.264297739604
 30
0.0
 10
-103.146446609409
 20
132.146446609407
 30
0.0
 10
-103.052678420183
 20
132.052678420183
 30
0.0
 10
-102.925501463734
 20
132.0
 30
0.0
 10
-102.792893218814
 20
132.0
 30
0.0
 10
-98.695262145876
 20
132.0
 30
0.0
 10
-94.597631072938
 20
132.0
 30
0.0
 10
-90.5
 20
132.0
 30
0.0
 10
-86.402368927063
 20
132.0
 30
0.0
 10
-82.304737854125
 20
132.0
 30
0.0
 10
-78.207106781187
 20
132.0
 30
0.0
 10
-78.074498536267
 20
132.0
 30
0.0
 10
-77.947321579817
 20
132.052678420183
 30
0.0
 10
-77.853553390593
 20
132.146446609406
 30
0.0
 10
-77.735702260395
 20
132.264297739604
 30
0.0
 10
-77.617851130197
 20
132.382148869802
 30
0.0
 10
-77.499999999999
 20
132.5
 30
0.0
  0
SPLINE
  5
c1
100
AcDbEntity
  8
BackPlate
100
AcDbSpline
 70
     9
 71
     3
 72
    97
 73
    93
 74
     0
 42
0.0000001
 43
0.0000001
 40
83.827565519432
 40
83.827565519432
 40
83.827565519432
 40
83.827565519432
 40
83.834366649048
 40
83.841167778665
 40
83.847968908282
 40
83.854770037899
 40
83.861571167515
 40
83.868372297132
 40
83.875173426749
 40
83.881974556366
 40
83.881974556366
 40
83.881974556366
 40
84.006974556366
 40
84.131974556366
 40
84.256974556366
 40
84.381974556366
 40
84.506974556366
 40
84.631974556366
 40
84.756974556366
 40
84.881974556366
 40
84.881974556366
 40
84.881974556366
 40
109.224301777597
 40
109.224301777597
 40
109.224301777597
 40
109.286801777597
 40
109.349301777597
 40
109.411801777597
 40
109.474301777597
 40
109.536801777597
 40
109.599301777597
 40
109.661801777597
 40
109.724301777597
 40
109.786801777597
 40
109.849301777597
 40
109.911801777597
 40
109.974301777597
 40
110.036801777597
 40
110.099301777597
 40
110.161801777597
 40
110.224301777597
 40
110.224301777597
 40
110.224301777597
 40
112.864402630527
 40
112.864402630527
 40
112.864402630527
 40
113.864402630527
 40
113.864402630527
 40
113.864402630527
 40
145.009225635322
 40
145.009225635322
 40
145.009225635322
 40
146.009225635322
 40
146.009225635322
 40
146.009225635322
 40
147.009225635322
 40
147.009225635322
 40
147.009225635322
 40
189.390959247583
 40
189.390959247583
 40
189.390959247583
 40
189.422209247583
 40
189.453459247583
 40
189.484709247583
 40
189.515959247583
 40
189.547209247583
 40
189.578459247583
 40
189.609709247583
 40
189.640959247583
 40
189.672209247583
 40
189.703459247583
 40
189.734709247583
 40
189.765959247583
 40
189.797209247583
 40
189.828459247583
 40
189.859709247583
 40
189.890959247583
 40
189.922209247583
 40
189.953459247583
 40
189.984709247583
 40
190.015959247583
 40
190.047209247583
 40
190.078459247583
 40
190.109709247583
 40
190.140959247583
 40
190.172209247583
 40
190.203459247583
 40
190.234709247583
 40
190.265959247583
 40
190.297209247583
 40
190.359709247583
 40
190.390959247583
 40
190.390959247583
 40
190.390959247583
 40
190.390959247583
 10
-157.999999999998
 20
121.999999999998
 30
0.0
 10
-157.999999999998
 20
121.860286020126
 30
0.0
 10
-158.005578566708
 20
121.57885145883
 30
0.0
 10
-158.031376624424
 20
121.151593307975
 30
0.0
 10
-158.075240651917
 20
120.720222339972
 30
0.0
 10
-158.137737194107
 20
120.285808026483
 30
0.0
 10
-158.219353788503
 20
119.849490485063
 30
0.0
 10
-158.320489449332
 20
119.412473701482
 30
0.0
 10
-158.441445802452
 20
118.976017301794
 30
0.0
 10
-158.535428028673
 20
118.686290522951
 30
0.0
 10
-158.585769285159
 20
118.541961635123
 30
0.0
 10
-158.600359175321
 20
118.500132273527
 30
0.0
 10
-158.624524222377
 20
118.412907497389
 30
0.0
 10
-158.642992188777
 20
118.274236449539
 30
0.0
 10
-158.641701756414
 20
118.131450545282
 30
0.0
 10
-158.619755991295
 20
117.988843511898
 30
0.0
 10
-158.577515872604
 20
117.850879186979
 30
0.0
 10
-158.516597124745
 20
117.721734361959
 30
0.0
 10
-158.439674306517
 20
117.604885719131
 30
0.0
 10
-158.379989009461
 20
117.536843258954
 30
0.0
 10
-158.348663617313
 20
117.505517866806
 30
0.0
 10
-152.611122067982
 20
111.767976317474
 30
0.0
 10
-146.87358051865
 20
106.030434768143
 30
0.0
 10
-141.136038969319
 20
100.292893218812
 30
0.0
 10
-141.124764050565
 20
100.281618300058
 30
0.0
 10
-141.101567137092
 20
100.259500624849
 30
0.0
 10
-141.064904021699
 20
100.227776447182
 30
0.0
 10
-141.026462824678
 20
100.197655216729
 30
0.0
 10
-140.986348936393
 20
100.169280170157
 30
0.0
 10
-140.944682708867
 20
100.142785175333
 30
0.0
 10
-140.901598384724
 20
100.118292809801
 30
0.0
 10
-140.857242736067
 20
100.095912599291
 30
0.0
 10
-140.811773439964
 20
100.075739457589
 30
0.0
 10
-140.765357227059
 20
100.057852375274
 30
0.0
 10
-140.718167848494
 20
100.042313393941
 30
0.0
 10
-140.670383912974
 20
100.029166893931
 30
0.0
 10
-140.622186650437
 20
100.01843921241
 30
0.0
 10
-140.573757660163
 20
100.010138597831
 30
0.0
 10
-140.525276702761
 20
100.004255493051
 30
0.0
 10
-140.476919584091
 20
100.000763136693
 30
0.0
 10
-140.444877331147
 20
99.999999999998
 30
0.0
 10
-140.428932188132
 20
99.999999999998
 30
0.0
 10
-139.552675538805
 20
99.999999999998
 30
0.0
 10
-138.676418889477
 20
99.999999999998
 30
0.0
 10
-137.80016224015
 20
99.999999999998
 30
0.0
 10
-137.55065111752
 20
99.999999999998
 30
0.0
 10
-137.310153220764
 20
100.093276800098
 30
0.0
 10
-137.125892876129
 20
100.26151450607
 30
0.0
 10
-129.459226209462
 20
107.26151450607
 30
0.0
 10
-121.792559542796
 20
114.26151450607
 30
0.0
 10
-114.125892876129
 20
121.26151450607
 30
0.0
 10
-113.821087581887
 20
121.539814992117
 30
0.0
 10
-113.71858066564
 20
121.97678953662
 30
0.0
 10
-113.867830353447
 20
122.361603723756
 30
0.0
 10
-114.017080041255
 20
122.746417910892
 30
0.0
 10
-114.387418460147
 20
122.999999999998
 30
0.0
 10
-114.800162240151
 20
122.999999999998
 30
0.0
 10
-128.866774826766
 20
122.999999999998
 30
0.0
 10
-142.933387413382
 20
122.999999999998
 30
0.0
 10
-156.999999999998
 20
122.999999999998
 30
0.0
 10
-157.014731391272
 20
122.999999999998
 30
0.0
 10
-157.044464216778
 20
122.999348792996
 30
0.0
 10
-157.089759619246
 20
122.996314064738
 30
0.0
 10
-157.135623933611
 20
122.991124399717
 30
0.0
 10
-157.181916996958
 20
122.98369196439
 30
0.0
 10
-157.228486393016
 20
122.973939953211
 30
0.0
 10
-157.275168405401
 20
122.961804429011
 30
0.0
 10
-157.321789274439
 20
122.947236079853
 30
0.0
 10
-157.368166755121
 20
122.930201844614
 30
0.0
 10
-157.414111962433
 20
122.910686348052
 30
0.0
 10
-157.45943147834
 20
122.888693089706
 30
0.0
 10
-157.503929682528
 20
122.864245334088
 30
0.0
 10
-157.547411257449
 20
122.837386656412
 30
0.0
 10
-157.589683807972
 20
122.808181107564
 30
0.0
 10
-157.630560527784
 20
122.776712973974
 30
0.0
 10
-157.669862839273
 20
122.743086121976
 30
0.0
 10
-157.707422931464
 20
122.707422931464
 30
0.0
 10
-157.743086121975
 20
122.669862839273
 30
0.0
 10
-157.776712973974
 20
122.630560527784
 30
0.0
 10
-157.808181107563
 20
122.589683807973
 30
0.0
 10
-157.837386656411
 20
122.547411257449
 30
0.0
 10
-157.864245334088
 20
122.503929682528
 30
0.0
 10
-157.888693089706
 20
122.45943147834
 30
0.0
 10
-157.910686348051
 20
122.414111962434
 30
0.0
 10
-157.930201844614
 20
122.368166755121
 30
0.0
 10
-157.947236079853
 20
122.321789274439
 30
0.0
 10
-157.961804429011
 20
122.275168405401
 30
0.0
 10
-157.97393995321
 20
122.228486393017
 30
0.0
 10
-157.983691964389
 20
122.181916996958
 30
0.0
 10
-157.99360187816
 20
122.120192912496
 30
0.0
 10
-157.999026251315
 20
122.059326325996
 30
0.0
 10
-157.999999999998
 20
122.014731391273
 30
0.0
 10
-157.999999999998
 20
121.999999999998
 30
0.0
  0
SPLINE
  5
c2
100
AcDbEntity
  8
BackPlate
100
AcDbSpline
 70
     9
 71
     3
 72
   121
 73
   117
 74
     0
 42
0.0000001
 43
0.0000001
 40
-1.0
 40
-1.0
 40
-1.0
 40
-1.0
 40
-0.75
 40
-0.5
 40
-0.25
 40
0.0
 40
0.0
 40
0.0
 40
0.11994341626
 40
0.11994341626
 40
0.148102801727
 40
0.148102801727
 40
0.148102801727
 40
0.179352801727
 40
0.241852801727
 40
0.304352801727
 40
0.366852801727
 40
0.429352801727
 40
0.491852801727
 40
0.554352801727
 40
0.616852801727
 40
0.679352801727
 40
0.710602801727
 40
0.741852801727
 40
0.773102801727
 40
0.804352801727
 40
0.835602801727
 40
0.866852801727
 40
0.898102801727
 40
0.929352801727
 40
0.991852801727
 40
1.023102801727
 40
1.054352801727
 40
1.116852801727
 40
1.148102801727
 40
1.148102801727
 40
1.148102801727
 40
22.283695703402
 40
22.283695703402
 40
22.283695703402
 40
22.314945703402
 40
22.346195703402
 40
22.377445703402
 40
22.408695703402
 40
22.439945703402
 40
22.471195703402
 40
22.502445703402
 40
22.533695703402
 40
22.564945703402
 40
22.596195703402
 40
22.627445703402
 40
22.658695703402
 40
22.689945703402
 40
22.721195703402
 40
22.752445703402
 40
22.783695703402
 40
22.783695703402
 40
22.814945703402
 40
22.846195703402
 40
22.877445703402
 40
22.908695703402
 40
22.939945703402
 40
22.971195703402
 40
23.002445703402
 40
23.033695703402
 40
23.064945703402
 40
23.096195703402
 40
23.127445703402
 40
23.158695703402
 40
23.189945703402
 40
23.221195703402
 40
23.252445703402
 40
23.283695703402
 40
23.283695703402
 40
23.283695703402
 40
23.290165518312
 40
23.290165518312
 40
23.321414296057
 40
23.321414296057
 40
23.383911851547
 40
23.383911851547
 40
23.508906962527
 40
23.508906962527
 40
23.5245313514
 40
23.5245313514
 40
23.540155740272
 40
23.540155740272
 40
23.571404518017
 40
23.571404518017
 40
23.633902073507
 40
23.633902073507
 40
23.758897184487
 40
23.758897184487
 40
23.899967171591
 40
23.899967171591
 40
23.899967171591
 40
23.90930619083
 40
23.918645210069
 40
23.918645210069
 40
23.927984229308
 40
23.937323248547
 40
23.937323248547
 40
23.946662267786
 40
23.956001287025
 40
23.956001287025
 40
23.965340306264
 40
23.974679325503
 40
23.974679325503
 40
23.984018344742
 40
23.993357363981
 40
23.993357363981
 40
24.002076721069
 40
24.010796078156
 40
24.010796078156
 40
24.010796078156
 40
52.785205241139
 40
52.785205241139
 40
52.785205241139
 40
52.785205241139
 10
-101.426987674114
 20
38.802596306839
 30
0.0
 10
-101.374318988863
 20
38.761447197018
 30
0.0
 10
-101.260704662452
 20
38.68974641267
 30
0.0
 10
-101.072275171433
 20
38.618292298494
 30
0.0
 10
-100.873389264935
 20
38.585799842222
 30
0.0
 10
-100.739141801385
 20
38.59098020632
 30
0.0
 10
-100.672947422134
 20
38.600229195497
 30
0.0
 10
-99.109935917773
 20
38.818620494761
 30
0.0
 10
-97.656850915451
 20
39.011586812459
 30
0.0
 10
-95.994668183275
 20
39.218655992758
 30
0.0
 10
-95.684707744929
 20
39.25661848555
 30
0.0
 10
-95.380613798731
 20
39.293184631673
 30
0.0
 10
-95.366888581537
 20
39.294835037094
 30
0.0
 10
-95.325491132999
 20
39.300679315969
 30
0.0
 10
-95.255649065608
 20
39.315051370871
 30
0.0
 10
-95.171409829287
 20
39.340165121525
 30
0.0
 10
-95.087819249041
 20
39.373419254771
 30
0.0
 10
-95.006006307756
 20
39.414928799916
 30
0.0
 10
-94.927179280918
 20
39.46456640145
 30
0.0
 10
-94.852506698228
 20
39.522006860825
 30
0.0
 10
-94.783132512986
 20
39.586668250074
 30
0.0
 10
-94.730566226698
 20
39.645933092302
 30
0.0
 10
-94.692095268823
 20
39.696085439506
 30
0.0
 10
-94.66511317976
 20
39.734935955707
 30
0.0
 10
-94.640079585582
 20
39.774882342327
 30
0.0
 10
-94.617055199845
 20
39.815778607658
 30
0.0
 10
-94.59608633974
 20
39.857475045598
 30
0.0
 10
-94.577204773651
 20
39.899819970596
 30
0.0
 10
-94.560427811341
 20
39.942661428189
 30
0.0
 10
-94.540868895736
 20
40.000244648408
 30
0.0
 10
-94.525504664632
 20
40.058224497066
 30
0.0
 10
-94.514229847093
 20
40.116033472429
 30
0.0
 10
-94.50560755994
 20
40.173559637768
 30
0.0
 10
-94.500857699949
 20
40.230412339746
 30
0.0
 10
-94.499999999998
 20
40.272208434236
 30
0.0
 10
-94.499999999998
 20
40.286032522816
 30
0.0
 10
-94.499999999998
 20
47.331230156708
 30
0.0
 10
-94.499999999998
 20
54.3764277906
 30
0.0
 10
-94.499999999999
 20
61.421625424491
 30
0.0
 10
-94.499999999999
 20
61.438591832306
 30
0.0
 10
-94.500864073925
 20
61.472708772797
 30
0.0
 10
-94.504827672496
 20
61.524241588402
 30
0.0
 10
-94.511514728817
 20
61.575926175397
 30
0.0
 10
-94.520960166096
 20
61.627548710547
 30
0.0
 10
-94.533176573734
 20
61.678889857327
 30
0.0
 10
-94.548153311154
 20
61.729727699041
 30
0.0
 10
-94.565856083034
 20
61.779840820015
 30
0.0
 10
-94.586227005365
 20
61.829011456817
 30
0.0
 10
-94.609185175154
 20
61.877028624996
 30
0.0
 10
-94.634627733635
 20
61.923691128615
 30
0.0
 10
-94.662431394161
 20
61.968810362598
 30
0.0
 10
-94.692454387136
 20
62.012212826366
 30
0.0
 10
-94.724538759786
 20
62.053742279195
 30
0.0
 10
-94.758512951906
 20
62.093261483703
 30
0.0
 10
-94.794194576536
 20
62.130653499716
 30
0.0
 10
-94.81899370614
 20
62.154099510531
 30
0.0
 10
-94.844233416351
 20
62.176779744326
 30
0.0
 10
-94.870187616544
 20
62.198940334223
 30
0.0
 10
-94.911167672241
 20
62.230435988412
 30
0.0
 10
-94.954080939881
 20
62.260007337985
 30
0.0
 10
-94.998791716903
 20
62.287485490012
 30
0.0
 10
-95.045145272268
 20
62.31271447876
 30
0.0
 10
-95.09296942917
 20
62.335553892731
 30
0.0
 10
-95.142076572957
 20
62.355881250038
 30
0.0
 10
-95.192266039208
 20
62.373594055504
 30
0.0
 10
-95.243326820231
 20
62.38861146678
 30
0.0
 10
-95.295040514223
 20
62.400875515039
 30
0.0
 10
-95.347184430928
 20
62.410351841568
 30
0.0
 10
-95.399534761276
 20
62.41702993117
 30
0.0
 10
-95.451869717706
 20
62.42092284218
 30
0.0
 10
-95.503972552588
 20
62.422066455912
 30
0.0
 10
-95.555634379191
 20
62.420518273148
 30
0.0
 10
-95.589649256957
 20
62.417743324
 30
0.0
 10
-95.60651913698
 20
62.415936076882
 30
0.0
 10
-95.679564590581
 20
62.408110817583
 30
0.0
 10
-95.752832992051
 20
62.400213416422
 30
0.0
 10
-96.181751537393
 20
62.353707700751
 30
0.0
 10
-96.541382918594
 20
62.313604505483
 30
0.0
 10
-97.634770841734
 20
62.188564388045
 30
0.0
 10
-98.383098515349
 20
62.098898657512
 30
0.0
 10
-100.695775901219
 20
61.810793023085
 30
0.0
 10
-102.328369466835
 20
61.593234642277
 30
0.0
 10
-104.282992758078
 20
61.319072030123
 30
0.0
 10
-104.494736861414
 20
61.289231607803
 30
0.0
 10
-104.929248395219
 20
61.227718609862
 30
0.0
 10
-105.148372821138
 20
61.1965569224
 30
0.0
 10
-105.811366269171
 20
61.101845651697
 30
0.0
 10
-106.260855833244
 20
61.03706983532
 30
0.0
 10
-107.631905232352
 20
60.837753296769
 30
0.0
 10
-108.57605018053
 20
60.698223175571
 30
0.0
 10
-111.499422690895
 20
60.25901498101
 30
0.0
 10
-113.569627870404
 20
59.938716015389
 30
0.0
 10
-118.236410690506
 20
59.194759373449
 30
0.0
 10
-120.866514263441
 20
58.76310047895
 30
0.0
 10
-123.652678762246
 20
58.291852047419
 30
0.0
 10
-123.71687439761
 20
58.280994076725
 30
0.0
 10
-123.842531423109
 20
58.246843908277
 30
0.0
 10
-123.959259285236
 20
58.189133179072
 30
0.0
 10
-124.069793441843
 20
58.1202993158
 30
0.0
 10
-124.173077407134
 20
58.041000232728
 30
0.0
 10
-124.259155959514
 20
57.943294527253
 30
0.0
 10
-124.335281626872
 20
57.837649918877
 30
0.0
 10
-124.400726799854
 20
57.725076159077
 30
0.0
 10
-124.44326664744
 20
57.602005921287
 30
0.0
 10
-124.473584774651
 20
57.4753697824
 30
0.0
 10
-124.491391400737
 20
57.346378131005
 30
0.0
 10
-124.4840226304
 20
57.216371887747
 30
0.0
 10
-124.463993383697
 20
57.087706702922
 30
0.0
 10
-124.431495100225
 20
56.961612358744
 30
0.0
 10
-124.375321111004
 20
56.844137233729
 30
0.0
 10
-124.310178980482
 20
56.736406046575
 30
0.0
 10
-124.238048658716
 20
56.638540499881
 30
0.0
 10
-124.149469687253
 20
56.555268569663
 30
0.0
 10
-124.101568477704
 20
56.517844204067
 30
0.0
 10
-116.543374876507
 20
50.612761571658
 30
0.0
 10
-108.985181275311
 20
44.707678939248
 30
0.0
 10
-101.426987674114
 20
38.802596306839
 30
0.0
  0
SPLINE
  5
c3
100
AcDbEntity
  8
BackPlate
100
AcDbSpline
 70
     9
 71
     3
 72
   153
 73
   149
 74
     0
 42
0.0000001
 43
0.0000001
 40
28.259475528023
 40
28.259475528023
 40
28.259475528023
 40
28.259475528023
 40
39.162146178701
 40
39.162146178701
 40
39.162146178701
 40
39.193396178701
 40
39.224646178701
 40
39.255896178701
 40
39.287146178701
 40
39.318396178701
 40
39.349646178701
 40
39.380896178701
 40
39.412146178701
 40
39.443396178701
 40
39.474646178701
 40
39.505896178701
 40
39.537146178701
 40
39.568396178701
 40
39.599646178701
 40
39.630896178701
 40
39.662146178701
 40
39.693396178701
 40
39.724646178701
 40
39.755896178701
 40
39.787146178701
 40
39.818396178701
 40
39.849646178701
 40
39.880896178701
 40
39.912146178701
 40
39.943396178701
 40
39.974646178701
 40
40.005896178701
 40
40.037146178701
 40
40.068396178701
 40
40.130896178701
 40
40.162146178701
 40
40.162146178701
 40
40.162146178701
 40
61.162146178701
 40
61.162146178701
 40
61.162146178701
 40
61.193396178701
 40
61.224646178701
 40
61.255896178701
 40
61.287146178701
 40
61.318396178701
 40
61.349646178701
 40
61.380896178701
 40
61.412146178701
 40
61.443396178701
 40
61.474646178701
 40
61.505896178701
 40
61.537146178701
 40
61.568396178701
 40
61.599646178701
 40
61.630896178701
 40
61.662146178701
 40
61.693396178701
 40
61.724646178701
 40
61.755896178701
 40
61.787146178701
 40
61.818396178701
 40
61.849646178701
 40
61.880896178701
 40
61.912146178701
 40
61.943396178701
 40
61.974646178701
 40
62.005896178701
 40
62.037146178701
 40
62.068396178701
 40
62.130896178701
 40
62.162146178701
 40
62.162146178701
 40
62.162146178701
 40
93.512116610271
 40
93.512116610271
 40
93.512116610271
 40
93.543366610271
 40
93.574616610271
 40
93.605866610271
 40
93.637116610271
 40
93.668366610271
 40
93.699616610271
 40
93.730866610271
 40
93.762116610271
 40
93.793366610271
 40
93.824616610271
 40
93.855866610271
 40
93.887116610271
 40
93.918366610271
 40
93.949616610271
 40
93.980866610271
 40
94.012116610271
 40
94.043366610271
 40
94.074616610271
 40
94.105866610271
 40
94.137116610271
 40
94.168366610271
 40
94.199616610271
 40
94.230866610271
 40
94.262116610271
 40
94.293366610271
 40
94.324616610271
 40
94.355866610271
 40
94.387116610271
 40
94.418366610271
 40
94.480866610271
 40
94.512116610271
 40
94.512116610271
 40
94.512116610271
 40
94.517142238122
 40
94.522167865973
 40
94.527193493824
 40
94.532219121675
 40
94.537244749526
 40
94.547296005227
 40
94.552321633078
 40
94.552321633078
 40
94.552321633078
 40
94.677321633078
 40
94.802321633078
 40
94.927321633078
 40
95.052321633078
 40
95.177321633078
 40
95.302321633078
 40
95.427321633078
 40
95.552321633078
 40
95.552321633078
 40
95.552321633078
 40
121.811797161102
 40
121.811797161102
 40
121.811797161102
 40
121.874297161102
 40
121.936797161102
 40
121.999297161102
 40
122.061797161102
 40
122.124297161102
 40
122.186797161102
 40
122.249297161102
 40
122.311797161102
 40
122.374297161102
 40
122.436797161102
 40
122.499297161102
 40
122.561797161102
 40
122.624297161102
 40
122.686797161102
 40
122.749297161102
 40
122.811797161102
 40
122.811797161102
 40
122.811797161102
 40
122.811797161102
 10
-146.499999999997
 20
61.81585728644
 30
0.0
 10
-146.499999999997
 20
65.143148051442
 30
0.0
 10
-146.499999999997
 20
68.470438816444
 30
0.0
 10
-146.499999999997
 20
71.797729581446
 30
0.0
 10
-146.499999999997
 20
71.812460972721
 30
0.0
 10
-146.500651206999
 20
71.842193798227
 30
0.0
 10
-146.503685935257
 20
71.887489200694
 30
0.0
 10
-146.508875600278
 20
71.93335351506
 30
0.0
 10
-146.516308035606
 20
71.979646578406
 30
0.0
 10
-146.526060046785
 20
72.026215974465
 30
0.0
 10
-146.538195570984
 20
72.072897986849
 30
0.0
 10
-146.552763920142
 20
72.119518855887
 30
0.0
 10
-146.569798155381
 20
72.16589633657
 30
0.0
 10
-146.589313651943
 20
72.211841543882
 30
0.0
 10
-146.611306910289
 20
72.257161059789
 30
0.0
 10
-146.635754665907
 20
72.301659263976
 30
0.0
 10
-146.662613343584
 20
72.345140838898
 30
0.0
 10
-146.691818892431
 20
72.387413389421
 30
0.0
 10
-146.723287026021
 20
72.428290109232
 30
0.0
 10
-146.756913878019
 20
72.467592420721
 30
0.0
 10
-146.792577068531
 20
72.505152512913
 30
0.0
 10
-146.830137160722
 20
72.540815703424
 30
0.0
 10
-146.869439472211
 20
72.574442555422
 30
0.0
 10
-146.910316192023
 20
72.605910689012
 30
0.0
 10
-146.952588742546
 20
72.63511623786
 30
0.0
 10
-146.996070317467
 20
72.661974915537
 30
0.0
 10
-147.040568521655
 20
72.686422671155
 30
0.0
 10
-147.085888037562
 20
72.7084159295
 30
0.0
 10
-147.131833244874
 20
72.727931426063
 30
0.0
 10
-147.178210725556
 20
72.744965661301
 30
0.0
 10
-147.224831594594
 20
72.75953401046
 30
0.0
 10
-147.271513606978
 20
72.771669534659
 30
0.0
 10
-147.318083003037
 20
72.781421545838
 30
0.0
 10
-147.3798070875
 20
72.791331459608
 30
0.0
 10
-147.440673673999
 20
72.796755832764
 30
0.0
 10
-147.485268608723
 20
72.797729581446
 30
0.0
 10
-147.499999999997
 20
72.797729581446
 30
0.0
 10
-154.499999999997
 20
72.797729581446
 30
0.0
 10
-161.499999999997
 20
72.797729581446
 30
0.0
 10
-168.499999999997
 20
72.797729581446
 30
0.0
 10
-168.514731391272
 20
72.797729581446
 30
0.0
 10
-168.544464216778
 20
72.797078374444
 30
0.0
 10
-168.589759619245
 20
72.794043646186
 30
0.0
 10
-168.63562393361
 20
72.788853981165
 30
0.0
 10
-168.681916996957
 20
72.781421545838
 30
0.0
 10
-168.728486393016
 20
72.771669534659
 30
0.0
 10
-168.7751684054
 20
72.75953401046
 30
0.0
 10
-168.821789274438
 20
72.744965661301
 30
0.0
 10
-168.868166755121
 20
72.727931426062
 30
0.0
 10
-168.914111962433
 20
72.7084159295
 30
0.0
 10
-168.95943147834
 20
72.686422671155
 30
0.0
 10
-169.003929682527
 20
72.661974915537
 30
0.0
 10
-169.047411257448
 20
72.63511623786
 30
0.0
 10
-169.089683807972
 20
72.605910689012
 30
0.0
 10
-169.130560527783
 20
72.574442555422
 30
0.0
 10
-169.169862839272
 20
72.540815703424
 30
0.0
 10
-169.207422931464
 20
72.505152512913
 30
0.0
 10
-169.243086121975
 20
72.467592420721
 30
0.0
 10
-169.276712973973
 20
72.428290109232
 30
0.0
 10
-169.308181107563
 20
72.387413389421
 30
0.0
 10
-169.337386656411
 20
72.345140838898
 30
0.0
 10
-169.364245334088
 20
72.301659263976
 30
0.0
 10
-169.388693089706
 20
72.257161059789
 30
0.0
 10
-169.410686348051
 20
72.211841543882
 30
0.0
 10
-169.430201844613
 20
72.16589633657
 30
0.0
 10
-169.447236079852
 20
72.119518855887
 30
0.0
 10
-169.461804429011
 20
72.072897986849
 30
0.0
 10
-169.47393995321
 20
72.026215974465
 30
0.0
 10
-169.483691964389
 20
71.979646578406
 30
0.0
 10
-169.493601878159
 20
71.917922493944
 30
0.0
 10
-169.499026251315
 20
71.857055907444
 30
0.0
 10
-169.499999999997
 20
71.812460972721
 30
0.0
 10
-169.499999999997
 20
71.797729581446
 30
0.0
 10
-169.499999999997
 20
62.230306108595
 30
0.0
 10
-169.499999999997
 20
52.662882635745
 30
0.0
 10
-169.499999999997
 20
43.095459162894
 30
0.0
 10
-169.499999999997
 20
43.080727771619
 30
0.0
 10
-169.499348792995
 20
43.050994946113
 30
0.0
 10
-169.496314064737
 20
43.005699543646
 30
0.0
 10
-169.491124399717
 20
42.95983522928
 30
0.0
 10
-169.483691964389
 20
42.913542165934
 30
0.0
 10
-169.47393995321
 20
42.866972769875
 30
0.0
 10
-169.461804429011
 20
42.820290757491
 30
0.0
 10
-169.447236079852
 20
42.773669888453
 30
0.0
 10
-169.430201844614
 20
42.72729240777
 30
0.0
 10
-169.410686348051
 20
42.681347200458
 30
0.0
 10
-169.388693089706
 20
42.636027684551
 30
0.0
 10
-169.364245334088
 20
42.591529480364
 30
0.0
 10
-169.337386656411
 20
42.548047905442
 30
0.0
 10
-169.308181107563
 20
42.505775354919
 30
0.0
 10
-169.276712973973
 20
42.464898635107
 30
0.0
 10
-169.243086121975
 20
42.425596323619
 30
0.0
 10
-169.207422931464
 20
42.388036231427
 30
0.0
 10
-169.169862839272
 20
42.352373040916
 30
0.0
 10
-169.130560527784
 20
42.318746188918
 30
0.0
 10
-169.089683807972
 20
42.287278055328
 30
0.0
 10
-169.047411257449
 20
42.25807250648
 30
0.0
 10
-169.003929682527
 20
42.231213828803
 30
0.0
 10
-168.95943147834
 20
42.206766073185
 30
0.0
 10
-168.914111962433
 20
42.18477281484
 30
0.0
 10
-168.868166755121
 20
42.165257318277
 30
0.0
 10
-168.821789274438
 20
42.148223083039
 30
0.0
 10
-168.7751684054
 20
42.13365473388
 30
0.0
 10
-168.728486393016
 20
42.121519209681
 30
0.0
 10
-168.681916996957
 20
42.111767198502
 30
0.0
 10
-168.620192912495
 20
42.101857284732
 30
0.0
 10
-168.559326325995
 20
42.096432911576
 30
0.0
 10
-168.514731391272
 20
42.095459162894
 30
0.0
 10
-168.499999999997
 20
42.095459162894
 30
0.0
 10
-168.386331080019
 20
42.095459162894
 30
0.0
 10
-168.158402600823
 20
42.091766645846
 30
0.0
 10
-167.815271759527
 20
42.07499418042
 30
0.0
 10
-167.471450817458
 20
42.046865852559
 30
0.0
 10
-167.127499227626
 20
42.007294956756
 30
0.0
 10
-166.66948030472
 20
41.939210227101
 30
0.0
 10
-166.21348344865
 20
41.848115073236
 30
0.0
 10
-165.874730278899
 20
41.762638180321
 30
0.0
 10
-165.762268167978
 20
41.732264597346
 30
0.0
 10
-165.720931155998
 20
41.721100364762
 30
0.0
 10
-165.635332587282
 20
41.703699238532
 30
0.0
 10
-165.50093071263
 20
41.694592909004
 30
0.0
 10
-165.363967006536
 20
41.703980128527
 30
0.0
 10
-165.228301193774
 20
41.732397677476
 30
0.0
 10
-165.097868196655
 20
41.779301868155
 30
0.0
 10
-164.976304119182
 20
41.843093338944
 30
0.0
 10
-164.866614724328
 20
41.921291969394
 30
0.0
 10
-164.802835766325
 20
41.980975791961
 30
0.0
 10
-164.773482888745
 20
42.012149454345
 30
0.0
 10
-158.772972287736
 20
48.384877003583
 30
0.0
 10
-152.772461686727
 20
54.757604552822
 30
0.0
 10
-146.771951085718
 20
61.130332102061
 30
0.0
 10
-146.761418316387
 20
61.141518228335
 30
0.0
 10
-146.740775713212
 20
61.164474895164
 30
0.0
 10
-146.711216574639
 20
61.2005916717
 30
0.0
 10
-146.683193010088
 20
61.238305124514
 30
0.0
 10
-146.656828935552
 20
61.277516985844
 30
0.0
 10
-146.632239767441
 20
61.318116524716
 30
0.0
 10
-146.609530882338
 20
61.359981490401
 30
0.0
 10
-146.588796212736
 20
61.402979279015
 30
0.0
 10
-146.57011700859
 20
61.446968301951
 30
0.0
 10
-146.553560799829
 20
61.491799527206
 30
0.0
 10
-146.539180586554
 20
61.537318158725
 30
0.0
 10
-146.527014277377
 20
61.583365414186
 30
0.0
 10
-146.517084388152
 20
61.629780358384
 30
0.0
 10
-146.509398005527
 20
61.67640174851
 30
0.0
 10
-146.503947009578
 20
61.723069846141
 30
0.0
 10
-146.500708548429
 20
61.769628160005
 30
0.0
 10
-146.499999999997
 20
61.800492760713
 30
0.0
 10
-146.499999999997
 20
61.81585728644
 30
0.0
  0
SPLINE
  5
c4
100
AcDbEntity
  8
BackPlate
100
AcDbSpline
 70
     9
 71
     3
 72
   155
 73
   151
 74
     0
 42
0.0000001
 43
0.0000001
 40
23.0
 40
23.0
 40
23.0
 40
23.0
 40
36.250270360954
 40
36.250270360954
 40
36.250270360954
 40
36.312770360954
 40
36.375270360954
 40
36.437770360954
 40
36.500270360954
 40
36.562770360954
 40
36.625270360954
 40
36.687770360954
 40
36.750270360954
 40
36.812770360954
 40
36.875270360954
 40
36.937770360954
 40
37.000270360954
 40
37.062770360954
 40
37.125270360954
 40
37.187770360954
 40
37.250270360954
 40
37.250270360954
 40
37.250270360954
 40
61.592597582185
 40
61.592597582185
 40
61.592597582185
 40
61.717597582185
 40
61.842597582185
 40
61.967597582185
 40
62.092597582185
 40
62.217597582185
 40
62.342597582185
 40
62.467597582185
 40
62.592597582185
 40
62.592597582185
 40
62.592597582185
 40
62.597677438258
 40
62.607837150404
 40
62.61799686255
 40
62.628156574695
 40
62.633236430768
 40
62.633236430768
 40
62.635304818323
 40
62.641509980988
 40
62.649783531208
 40
62.649783531208
 40
62.649783531208
 40
62.681033531208
 40
62.712283531208
 40
62.743533531208
 40
62.774783531208
 40
62.806033531208
 40
62.837283531208
 40
62.868533531208
 40
62.899783531208
 40
62.931033531208
 40
62.962283531208
 40
62.993533531208
 40
63.024783531208
 40
63.056033531208
 40
63.087283531208
 40
63.118533531208
 40
63.149783531208
 40
63.181033531208
 40
63.212283531208
 40
63.243533531208
 40
63.274783531208
 40
63.306033531208
 40
63.337283531208
 40
63.368533531208
 40
63.399783531208
 40
63.431033531208
 40
63.462283531208
 40
63.493533531208
 40
63.524783531208
 40
63.556033531208
 40
63.618533531208
 40
63.649783531208
 40
63.649783531208
 40
63.649783531208
 40
94.999753962778
 40
94.999753962778
 40
94.999753962778
 40
95.031003962778
 40
95.062253962778
 40
95.093503962778
 40
95.124753962778
 40
95.156003962778
 40
95.187253962778
 40
95.218503962778
 40
95.249753962778
 40
95.281003962778
 40
95.312253962778
 40
95.343503962778
 40
95.374753962778
 40
95.406003962778
 40
95.437253962778
 40
95.468503962778
 40
95.499753962778
 40
95.531003962778
 40
95.562253962778
 40
95.593503962778
 40
95.624753962778
 40
95.656003962778
 40
95.687253962778
 40
95.718503962778
 40
95.749753962778
 40
95.781003962778
 40
95.812253962778
 40
95.843503962778
 40
95.874753962778
 40
95.906003962778
 40
95.968503962778
 40
95.999753962778
 40
95.999753962778
 40
95.999753962778
 40
116.999753962778
 40
116.999753962778
 40
116.999753962778
 40
117.031003962778
 40
117.062253962778
 40
117.093503962778
 40
117.124753962778
 40
117.156003962778
 40
117.187253962778
 40
117.218503962778
 40
117.249753962778
 40
117.281003962778
 40
117.312253962778
 40
117.343503962778
 40
117.374753962778
 40
117.406003962778
 40
117.437253962778
 40
117.468503962778
 40
117.499753962778
 40
117.531003962778
 40
117.562253962778
 40
117.593503962778
 40
117.624753962778
 40
117.656003962778
 40
117.687253962778
 40
117.718503962778
 40
117.749753962778
 40
117.781003962778
 40
117.812253962778
 40
117.843503962778
 40
117.874753962778
 40
117.906003962778
 40
117.968503962778
 40
117.999753962778
 40
117.999753962778
 40
117.999753962778
 40
117.999753962778
 10
-146.499999999997
 20
81.797729581446
 30
0.0
 10
-146.499999999997
 20
85.841463783675
 30
0.0
 10
-146.499999999997
 20
89.885197985904
 30
0.0
 10
-146.499999999997
 20
93.928932188133
 30
0.0
 10
-146.499999999997
 20
93.944877331148
 30
0.0
 10
-146.500763136692
 20
93.976919584092
 30
0.0
 10
-146.504255493051
 20
94.025276702762
 30
0.0
 10
-146.51013859783
 20
94.073757660164
 30
0.0
 10
-146.518439212409
 20
94.122186650437
 30
0.0
 10
-146.52916689393
 20
94.170383912975
 30
0.0
 10
-146.542313393941
 20
94.218167848494
 30
0.0
 10
-146.557852375273
 20
94.265357227059
 30
0.0
 10
-146.575739457588
 20
94.311773439965
 30
0.0
 10
-146.59591259929
 20
94.357242736068
 30
0.0
 10
-146.6182928098
 20
94.401598384724
 30
0.0
 10
-146.642785175332
 20
94.444682708868
 30
0.0
 10
-146.669280170157
 20
94.486348936393
 30
0.0
 10
-146.697655216728
 20
94.526462824678
 30
0.0
 10
-146.727776447182
 20
94.564904021699
 30
0.0
 10
-146.759500624849
 20
94.601567137093
 30
0.0
 10
-146.781618300058
 20
94.624764050566
 30
0.0
 10
-146.792893218811
 20
94.636038969319
 30
0.0
 10
-152.530434768142
 20
100.373580518651
 30
0.0
 10
-158.267976317474
 20
106.111122067982
 30
0.0
 10
-164.005517866805
 20
111.848663617314
 30
0.0
 10
-164.036843258953
 20
111.879989009462
 30
0.0
 10
-164.10488571913
 20
111.939674306517
 30
0.0
 10
-164.221734361958
 20
112.016597124746
 30
0.0
 10
-164.350879186978
 20
112.077515872605
 30
0.0
 10
-164.488843511897
 20
112.119755991296
 30
0.0
 10
-164.631450545282
 20
112.141701756415
 30
0.0
 10
-164.774236449538
 20
112.142992188778
 30
0.0
 10
-164.912907497389
 20
112.124524222378
 30
0.0
 10
-165.000132273527
 20
112.100359175322
 30
0.0
 10
-165.041961635123
 20
112.085769285159
 30
0.0
 10
-165.145155861388
 20
112.04977561064
 30
0.0
 10
-165.455072581189
 20
111.947100629571
 30
0.0
 10
-165.972026339561
 20
111.802200330121
 30
0.0
 10
-166.589247404073
 20
111.66902754362
 30
0.0
 10
-167.098156670682
 20
111.590523590427
 30
0.0
 10
-167.399881147142
 20
111.557306188286
 30
0.0
 10
-167.540765837906
 20
111.543827330838
 30
0.0
 10
-167.704315648945
 20
111.529142751855
 30
0.0
 10
-168.035204575495
 20
111.507223931723
 30
0.0
 10
-168.330038435662
 20
111.499999999998
 30
0.0
 10
-168.499999999997
 20
111.499999999998
 30
0.0
 10
-168.514731391271
 20
111.499999999998
 30
0.0
 10
-168.544464216777
 20
111.499348792997
 30
0.0
 10
-168.589759619245
 20
111.496314064738
 30
0.0
 10
-168.63562393361
 20
111.491124399718
 30
0.0
 10
-168.681916996957
 20
111.48369196439
 30
0.0
 10
-168.728486393015
 20
111.473939953211
 30
0.0
 10
-168.7751684054
 20
111.461804429012
 30
0.0
 10
-168.821789274438
 20
111.447236079853
 30
0.0
 10
-168.86816675512
 20
111.430201844615
 30
0.0
 10
-168.914111962432
 20
111.410686348052
 30
0.0
 10
-168.959431478339
 20
111.388693089707
 30
0.0
 10
-169.003929682527
 20
111.364245334089
 30
0.0
 10
-169.047411257448
 20
111.337386656412
 30
0.0
 10
-169.089683807971
 20
111.308181107564
 30
0.0
 10
-169.130560527783
 20
111.276712973975
 30
0.0
 10
-169.169862839272
 20
111.243086121976
 30
0.0
 10
-169.207422931463
 20
111.207422931465
 30
0.0
 10
-169.243086121975
 20
111.169862839273
 30
0.0
 10
-169.276712973973
 20
111.130560527785
 30
0.0
 10
-169.308181107563
 20
111.089683807973
 30
0.0
 10
-169.337386656411
 20
111.04741125745
 30
0.0
 10
-169.364245334087
 20
111.003929682529
 30
0.0
 10
-169.388693089705
 20
110.959431478341
 30
0.0
 10
-169.410686348051
 20
110.914111962434
 30
0.0
 10
-169.430201844613
 20
110.868166755122
 30
0.0
 10
-169.447236079852
 20
110.82178927444
 30
0.0
 10
-169.46180442901
 20
110.775168405401
 30
0.0
 10
-169.473939953209
 20
110.728486393017
 30
0.0
 10
-169.483691964388
 20
110.681916996958
 30
0.0
 10
-169.493601878159
 20
110.620192912496
 30
0.0
 10
-169.499026251314
 20
110.559326325997
 30
0.0
 10
-169.499999999997
 20
110.514731391273
 30
0.0
 10
-169.499999999997
 20
110.499999999998
 30
0.0
 10
-169.499999999997
 20
100.932576527148
 30
0.0
 10
-169.499999999997
 20
91.365153054297
 30
0.0
 10
-169.499999999997
 20
81.797729581446
 30
0.0
 10
-169.499999999997
 20
81.782998190171
 30
0.0
 10
-169.499348792995
 20
81.753265364666
 30
0.0
 10
-169.496314064737
 20
81.707969962198
 30
0.0
 10
-169.491124399716
 20
81.662105647833
 30
0.0
 10
-169.483691964389
 20
81.615812584486
 30
0.0
 10
-169.47393995321
 20
81.569243188427
 30
0.0
 10
-169.461804429011
 20
81.522561176043
 30
0.0
 10
-169.447236079852
 20
81.475940307005
 30
0.0
 10
-169.430201844614
 20
81.429562826322
 30
0.0
 10
-169.410686348051
 20
81.38361761901
 30
0.0
 10
-169.388693089706
 20
81.338298103104
 30
0.0
 10
-169.364245334088
 20
81.293799898916
 30
0.0
 10
-169.337386656411
 20
81.250318323995
 30
0.0
 10
-169.308181107563
 20
81.208045773471
 30
0.0
 10
-169.276712973973
 20
81.16716905366
 30
0.0
 10
-169.243086121975
 20
81.127866742171
 30
0.0
 10
-169.207422931464
 20
81.090306649979
 30
0.0
 10
-169.169862839272
 20
81.054643459468
 30
0.0
 10
-169.130560527783
 20
81.02101660747
 30
0.0
 10
-169.089683807972
 20
80.98954847388
 30
0.0
 10
-169.047411257449
 20
80.960342925032
 30
0.0
 10
-169.003929682527
 20
80.933484247355
 30
0.0
 10
-168.95943147834
 20
80.909036491738
 30
0.0
 10
-168.914111962433
 20
80.887043233392
 30
0.0
 10
-168.868166755121
 20
80.86752773683
 30
0.0
 10
-168.821789274438
 20
80.850493501591
 30
0.0
 10
-168.7751684054
 20
80.835925152432
 30
0.0
 10
-168.728486393016
 20
80.823789628233
 30
0.0
 10
-168.681916996957
 20
80.814037617054
 30
0.0
 10
-168.620192912495
 20
80.804127703284
 30
0.0
 10
-168.559326325995
 20
80.798703330128
 30
0.0
 10
-168.514731391272
 20
80.797729581446
 30
0.0
 10
-168.499999999997
 20
80.797729581446
 30
0.0
 10
-161.499999999997
 20
80.797729581446
 30
0.0
 10
-154.499999999997
 20
80.797729581446
 30
0.0
 10
-147.499999999997
 20
80.797729581446
 30
0.0
 10
-147.485268608723
 20
80.797729581446
 30
0.0
 10
-147.455535783217
 20
80.798380788448
 30
0.0
 10
-147.410240380749
 20
80.801415516706
 30
0.0
 10
-147.364376066384
 20
80.806605181726
 30
0.0
 10
-147.318083003037
 20
80.814037617054
 30
0.0
 10
-147.271513606979
 20
80.823789628233
 30
0.0
 10
-147.224831594594
 20
80.835925152432
 30
0.0
 10
-147.178210725556
 20
80.850493501591
 30
0.0
 10
-147.131833244874
 20
80.867527736829
 30
0.0
 10
-147.085888037562
 20
80.887043233392
 30
0.0
 10
-147.040568521655
 20
80.909036491737
 30
0.0
 10
-146.996070317467
 20
80.933484247355
 30
0.0
 10
-146.952588742546
 20
80.960342925032
 30
0.0
 10
-146.910316192023
 20
80.98954847388
 30
0.0
 10
-146.869439472211
 20
81.02101660747
 30
0.0
 10
-146.830137160722
 20
81.054643459468
 30
0.0
 10
-146.792577068531
 20
81.090306649979
 30
0.0
 10
-146.756913878019
 20
81.127866742171
 30
0.0
 10
-146.723287026021
 20
81.167169053659
 30
0.0
 10
-146.691818892431
 20
81.208045773471
 30
0.0
 10
-146.662613343584
 20
81.250318323994
 30
0.0
 10
-146.635754665907
 20
81.293799898916
 30
0.0
 10
-146.611306910289
 20
81.338298103103
 30
0.0
 10
-146.589313651943
 20
81.38361761901
 30
0.0
 10
-146.569798155381
 20
81.429562826322
 30
0.0
 10
-146.552763920142
 20
81.475940307005
 30
0.0
 10
-146.538195570984
 20
81.522561176043
 30
0.0
 10
-146.526060046785
 20
81.569243188427
 30
0.0
 10
-146.516308035606
 20
81.615812584486
 30
0.0
 10
-146.506398121835
 20
81.677536668948
 30
0.0
 10
-146.50097374868
 20
81.738403255448
 30
0.0
 10
-146.499999999997
 20
81.782998190171
 30
0.0
 10
-146.499999999997
 20
81.797729581446
 30
0.0
  0
SPLINE
  5
c5
100
AcDbEntity
  8
BackPlate
100
AcDbSpline
 70
     9
 71
     3
 72
   154
 73
   150
 74
     0
 42
0.0000001
 43
0.0000001
 40
10.179329378855
 40
10.179329378855
 40
10.179329378855
 40
10.179329378855
 40
34.521656600086
 40
34.521656600086
 40
34.521656600086
 40
34.646656600086
 40
34.771656600086
 40
34.896656600086
 40
35.021656600086
 40
35.146656600086
 40
35.271656600086
 40
35.396656600086
 40
35.521656600086
 40
35.521656600086
 40
35.521656600086
 40
35.528457729703
 40
35.53525885932
 40
35.542059988937
 40
35.548861118553
 40
35.55566224817
 40
35.562463377787
 40
35.569264507404
 40
35.57606563702
 40
35.57606563702
 40
35.57606563702
 40
35.60731563702
 40
35.63856563702
 40
35.66981563702
 40
35.70106563702
 40
35.73231563702
 40
35.76356563702
 40
35.79481563702
 40
35.82606563702
 40
35.85731563702
 40
35.88856563702
 40
35.91981563702
 40
35.95106563702
 40
35.98231563702
 40
36.01356563702
 40
36.04481563702
 40
36.07606563702
 40
36.10731563702
 40
36.13856563702
 40
36.16981563702
 40
36.20106563702
 40
36.23231563702
 40
36.26356563702
 40
36.29481563702
 40
36.32606563702
 40
36.35731563702
 40
36.38856563702
 40
36.41981563702
 40
36.45106563702
 40
36.48231563702
 40
36.54481563702
 40
36.57606563702
 40
36.57606563702
 40
36.57606563702
 40
63.000308061263
 40
63.000308061263
 40
63.000308061263
 40
63.031558061263
 40
63.062808061263
 40
63.094058061263
 40
63.125308061263
 40
63.156558061263
 40
63.187808061263
 40
63.219058061263
 40
63.250308061263
 40
63.281558061263
 40
63.312808061263
 40
63.344058061263
 40
63.375308061263
 40
63.406558061263
 40
63.437808061263
 40
63.469058061263
 40
63.500308061263
 40
63.531558061263
 40
63.562808061263
 40
63.594058061263
 40
63.625308061263
 40
63.656558061263
 40
63.687808061263
 40
63.719058061263
 40
63.750308061263
 40
63.781558061263
 40
63.812808061263
 40
63.844058061263
 40
63.875308061263
 40
63.906558061263
 40
63.969058061263
 40
64.000308061263
 40
64.000308061263
 40
64.000308061263
 40
85.000308061263
 40
85.000308061263
 40
85.000308061263
 40
85.031558061263
 40
85.062808061263
 40
85.094058061263
 40
85.125308061263
 40
85.156558061263
 40
85.187808061263
 40
85.219058061263
 40
85.250308061263
 40
85.281558061263
 40
85.312808061263
 40
85.344058061263
 40
85.375308061263
 40
85.406558061263
 40
85.437808061263
 40
85.469058061263
 40
85.500308061263
 40
85.531558061263
 40
85.562808061263
 40
85.594058061263
 40
85.625308061263
 40
85.656558061263
 40
85.687808061263
 40
85.719058061263
 40
85.750308061263
 40
85.781558061263
 40
85.812808061263
 40
85.844058061263
 40
85.875308061263
 40
85.906558061263
 40
85.969058061263
 40
86.000308061263
 40
86.000308061263
 40
86.000308061263
 40
94.179637440118
 40
94.179637440118
 40
94.179637440118
 40
94.242137440118
 40
94.304637440118
 40
94.367137440118
 40
94.429637440118
 40
94.492137440118
 40
94.554637440118
 40
94.617137440118
 40
94.679637440118
 40
94.742137440118
 40
94.804637440118
 40
94.867137440118
 40
94.929637440118
 40
94.992137440118
 40
95.054637440118
 40
95.117137440118
 40
95.179637440118
 40
95.179637440118
 40
95.179637440118
 40
95.179637440118
 10
-34.207106781186
 20
68.363961030678
 30
0.0
 10
-28.469565231855
 20
62.626419481346
 30
0.0
 10
-22.732023682524
 20
56.888877932015
 30
0.0
 10
-16.994482133193
 20
51.151336382683
 30
0.0
 10
-16.963156741045
 20
51.120010990535
 30
0.0
 10
-16.895114280868
 20
51.06032569348
 30
0.0
 10
-16.77826563804
 20
50.983402875251
 30
0.0
 10
-16.64912081302
 20
50.922484127392
 30
0.0
 10
-16.511156488101
 20
50.880244008702
 30
0.0
 10
-16.368549454717
 20
50.858298243582
 30
0.0
 10
-16.225763550461
 20
50.857007811219
 30
0.0
 10
-16.08709250261
 20
50.875475777619
 30
0.0
 10
-15.999867726472
 20
50.899640824675
 30
0.0
 10
-15.958038364876
 20
50.914230714837
 30
0.0
 10
-15.813709477048
 20
50.964571971323
 30
0.0
 10
-15.523982698206
 20
51.058554197545
 30
0.0
 10
-15.087526298517
 20
51.179510550664
 30
0.0
 10
-14.650509514936
 20
51.280646211493
 30
0.0
 10
-14.214191973516
 20
51.36226280589
 30
0.0
 10
-13.779777660027
 20
51.424759348079
 30
0.0
 10
-13.348406692024
 20
51.468623375573
 30
0.0
 10
-12.921148541169
 20
51.494421433289
 30
0.0
 10
-12.639713979873
 20
51.499999999999
 30
0.0
 10
-12.500000000001
 20
51.499999999999
 30
0.0
 10
-12.485268608726
 20
51.499999999999
 30
0.0
 10
-12.45553578322
 20
51.500651207001
 30
0.0
 10
-12.410240380753
 20
51.503685935259
 30
0.0
 10
-12.364376066387
 20
51.50887560028
 30
0.0
 10
-12.318083003041
 20
51.516308035607
 30
0.0
 10
-12.271513606982
 20
51.526060046786
 30
0.0
 10
-12.224831594598
 20
51.538195570985
 30
0.0
 10
-12.17821072556
 20
51.552763920144
 30
0.0
 10
-12.131833244877
 20
51.569798155383
 30
0.0
 10
-12.085888037565
 20
51.589313651945
 30
0.0
 10
-12.040568521658
 20
51.61130691029
 30
0.0
 10
-11.996070317471
 20
51.635754665908
 30
0.0
 10
-11.952588742549
 20
51.662613343585
 30
0.0
 10
-11.910316192026
 20
51.691818892433
 30
0.0
 10
-11.869439472214
 20
51.723287026023
 30
0.0
 10
-11.830137160726
 20
51.756913878021
 30
0.0
 10
-11.792577068534
 20
51.792577068532
 30
0.0
 10
-11.756913878023
 20
51.830137160724
 30
0.0
 10
-11.723287026024
 20
51.869439472213
 30
0.0
 10
-11.691818892435
 20
51.910316192024
 30
0.0
 10
-11.662613343587
 20
51.952588742548
 30
0.0
 10
-11.63575466591
 20
51.996070317469
 30
0.0
 10
-11.611306910292
 20
52.040568521657
 30
0.0
 10
-11.589313651947
 20
52.085888037563
 30
0.0
 10
-11.569798155384
 20
52.131833244876
 30
0.0
 10
-11.552763920146
 20
52.178210725558
 30
0.0
 10
-11.538195570987
 20
52.224831594596
 30
0.0
 10
-11.526060046788
 20
52.27151360698
 30
0.0
 10
-11.516308035609
 20
52.318083003039
 30
0.0
 10
-11.506398121839
 20
52.379807087501
 30
0.0
 10
-11.500973748683
 20
52.440673674001
 30
0.0
 10
-11.500000000001
 20
52.485268608724
 30
0.0
 10
-11.500000000001
 20
52.499999999999
 30
0.0
 10
-11.5
 20
60.499999999999
 30
0.0
 10
-11.5
 20
68.499999999999
 30
0.0
 10
-11.5
 20
76.499999999999
 30
0.0
 10
-11.5
 20
76.514731391273
 30
0.0
 10
-11.500651207002
 20
76.544464216779
 30
0.0
 10
-11.50368593526
 20
76.589759619247
 30
0.0
 10
-11.508875600281
 20
76.635623933612
 30
0.0
 10
-11.516308035608
 20
76.681916996959
 30
0.0
 10
-11.526060046787
 20
76.728486393018
 30
0.0
 10
-11.538195570987
 20
76.775168405402
 30
0.0
 10
-11.552763920145
 20
76.82178927444
 30
0.0
 10
-11.569798155384
 20
76.868166755122
 30
0.0
 10
-11.589313651946
 20
76.914111962434
 30
0.0
 10
-11.611306910292
 20
76.959431478341
 30
0.0
 10
-11.63575466591
 20
77.003929682529
 30
0.0
 10
-11.662613343586
 20
77.04741125745
 30
0.0
 10
-11.691818892434
 20
77.089683807973
 30
0.0
 10
-11.723287026024
 20
77.130560527785
 30
0.0
 10
-11.756913878022
 20
77.169862839274
 30
0.0
 10
-11.792577068534
 20
77.207422931465
 30
0.0
 10
-11.830137160725
 20
77.243086121977
 30
0.0
 10
-11.869439472214
 20
77.276712973975
 30
0.0
 10
-11.910316192025
 20
77.308181107565
 30
0.0
 10
-11.952588742549
 20
77.337386656413
 30
0.0
 10
-11.99607031747
 20
77.364245334089
 30
0.0
 10
-12.040568521658
 20
77.388693089707
 30
0.0
 10
-12.085888037564
 20
77.410686348053
 30
0.0
 10
-12.131833244877
 20
77.430201844615
 30
0.0
 10
-12.178210725559
 20
77.447236079854
 30
0.0
 10
-12.224831594597
 20
77.461804429012
 30
0.0
 10
-12.271513606981
 20
77.473939953211
 30
0.0
 10
-12.31808300304
 20
77.483691964391
 30
0.0
 10
-12.379807087502
 20
77.493601878161
 30
0.0
 10
-12.440673674002
 20
77.499026251316
 30
0.0
 10
-12.485268608725
 20
77.499999999999
 30
0.0
 10
-12.5
 20
77.499999999999
 30
0.0
 10
-19.5
 20
77.499999999999
 30
0.0
 10
-26.5
 20
77.499999999999
 30
0.0
 10
-33.5
 20
77.499999999999
 30
0.0
 10
-33.514731391275
 20
77.499999999999
 30
0.0
 10
-33.54446421678
 20
77.499348792997
 30
0.0
 10
-33.589759619248
 20
77.496314064739
 30
0.0
 10
-33.635623933613
 20
77.491124399718
 30
0.0
 10
-33.68191699696
 20
77.483691964391
 30
0.0
 10
-33.728486393019
 20
77.473939953212
 30
0.0
 10
-33.775168405403
 20
77.461804429012
 30
0.0
 10
-33.821789274441
 20
77.447236079854
 30
0.0
 10
-33.868166755123
 20
77.430201844615
 30
0.0
 10
-33.914111962436
 20
77.410686348053
 30
0.0
 10
-33.959431478342
 20
77.388693089707
 30
0.0
 10
-34.00392968253
 20
77.364245334089
 30
0.0
 10
-34.047411257451
 20
77.337386656413
 30
0.0
 10
-34.089683807975
 20
77.308181107565
 30
0.0
 10
-34.130560527786
 20
77.276712973975
 30
0.0
 10
-34.169862839275
 20
77.243086121977
 30
0.0
 10
-34.207422931466
 20
77.207422931465
 30
0.0
 10
-34.243086121978
 20
77.169862839274
 30
0.0
 10
-34.276712973976
 20
77.130560527785
 30
0.0
 10
-34.308181107566
 20
77.089683807974
 30
0.0
 10
-34.337386656414
 20
77.04741125745
 30
0.0
 10
-34.36424533409
 20
77.003929682529
 30
0.0
 10
-34.388693089708
 20
76.959431478341
 30
0.0
 10
-34.410686348054
 20
76.914111962435
 30
0.0
 10
-34.430201844616
 20
76.868166755122
 30
0.0
 10
-34.447236079855
 20
76.82178927444
 30
0.0
 10
-34.461804429013
 20
76.775168405402
 30
0.0
 10
-34.473939953213
 20
76.728486393018
 30
0.0
 10
-34.483691964392
 20
76.681916996959
 30
0.0
 10
-34.493601878162
 20
76.620192912497
 30
0.0
 10
-34.499026251318
 20
76.559326325997
 30
0.0
 10
-34.5
 20
76.514731391274
 30
0.0
 10
-34.5
 20
76.499999999999
 30
0.0
 10
-34.5
 20
74.023689270621
 30
0.0
 10
-34.5
 20
71.547378541243
 30
0.0
 10
-34.5
 20
69.071067811865
 30
0.0
 10
-34.5
 20
69.055122668849
 30
0.0
 10
-34.499236863305
 20
69.023080415905
 30
0.0
 10
-34.495744506946
 20
68.974723297235
 30
0.0
 10
-34.489861402167
 20
68.926242339834
 30
0.0
 10
-34.481560787588
 20
68.87781334956
 30
0.0
 10
-34.470833106067
 20
68.829616087023
 30
0.0
 10
-34.457686606056
 20
68.781832151503
 30
0.0
 10
-34.442147624724
 20
68.734642772938
 30
0.0
 10
-34.424260542409
 20
68.688226560032
 30
0.0
 10
-34.404087400707
 20
68.64275726393
 30
0.0
 10
-34.381707190197
 20
68.598401615273
 30
0.0
 10
-34.357214824665
 20
68.555317291129
 30
0.0
 10
-34.330719829841
 20
68.513651063604
 30
0.0
 10
-34.302344783269
 20
68.473537175319
 30
0.0
 10
-34.272223552816
 20
68.435095978298
 30
0.0
 10
-34.240499375149
 20
68.398432862904
 30
0.0
 10
-34.218381699939
 20
68.375235949431
 30
0.0
 10
-34.207106781186
 20
68.363961030678
 30
0.0
  0
SPLINE
  5
c6
100
AcDbEntity
  8
BackPlate
100
AcDbSpline
 70
     9
 71
     3
 72
   154
 73
   150
 74
     0
 42
0.0000001
 43
0.0000001
 40
35.521656600086
 40
35.521656600086
 40
35.521656600086
 40
35.521656600086
 40
35.528081410332
 40
35.534506220579
 40
35.540931030825
 40
35.547355841071
 40
35.553780651317
 40
35.560205461563
 40
35.566630271809
 40
35.573055082056
 40
35.573055082056
 40
35.573055082056
 40
35.604305082056
 40
35.635555082056
 40
35.666805082056
 40
35.698055082056
 40
35.729305082056
 40
35.760555082056
 40
35.791805082056
 40
35.823055082056
 40
35.854305082056
 40
35.885555082056
 40
35.916805082056
 40
35.948055082056
 40
35.979305082056
 40
36.010555082056
 40
36.041805082056
 40
36.073055082056
 40
36.104305082056
 40
36.135555082056
 40
36.166805082056
 40
36.198055082056
 40
36.229305082056
 40
36.260555082056
 40
36.291805082056
 40
36.323055082056
 40
36.354305082056
 40
36.385555082056
 40
36.416805082056
 40
36.448055082056
 40
36.479305082056
 40
36.541805082056
 40
36.573055082056
 40
36.573055082056
 40
36.573055082056
 40
62.997297506298
 40
62.997297506298
 40
62.997297506298
 40
63.028547506298
 40
63.059797506298
 40
63.091047506298
 40
63.122297506298
 40
63.153547506298
 40
63.184797506298
 40
63.216047506298
 40
63.247297506298
 40
63.278547506298
 40
63.309797506298
 40
63.341047506298
 40
63.372297506298
 40
63.403547506298
 40
63.434797506298
 40
63.466047506298
 40
63.497297506298
 40
63.528547506298
 40
63.559797506298
 40
63.591047506298
 40
63.622297506298
 40
63.653547506298
 40
63.684797506298
 40
63.716047506298
 40
63.747297506298
 40
63.778547506298
 40
63.809797506298
 40
63.841047506298
 40
63.872297506298
 40
63.903547506298
 40
63.966047506298
 40
63.997297506298
 40
63.997297506298
 40
63.997297506298
 40
84.997297506298
 40
84.997297506298
 40
84.997297506298
 40
85.028547506298
 40
85.059797506298
 40
85.091047506298
 40
85.122297506298
 40
85.153547506298
 40
85.184797506298
 40
85.216047506298
 40
85.247297506298
 40
85.278547506298
 40
85.309797506298
 40
85.341047506298
 40
85.372297506298
 40
85.403547506298
 40
85.434797506298
 40
85.466047506298
 40
85.497297506298
 40
85.528547506298
 40
85.559797506298
 40
85.591047506298
 40
85.622297506298
 40
85.653547506298
 40
85.684797506298
 40
85.716047506298
 40
85.747297506298
 40
85.778547506298
 40
85.809797506298
 40
85.841047506298
 40
85.872297506298
 40
85.903547506298
 40
85.966047506298
 40
85.997297506298
 40
85.997297506298
 40
85.997297506298
 40
94.176626885153
 40
94.176626885153
 40
94.176626885153
 40
94.239126885153
 40
94.301626885153
 40
94.364126885153
 40
94.426626885153
 40
94.489126885153
 40
94.551626885153
 40
94.614126885153
 40
94.676626885153
 40
94.739126885153
 40
94.801626885153
 40
94.864126885153
 40
94.926626885153
 40
94.989126885153
 40
95.051626885153
 40
95.114126885153
 40
95.176626885153
 40
95.176626885153
 40
95.176626885153
 40
119.518954106385
 40
119.518954106385
 40
119.518954106385
 40
119.643954106385
 40
119.768954106385
 40
119.893954106385
 40
120.018954106385
 40
120.143954106385
 40
120.268954106385
 40
120.393954106385
 40
120.518954106385
 40
120.518954106385
 40
120.518954106385
 40
120.518954106385
 10
-15.958038364876
 20
112.08576928516
 30
0.0
 10
-15.817429985922
 20
112.036725725167
 30
0.0
 10
-15.534291134821
 20
111.944681561219
 30
0.0
 10
-15.104994975985
 20
111.825029832068
 30
0.0
 10
-14.672304687161
 20
111.723976518436
 30
0.0
 10
-14.237418063223
 20
111.641603301686
 30
0.0
 10
-13.80152629939
 20
111.577890676707
 30
0.0
 10
-13.365803546611
 20
111.532720266532
 30
0.0
 10
-12.931396997503
 20
111.505878411398
 30
0.0
 10
-12.643410822877
 20
111.499999999998
 30
0.0
 10
-12.500000000002
 20
111.499999999998
 30
0.0
 10
-12.485268608728
 20
111.499999999998
 30
0.0
 10
-12.455535783222
 20
111.499348792997
 30
0.0
 10
-12.410240380754
 20
111.496314064738
 30
0.0
 10
-12.364376066389
 20
111.491124399718
 30
0.0
 10
-12.318083003042
 20
111.48369196439
 30
0.0
 10
-12.271513606983
 20
111.473939953211
 30
0.0
 10
-12.224831594599
 20
111.461804429012
 30
0.0
 10
-12.178210725561
 20
111.447236079854
 30
0.0
 10
-12.131833244879
 20
111.430201844615
 30
0.0
 10
-12.085888037566
 20
111.410686348053
 30
0.0
 10
-12.040568521659
 20
111.388693089707
 30
0.0
 10
-11.996070317472
 20
111.364245334089
 30
0.0
 10
-11.95258874255
 20
111.337386656413
 30
0.0
 10
-11.910316192027
 20
111.308181107565
 30
0.0
 10
-11.869439472215
 20
111.276712973975
 30
0.0
 10
-11.830137160727
 20
111.243086121977
 30
0.0
 10
-11.792577068535
 20
111.207422931465
 30
0.0
 10
-11.756913878024
 20
111.169862839274
 30
0.0
 10
-11.723287026025
 20
111.130560527785
 30
0.0
 10
-11.691818892436
 20
111.089683807973
 30
0.0
 10
-11.662613343588
 20
111.04741125745
 30
0.0
 10
-11.635754665911
 20
111.003929682529
 30
0.0
 10
-11.611306910293
 20
110.959431478341
 30
0.0
 10
-11.589313651948
 20
110.914111962434
 30
0.0
 10
-11.569798155385
 20
110.868166755122
 30
0.0
 10
-11.552763920146
 20
110.82178927444
 30
0.0
 10
-11.538195570988
 20
110.775168405402
 30
0.0
 10
-11.526060046789
 20
110.728486393017
 30
0.0
 10
-11.51630803561
 20
110.681916996959
 30
0.0
 10
-11.506398121839
 20
110.620192912496
 30
0.0
 10
-11.500973748684
 20
110.559326325997
 30
0.0
 10
-11.500000000001
 20
110.514731391273
 30
0.0
 10
-11.500000000001
 20
110.499999999998
 30
0.0
 10
-11.500000000001
 20
102.499999999998
 30
0.0
 10
-11.500000000001
 20
94.499999999999
 30
0.0
 10
-11.5
 20
86.499999999999
 30
0.0
 10
-11.5
 20
86.485268608724
 30
0.0
 10
-11.500651207002
 20
86.455535783218
 30
0.0
 10
-11.50368593526
 20
86.410240380751
 30
0.0
 10
-11.508875600281
 20
86.364376066385
 30
0.0
 10
-11.516308035608
 20
86.318083003038
 30
0.0
 10
-11.526060046787
 20
86.27151360698
 30
0.0
 10
-11.538195570987
 20
86.224831594596
 30
0.0
 10
-11.552763920145
 20
86.178210725557
 30
0.0
 10
-11.569798155384
 20
86.131833244875
 30
0.0
 10
-11.589313651946
 20
86.085888037563
 30
0.0
 10
-11.611306910292
 20
86.040568521656
 30
0.0
 10
-11.63575466591
 20
85.996070317468
 30
0.0
 10
-11.662613343586
 20
85.952588742547
 30
0.0
 10
-11.691818892434
 20
85.910316192024
 30
0.0
 10
-11.723287026024
 20
85.869439472212
 30
0.0
 10
-11.756913878022
 20
85.830137160724
 30
0.0
 10
-11.792577068534
 20
85.792577068532
 30
0.0
 10
-11.830137160725
 20
85.756913878021
 30
0.0
 10
-11.869439472214
 20
85.723287026022
 30
0.0
 10
-11.910316192025
 20
85.691818892433
 30
0.0
 10
-11.952588742549
 20
85.662613343585
 30
0.0
 10
-11.99607031747
 20
85.635754665908
 30
0.0
 10
-12.040568521658
 20
85.61130691029
 30
0.0
 10
-12.085888037564
 20
85.589313651945
 30
0.0
 10
-12.131833244877
 20
85.569798155382
 30
0.0
 10
-12.178210725559
 20
85.552763920144
 30
0.0
 10
-12.224831594597
 20
85.538195570985
 30
0.0
 10
-12.271513606981
 20
85.526060046786
 30
0.0
 10
-12.31808300304
 20
85.516308035607
 30
0.0
 10
-12.379807087502
 20
85.506398121837
 30
0.0
 10
-12.440673674002
 20
85.500973748681
 30
0.0
 10
-12.485268608725
 20
85.499999999999
 30
0.0
 10
-12.5
 20
85.499999999999
 30
0.0
 10
-19.5
 20
85.499999999999
 30
0.0
 10
-26.5
 20
85.499999999999
 30
0.0
 10
-33.5
 20
85.499999999999
 30
0.0
 10
-33.514731391274
 20
85.499999999999
 30
0.0
 10
-33.54446421678
 20
85.500651207
 30
0.0
 10
-33.589759619248
 20
85.503685935259
 30
0.0
 10
-33.635623933613
 20
85.508875600279
 30
0.0
 10
-33.68191699696
 20
85.516308035607
 30
0.0
 10
-33.728486393019
 20
85.526060046786
 30
0.0
 10
-33.775168405403
 20
85.538195570985
 30
0.0
 10
-33.821789274441
 20
85.552763920144
 30
0.0
 10
-33.868166755123
 20
85.569798155382
 30
0.0
 10
-33.914111962435
 20
85.589313651945
 30
0.0
 10
-33.959431478342
 20
85.61130691029
 30
0.0
 10
-34.00392968253
 20
85.635754665908
 30
0.0
 10
-34.047411257451
 20
85.662613343585
 30
0.0
 10
-34.089683807974
 20
85.691818892433
 30
0.0
 10
-34.130560527786
 20
85.723287026022
 30
0.0
 10
-34.169862839275
 20
85.756913878021
 30
0.0
 10
-34.207422931466
 20
85.792577068532
 30
0.0
 10
-34.243086121978
 20
85.830137160724
 30
0.0
 10
-34.276712973976
 20
85.869439472212
 30
0.0
 10
-34.308181107566
 20
85.910316192024
 30
0.0
 10
-34.337386656414
 20
85.952588742547
 30
0.0
 10
-34.36424533409
 20
85.996070317468
 30
0.0
 10
-34.388693089708
 20
86.040568521656
 30
0.0
 10
-34.410686348054
 20
86.085888037563
 30
0.0
 10
-34.430201844616
 20
86.131833244875
 30
0.0
 10
-34.447236079855
 20
86.178210725557
 30
0.0
 10
-34.461804429013
 20
86.224831594596
 30
0.0
 10
-34.473939953213
 20
86.27151360698
 30
0.0
 10
-34.483691964392
 20
86.318083003039
 30
0.0
 10
-34.493601878162
 20
86.379807087501
 30
0.0
 10
-34.499026251317
 20
86.440673674
 30
0.0
 10
-34.5
 20
86.485268608724
 30
0.0
 10
-34.5
 20
86.499999999999
 30
0.0
 10
-34.5
 20
88.976310729377
 30
0.0
 10
-34.5
 20
91.452621458755
 30
0.0
 10
-34.5
 20
93.928932188133
 30
0.0
 10
-34.5
 20
93.944877331148
 30
0.0
 10
-34.499236863305
 20
93.976919584092
 30
0.0
 10
-34.495744506946
 20
94.025276702763
 30
0.0
 10
-34.489861402167
 20
94.073757660164
 30
0.0
 10
-34.481560787588
 20
94.122186650438
 30
0.0
 10
-34.470833106067
 20
94.170383912975
 30
0.0
 10
-34.457686606056
 20
94.218167848495
 30
0.0
 10
-34.442147624724
 20
94.26535722706
 30
0.0
 10
-34.424260542409
 20
94.311773439965
 30
0.0
 10
-34.404087400707
 20
94.357242736068
 30
0.0
 10
-34.381707190197
 20
94.401598384725
 30
0.0
 10
-34.357214824665
 20
94.444682708868
 30
0.0
 10
-34.330719829841
 20
94.486348936394
 30
0.0
 10
-34.302344783269
 20
94.526462824679
 30
0.0
 10
-34.272223552816
 20
94.5649040217
 30
0.0
 10
-34.240499375149
 20
94.601567137093
 30
0.0
 10
-34.218381699939
 20
94.624764050567
 30
0.0
 10
-34.207106781186
 20
94.63603896932
 30
0.0
 10
-28.469565231855
 20
100.373580518651
 30
0.0
 10
-22.732023682524
 20
106.111122067983
 30
0.0
 10
-16.994482133193
 20
111.848663617314
 30
0.0
 10
-16.963156741045
 20
111.879989009462
 30
0.0
 10
-16.895114280868
 20
111.939674306518
 30
0.0
 10
-16.77826563804
 20
112.016597124746
 30
0.0
 10
-16.64912081302
 20
112.077515872605
 30
0.0
 10
-16.511156488101
 20
112.119755991296
 30
0.0
 10
-16.368549454717
 20
112.141701756415
 30
0.0
 10
-16.22576355046
 20
112.142992188778
 30
0.0
 10
-16.08709250261
 20
112.124524222379
 30
0.0
 10
-15.999867726472
 20
112.100359175323
 30
0.0
 10
-15.958038364876
 20
112.08576928516
 30
0.0
  0
SPLINE
  5
c7
100
AcDbEntity
  8
BackPlate
100
AcDbSpline
 70
     9
 71
     3
 72
    92
 73
    88
 74
     0
 42
0.0000001
 43
0.0000001
 40
129.138181427668
 40
129.138181427668
 40
129.138181427668
 40
129.138181427668
 40
156.828358034663
 40
156.828358034663
 40
156.828358034663
 40
156.859608034663
 40
156.890858034663
 40
156.922108034663
 40
156.953358034663
 40
156.984608034663
 40
157.015858034663
 40
157.047108034663
 40
157.078358034663
 40
157.109608034663
 40
157.140858034663
 40
157.172108034663
 40
157.203358034663
 40
157.234608034663
 40
157.265858034663
 40
157.297108034663
 40
157.328358034663
 40
157.359608034663
 40
157.390858034663
 40
157.422108034663
 40
157.453358034663
 40
157.484608034663
 40
157.515858034663
 40
157.547108034663
 40
157.578358034663
 40
157.609608034663
 40
157.640858034663
 40
157.672108034663
 40
157.703358034663
 40
157.734608034663
 40
157.797108034663
 40
157.828358034663
 40
157.828358034663
 40
157.828358034663
 40
178.828358034663
 40
178.828358034663
 40
178.828358034663
 40
178.859608034663
 40
178.890858034663
 40
178.922108034663
 40
178.953358034663
 40
178.984608034663
 40
179.015858034663
 40
179.047108034663
 40
179.078358034663
 40
179.109608034663
 40
179.140858034663
 40
179.172108034663
 40
179.203358034663
 40
179.234608034663
 40
179.265858034663
 40
179.297108034663
 40
179.328358034663
 40
179.359608034663
 40
179.390858034663
 40
179.422108034663
 40
179.453358034663
 40
179.484608034663
 40
179.515858034663
 40
179.547108034663
 40
179.578358034663
 40
179.609608034663
 40
179.640858034663
 40
179.672108034663
 40
179.703358034663
 40
179.734608034663
 40
179.797108034663
 40
179.828358034663
 40
179.828358034663
 40
179.828358034663
 40
184.913847805262
 40
184.913847805262
 40
184.913847805262
 40
185.913847805262
 40
185.913847805262
 40
185.913847805262
 40
216.767902732706
 40
216.767902732706
 40
216.767902732706
 40
217.767902732706
 40
217.767902732706
 40
217.767902732706
 40
218.767902732706
 40
218.767902732706
 40
218.767902732706
 40
218.767902732706
 10
-57.809800673511
 20
62.999999999999
 30
0.0
 10
-67.039867115674
 20
62.999999999999
 30
0.0
 10
-76.269933557836
 20
62.999999999999
 30
0.0
 10
-85.499999999998
 20
62.999999999999
 30
0.0
 10
-85.514731391273
 20
62.999999999999
 30
0.0
 10
-85.544464216779
 20
62.999348792998
 30
0.0
 10
-85.589759619246
 20
62.996314064739
 30
0.0
 10
-85.635623933612
 20
62.991124399719
 30
0.0
 10
-85.681916996958
 20
62.983691964391
 30
0.0
 10
-85.728486393017
 20
62.973939953212
 30
0.0
 10
-85.775168405401
 20
62.961804429013
 30
0.0
 10
-85.82178927444
 20
62.947236079854
 30
0.0
 10
-85.868166755122
 20
62.930201844616
 30
0.0
 10
-85.914111962434
 20
62.910686348053
 30
0.0
 10
-85.959431478341
 20
62.888693089708
 30
0.0
 10
-86.003929682529
 20
62.86424533409
 30
0.0
 10
-86.04741125745
 20
62.837386656413
 30
0.0
 10
-86.089683807973
 20
62.808181107565
 30
0.0
 10
-86.130560527785
 20
62.776712973976
 30
0.0
 10
-86.169862839273
 20
62.743086121977
 30
0.0
 10
-86.207422931465
 20
62.707422931466
 30
0.0
 10
-86.243086121976
 20
62.669862839274
 30
0.0
 10
-86.276712973975
 20
62.630560527786
 30
0.0
 10
-86.308181107564
 20
62.589683807974
 30
0.0
 10
-86.337386656412
 20
62.547411257451
 30
0.0
 10
-86.364245334089
 20
62.50392968253
 30
0.0
 10
-86.388693089707
 20
62.459431478342
 30
0.0
 10
-86.410686348052
 20
62.414111962435
 30
0.0
 10
-86.430201844615
 20
62.368166755123
 30
0.0
 10
-86.447236079853
 20
62.321789274441
 30
0.0
 10
-86.461804429012
 20
62.275168405402
 30
0.0
 10
-86.473939953211
 20
62.228486393018
 30
0.0
 10
-86.48369196439
 20
62.181916996959
 30
0.0
 10
-86.49360187816
 20
62.120192912497
 30
0.0
 10
-86.499026251316
 20
62.059326325998
 30
0.0
 10
-86.499999999998
 20
62.014731391274
 30
0.0
 10
-86.499999999998
 20
61.999999999999
 30
0.0
 10
-86.499999999998
 20
54.999999999999
 30
0.0
 10
-86.499999999998
 20
48.0
 30
0.0
 10
-86.499999999998
 20
41.0
 30
0.0
 10
-86.499999999998
 20
40.985268608725
 30
0.0
 10
-86.499348792996
 20
40.955535783219
 30
0.0
 10
-86.496314064738
 20
40.910240380752
 30
0.0
 10
-86.491124399717
 20
40.864376066386
 30
0.0
 10
-86.48369196439
 20
40.81808300304
 30
0.0
 10
-86.473939953211
 20
40.771513606981
 30
0.0
 10
-86.461804429012
 20
40.724831594597
 30
0.0
 10
-86.447236079853
 20
40.678210725558
 30
0.0
 10
-86.430201844614
 20
40.631833244876
 30
0.0
 10
-86.410686348052
 20
40.585888037564
 30
0.0
 10
-86.388693089706
 20
40.540568521657
 30
0.0
 10
-86.364245334089
 20
40.496070317469
 30
0.0
 10
-86.337386656412
 20
40.452588742548
 30
0.0
 10
-86.308181107564
 20
40.410316192025
 30
0.0
 10
-86.276712973974
 20
40.369439472213
 30
0.0
 10
-86.243086121976
 20
40.330137160725
 30
0.0
 10
-86.207422931465
 20
40.292577068533
 30
0.0
 10
-86.169862839273
 20
40.256913878022
 30
0.0
 10
-86.130560527784
 20
40.223287026023
 30
0.0
 10
-86.089683807973
 20
40.191818892434
 30
0.0
 10
-86.047411257449
 20
40.162613343586
 30
0.0
 10
-86.003929682528
 20
40.135754665909
 30
0.0
 10
-85.95943147834
 20
40.111306910291
 30
0.0
 10
-85.914111962434
 20
40.089313651946
 30
0.0
 10
-85.868166755121
 20
40.069798155383
 30
0.0
 10
-85.821789274439
 20
40.052763920145
 30
0.0
 10
-85.775168405401
 20
40.038195570986
 30
0.0
 10
-85.728486393017
 20
40.026060046787
 30
0.0
 10
-85.681916996958
 20
40.016308035608
 30
0.0
 10
-85.620192912496
 20
40.006398121838
 30
0.0
 10
-85.559326325996
 20
40.000973748682
 30
0.0
 10
-85.514731391273
 20
40.0
 30
0.0
 10
-85.499999999998
 20
40.0
 30
0.0
 10
-83.804835352268
 20
40.0
 30
0.0
 10
-82.109670704539
 20
40.0
 30
0.0
 10
-80.41450605681
 20
40.0
 30
0.0
 10
-80.162013324904
 20
40.0
 30
0.0
 10
-79.918866951356
 20
40.095514258371
 30
0.0
 10
-79.733882390021
 20
40.267366787397
 30
0.0
 10
-72.198980595589
 20
47.267366787397
 30
0.0
 10
-64.664078801156
 20
54.267366787397
 30
0.0
 10
-57.129177006723
 20
61.267366787397
 30
0.0
 10
-56.827942730542
 20
61.547216477651
 30
0.0
 10
-56.728705610403
 20
61.982929475544
 30
0.0
 10
-56.879039368825
 20
62.365627397357
 30
0.0
 10
-57.029373127247
 20
62.748325319171
 30
0.0
 10
-57.398634115676
 20
62.999999999999
 30
0.0
 10
-57.809800673511
 20
62.999999999999
 30
0.0
  0
SPLINE
  5
c8
100
AcDbEntity
  8
BackPlate
100
AcDbSpline
 70
     9
 71
     3
 72
    97
 73
    93
 74
     0
 42
0.0000001
 43
0.0000001
 40
110.899462710206
 40
110.899462710206
 40
110.899462710206
 40
110.899462710206
 40
110.961962710206
 40
111.024462710206
 40
111.086962710206
 40
111.149462710206
 40
111.211962710206
 40
111.274462710206
 40
111.336962710206
 40
111.399462710206
 40
111.461962710206
 40
111.524462710206
 40
111.586962710206
 40
111.649462710206
 40
111.711962710206
 40
111.774462710206
 40
111.836962710206
 40
111.899462710206
 40
111.899462710206
 40
111.899462710206
 40
114.445786374314
 40
114.445786374314
 40
114.445786374314
 40
115.445786374314
 40
115.445786374314
 40
115.445786374314
 40
146.299841301758
 40
146.299841301758
 40
146.299841301758
 40
147.299841301758
 40
147.299841301758
 40
147.299841301758
 40
148.299841301758
 40
148.299841301758
 40
148.299841301758
 40
190.021906017756
 40
190.021906017756
 40
190.021906017756
 40
190.053156017756
 40
190.084406017756
 40
190.115656017756
 40
190.146906017756
 40
190.178156017756
 40
190.209406017756
 40
190.240656017756
 40
190.271906017756
 40
190.303156017756
 40
190.334406017756
 40
190.365656017756
 40
190.396906017756
 40
190.428156017756
 40
190.459406017756
 40
190.490656017756
 40
190.521906017756
 40
190.553156017756
 40
190.584406017756
 40
190.615656017756
 40
190.646906017756
 40
190.678156017756
 40
190.709406017756
 40
190.740656017756
 40
190.771906017756
 40
190.803156017756
 40
190.834406017756
 40
190.865656017756
 40
190.896906017756
 40
190.928156017756
 40
190.990656017756
 40
191.021906017756
 40
191.021906017756
 40
191.021906017756
 40
191.030179567976
 40
191.038453118196
 40
191.038453118196
 40
191.043532974268
 40
191.053692686414
 40
191.06385239856
 40
191.074012110706
 40
191.079091966779
 40
191.079091966779
 40
191.079091966779
 40
191.204091966779
 40
191.329091966779
 40
191.454091966779
 40
191.579091966779
 40
191.704091966779
 40
191.829091966779
 40
191.954091966779
 40
192.079091966779
 40
192.079091966779
 40
192.079091966779
 40
216.421419188011
 40
216.421419188011
 40
216.421419188011
 40
216.421419188011
 10
-39.863961030679
 20
62.707106781186
 30
0.0
 10
-39.875235949432
 20
62.718381699939
 30
0.0
 10
-39.898432862905
 20
62.740499375148
 30
0.0
 10
-39.935095978299
 20
62.772223552815
 30
0.0
 10
-39.973537175319
 20
62.802344783268
 30
0.0
 10
-40.013651063605
 20
62.83071982984
 30
0.0
 10
-40.05531729113
 20
62.857214824665
 30
0.0
 10
-40.098401615274
 20
62.881707190196
 30
0.0
 10
-40.14275726393
 20
62.904087400706
 30
0.0
 10
-40.188226560033
 20
62.924260542408
 30
0.0
 10
-40.234642772938
 20
62.942147624723
 30
0.0
 10
-40.281832151504
 20
62.957686606056
 30
0.0
 10
-40.329616087023
 20
62.970833106066
 30
0.0
 10
-40.377813349561
 20
62.981560787588
 30
0.0
 10
-40.426242339834
 20
62.989861402167
 30
0.0
 10
-40.474723297236
 20
62.995744506946
 30
0.0
 10
-40.523080415906
 20
62.999236863304
 30
0.0
 10
-40.55512266885
 20
62.999999999999
 30
0.0
 10
-40.571067811865
 20
62.999999999999
 30
0.0
 10
-41.419843062978
 20
62.999999999999
 30
0.0
 10
-42.268618314091
 20
62.999999999999
 30
0.0
 10
-43.117393565204
 20
62.999999999999
 30
0.0
 10
-43.36988629711
 20
62.999999999999
 30
0.0
 10
-43.613032670658
 20
62.904485741628
 30
0.0
 10
-43.798017231993
 20
62.732633212602
 30
0.0
 10
-51.332919026425
 20
55.732633212602
 30
0.0
 10
-58.867820820858
 20
48.732633212602
 30
0.0
 10
-66.402722615291
 20
41.732633212602
 30
0.0
 10
-66.703956891472
 20
41.452783522348
 30
0.0
 10
-66.803194011611
 20
41.017070524455
 30
0.0
 10
-66.652860253189
 20
40.634372602641
 30
0.0
 10
-66.502526494767
 20
40.251674680828
 30
0.0
 10
-66.133265506338
 20
40.0
 30
0.0
 10
-65.722098948503
 20
40.0
 30
0.0
 10
-51.814732632335
 20
40.0
 30
0.0
 10
-37.907366316167
 20
39.999999999999
 30
0.0
 10
-24.0
 20
39.999999999999
 30
0.0
 10
-23.985268608725
 20
39.999999999999
 30
0.0
 10
-23.955535783219
 20
40.000651207001
 30
0.0
 10
-23.910240380752
 20
40.00368593526
 30
0.0
 10
-23.864376066386
 20
40.00887560028
 30
0.0
 10
-23.818083003039
 20
40.016308035608
 30
0.0
 10
-23.771513606981
 20
40.026060046787
 30
0.0
 10
-23.724831594597
 20
40.038195570986
 30
0.0
 10
-23.678210725558
 20
40.052763920144
 30
0.0
 10
-23.631833244876
 20
40.069798155383
 30
0.0
 10
-23.585888037564
 20
40.089313651945
 30
0.0
 10
-23.540568521657
 20
40.111306910291
 30
0.0
 10
-23.496070317469
 20
40.135754665909
 30
0.0
 10
-23.452588742548
 20
40.162613343586
 30
0.0
 10
-23.410316192025
 20
40.191818892433
 30
0.0
 10
-23.369439472213
 20
40.223287026023
 30
0.0
 10
-23.330137160725
 20
40.256913878021
 30
0.0
 10
-23.292577068533
 20
40.292577068533
 30
0.0
 10
-23.256913878022
 20
40.330137160724
 30
0.0
 10
-23.223287026023
 20
40.369439472213
 30
0.0
 10
-23.191818892434
 20
40.410316192025
 30
0.0
 10
-23.162613343586
 20
40.452588742548
 30
0.0
 10
-23.135754665909
 20
40.496070317469
 30
0.0
 10
-23.111306910291
 20
40.540568521657
 30
0.0
 10
-23.089313651946
 20
40.585888037563
 30
0.0
 10
-23.069798155383
 20
40.631833244876
 30
0.0
 10
-23.052763920145
 20
40.678210725558
 30
0.0
 10
-23.038195570986
 20
40.724831594596
 30
0.0
 10
-23.026060046787
 20
40.77151360698
 30
0.0
 10
-23.016308035608
 20
40.818083003039
 30
0.0
 10
-23.006398121838
 20
40.879807087501
 30
0.0
 10
-23.000973748682
 20
40.940673674001
 30
0.0
 10
-23.0
 20
40.985268608724
 30
0.0
 10
-23.0
 20
40.999999999999
 30
0.0
 10
-23.0
 20
41.169961564334
 30
0.0
 10
-22.991743761326
 20
41.506913512929
 30
0.0
 10
-22.96787323609
 20
41.836936648366
 30
0.0
 10
-22.942693811712
 20
42.100118852855
 30
0.0
 10
-22.909470709951
 20
42.401851081649
 30
0.0
 10
-22.830983137275
 20
42.910742241767
 30
0.0
 10
-22.69778898898
 20
43.527984014592
 30
0.0
 10
-22.552906491025
 20
44.044920516037
 30
0.0
 10
-22.450224389358
 20
44.354844138609
 30
0.0
 10
-22.414230714838
 20
44.458038364874
 30
0.0
 10
-22.399640824676
 20
44.49986772647
 30
0.0
 10
-22.37547577762
 20
44.587092502608
 30
0.0
 10
-22.35700781122
 20
44.725763550458
 30
0.0
 10
-22.358298243583
 20
44.868549454715
 30
0.0
 10
-22.380244008702
 20
45.0111564881
 30
0.0
 10
-22.422484127393
 20
45.149120813019
 30
0.0
 10
-22.483402875252
 20
45.278265638038
 30
0.0
 10
-22.560325693481
 20
45.395114280866
 30
0.0
 10
-22.620010990536
 20
45.463156741043
 30
0.0
 10
-22.651336382684
 20
45.494482133191
 30
0.0
 10
-28.388877932016
 20
51.232023682523
 30
0.0
 10
-34.126419481347
 20
56.969565231854
 30
0.0
 10
-39.863961030679
 20
62.707106781186
 30
0.0
  0
SPLINE
  5
c9
100
AcDbEntity
  8
BackPlate
100
AcDbSpline
 70
     9
 71
     3
 72
   103
 73
    99
 74
     0
 42
0.0000001
 43
0.0000001
 40
22.0
 40
22.0
 40
22.0
 40
22.0
 40
22.03125
 40
22.0625
 40
22.09375
 40
22.125
 40
22.15625
 40
22.1875
 40
22.21875
 40
22.25
 40
22.28125
 40
22.3125
 40
22.34375
 40
22.375
 40
22.40625
 40
22.4375
 40
22.46875
 40
22.5
 40
22.53125
 40
22.5625
 40
22.59375
 40
22.625
 40
22.65625
 40
22.6875
 40
22.71875
 40
22.75
 40
22.78125
 40
22.8125
 40
22.84375
 40
22.875
 40
22.90625
 40
22.96875
 40
23.0
 40
23.0
 40
23.0
 40
28.016913190257
 40
28.016913190257
 40
28.016913190257
 40
29.016913190257
 40
29.016913190257
 40
29.016913190257
 40
59.420192790175
 40
59.420192790175
 40
59.420192790175
 40
60.420192790175
 40
60.420192790175
 40
60.420192790175
 40
61.420192790175
 40
61.420192790175
 40
61.420192790175
 40
75.849045099442
 40
75.849045099442
 40
75.849045099442
 40
76.349045099442
 40
76.849045099442
 40
76.849045099442
 40
76.849045099442
 40
76.95960341532
 40
77.070161731199
 40
77.070161731199
 40
77.070161731199
 40
84.363054949988
 40
84.363054949988
 40
84.363054949988
 40
84.394304949988
 40
84.425554949988
 40
84.456804949988
 40
84.488054949988
 40
84.519304949988
 40
84.550554949988
 40
84.581804949988
 40
84.613054949988
 40
84.644304949988
 40
84.675554949988
 40
84.706804949988
 40
84.738054949988
 40
84.769304949988
 40
84.800554949988
 40
84.831804949988
 40
84.863054949988
 40
84.894304949988
 40
84.925554949988
 40
84.956804949988
 40
84.988054949988
 40
85.019304949988
 40
85.050554949988
 40
85.081804949988
 40
85.113054949988
 40
85.144304949988
 40
85.175554949988
 40
85.206804949988
 40
85.238054949988
 40
85.269304949988
 40
85.331804949988
 40
85.363054949988
 40
85.363054949988
 40
85.363054949988
 40
106.363054949988
 40
106.363054949988
 40
106.363054949988
 40
106.363054949988
 10
-94.499999999998
 20
121.499999999998
 30
0.0
 10
-94.499999999998
 20
121.514731391273
 30
0.0
 10
-94.500651207
 20
121.544464216778
 30
0.0
 10
-94.503685935258
 20
121.589759619246
 30
0.0
 10
-94.508875600279
 20
121.635623933611
 30
0.0
 10
-94.516308035607
 20
121.681916996958
 30
0.0
 10
-94.526060046786
 20
121.728486393017
 30
0.0
 10
-94.538195570985
 20
121.775168405401
 30
0.0
 10
-94.552763920143
 20
121.821789274439
 30
0.0
 10
-94.569798155382
 20
121.868166755121
 30
0.0
 10
-94.589313651944
 20
121.914111962434
 30
0.0
 10
-94.61130691029
 20
121.95943147834
 30
0.0
 10
-94.635754665908
 20
122.003929682528
 30
0.0
 10
-94.662613343584
 20
122.047411257449
 30
0.0
 10
-94.691818892432
 20
122.089683807973
 30
0.0
 10
-94.723287026022
 20
122.130560527784
 30
0.0
 10
-94.75691387802
 20
122.169862839273
 30
0.0
 10
-94.792577068532
 20
122.207422931464
 30
0.0
 10
-94.830137160723
 20
122.243086121976
 30
0.0
 10
-94.869439472212
 20
122.276712973974
 30
0.0
 10
-94.910316192024
 20
122.308181107564
 30
0.0
 10
-94.952588742547
 20
122.337386656412
 30
0.0
 10
-94.996070317468
 20
122.364245334088
 30
0.0
 10
-95.040568521656
 20
122.388693089706
 30
0.0
 10
-95.085888037563
 20
122.410686348052
 30
0.0
 10
-95.131833244875
 20
122.430201844614
 30
0.0
 10
-95.178210725557
 20
122.447236079853
 30
0.0
 10
-95.224831594595
 20
122.461804429011
 30
0.0
 10
-95.271513606979
 20
122.473939953211
 30
0.0
 10
-95.318083003038
 20
122.48369196439
 30
0.0
 10
-95.3798070875
 20
122.49360187816
 30
0.0
 10
-95.440673674
 20
122.499026251316
 30
0.0
 10
-95.485268608724
 20
122.499999999998
 30
0.0
 10
-95.499999999998
 20
122.499999999998
 30
0.0
 10
-97.172304396748
 20
122.499999999998
 30
0.0
 10
-98.844608793498
 20
122.499999999998
 30
0.0
 10
-100.516913190248
 20
122.499999999998
 30
0.0
 10
-100.766424312878
 20
122.499999999998
 30
0.0
 10
-101.006922209634
 20
122.406723199898
 30
0.0
 10
-101.191182554269
 20
122.238485493926
 30
0.0
 10
-108.675309538396
 20
115.405152160593
 30
0.0
 10
-116.159436522523
 20
108.571818827259
 30
0.0
 10
-123.64356350665
 20
101.738485493926
 30
0.0
 10
-123.948368800892
 20
101.460185007879
 30
0.0
 10
-124.05087571714
 20
101.023210463376
 30
0.0
 10
-123.901626029332
 20
100.63839627624
 30
0.0
 10
-123.752376341524
 20
100.253582089103
 30
0.0
 10
-123.382037922633
 20
99.999999999998
 30
0.0
 10
-122.969294142629
 20
99.999999999998
 30
0.0
 10
-118.180318841127
 20
99.999999999998
 30
0.0
 10
-113.391343539625
 20
99.999999999998
 30
0.0
 10
-108.602368238123
 20
99.999999999998
 30
0.0
 10
-108.573785140599
 20
99.999999999998
 30
0.0
 10
-108.516513278981
 20
99.99754448083
 30
0.0
 10
-108.459664083644
 20
99.990178023264
 30
0.0
 10
-108.43150132579
 20
99.985294117645
 30
0.0
 10
-107.48970152115
 20
99.821969865757
 30
0.0
 10
-105.60102208522
 20
99.578891126397
 30
0.0
 10
-103.723687606283
 20
99.499999999997
 30
0.0
 10
-102.792893218752
 20
99.499999999998
 30
0.0
 10
-100.361928812501
 20
99.499999999998
 30
0.0
 10
-97.93096440625
 20
99.499999999998
 30
0.0
 10
-95.499999999999
 20
99.499999999998
 30
0.0
 10
-95.485268608724
 20
99.499999999998
 30
0.0
 10
-95.455535783218
 20
99.500651207
 30
0.0
 10
-95.410240380751
 20
99.503685935258
 30
0.0
 10
-95.364376066385
 20
99.508875600279
 30
0.0
 10
-95.318083003039
 20
99.516308035606
 30
0.0
 10
-95.27151360698
 20
99.526060046785
 30
0.0
 10
-95.224831594596
 20
99.538195570985
 30
0.0
 10
-95.178210725557
 20
99.552763920143
 30
0.0
 10
-95.131833244875
 20
99.569798155382
 30
0.0
 10
-95.085888037563
 20
99.589313651944
 30
0.0
 10
-95.040568521656
 20
99.61130691029
 30
0.0
 10
-94.996070317468
 20
99.635754665908
 30
0.0
 10
-94.952588742547
 20
99.662613343584
 30
0.0
 10
-94.910316192024
 20
99.691818892432
 30
0.0
 10
-94.869439472212
 20
99.723287026022
 30
0.0
 10
-94.830137160724
 20
99.75691387802
 30
0.0
 10
-94.792577068532
 20
99.792577068532
 30
0.0
 10
-94.756913878021
 20
99.830137160723
 30
0.0
 10
-94.723287026022
 20
99.869439472212
 30
0.0
 10
-94.691818892433
 20
99.910316192023
 30
0.0
 10
-94.662613343585
 20
99.952588742547
 30
0.0
 10
-94.635754665908
 20
99.996070317468
 30
0.0
 10
-94.61130691029
 20
100.040568521656
 30
0.0
 10
-94.589313651945
 20
100.085888037562
 30
0.0
 10
-94.569798155382
 20
100.131833244875
 30
0.0
 10
-94.552763920144
 20
100.178210725557
 30
0.0
 10
-94.538195570985
 20
100.224831594595
 30
0.0
 10
-94.526060046786
 20
100.271513606979
 30
0.0
 10
-94.516308035607
 20
100.318083003038
 30
0.0
 10
-94.506398121837
 20
100.3798070875
 30
0.0
 10
-94.500973748681
 20
100.440673674
 30
0.0
 10
-94.499999999999
 20
100.485268608723
 30
0.0
 10
-94.499999999999
 20
100.499999999998
 30
0.0
 10
-94.499999999999
 20
107.499999999998
 30
0.0
 10
-94.499999999998
 20
114.499999999998
 30
0.0
 10
-94.499999999998
 20
121.499999999998
 30
0.0
  0
SPLINE
  5
ca
100
AcDbEntity
  8
BackPlate
100
AcDbSpline
 70
     9
 71
     3
 72
    93
 73
    89
 74
     0
 42
0.0000001
 43
0.0000001
 40
1.0
 40
1.0
 40
1.0
 40
1.0
 40
25.342327221231
 40
25.342327221231
 40
25.342327221231
 40
25.467327221231
 40
25.592327221231
 40
25.717327221231
 40
25.842327221231
 40
25.967327221231
 40
26.092327221231
 40
26.217327221231
 40
26.342327221231
 40
26.342327221231
 40
26.342327221231
 40
26.356068420944
 40
26.369809620657
 40
26.38355082037
 40
26.397292020082
 40
26.397292020082
 40
26.397292020082
 40
26.428542020082
 40
26.459792020082
 40
26.491042020082
 40
26.522292020082
 40
26.553542020082
 40
26.584792020082
 40
26.616042020082
 40
26.647292020082
 40
26.678542020082
 40
26.709792020082
 40
26.741042020082
 40
26.772292020082
 40
26.803542020082
 40
26.834792020082
 40
26.866042020082
 40
26.897292020082
 40
26.928542020082
 40
26.959792020082
 40
26.991042020082
 40
27.022292020082
 40
27.053542020082
 40
27.084792020082
 40
27.116042020082
 40
27.147292020082
 40
27.178542020082
 40
27.209792020082
 40
27.241042020082
 40
27.272292020082
 40
27.303542020082
 40
27.366042020082
 40
27.397292020082
 40
27.397292020082
 40
27.397292020082
 40
69.779025632345
 40
69.779025632345
 40
69.779025632345
 40
70.779025632345
 40
70.779025632345
 40
70.779025632345
 40
71.779025632345
 40
71.779025632345
 40
71.779025632345
 40
102.92384863714
 40
102.92384863714
 40
102.92384863714
 40
103.92384863714
 40
103.92384863714
 40
103.92384863714
 40
106.563949490071
 40
106.563949490071
 40
106.563949490071
 40
106.626449490071
 40
106.688949490071
 40
106.751449490071
 40
106.813949490071
 40
106.876449490071
 40
106.938949490071
 40
107.001449490071
 40
107.063949490071
 40
107.126449490071
 40
107.188949490071
 40
107.251449490071
 40
107.313949490071
 40
107.376449490071
 40
107.438949490071
 40
107.501449490071
 40
107.563949490071
 40
107.563949490071
 40
107.563949490071
 40
107.563949490071
 10
-39.863961030679
 20
100.292893218812
 30
0.0
 10
-34.126419481347
 20
106.030434768143
 30
0.0
 10
-28.388877932016
 20
111.767976317475
 30
0.0
 10
-22.651336382684
 20
117.505517866806
 30
0.0
 10
-22.620010990536
 20
117.536843258954
 30
0.0
 10
-22.560325693481
 20
117.604885719131
 30
0.0
 10
-22.483402875252
 20
117.721734361959
 30
0.0
 10
-22.422484127393
 20
117.850879186979
 30
0.0
 10
-22.380244008702
 20
117.988843511898
 30
0.0
 10
-22.358298243583
 20
118.131450545282
 30
0.0
 10
-22.35700781122
 20
118.274236449539
 30
0.0
 10
-22.37547577762
 20
118.41290749739
 30
0.0
 10
-22.399640824676
 20
118.500132273528
 30
0.0
 10
-22.414230714838
 20
118.541961635123
 30
0.0
 10
-22.505953584264
 20
118.804932022772
 30
0.0
 10
-22.671239650328
 20
119.346167862237
 30
0.0
 10
-22.856904550909
 20
120.198709977065
 30
0.0
 10
-22.973076682783
 20
121.085184041794
 30
0.0
 10
-23.0
 20
121.693277049033
 30
0.0
 10
-23.0
 20
121.999999999998
 30
0.0
 10
-23.0
 20
122.014731391273
 30
0.0
 10
-23.000651207001
 20
122.044464216778
 30
0.0
 10
-23.00368593526
 20
122.089759619246
 30
0.0
 10
-23.00887560028
 20
122.135623933611
 30
0.0
 10
-23.016308035608
 20
122.181916996958
 30
0.0
 10
-23.026060046787
 20
122.228486393017
 30
0.0
 10
-23.038195570986
 20
122.275168405401
 30
0.0
 10
-23.052763920145
 20
122.321789274439
 30
0.0
 10
-23.069798155383
 20
122.368166755121
 30
0.0
 10
-23.089313651946
 20
122.414111962434
 30
0.0
 10
-23.111306910291
 20
122.45943147834
 30
0.0
 10
-23.135754665909
 20
122.503929682528
 30
0.0
 10
-23.162613343586
 20
122.547411257449
 30
0.0
 10
-23.191818892434
 20
122.589683807973
 30
0.0
 10
-23.223287026023
 20
122.630560527784
 30
0.0
 10
-23.256913878022
 20
122.669862839273
 30
0.0
 10
-23.292577068533
 20
122.707422931464
 30
0.0
 10
-23.330137160725
 20
122.743086121976
 30
0.0
 10
-23.369439472213
 20
122.776712973974
 30
0.0
 10
-23.410316192025
 20
122.808181107564
 30
0.0
 10
-23.452588742548
 20
122.837386656412
 30
0.0
 10
-23.496070317469
 20
122.864245334088
 30
0.0
 10
-23.540568521657
 20
122.888693089706
 30
0.0
 10
-23.585888037564
 20
122.910686348052
 30
0.0
 10
-23.631833244876
 20
122.930201844614
 30
0.0
 10
-23.678210725558
 20
122.947236079853
 30
0.0
 10
-23.724831594597
 20
122.961804429011
 30
0.0
 10
-23.771513606981
 20
122.973939953211
 30
0.0
 10
-23.818083003039
 20
122.98369196439
 30
0.0
 10
-23.879807087502
 20
122.99360187816
 30
0.0
 10
-23.940673674001
 20
122.999026251316
 30
0.0
 10
-23.985268608725
 20
122.999999999998
 30
0.0
 10
-24.0
 20
122.999999999998
 30
0.0
 10
-38.066612586616
 20
122.999999999998
 30
0.0
 10
-52.133225173232
 20
122.999999999998
 30
0.0
 10
-66.199837759848
 20
122.999999999998
 30
0.0
 10
-66.612581539852
 20
122.999999999998
 30
0.0
 10
-66.982919958744
 20
122.746417910893
 30
0.0
 10
-67.132169646552
 20
122.361603723756
 30
0.0
 10
-67.281419334359
 20
121.97678953662
 30
0.0
 10
-67.178912418112
 20
121.539814992117
 30
0.0
 10
-66.87410712387
 20
121.26151450607
 30
0.0
 10
-59.207440457203
 20
114.26151450607
 30
0.0
 10
-51.540773790537
 20
107.26151450607
 30
0.0
 10
-43.87410712387
 20
100.26151450607
 30
0.0
 10
-43.689846779234
 20
100.093276800098
 30
0.0
 10
-43.449348882478
 20
99.999999999998
 30
0.0
 10
-43.199837759849
 20
99.999999999998
 30
0.0
 10
-42.323581110521
 20
99.999999999998
 30
0.0
 10
-41.447324461193
 20
99.999999999998
 30
0.0
 10
-40.571067811865
 20
99.999999999998
 30
0.0
 10
-40.55512266885
 20
99.999999999998
 30
0.0
 10
-40.523080415906
 20
100.000763136693
 30
0.0
 10
-40.474723297236
 20
100.004255493052
 30
0.0
 10
-40.426242339834
 20
100.010138597831
 30
0.0
 10
-40.377813349561
 20
100.01843921241
 30
0.0
 10
-40.329616087023
 20
100.029166893931
 30
0.0
 10
-40.281832151503
 20
100.042313393942
 30
0.0
 10
-40.234642772938
 20
100.057852375274
 30
0.0
 10
-40.188226560033
 20
100.075739457589
 30
0.0
 10
-40.14275726393
 20
100.095912599291
 30
0.0
 10
-40.098401615274
 20
100.118292809801
 30
0.0
 10
-40.05531729113
 20
100.142785175333
 30
0.0
 10
-40.013651063605
 20
100.169280170158
 30
0.0
 10
-39.973537175319
 20
100.197655216729
 30
0.0
 10
-39.935095978299
 20
100.227776447182
 30
0.0
 10
-39.898432862905
 20
100.259500624849
 30
0.0
 10
-39.875235949432
 20
100.281618300059
 30
0.0
 10
-39.863961030679
 20
100.292893218812
 30
0.0
  0
SPLINE
  5
cb
100
AcDbEntity
  8
BackPlate
100
AcDbSpline
 70
     9
 71
     3
 72
   103
 73
    99
 74
     0
 42
0.0000001
 43
0.0000001
 40
117.738867390107
 40
117.738867390107
 40
117.738867390107
 40
117.738867390107
 40
118.238867390107
 40
118.738867390107
 40
118.738867390107
 40
118.738867390107
 40
133.167719699371
 40
133.167719699371
 40
133.167719699371
 40
134.167719699371
 40
134.167719699371
 40
134.167719699371
 40
135.167719699371
 40
135.167719699371
 40
135.167719699371
 40
165.570999299289
 40
165.570999299289
 40
165.570999299289
 40
166.570999299289
 40
166.570999299289
 40
166.570999299289
 40
171.587912489533
 40
171.587912489533
 40
171.587912489533
 40
171.619162489533
 40
171.650412489533
 40
171.681662489533
 40
171.712912489533
 40
171.744162489533
 40
171.775412489533
 40
171.806662489533
 40
171.837912489533
 40
171.869162489533
 40
171.900412489533
 40
171.931662489533
 40
171.962912489533
 40
171.994162489533
 40
172.025412489533
 40
172.056662489533
 40
172.087912489533
 40
172.119162489533
 40
172.150412489533
 40
172.181662489533
 40
172.212912489533
 40
172.244162489533
 40
172.275412489533
 40
172.306662489533
 40
172.337912489533
 40
172.369162489533
 40
172.400412489533
 40
172.431662489533
 40
172.462912489533
 40
172.494162489533
 40
172.556662489533
 40
172.587912489533
 40
172.587912489533
 40
172.587912489533
 40
193.587912489533
 40
193.587912489533
 40
193.587912489533
 40
193.619162489533
 40
193.650412489533
 40
193.681662489533
 40
193.712912489533
 40
193.744162489533
 40
193.775412489533
 40
193.806662489533
 40
193.837912489533
 40
193.869162489533
 40
193.900412489533
 40
193.931662489533
 40
193.962912489533
 40
193.994162489533
 40
194.025412489533
 40
194.056662489533
 40
194.087912489533
 40
194.119162489533
 40
194.150412489533
 40
194.181662489533
 40
194.212912489533
 40
194.244162489533
 40
194.275412489533
 40
194.306662489533
 40
194.337912489533
 40
194.369162489533
 40
194.400412489533
 40
194.431662489533
 40
194.462912489533
 40
194.494162489533
 40
194.556662489533
 40
194.587912489533
 40
194.587912489533
 40
194.587912489533
 40
201.880805708361
 40
201.880805708361
 40
201.880805708361
 40
201.991364024238
 40
202.101922340116
 40
202.101922340116
 40
202.101922340116
 40
202.101922340116
 10
-72.568498674206
 20
99.985294117646
 30
0.0
 10
-72.540335916351
 20
99.990178023264
 30
0.0
 10
-72.483486721014
 20
99.997544480831
 30
0.0
 10
-72.426214859397
 20
99.999999999999
 30
0.0
 10
-72.397631761873
 20
99.999999999999
 30
0.0
 10
-67.608656460372
 20
99.999999999999
 30
0.0
 10
-62.819681158871
 20
99.999999999999
 30
0.0
 10
-58.03070585737
 20
99.999999999998
 30
0.0
 10
-57.617962077366
 20
99.999999999998
 30
0.0
 10
-57.247623658474
 20
100.253582089104
 30
0.0
 10
-57.098373970667
 20
100.63839627624
 30
0.0
 10
-56.949124282859
 20
101.023210463376
 30
0.0
 10
-57.051631199107
 20
101.46018500788
 30
0.0
 10
-57.356436493349
 20
101.738485493927
 30
0.0
 10
-64.840563477475
 20
108.57181882726
 30
0.0
 10
-72.324690461602
 20
115.405152160593
 30
0.0
 10
-79.808817445729
 20
122.238485493926
 30
0.0
 10
-79.993077790365
 20
122.406723199898
 30
0.0
 10
-80.233575687121
 20
122.499999999998
 30
0.0
 10
-80.48308680975
 20
122.499999999998
 30
0.0
 10
-82.1553912065
 20
122.499999999998
 30
0.0
 10
-83.827695603249
 20
122.499999999998
 30
0.0
 10
-85.499999999998
 20
122.499999999998
 30
0.0
 10
-85.514731391273
 20
122.499999999998
 30
0.0
 10
-85.544464216779
 20
122.499348792996
 30
0.0
 10
-85.589759619246
 20
122.496314064738
 30
0.0
 10
-85.635623933612
 20
122.491124399717
 30
0.0
 10
-85.681916996959
 20
122.48369196439
 30
0.0
 10
-85.728486393017
 20
122.473939953211
 30
0.0
 10
-85.775168405401
 20
122.461804429011
 30
0.0
 10
-85.82178927444
 20
122.447236079853
 30
0.0
 10
-85.868166755122
 20
122.430201844614
 30
0.0
 10
-85.914111962434
 20
122.410686348052
 30
0.0
 10
-85.959431478341
 20
122.388693089706
 30
0.0
 10
-86.003929682529
 20
122.364245334088
 30
0.0
 10
-86.04741125745
 20
122.337386656412
 30
0.0
 10
-86.089683807973
 20
122.308181107564
 30
0.0
 10
-86.130560527785
 20
122.276712973974
 30
0.0
 10
-86.169862839273
 20
122.243086121976
 30
0.0
 10
-86.207422931465
 20
122.207422931464
 30
0.0
 10
-86.243086121976
 20
122.169862839273
 30
0.0
 10
-86.276712973975
 20
122.130560527784
 30
0.0
 10
-86.308181107564
 20
122.089683807973
 30
0.0
 10
-86.337386656412
 20
122.047411257449
 30
0.0
 10
-86.364245334089
 20
122.003929682528
 30
0.0
 10
-86.388693089707
 20
121.95943147834
 30
0.0
 10
-86.410686348052
 20
121.914111962434
 30
0.0
 10
-86.430201844615
 20
121.868166755121
 30
0.0
 10
-86.447236079853
 20
121.821789274439
 30
0.0
 10
-86.461804429012
 20
121.775168405401
 30
0.0
 10
-86.473939953211
 20
121.728486393017
 30
0.0
 10
-86.48369196439
 20
121.681916996958
 30
0.0
 10
-86.49360187816
 20
121.620192912496
 30
0.0
 10
-86.499026251316
 20
121.559326325996
 30
0.0
 10
-86.499999999998
 20
121.514731391273
 30
0.0
 10
-86.499999999998
 20
121.499999999998
 30
0.0
 10
-86.499999999998
 20
114.499999999998
 30
0.0
 10
-86.499999999999
 20
107.499999999998
 30
0.0
 10
-86.499999999999
 20
100.499999999998
 30
0.0
 10
-86.499999999999
 20
100.485268608724
 30
0.0
 10
-86.499348792997
 20
100.455535783218
 30
0.0
 10
-86.496314064739
 20
100.41024038075
 30
0.0
 10
-86.491124399718
 20
100.364376066385
 30
0.0
 10
-86.48369196439
 20
100.318083003038
 30
0.0
 10
-86.473939953211
 20
100.271513606979
 30
0.0
 10
-86.461804429012
 20
100.224831594595
 30
0.0
 10
-86.447236079854
 20
100.178210725557
 30
0.0
 10
-86.430201844615
 20
100.131833244875
 30
0.0
 10
-86.410686348053
 20
100.085888037562
 30
0.0
 10
-86.388693089707
 20
100.040568521656
 30
0.0
 10
-86.364245334089
 20
99.996070317468
 30
0.0
 10
-86.337386656413
 20
99.952588742547
 30
0.0
 10
-86.308181107565
 20
99.910316192023
 30
0.0
 10
-86.276712973975
 20
99.869439472212
 30
0.0
 10
-86.243086121977
 20
99.830137160723
 30
0.0
 10
-86.207422931465
 20
99.792577068532
 30
0.0
 10
-86.169862839274
 20
99.75691387802
 30
0.0
 10
-86.130560527785
 20
99.723287026022
 30
0.0
 10
-86.089683807973
 20
99.691818892432
 30
0.0
 10
-86.04741125745
 20
99.662613343584
 30
0.0
 10
-86.003929682529
 20
99.635754665908
 30
0.0
 10
-85.959431478341
 20
99.61130691029
 30
0.0
 10
-85.914111962434
 20
99.589313651944
 30
0.0
 10
-85.868166755122
 20
99.569798155382
 30
0.0
 10
-85.82178927444
 20
99.552763920143
 30
0.0
 10
-85.775168405402
 20
99.538195570985
 30
0.0
 10
-85.728486393018
 20
99.526060046785
 30
0.0
 10
-85.681916996959
 20
99.516308035606
 30
0.0
 10
-85.620192912497
 20
99.506398121836
 30
0.0
 10
-85.559326325997
 20
99.50097374868
 30
0.0
 10
-85.514731391273
 20
99.499999999998
 30
0.0
 10
-85.499999999999
 20
99.499999999998
 30
0.0
 10
-83.069035593716
 20
99.499999999998
 30
0.0
 10
-80.638071187434
 20
99.499999999998
 30
0.0
 10
-78.207106781152
 20
99.499999999998
 30
0.0
 10
-77.276312393636
 20
99.499999999999
 30
0.0
 10
-75.398977914729
 20
99.578891126403
 30
0.0
 10
-73.510298478831
 20
99.82196986576
 30
0.0
 10
-72.568498674206
 20
99.985294117646
 30
0.0
  0
SPLINE
  5
cc
100
AcDbEntity
  8
BackPlate
100
AcDbSpline
 70
     9
 71
     3
 72
   115
 73
   111
 74
     0
 42
0.0000001
 43
0.0000001
 40
61.643595293798
 40
61.643595293798
 40
61.643595293798
 40
61.643595293798
 40
61.674845293798
 40
61.706095293798
 40
61.737345293798
 40
61.768595293798
 40
61.799845293798
 40
61.831095293798
 40
61.862345293798
 40
61.893595293798
 40
61.924845293798
 40
61.956095293798
 40
61.987345293798
 40
62.018595293798
 40
62.049845293798
 40
62.081095293798
 40
62.112345293798
 40
62.143595293798
 40
62.174845293798
 40
62.206095293798
 40
62.237345293798
 40
62.268595293798
 40
62.299845293798
 40
62.331095293798
 40
62.362345293798
 40
62.393595293798
 40
62.424845293798
 40
62.456095293798
 40
62.487345293798
 40
62.518595293798
 40
62.549845293798
 40
62.612345293798
 40
62.643595293798
 40
62.643595293798
 40
62.643595293798
 40
71.360588803964
 40
71.360588803964
 40
71.360588803964
 40
71.860588803964
 40
72.360588803964
 40
72.360588803964
 40
72.360588803964
 40
94.630732821222
 40
94.630732821222
 40
94.630732821222
 40
94.840202534531
 40
94.840202534531
 40
94.840202534531
 40
94.84954155377
 40
94.858880573009
 40
94.858880573009
 40
94.868219592248
 40
94.877558611488
 40
94.877558611488
 40
94.886897630727
 40
94.896236649966
 40
94.896236649966
 40
94.905575669205
 40
94.914914688444
 40
94.914914688444
 40
94.924253707683
 40
94.933592726922
 40
94.933592726922
 40
94.942473355775
 40
94.951353984628
 40
94.951353984628
 40
94.951353984628
 40
123.318394331939
 40
123.318394331939
 40
123.318394331939
 40
124.318394331939
 40
124.318394331939
 40
124.318394331939
 40
128.495467451512
 40
128.495467451512
 40
128.495467451512
 40
128.557967451512
 40
128.620467451512
 40
128.682967451512
 40
128.745467451512
 40
128.807967451512
 40
128.870467451512
 40
128.932967451512
 40
128.995467451512
 40
129.057967451512
 40
129.120467451512
 40
129.182967451512
 40
129.245467451512
 40
129.307967451512
 40
129.432967451512
 40
129.495467451512
 40
129.495467451512
 40
129.495467451512
 40
154.383472335706
 40
154.383472335706
 40
154.383472335706
 40
154.508472335706
 40
154.633472335706
 40
154.758472335706
 40
154.883472335706
 40
155.008472335706
 40
155.133472335706
 40
155.258472335706
 40
155.383472335706
 40
155.383472335706
 40
155.383472335706
 40
155.399965784536
 40
155.416459233367
 40
155.432952682198
 40
155.449446131028
 40
155.449446131028
 40
155.449446131028
 40
155.449446131028
 10
-157.999999999997
 20
31.595459162895
 30
0.0
 10
-157.999999999997
 20
31.58072777162
 30
0.0
 10
-157.999348792996
 20
31.550994946114
 30
0.0
 10
-157.996314064737
 20
31.505699543647
 30
0.0
 10
-157.991124399717
 20
31.459835229281
 30
0.0
 10
-157.983691964389
 20
31.413542165935
 30
0.0
 10
-157.97393995321
 20
31.366972769876
 30
0.0
 10
-157.961804429011
 20
31.320290757492
 30
0.0
 10
-157.947236079853
 20
31.273669888453
 30
0.0
 10
-157.930201844614
 20
31.227292407771
 30
0.0
 10
-157.910686348051
 20
31.181347200459
 30
0.0
 10
-157.888693089706
 20
31.136027684552
 30
0.0
 10
-157.864245334088
 20
31.091529480364
 30
0.0
 10
-157.837386656411
 20
31.048047905443
 30
0.0
 10
-157.808181107563
 20
31.00577535492
 30
0.0
 10
-157.776712973974
 20
30.964898635108
 30
0.0
 10
-157.743086121975
 20
30.92559632362
 30
0.0
 10
-157.707422931464
 20
30.888036231428
 30
0.0
 10
-157.669862839273
 20
30.852373040917
 30
0.0
 10
-157.630560527784
 20
30.818746188918
 30
0.0
 10
-157.589683807972
 20
30.787278055329
 30
0.0
 10
-157.547411257449
 20
30.758072506481
 30
0.0
 10
-157.503929682528
 20
30.731213828804
 30
0.0
 10
-157.45943147834
 20
30.706766073186
 30
0.0
 10
-157.414111962433
 20
30.684772814841
 30
0.0
 10
-157.368166755121
 20
30.665257318278
 30
0.0
 10
-157.321789274439
 20
30.64822308304
 30
0.0
 10
-157.275168405401
 20
30.633654733881
 30
0.0
 10
-157.228486393016
 20
30.621519209682
 30
0.0
 10
-157.181916996958
 20
30.611767198503
 30
0.0
 10
-157.120192912495
 20
30.601857284733
 30
0.0
 10
-157.059326325996
 20
30.596432911577
 30
0.0
 10
-157.014731391272
 20
30.595459162895
 30
0.0
 10
-156.999999999997
 20
30.595459162895
 30
0.0
 10
-154.165691927099
 20
30.595459162895
 30
0.0
 10
-151.331383854201
 20
30.595459162894
 30
0.0
 10
-148.497075781302
 20
30.595459162894
 30
0.0
 10
-148.468023867053
 20
30.595459162894
 30
0.0
 10
-148.409809066569
 20
30.597996049201
 30
0.0
 10
-148.352038154028
 20
30.605606597915
 30
0.0
 10
-148.323427603635
 20
30.610651409882
 30
0.0
 10
-141.012825515445
 20
31.899707803254
 30
0.0
 10
-133.702223427254
 20
33.188764196626
 30
0.0
 10
-126.391621339064
 20
34.477820589997
 30
0.0
 10
-121.996108998894
 20
35.252868009606
 30
0.0
 10
-117.948106869866
 20
35.936727160847
 30
0.0
 10
-114.248844147257
 20
36.536988891432
 30
0.0
 10
-114.184577310979
 20
36.547417164647
 30
0.0
 10
-114.058694640258
 20
36.580725951389
 30
0.0
 10
-113.941583318194
 20
36.637654505795
 30
0.0
 10
-113.830591151764
 20
36.705747379879
 30
0.0
 10
-113.726779004423
 20
36.784353741749
 30
0.0
 10
-113.640048748783
 20
36.881481414525
 30
0.0
 10
-113.563218045957
 20
36.986614395141
 30
0.0
 10
-113.497021244032
 20
37.098747822258
 30
0.0
 10
-113.453659035853
 20
37.221530724016
 30
0.0
 10
-113.422494419481
 20
37.347961207666
 30
0.0
 10
-113.403825266412
 20
37.476830850274
 30
0.0
 10
-113.410324159027
 20
37.60688347984
 30
0.0
 10
-113.42949221609
 20
37.735679776752
 30
0.0
 10
-113.461146229255
 20
37.861988705623
 30
0.0
 10
-113.516533079042
 20
37.979836993405
 30
0.0
 10
-113.581528361937
 20
38.088967528462
 30
0.0
 10
-113.654493841935
 20
38.189009012321
 30
0.0
 10
-113.744567425244
 20
38.273973765918
 30
0.0
 10
-113.793354607528
 20
38.312090326301
 30
0.0
 10
-121.244544365188
 20
44.133572753237
 30
0.0
 10
-128.695734122848
 20
49.955055180172
 30
0.0
 10
-136.146923880508
 20
55.776537607108
 30
0.0
 10
-136.370252813585
 20
55.951020542266
 30
0.0
 10
-136.657129472224
 20
56.022546608811
 30
0.0
 10
-136.93623188969
 20
55.973333322231
 30
0.0
 10
-138.307436289931
 20
55.731552990402
 30
0.0
 10
-139.678640690172
 20
55.489772658573
 30
0.0
 10
-141.049845090414
 20
55.247992326744
 30
0.0
 10
-141.062771184447
 20
55.245713107611
 30
0.0
 10
-141.08861594553
 20
55.240630979183
 30
0.0
 10
-141.127266774733
 20
55.231426660939
 30
0.0
 10
-141.165705672188
 20
55.220638598074
 30
0.0
 10
-141.203836192098
 20
55.208271838854
 30
0.0
 10
-141.241561822064
 20
55.194339225984
 30
0.0
 10
-141.278786771458
 20
55.178861436004
 30
0.0
 10
-141.315416764013
 20
55.161866922187
 30
0.0
 10
-141.351359824155
 20
55.143391761535
 30
0.0
 10
-141.386527042681
 20
55.123479406712
 30
0.0
 10
-141.420833308682
 20
55.102180346463
 30
0.0
 10
-141.454197995036
 20
55.079551680029
 30
0.0
 10
-141.486545585916
 20
55.055656613132
 30
0.0
 10
-141.528226452902
 20
55.022199641659
 30
0.0
 10
-141.567606054842
 20
54.986494627759
 30
0.0
 10
-141.595247966308
 20
54.958265764039
 30
0.0
 10
-141.604245827026
 20
54.948709758111
 30
0.0
 10
-147.291363872708
 20
48.90881477994
 30
0.0
 10
-152.97848191839
 20
42.86891980177
 30
0.0
 10
-158.665599964072
 20
36.8290248236
 30
0.0
 10
-158.696952772394
 20
36.795727173012
 30
0.0
 10
-158.756375019757
 20
36.723429673193
 30
0.0
 10
-158.831563500954
 20
36.599477336113
 30
0.0
 10
-158.889082954244
 20
36.462882333096
 30
0.0
 10
-158.926075297648
 20
36.31763324293
 30
0.0
 10
-158.940942259366
 20
36.168486653583
 30
0.0
 10
-158.933560547051
 20
36.0204589782
 30
0.0
 10
-158.905253280267
 20
35.878275335612
 30
0.0
 10
-158.874112411939
 20
35.790024679629
 30
0.0
 10
-158.856024871549
 20
35.748017858671
 30
0.0
 10
-158.723680102204
 20
35.440658045732
 30
0.0
 10
-158.483600450738
 20
34.802070941509
 30
0.0
 10
-158.211334825257
 20
33.780928963909
 30
0.0
 10
-158.039861175975
 20
32.708181788358
 30
0.0
 10
-157.999999999997
 20
31.968505590307
 30
0.0
 10
-157.999999999997
 20
31.595459162895
 30
0.0
  0
ENDSEC
  0
SECTION
  2
OBJECTS
  0
DICTIONARY
  5
C
330
0
100
AcDbDictionary
281
     1
  3
ACAD_2007HEADERVARS_RT
350
AA
  3
ACAD_COLOR
350
6B
  3
ACAD_GROUP
350
D
  3
ACAD_LAYOUT
350
6A
  3
ACAD_MATERIAL
350
10
  3
ACAD_MLEADERSTYLE
350
6E
  3
ACAD_MLINESTYLE
350
67
  3
ACAD_PLOTSETTINGS
350
69
  3
ACAD_PLOTSTYLENAME
350
E
  3
ACAD_SCALELIST
350
3A
  3
ACAD_TABLESTYLE
350
6C
  3
ACAD_VISUALSTYLE
350
29
  3
ACDB_RECOMPOSE_DATA
350
A8
  3
AcDbVariableDictionary
350
9C
  3
DWGPROPS
350
A9
  0
DICTIONARY
  5
9A
330
5C
100
AcDbDictionary
280
     1
281
     1
  3
ADSK_XREC_LAYER_RECONCILED
360
9B
  0
DICTIONARY
  5
AA
102
{ACAD_REACTORS
330
C
102
}
330
C
100
AcDbDictionary
281
     1
  3
DIMJOGANG
350
AB
  0
DICTIONARY
  5
6B
102
{ACAD_REACTORS
330
C
102
}
330
C
100
AcDbDictionary
281
     1
  0
DICTIONARY
  5
D
102
{ACAD_REACTORS
330
C
102
}
330
C
100
AcDbDictionary
281
     1
  0
DICTIONARY
  5
6A
102
{ACAD_REACTORS
330
C
102
}
330
C
100
AcDbDictionary
281
     1
  3
Layout1
350
74
  3
Layout2
350
7C
  3
Model
350
78
  0
DICTIONARY
  5
10
102
{ACAD_REACTORS
330
C
102
}
330
C
100
AcDbDictionary
281
     1
  3
ByBlock
350
19
  3
ByLayer
350
11
  3
Global
350
21
  0
DICTIONARY
  5
6E
102
{ACAD_REACTORS
330
C
102
}
330
C
100
AcDbDictionary
281
     1
  3
Standard
350
6F
  0
DICTIONARY
  5
67
102
{ACAD_REACTORS
330
C
102
}
330
C
100
AcDbDictionary
281
     1
  3
Standard
350
68
  0
DICTIONARY
  5
69
102
{ACAD_REACTORS
330
C
102
}
330
C
100
AcDbDictionary
281
     1
  0
ACDBDICTIONARYWDFLT
  5
E
102
{ACAD_REACTORS
330
C
102
}
330
C
100
AcDbDictionary
281
     1
  3
Normal
350
F
100
AcDbDictionaryWithDefault
340
F
  0
DICTIONARY
  5
3A
102
{ACAD_REACTORS
330
C
102
}
330
C
100
AcDbDictionary
281
     1
  3
A0
350
3B
  3
A1
350
3C
  3
A2
350
3D
  3
A3
350
3E
  3
A4
350
3F
  3
A5
350
40
  3
A6
350
41
  3
A7
350
42
  3
A8
350
43
  3
A9
350
44
  3
B0
350
45
  3
B1
350
46
  3
B2
350
47
  3
B3
350
48
  3
B4
350
49
  3
B5
350
4A
  3
B6
350
4B
  3
B7
350
4C
  3
B8
350
4D
  3
B9
350
4E
  3
C0
350
4F
  3
C1
350
50
  3
C2
350
51
  3
C3
350
52
  3
C4
350
53
  3
C5
350
54
  3
C6
350
55
  3
C7
350
56
  3
C8
350
57
  3
C9
350
58
  3
D0
350
59
  3
D1
350
5A
  3
D2
350
5B
  0
DICTIONARY
  5
6C
102
{ACAD_REACTORS
330
C
102
}
330
C
100
AcDbDictionary
281
     1
  3
Standard
350
6D
  0
DICTIONARY
  5
29
102
{ACAD_REACTORS
330
C
102
}
330
C
100
AcDbDictionary
281
     1
  3
2dWireframe
350
2F
  3
3D Hidden
350
31
  3
3dWireframe
350
30
  3
Basic
350
2E
  3
Brighten
350
35
  3
ColorChange
350
39
  3
Conceptual
350
32
  3
Dim
350
34
  3
Facepattern
350
38
  3
Flat
350
2A
  3
FlatWithEdges
350
2B
  3
Gouraud
350
2C
  3
GouraudWithEdges
350
2D
  3
Linepattern
350
37
  3
Realistic
350
33
  3
Thicken
350
36
  0
XRECORD
  5
A8
102
{ACAD_REACTORS
330
C
102
}
330
C
100
AcDbXrecord
280
     1
 90
     1
330
6D
  0
DICTIONARY
  5
9C
102
{ACAD_REACTORS
330
C
102
}
330
C
100
AcDbDictionary
281
     1
  3
CANNOSCALE
350
A0
  3
CMLEADERSTYLE
350
9E
  3
CTABLESTYLE
350
9D
  3
DIMASSOC
350
A5
  3
HIDETEXT
350
A4
  3
INDEXCTL
350
A3
  3
LIGHTINGUNITS
350
A1
  3
MSLTSCALE
350
9F
  3
SORTENTS
350
A2
  0
XRECORD
  5
A9
102
{ACAD_REACTORS
330
C
102
}
330
C
100
AcDbXrecord
280
     1
  1
DWGPROPS COOKIE
  2

  3

  4

  6

  7

  8
Michael
  9

300
=
301
=
302
=
303
=
304
=
305
=
306
=
307
=
308
=
309
=
 40
0.002929872685
 41
2456236.994979560841
 42
2456236.997909063008
  1

 90
     0
  0
XRECORD
  5
9B
102
{ACAD_REACTORS
330
9A
102
}
330
9A
100
AcDbXrecord
280
     1
290
1
  0
XRECORD
  5
AB
102
{ACAD_REACTORS
330
AA
102
}
330
AA
100
AcDbXrecord
280
     1
 40
1.570796326795
  0
LAYOUT
  5
74
102
{ACAD_XDICTIONARY
360
B1
102
}
102
{ACAD_REACTORS
330
6A
102
}
330
6A
100
AcDbPlotSettings
  1

  2
Auto Canon Bubble-Jet BJC-1000 on MGIBSON-HOME
  4

  6

 40
0.0
 41
0.0
 42
0.0
 43
0.0
 44
0.0
 45
0.0
 46
0.0
 47
0.0
 48
0.0
 49
0.0
140
0.0
141
0.0
142
1.0
143
1.0
 70
   688
 72
     0
 73
     0
 74
     5
  7

 75
    16
147
1.0
148
0.0
149
0.0
100
AcDbLayout
  1
Layout1
 70
     1
 71
     1
 10
0.0
 20
0.0
 11
420.0
 21
297.0
 12
0.0
 22
0.0
 32
0.0
 14
100000000000000000000.0
 24
100000000000000000000.0
 34
100000000000000000000.0
 15
-100000000000000000000.0
 25
-100000000000000000000.0
 35
-100000000000000000000.0
146
0.0
 13
0.0
 23
0.0
 33
0.0
 16
1.0
 26
0.0
 36
0.0
 17
0.0
 27
1.0
 37
0.0
 76
     0
330
71
  0
LAYOUT
  5
7C
102
{ACAD_XDICTIONARY
360
B5
102
}
102
{ACAD_REACTORS
330
6A
102
}
330
6A
100
AcDbPlotSettings
  1

  2
Auto Canon Bubble-Jet BJC-1000 on MGIBSON-HOME
  4

  6

 40
0.0
 41
0.0
 42
0.0
 43
0.0
 44
0.0
 45
0.0
 46
0.0
 47
0.0
 48
0.0
 49
0.0
140
0.0
141
0.0
142
1.0
143
1.0
 70
   688
 72
     0
 73
     0
 74
     5
  7

 75
    16
147
1.0
148
0.0
149
0.0
100
AcDbLayout
  1
Layout2
 70
     1
 71
     2
 10
0.0
 20
0.0
 11
12.0
 21
9.0
 12
0.0
 22
0.0
 32
0.0
 14
0.0
 24
0.0
 34
0.0
 15
0.0
 25
0.0
 35
0.0
146
0.0
 13
0.0
 23
0.0
 33
0.0
 16
1.0
 26
0.0
 36
0.0
 17
0.0
 27
1.0
 37
0.0
 76
     0
330
79
  0
LAYOUT
  5
78
102
{ACAD_XDICTIONARY
360
B3
102
}
102
{ACAD_REACTORS
330
6A
102
}
330
6A
100
AcDbPlotSettings
  1

  2
Auto Canon Bubble-Jet BJC-1000 on MGIBSON-HOME
  4

  6

 40
0.0
 41
0.0
 42
0.0
 43
0.0
 44
0.0
 45
0.0
 46
0.0
 47
0.0
 48
0.0
 49
0.0
140
0.0
141
0.0
142
1.0
143
1.0
 70
  1712
 72
     0
 73
     0
 74
     0
  7

 75
     0
147
1.0
148
0.0
149
0.0
100
AcDbLayout
  1
Model
 70
     1
 71
     0
 10
0.0
 20
0.0
 11
12.0
 21
9.0
 12
0.0
 22
0.0
 32
0.0
 14
0.0
 24
0.0
 34
0.0
 15
0.0
 25
0.0
 35
0.0
146
0.0
 13
0.0
 23
0.0
 33
0.0
 16
1.0
 26
0.0
 36
0.0
 17
0.0
 27
1.0
 37
0.0
 76
     0
330
75
331
5F
  0
MATERIAL
  5
19
102
{ACAD_XDICTIONARY
360
1A
102
}
102
{ACAD_REACTORS
330
10
102
}
330
10
100
AcDbMaterial
  1
ByBlock
 72
     0
 43
0.020833333333
 43
0.0
 43
0.0
 43
0.0
 43
0.0
 43
0.020833333333
 43
0.0
 43
0.0
 43
0.0
 43
0.0
 43
1.0
 43
0.0
 43
0.0
 43
0.0
 43
0.0
 43
1.0
 77
     0
 47
0.020833333333
 47
0.0
 47
0.0
 47
0.0
 47
0.0
 47
0.020833333333
 47
0.0
 47
0.0
 47
0.0
 47
0.0
 47
1.0
 47
0.0
 47
0.0
 47
0.0
 47
0.0
 47
1.0
171
     0
 49
0.020833333333
 49
0.0
 49
0.0
 49
0.0
 49
0.0
 49
0.020833333333
 49
0.0
 49
0.0
 49
0.0
 49
0.0
 49
1.0
 49
0.0
 49
0.0
 49
0.0
 49
0.0
 49
1.0
175
     0
142
0.020833333333
142
0.0
142
0.0
142
0.0
142
0.0
142
0.020833333333
142
0.0
142
0.0
142
0.0
142
0.0
142
1.0
142
0.0
142
0.0
142
0.0
142
0.0
142
1.0
179
0
144
0.020833333333
144
0.0
144
0.0
144
0.0
144
0.0
144
0.020833333333
144
0.0
144
0.0
144
0.0
144
0.0
144
1.0
144
0.0
144
0.0
144
0.0
144
0.0
144
1.0
147
0.020833333333
147
0.0
147
0.0
147
0.0
147
0.0
147
0.020833333333
147
0.0
147
0.0
147
0.0
147
0.0
147
1.0
147
0.0
147
0.0
147
0.0
147
0.0
147
1.0
  0
MATERIAL
  5
11
102
{ACAD_XDICTIONARY
360
12
102
}
102
{ACAD_REACTORS
330
10
102
}
330
10
100
AcDbMaterial
  1
ByLayer
 72
     0
 43
0.020833333333
 43
0.0
 43
0.0
 43
0.0
 43
0.0
 43
0.020833333333
 43
0.0
 43
0.0
 43
0.0
 43
0.0
 43
1.0
 43
0.0
 43
0.0
 43
0.0
 43
0.0
 43
1.0
 77
     0
 47
0.020833333333
 47
0.0
 47
0.0
 47
0.0
 47
0.0
 47
0.020833333333
 47
0.0
 47
0.0
 47
0.0
 47
0.0
 47
1.0
 47
0.0
 47
0.0
 47
0.0
 47
0.0
 47
1.0
171
     0
 49
0.020833333333
 49
0.0
 49
0.0
 49
0.0
 49
0.0
 49
0.020833333333
 49
0.0
 49
0.0
 49
0.0
 49
0.0
 49
1.0
 49
0.0
 49
0.0
 49
0.0
 49
0.0
 49
1.0
175
     0
142
0.020833333333
142
0.0
142
0.0
142
0.0
142
0.0
142
0.020833333333
142
0.0
142
0.0
142
0.0
142
0.0
142
1.0
142
0.0
142
0.0
142
0.0
142
0.0
142
1.0
179
0
144
0.020833333333
144
0.0
144
0.0
144
0.0
144
0.0
144
0.020833333333
144
0.0
144
0.0
144
0.0
144
0.0
144
1.0
144
0.0
144
0.0
144
0.0
144
0.0
144
1.0
147
0.020833333333
147
0.0
147
0.0
147
0.0
147
0.0
147
0.020833333333
147
0.0
147
0.0
147
0.0
147
0.0
147
1.0
147
0.0
147
0.0
147
0.0
147
0.0
147
1.0
  0
MATERIAL
  5
21
102
{ACAD_XDICTIONARY
360
22
102
}
102
{ACAD_REACTORS
330
10
102
}
330
10
100
AcDbMaterial
  1
Global
 72
     0
 43
0.020833333333
 43
0.0
 43
0.0
 43
0.0
 43
0.0
 43
0.020833333333
 43
0.0
 43
0.0
 43
0.0
 43
0.0
 43
1.0
 43
0.0
 43
0.0
 43
0.0
 43
0.0
 43
1.0
 77
     0
 47
0.020833333333
 47
0.0
 47
0.0
 47
0.0
 47
0.0
 47
0.020833333333
 47
0.0
 47
0.0
 47
0.0
 47
0.0
 47
1.0
 47
0.0
 47
0.0
 47
0.0
 47
0.0
 47
1.0
171
     0
 49
0.020833333333
 49
0.0
 49
0.0
 49
0.0
 49
0.0
 49
0.020833333333
 49
0.0
 49
0.0
 49
0.0
 49
0.0
 49
1.0
 49
0.0
 49
0.0
 49
0.0
 49
0.0
 49
1.0
175
     0
142
0.020833333333
142
0.0
142
0.0
142
0.0
142
0.0
142
0.020833333333
142
0.0
142
0.0
142
0.0
142
0.0
142
1.0
142
0.0
142
0.0
142
0.0
142
0.0
142
1.0
179
0
144
0.020833333333
144
0.0
144
0.0
144
0.0
144
0.0
144
0.020833333333
144
0.0
144
0.0
144
0.0
144
0.0
144
1.0
144
0.0
144
0.0
144
0.0
144
0.0
144
1.0
147
0.020833333333
147
0.0
147
0.0
147
0.0
147
0.0
147
0.020833333333
147
0.0
147
0.0
147
0.0
147
0.0
147
1.0
147
0.0
147
0.0
147
0.0
147
0.0
147
1.0
  0
MLEADERSTYLE
  5
6F
102
{ACAD_REACTORS
330
6E
102
}
330
6E
100
AcDbMLeaderStyle
170
     2
171
     1
172
     0
 90
     2
 40
0.0
 41
0.0
173
     1
 91
-1056964608
340
63
 92
    -2
290
1
 42
0.09
291
1
 43
0.36
  3
Standard
 44
0.18
300

342
5D
174
     1
178
     6
175
     1
176
     0
 93
-1056964608
 45
0.18
292
0
297
0
 46
0.18
 94
-1056964608
 47
1.0
 49
1.0
140
1.0
293
1
141
0.0
294
1
177
     0
142
1.0
295
0
296
0
143
0.125
1001
ACAD_MLEADERVER
1070
     2
  0
MLINESTYLE
  5
68
102
{ACAD_REACTORS
330
67
102
}
330
67
100
AcDbMlineStyle
  2
STANDARD
 70
     0
  3

 62
   256
 51
90.0
 52
90.0
 71
     2
 49
0.5
 62
   256
  6
BYLAYER
 49
-0.5
 62
   256
  6
BYLAYER
  0
ACDBPLACEHOLDER
  5
F
102
{ACAD_REACTORS
330
E
102
}
330
E
  0
SCALE
  5
3B
102
{ACAD_REACTORS
330
3A
102
}
330
3A
100
AcDbScale
 70
     0
300
1:1
140
1.0
141
1.0
290
1
  0
SCALE
  5
3C
102
{ACAD_REACTORS
330
3A
102
}
330
3A
100
AcDbScale
 70
     0
300
1:2
140
1.0
141
2.0
290
0
  0
SCALE
  5
3D
102
{ACAD_REACTORS
330
3A
102
}
330
3A
100
AcDbScale
 70
     0
300
1:4
140
1.0
141
4.0
290
0
  0
SCALE
  5
3E
102
{ACAD_REACTORS
330
3A
102
}
330
3A
100
AcDbScale
 70
     0
300
1:5
140
1.0
141
5.0
290
0
  0
SCALE
  5
3F
102
{ACAD_REACTORS
330
3A
102
}
330
3A
100
AcDbScale
 70
     0
300
1:8
140
1.0
141
8.0
290
0
  0
SCALE
  5
40
102
{ACAD_REACTORS
330
3A
102
}
330
3A
100
AcDbScale
 70
     0
300
1:10
140
1.0
141
10.0
290
0
  0
SCALE
  5
41
102
{ACAD_REACTORS
330
3A
102
}
330
3A
100
AcDbScale
 70
     0
300
1:16
140
1.0
141
16.0
290
0
  0
SCALE
  5
42
102
{ACAD_REACTORS
330
3A
102
}
330
3A
100
AcDbScale
 70
     0
300
1:20
140
1.0
141
20.0
290
0
  0
SCALE
  5
43
102
{ACAD_REACTORS
330
3A
102
}
330
3A
100
AcDbScale
 70
     0
300
1:30
140
1.0
141
30.0
290
0
  0
SCALE
  5
44
102
{ACAD_REACTORS
330
3A
102
}
330
3A
100
AcDbScale
 70
     0
300
1:40
140
1.0
141
40.0
290
0
  0
SCALE
  5
45
102
{ACAD_REACTORS
330
3A
102
}
330
3A
100
AcDbScale
 70
     0
300
1:50
140
1.0
141
50.0
290
0
  0
SCALE
  5
46
102
{ACAD_REACTORS
330
3A
102
}
330
3A
100
AcDbScale
 70
     0
300
1:100
140
1.0
141
100.0
290
0
  0
SCALE
  5
47
102
{ACAD_REACTORS
330
3A
102
}
330
3A
100
AcDbScale
 70
     0
300
2:1
140
2.0
141
1.0
290
0
  0
SCALE
  5
48
102
{ACAD_REACTORS
330
3A
102
}
330
3A
100
AcDbScale
 70
     0
300
4:1
140
4.0
141
1.0
290
0
  0
SCALE
  5
49
102
{ACAD_REACTORS
330
3A
102
}
330
3A
100
AcDbScale
 70
     0
300
8:1
140
8.0
141
1.0
290
0
  0
SCALE
  5
4A
102
{ACAD_REACTORS
330
3A
102
}
330
3A
100
AcDbScale
 70
     0
300
10:1
140
10.0
141
1.0
290
0
  0
SCALE
  5
4B
102
{ACAD_REACTORS
330
3A
102
}
330
3A
100
AcDbScale
 70
     0
300
100:1
140
100.0
141
1.0
290
0
  0
SCALE
  5
4C
102
{ACAD_REACTORS
330
3A
102
}
330
3A
100
AcDbScale
 70
     0
300
1/128" = 1'-0"
140
0.0078125
141
12.0
290
0
  0
SCALE
  5
4D
102
{ACAD_REACTORS
330
3A
102
}
330
3A
100
AcDbScale
 70
     0
300
1/64" = 1'-0"
140
0.015625
141
12.0
290
0
  0
SCALE
  5
4E
102
{ACAD_REACTORS
330
3A
102
}
330
3A
100
AcDbScale
 70
     0
300
1/32" = 1'-0"
140
0.03125
141
12.0
290
0
  0
SCALE
  5
4F
102
{ACAD_REACTORS
330
3A
102
}
330
3A
100
AcDbScale
 70
     0
300
1/16" = 1'-0"
140
0.0625
141
12.0
290
0
  0
SCALE
  5
50
102
{ACAD_REACTORS
330
3A
102
}
330
3A
100
AcDbScale
 70
     0
300
3/32" = 1'-0"
140
0.09375
141
12.0
290
0
  0
SCALE
  5
51
102
{ACAD_REACTORS
330
3A
102
}
330
3A
100
AcDbScale
 70
     0
300
1/8" = 1'-0"
140
0.125
141
12.0
290
0
  0
SCALE
  5
52
102
{ACAD_REACTORS
330
3A
102
}
330
3A
100
AcDbScale
 70
     0
300
3/16" = 1'-0"
140
0.1875
141
12.0
290
0
  0
SCALE
  5
53
102
{ACAD_REACTORS
330
3A
102
}
330
3A
100
AcDbScale
 70
     0
300
1/4" = 1'-0"
140
0.25
141
12.0
290
0
  0
SCALE
  5
54
102
{ACAD_REACTORS
330
3A
102
}
330
3A
100
AcDbScale
 70
     0
300
3/8" = 1'-0"
140
0.375
141
12.0
290
0
  0
SCALE
  5
55
102
{ACAD_REACTORS
330
3A
102
}
330
3A
100
AcDbScale
 70
     0
300
1/2" = 1'-0"
140
0.5
141
12.0
290
0
  0
SCALE
  5
56
102
{ACAD_REACTORS
330
3A
102
}
330
3A
100
AcDbScale
 70
     0
300
3/4" = 1'-0"
140
0.75
141
12.0
290
0
  0
SCALE
  5
57
102
{ACAD_REACTORS
330
3A
102
}
330
3A
100
AcDbScale
 70
     0
300
1" = 1'-0"
140
1.0
141
12.0
290
0
  0
SCALE
  5
58
102
{ACAD_REACTORS
330
3A
102
}
330
3A
100
AcDbScale
 70
     0
300
1-1/2" = 1'-0"
140
1.5
141
12.0
290
0
  0
SCALE
  5
59
102
{ACAD_REACTORS
330
3A
102
}
330
3A
100
AcDbScale
 70
     0
300
3" = 1'-0"
140
3.0
141
12.0
290
0
  0
SCALE
  5
5A
102
{ACAD_REACTORS
330
3A
102
}
330
3A
100
AcDbScale
 70
     0
300
6" = 1'-0"
140
6.0
141
12.0
290
0
  0
SCALE
  5
5B
102
{ACAD_REACTORS
330
3A
102
}
330
3A
100
AcDbScale
 70
     0
300
1'-0" = 1'-0"
140
12.0
141
12.0
290
0
  0
TABLESTYLE
  5
6D
102
{ACAD_XDICTIONARY
360
A6
102
}
102
{ACAD_REACTORS
330
6C
102
}
330
6C
100
AcDbTableStyle
  3
Standard
 70
     0
 71
     0
 40
1.5
 41
1.5
280
     0
281
     0
  7
Standard
140
4.5
170
     2
 62
     0
 63
     7
283
     0
274
    -2
284
     1
 64
     0
275
    -2
285
     1
 65
     0
276
-2
286
     1
 66
     0
277
-2
287
     1
 67
     0
278
-2
288
     1
 68
     0
279
-2
289
     1
 69
     0
  7
Standard
140
6.0
170
     5
 62
     0
 63
     7
283
     0
274
    -2
284
     1
 64
     0
275
    -2
285
     1
 65
     0
276
-2
286
     1
 66
     0
277
-2
287
     1
 67
     0
278
-2
288
     1
 68
     0
279
-2
289
     1
 69
     0
  7
Standard
140
4.5
170
     5
 62
     0
 63
     7
283
     0
274
    -2
284
     1
 64
     0
275
    -2
285
     1
 65
     0
276
-2
286
     1
 66
     0
277
-2
287
     1
 67
     0
278
-2
288
     1
 68
     0
279
-2
289
     1
 69
     0
  0
VISUALSTYLE
  5
2F
102
{ACAD_REACTORS
330
29
102
}
330
29
100
AcDbVisualStyle
  2
2dWireframe
 70
     4
 71
     0
 72
     2
 73
     0
 90
     0
 40
-0.6
 41
-30.0
 62
     5
 63
     7
 74
     1
 91
     4
 64
     7
 65
   257
 75
     1
175
     1
 42
1.0
 92
     0
 66
   257
 43
1.0
 76
     1
 77
     6
 78
     2
 67
     7
 79
     5
170
     0
171
     0
290
0
174
     0
 93
     1
 44
0.0
173
     0
291
0
 45
0.0
1001
ACAD
1000
AcDbSavedByObjectVersion
1070
     0
  0
VISUALSTYLE
  5
31
102
{ACAD_REACTORS
330
29
102
}
330
29
100
AcDbVisualStyle
  2
3D Hidden
 70
     6
 71
     1
 72
     2
 73
     2
 90
     0
 40
-0.6
 41
-30.0
 62
     5
 63
     7
 74
     2
 91
     2
 64
     7
 65
   257
 75
     2
175
     1
 42
40.0
 92
     0
 66
   257
 43
1.0
 76
     1
 77
     6
 78
     2
 67
     7
 79
     3
170
     0
171
     0
290
0
174
     0
 93
     1
 44
0.0
173
     0
291
0
 45
0.0
1001
ACAD
1000
AcDbSavedByObjectVersion
1070
     0
  0
VISUALSTYLE
  5
30
102
{ACAD_REACTORS
330
29
102
}
330
29
100
AcDbVisualStyle
  2
3dWireframe
 70
     5
 71
     0
 72
     2
 73
     0
 90
     0
 40
-0.6
 41
-30.0
 62
     5
 63
     7
 74
     1
 91
     4
 64
     7
 65
   257
 75
     1
175
     1
 42
1.0
 92
     0
 66
   257
 43
1.0
 76
     1
 77
     6
 78
     2
 67
     7
 79
     5
170
     0
171
     0
290
0
174
     0
 93
     1
 44
0.0
173
     0
291
0
 45
0.0
1001
ACAD
1000
AcDbSavedByObjectVersion
1070
     0
  0
VISUALSTYLE
  5
2E
102
{ACAD_REACTORS
330
29
102
}
330
29
100
AcDbVisualStyle
  2
Basic
 70
     7
 71
     1
 72
     0
 73
     1
 90
     0
 40
-0.6
 41
-30.0
 62
     5
 63
     7
 74
     0
 91
     4
 64
     7
 65
   257
 75
     1
175
     1
 42
1.0
 92
     8
 66
     7
 43
1.0
 76
     1
 77
     6
 78
     2
 67
     7
 79
     5
170
     0
171
     0
290
0
174
     0
 93
     1
 44
0.0
173
     0
291
1
 45
0.0
1001
ACAD
1000
AcDbSavedByObjectVersion
1070
     0
  0
VISUALSTYLE
  5
35
102
{ACAD_REACTORS
330
29
102
}
330
29
100
AcDbVisualStyle
  2
Brighten
 70
    12
 71
     2
 72
     2
 73
     0
 90
     0
 40
-0.6
 41
-30.0
 62
     5
 63
     7
 74
     1
 91
     4
 64
     7
 65
   257
 75
     1
175
     1
 42
1.0
 92
     8
 66
     7
 43
1.0
 76
     1
 77
     6
 78
     2
 67
     7
 79
     5
170
     0
171
     0
290
0
174
     0
 93
     1
 44
50.0
173
     0
291
1
 45
0.0
1001
ACAD
1000
AcDbSavedByObjectVersion
1070
     0
  0
VISUALSTYLE
  5
39
102
{ACAD_REACTORS
330
29
102
}
330
29
100
AcDbVisualStyle
  2
ColorChange
 70
    16
 71
     2
 72
     2
 73
     3
 90
     0
 40
-0.6
 41
-30.0
 62
     5
 63
     8
 74
     1
 91
     4
 64
     7
 65
   257
 75
     1
175
     1
 42
1.0
 92
     8
 66
     8
 43
1.0
 76
     1
 77
     6
 78
     2
 67
     7
 79
     5
170
     0
171
     0
290
0
174
     0
 93
     1
 44
0.0
173
     0
291
1
 45
0.0
1001
ACAD
1000
AcDbSavedByObjectVersion
1070
     0
  0
VISUALSTYLE
  5
32
102
{ACAD_REACTORS
330
29
102
}
330
29
100
AcDbVisualStyle
  2
Conceptual
 70
     9
 71
     3
 72
     2
 73
     0
 90
     0
 40
-0.6
 41
-30.0
 62
     5
 63
     7
 74
     2
 91
     2
 64
     7
 65
   257
 75
     1
175
     1
 42
40.0
 92
     8
 66
     7
 43
1.0
 76
     1
 77
     6
 78
     2
 67
     7
 79
     3
170
     0
171
     0
290
0
174
     0
 93
     1
 44
0.0
173
     0
291
0
 45
0.0
1001
ACAD
1000
AcDbSavedByObjectVersion
1070
     0
  0
VISUALSTYLE
  5
34
102
{ACAD_REACTORS
330
29
102
}
330
29
100
AcDbVisualStyle
  2
Dim
 70
    11
 71
     2
 72
     2
 73
     0
 90
     0
 40
-0.6
 41
-30.0
 62
     5
 63
     7
 74
     1
 91
     4
 64
     7
 65
   257
 75
     1
175
     1
 42
1.0
 92
     8
 66
     7
 43
1.0
 76
     1
 77
     6
 78
     2
 67
     7
 79
     5
170
     0
171
     0
290
0
174
     0
 93
     1
 44
-50.0
173
     0
291
1
 45
0.0
1001
ACAD
1000
AcDbSavedByObjectVersion
1070
     0
  0
VISUALSTYLE
  5
38
102
{ACAD_REACTORS
330
29
102
}
330
29
100
AcDbVisualStyle
  2
Facepattern
 70
    15
 71
     2
 72
     2
 73
     0
 90
     0
 40
-0.6
 41
-30.0
 62
     5
 63
     7
 74
     1
 91
     4
 64
     7
 65
   257
 75
     1
175
     1
 42
1.0
 92
     8
 66
     7
 43
1.0
 76
     1
 77
     6
 78
     2
 67
     7
 79
     5
170
     0
171
     0
290
0
174
     0
 93
     1
 44
0.0
173
     0
291
1
 45
0.0
1001
ACAD
1000
AcDbSavedByObjectVersion
1070
     0
  0
VISUALSTYLE
  5
2A
102
{ACAD_REACTORS
330
29
102
}
330
29
100
AcDbVisualStyle
  2
Flat
 70
     0
 71
     2
 72
     1
 73
     1
 90
     2
 40
-0.6
 41
30.0
 62
     5
 63
     7
 74
     0
 91
     4
 64
     7
 65
   257
 75
     1
175
     1
 42
1.0
 92
     8
 66
     7
 43
1.0
 76
     1
 77
     6
 78
     2
 67
     7
 79
     5
170
     0
171
     0
290
0
174
     0
 93
    13
 44
0.0
173
     0
291
1
 45
0.0
1001
ACAD
1000
AcDbSavedByObjectVersion
1070
     0
  0
VISUALSTYLE
  5
2B
102
{ACAD_REACTORS
330
29
102
}
330
29
100
AcDbVisualStyle
  2
FlatWithEdges
 70
     1
 71
     2
 72
     1
 73
     1
 90
     2
 40
-0.6
 41
30.0
 62
     5
 63
     7
 74
     1
 91
     4
 64
     7
 65
   257
 75
     1
175
     1
 42
1.0
 92
     0
 66
   257
 43
1.0
 76
     1
 77
     6
 78
     2
 67
     7
 79
     5
170
     0
171
     0
290
0
174
     0
 93
    13
 44
0.0
173
     0
291
1
 45
0.0
1001
ACAD
1000
AcDbSavedByObjectVersion
1070
     0
  0
VISUALSTYLE
  5
2C
102
{ACAD_REACTORS
330
29
102
}
330
29
100
AcDbVisualStyle
  2
Gouraud
 70
     2
 71
     2
 72
     2
 73
     1
 90
     2
 40
-0.6
 41
30.0
 62
     5
 63
     7
 74
     0
 91
     4
 64
     7
 65
   257
 75
     1
175
     1
 42
1.0
 92
     0
 66
     7
 43
1.0
 76
     1
 77
     6
 78
     2
 67
     7
 79
     5
170
     0
171
     0
290
0
174
     0
 93
    13
 44
0.0
173
     0
291
1
 45
0.0
1001
ACAD
1000
AcDbSavedByObjectVersion
1070
     0
  0
VISUALSTYLE
  5
2D
102
{ACAD_REACTORS
330
29
102
}
330
29
100
AcDbVisualStyle
  2
GouraudWithEdges
 70
     3
 71
     2
 72
     2
 73
     1
 90
     2
 40
-0.6
 41
30.0
 62
     5
 63
     7
 74
     1
 91
     4
 64
     7
 65
   257
 75
     1
175
     1
 42
1.0
 92
     0
 66
   257
 43
1.0
 76
     1
 77
     6
 78
     2
 67
     7
 79
     5
170
     0
171
     0
290
0
174
     0
 93
    13
 44
0.0
173
     0
291
1
 45
0.0
1001
ACAD
1000
AcDbSavedByObjectVersion
1070
     0
  0
VISUALSTYLE
  5
37
102
{ACAD_REACTORS
330
29
102
}
330
29
100
AcDbVisualStyle
  2
Linepattern
 70
    14
 71
     2
 72
     2
 73
     0
 90
     0
 40
-0.6
 41
-30.0
 62
     5
 63
     7
 74
     1
 91
     4
 64
     7
 65
   257
 75
     7
175
     7
 42
1.0
 92
     8
 66
     7
 43
1.0
 76
     1
 77
     6
 78
     2
 67
     7
 79
     5
170
     0
171
     0
290
0
174
     0
 93
     1
 44
0.0
173
     0
291
1
 45
0.0
1001
ACAD
1000
AcDbSavedByObjectVersion
1070
     0
  0
VISUALSTYLE
  5
33
102
{ACAD_REACTORS
330
29
102
}
330
29
100
AcDbVisualStyle
  2
Realistic
 70
     8
 71
     2
 72
     2
 73
     0
 90
     0
 40
-0.6
 41
-30.0
 62
     5
 63
     7
 74
     1
 91
     0
 64
     7
 65
   257
 75
     1
175
     1
 42
1.0
 92
     8
 66
     8
 43
1.0
 76
     1
 77
     6
 78
     2
 67
     7
 79
     5
170
     0
171
     0
290
0
174
     0
 93
    13
 44
0.0
173
     0
291
0
 45
0.0
1001
ACAD
1000
AcDbSavedByObjectVersion
1070
     0
  0
VISUALSTYLE
  5
36
102
{ACAD_REACTORS
330
29
102
}
330
29
100
AcDbVisualStyle
  2
Thicken
 70
    13
 71
     2
 72
     2
 73
     0
 90
     0
 40
-0.6
 41
-30.0
 62
     5
 63
     7
 74
     1
 91
     4
 64
     7
 65
   257
 75
     1
175
     1
 42
1.0
 92
    12
 66
     7
 43
1.0
 76
     1
 77
     6
 78
     2
 67
     7
 79
     5
170
     0
171
     0
290
0
174
     0
 93
     1
 44
0.0
173
     0
291
1
 45
0.0
1001
ACAD
1000
AcDbSavedByObjectVersion
1070
     0
  0
DICTIONARYVAR
  5
A0
102
{ACAD_REACTORS
330
9C
102
}
330
9C
100
DictionaryVariables
280
     0
  1
1:1
  0
DICTIONARYVAR
  5
9E
102
{ACAD_REACTORS
330
9C
102
}
330
9C
100
DictionaryVariables
280
     0
  1
STANDARD
  0
DICTIONARYVAR
  5
9D
102
{ACAD_REACTORS
330
9C
102
}
330
9C
100
DictionaryVariables
280
     0
  1
STANDARD
  0
DICTIONARYVAR
  5
A5
102
{ACAD_REACTORS
330
9C
102
}
330
9C
100
DictionaryVariables
280
     0
  1
2
  0
DICTIONARYVAR
  5
A4
102
{ACAD_REACTORS
330
9C
102
}
330
9C
100
DictionaryVariables
280
     0
  1
1
  0
DICTIONARYVAR
  5
A3
102
{ACAD_REACTORS
330
9C
102
}
330
9C
100
DictionaryVariables
280
     0
  1
0
  0
DICTIONARYVAR
  5
A1
102
{ACAD_REACTORS
330
9C
102
}
330
9C
100
DictionaryVariables
280
     0
  1
2
  0
DICTIONARYVAR
  5
9F
102
{ACAD_REACTORS
330
9C
102
}
330
9C
100
DictionaryVariables
280
     0
  1
1
  0
DICTIONARYVAR
  5
A2
102
{ACAD_REACTORS
330
9C
102
}
330
9C
100
DictionaryVariables
280
     0
  1
127
  0
DICTIONARY
  5
B1
330
74
100
AcDbDictionary
280
     1
281
     1
  3
ACAD_XREC_ROUNDTRIP
360
B2
  0
DICTIONARY
  5
B5
330
7C
100
AcDbDictionary
280
     1
281
     1
  3
ACAD_XREC_ROUNDTRIP
360
B6
  0
DICTIONARY
  5
B3
330
78
100
AcDbDictionary
280
     1
281
     1
  3
ACAD_XREC_ROUNDTRIP
360
B4
  0
DICTIONARY
  5
1A
330
19
100
AcDbDictionary
280
     1
281
     1
  3
ACAD_XREC_ROUNDTRIP
360
AD
  3
BUMPTILE
360
1C
  3
DIFFUSETILE
360
1B
  3
OPACITYTILE
360
1F
  3
REFLECTIONTILE
360
1E
  3
REFRACTIONTILE
360
20
  3
SPECULARTILE
360
1D
  0
DICTIONARY
  5
12
330
11
100
AcDbDictionary
280
     1
281
     1
  3
ACAD_XREC_ROUNDTRIP
360
AC
  3
BUMPTILE
360
14
  3
DIFFUSETILE
360
13
  3
OPACITYTILE
360
17
  3
REFLECTIONTILE
360
16
  3
REFRACTIONTILE
360
18
  3
SPECULARTILE
360
15
  0
DICTIONARY
  5
22
330
21
100
AcDbDictionary
280
     1
281
     1
  3
ACAD_XREC_ROUNDTRIP
360
AE
  3
BUMPTILE
360
24
  3
DIFFUSETILE
360
23
  3
OPACITYTILE
360
27
  3
REFLECTIONTILE
360
26
  3
REFRACTIONTILE
360
28
  3
SPECULARTILE
360
25
  0
DICTIONARY
  5
A6
330
6D
100
AcDbDictionary
280
     1
281
     1
  3
ACAD_ROUNDTRIP_2008_TABLESTYLE_CELLSTYLEMAP
360
A7
  3
ACAD_XREC_ROUNDTRIP
360
B0
  0
XRECORD
  5
B2
102
{ACAD_REACTORS
330
B1
102
}
330
B1
100
AcDbXrecord
280
     1
102
SHADEPLOT
 70
     0
102
SHADEPLOTRESLEVEL
 70
     2
102
SHADEPLOTCUSTOMDPI
 70
   300
  0
XRECORD
  5
B6
102
{ACAD_REACTORS
330
B5
102
}
330
B5
100
AcDbXrecord
280
     1
102
SHADEPLOT
 70
     0
102
SHADEPLOTRESLEVEL
 70
     2
102
SHADEPLOTCUSTOMDPI
 70
   300
  0
XRECORD
  5
B4
102
{ACAD_REACTORS
330
B3
102
}
330
B3
100
AcDbXrecord
280
     1
102
SHADEPLOT
 70
     0
102
SHADEPLOTRESLEVEL
 70
     2
102
SHADEPLOTCUSTOMDPI
 70
   300
  0
XRECORD
  5
AD
102
{ACAD_REACTORS
330
1A
102
}
330
1A
100
AcDbXrecord
280
     1
102
MATERIAL
148
0.0
149
0.0
149
0.0
 93
     0
 94
   127
282
     0
 72
     0
 77
     0
171
     0
175
     0
179
0
273
     0
  0
XRECORD
  5
1C
102
{ACAD_REACTORS
330
1A
102
}
330
1A
100
AcDbXrecord
280
     1
270
     1
271
     1
  0
XRECORD
  5
1B
102
{ACAD_REACTORS
330
1A
102
}
330
1A
100
AcDbXrecord
280
     1
270
     1
271
     1
  0
XRECORD
  5
1F
102
{ACAD_REACTORS
330
1A
102
}
330
1A
100
AcDbXrecord
280
     1
270
     1
271
     1
  0
XRECORD
  5
1E
102
{ACAD_REACTORS
330
1A
102
}
330
1A
100
AcDbXrecord
280
     1
270
     1
271
     1
  0
XRECORD
  5
20
102
{ACAD_REACTORS
330
1A
102
}
330
1A
100
AcDbXrecord
280
     1
270
     1
271
     1
  0
XRECORD
  5
1D
102
{ACAD_REACTORS
330
1A
102
}
330
1A
100
AcDbXrecord
280
     1
270
     1
271
     1
  0
XRECORD
  5
AC
102
{ACAD_REACTORS
330
12
102
}
330
12
100
AcDbXrecord
280
     1
102
MATERIAL
148
0.0
149
0.0
149
0.0
 93
     0
 94
   127
282
     0
 72
     0
 77
     0
171
     0
175
     0
179
0
273
     0
  0
XRECORD
  5
14
102
{ACAD_REACTORS
330
12
102
}
330
12
100
AcDbXrecord
280
     1
270
     1
271
     1
  0
XRECORD
  5
13
102
{ACAD_REACTORS
330
12
102
}
330
12
100
AcDbXrecord
280
     1
270
     1
271
     1
  0
XRECORD
  5
17
102
{ACAD_REACTORS
330
12
102
}
330
12
100
AcDbXrecord
280
     1
270
     1
271
     1
  0
XRECORD
  5
16
102
{ACAD_REACTORS
330
12
102
}
330
12
100
AcDbXrecord
280
     1
270
     1
271
     1
  0
XRECORD
  5
18
102
{ACAD_REACTORS
330
12
102
}
330
12
100
AcDbXrecord
280
     1
270
     1
271
     1
  0
XRECORD
  5
15
102
{ACAD_REACTORS
330
12
102
}
330
12
100
AcDbXrecord
280
     1
270
     1
271
     1
  0
XRECORD
  5
AE
102
{ACAD_REACTORS
330
22
102
}
330
22
100
AcDbXrecord
280
     1
102
MATERIAL
148
0.0
149
0.0
149
0.0
 93
     0
 94
   127
282
     0
 72
     0
 77
     0
171
     0
175
     0
179
0
273
     0
  0
XRECORD
  5
24
102
{ACAD_REACTORS
330
22
102
}
330
22
100
AcDbXrecord
280
     1
270
     1
271
     1
  0
XRECORD
  5
23
102
{ACAD_REACTORS
330
22
102
}
330
22
100
AcDbXrecord
280
     1
270
     1
271
     1
  0
XRECORD
  5
27
102
{ACAD_REACTORS
330
22
102
}
330
22
100
AcDbXrecord
280
     1
270
     1
271
     1
  0
XRECORD
  5
26
102
{ACAD_REACTORS
330
22
102
}
330
22
100
AcDbXrecord
280
     1
270
     1
271
     1
  0
XRECORD
  5
28
102
{ACAD_REACTORS
330
22
102
}
330
22
100
AcDbXrecord
280
     1
270
     1
271
     1
  0
XRECORD
  5
25
102
{ACAD_REACTORS
330
22
102
}
330
22
100
AcDbXrecord
280
     1
270
     1
271
     1
  0
CELLSTYLEMAP
  5
A7
102
{ACAD_REACTORS
330
A6
102
}
330
A6
100
AcDbCellStyleMap
 90
     3
300
CELLSTYLE
  1
TABLEFORMAT_BEGIN
 90
     5
170
     1
 91
     0
 92
 32768
 62
   257
 93
     1
300
CONTENTFORMAT
  1
CONTENTFORMAT_BEGIN
 90
     0
 91
     0
 92
   512
 93
     0
300

 40
0.0
140
1.0
 94
     5
 62
     0
340
5D
144
6.0
309
CONTENTFORMAT_END
171
     1
301
MARGIN
  1
CELLMARGIN_BEGIN
 40
1.5
 40
1.5
 40
1.5
 40
1.5
 40
4.5
 40
4.5
309
CELLMARGIN_END
 94
     6
 95
     1
302
GRIDFORMAT
  1
GRIDFORMAT_BEGIN
 90
     0
 91
     1
 62
     0
 92
    -2
340
0
 93
     0
 40
1.125
309
GRIDFORMAT_END
 95
     2
302
GRIDFORMAT
  1
GRIDFORMAT_BEGIN
 90
     0
 91
     1
 62
     0
 92
    -2
340
0
 93
     0
 40
1.125
309
GRIDFORMAT_END
 95
     4
302
GRIDFORMAT
  1
GRIDFORMAT_BEGIN
 90
     0
 91
     1
 62
     0
 92
    -2
340
0
 93
     0
 40
1.125
309
GRIDFORMAT_END
 95
     8
302
GRIDFORMAT
  1
GRIDFORMAT_BEGIN
 90
     0
 91
     1
 62
     0
 92
    -2
340
0
 93
     0
 40
1.125
309
GRIDFORMAT_END
 95
    16
302
GRIDFORMAT
  1
GRIDFORMAT_BEGIN
 90
     0
 91
     1
 62
     0
 92
    -2
340
0
 93
     0
 40
1.125
309
GRIDFORMAT_END
 95
    32
302
GRIDFORMAT
  1
GRIDFORMAT_BEGIN
 90
     0
 91
     1
 62
     0
 92
    -2
340
0
 93
     0
 40
1.125
309
GRIDFORMAT_END
309
TABLEFORMAT_END
  1
CELLSTYLE_BEGIN
 90
     1
 91
     1
300
_TITLE
309
CELLSTYLE_END
300
CELLSTYLE
  1
TABLEFORMAT_BEGIN
 90
     5
170
     1
 91
     0
 92
     0
 62
   257
 93
     1
300
CONTENTFORMAT
  1
CONTENTFORMAT_BEGIN
 90
     0
 91
     0
 92
   512
 93
     0
300

 40
0.0
140
1.0
 94
     5
 62
     0
340
5D
144
4.5
309
CONTENTFORMAT_END
171
     1
301
MARGIN
  1
CELLMARGIN_BEGIN
 40
1.5
 40
1.5
 40
1.5
 40
1.5
 40
4.5
 40
4.5
309
CELLMARGIN_END
 94
     6
 95
     1
302
GRIDFORMAT
  1
GRIDFORMAT_BEGIN
 90
     0
 91
     1
 62
     0
 92
    -2
340
0
 93
     0
 40
1.125
309
GRIDFORMAT_END
 95
     2
302
GRIDFORMAT
  1
GRIDFORMAT_BEGIN
 90
     0
 91
     1
 62
     0
 92
    -2
340
0
 93
     0
 40
1.125
309
GRIDFORMAT_END
 95
     4
302
GRIDFORMAT
  1
GRIDFORMAT_BEGIN
 90
     0
 91
     1
 62
     0
 92
    -2
340
0
 93
     0
 40
1.125
309
GRIDFORMAT_END
 95
     8
302
GRIDFORMAT
  1
GRIDFORMAT_BEGIN
 90
     0
 91
     1
 62
     0
 92
    -2
340
0
 93
     0
 40
1.125
309
GRIDFORMAT_END
 95
    16
302
GRIDFORMAT
  1
GRIDFORMAT_BEGIN
 90
     0
 91
     1
 62
     0
 92
    -2
340
0
 93
     0
 40
1.125
309
GRIDFORMAT_END
 95
    32
302
GRIDFORMAT
  1
GRIDFORMAT_BEGIN
 90
     0
 91
     1
 62
     0
 92
    -2
340
0
 93
     0
 40
1.125
309
GRIDFORMAT_END
309
TABLEFORMAT_END
  1
CELLSTYLE_BEGIN
 90
     2
 91
     1
300
_HEADER
309
CELLSTYLE_END
300
CELLSTYLE
  1
TABLEFORMAT_BEGIN
 90
     5
170
     1
 91
     0
 92
     0
 62
   257
 93
     1
300
CONTENTFORMAT
  1
CONTENTFORMAT_BEGIN
 90
     0
 91
     0
 92
   512
 93
     0
300

 40
0.0
140
1.0
 94
     2
 62
     0
340
5D
144
4.5
309
CONTENTFORMAT_END
171
     1
301
MARGIN
  1
CELLMARGIN_BEGIN
 40
1.5
 40
1.5
 40
1.5
 40
1.5
 40
4.5
 40
4.5
309
CELLMARGIN_END
 94
     6
 95
     1
302
GRIDFORMAT
  1
GRIDFORMAT_BEGIN
 90
     0
 91
     1
 62
     0
 92
    -2
340
0
 93
     0
 40
1.125
309
GRIDFORMAT_END
 95
     2
302
GRIDFORMAT
  1
GRIDFORMAT_BEGIN
 90
     0
 91
     1
 62
     0
 92
    -2
340
0
 93
     0
 40
1.125
309
GRIDFORMAT_END
 95
     4
302
GRIDFORMAT
  1
GRIDFORMAT_BEGIN
 90
     0
 91
     1
 62
     0
 92
    -2
340
0
 93
     0
 40
1.125
309
GRIDFORMAT_END
 95
     8
302
GRIDFORMAT
  1
GRIDFORMAT_BEGIN
 90
     0
 91
     1
 62
     0
 92
    -2
340
0
 93
     0
 40
1.125
309
GRIDFORMAT_END
 95
    16
302
GRIDFORMAT
  1
GRIDFORMAT_BEGIN
 90
     0
 91
     1
 62
     0
 92
    -2
340
0
 93
     0
 40
1.125
309
GRIDFORMAT_END
 95
    32
302
GRIDFORMAT
  1
GRIDFORMAT_BEGIN
 90
     0
 91
     1
 62
     0
 92
    -2
340
0
 93
     0
 40
1.125
309
GRIDFORMAT_END
309
TABLEFORMAT_END
  1
CELLSTYLE_BEGIN
 90
     3
 91
     2
300
_DATA
309
CELLSTYLE_END
  0
XRECORD
  5
B0
102
{ACAD_REACTORS
330
A6
102
}
330
A6
100
AcDbXrecord
280
     1
102
ACAD_ROUNDTRIP_PRE2007_TABLESTYLE
 90
   512
 91
     0
  1

 92
   512
 93
     0
  2

 94
   512
 95
     0
  3

  0
ENDSEC
  0
EOF
