%TF.GenerationSoftware,KiCad,Pcbnew,9.0.4*%
%TF.CreationDate,2026-03-05T05:19:43+09:00*%
%TF.ProjectId,dasicPlate,64617369-6350-46c6-9174-652e6b696361,rev?*%
%TF.SameCoordinates,Original*%
%TF.FileFunction,Legend,Bot*%
%TF.FilePolarity,Positive*%
%FSLAX46Y46*%
G04 Gerber Fmt 4.6, Leading zero omitted, Abs format (unit mm)*
G04 Created by KiCad (PCBNEW 9.0.4) date 2026-03-05 05:19:43*
%MOMM*%
%LPD*%
G01*
G04 APERTURE LIST*
%ADD10C,0.200000*%
%ADD11C,0.100000*%
%ADD12C,1.000000*%
G04 APERTURE END LIST*
D10*
X87500000Y-80000000D02*
X97000000Y-80000000D01*
X103476192Y-78867219D02*
X103571430Y-78819600D01*
X103571430Y-78819600D02*
X103619049Y-78724361D01*
X103619049Y-78724361D02*
X103619049Y-77867219D01*
X102714287Y-78819600D02*
X102809525Y-78867219D01*
X102809525Y-78867219D02*
X103000001Y-78867219D01*
X103000001Y-78867219D02*
X103095239Y-78819600D01*
X103095239Y-78819600D02*
X103142858Y-78724361D01*
X103142858Y-78724361D02*
X103142858Y-78343409D01*
X103142858Y-78343409D02*
X103095239Y-78248171D01*
X103095239Y-78248171D02*
X103000001Y-78200552D01*
X103000001Y-78200552D02*
X102809525Y-78200552D01*
X102809525Y-78200552D02*
X102714287Y-78248171D01*
X102714287Y-78248171D02*
X102666668Y-78343409D01*
X102666668Y-78343409D02*
X102666668Y-78438647D01*
X102666668Y-78438647D02*
X103142858Y-78533885D01*
X102380953Y-78200552D02*
X102000001Y-78200552D01*
X102238096Y-77867219D02*
X102238096Y-78724361D01*
X102238096Y-78724361D02*
X102190477Y-78819600D01*
X102190477Y-78819600D02*
X102095239Y-78867219D01*
X102095239Y-78867219D02*
X102000001Y-78867219D01*
X101619048Y-77867219D02*
X101714286Y-78057695D01*
X101238096Y-78819600D02*
X101142858Y-78867219D01*
X101142858Y-78867219D02*
X100952382Y-78867219D01*
X100952382Y-78867219D02*
X100857144Y-78819600D01*
X100857144Y-78819600D02*
X100809525Y-78724361D01*
X100809525Y-78724361D02*
X100809525Y-78676742D01*
X100809525Y-78676742D02*
X100857144Y-78581504D01*
X100857144Y-78581504D02*
X100952382Y-78533885D01*
X100952382Y-78533885D02*
X101095239Y-78533885D01*
X101095239Y-78533885D02*
X101190477Y-78486266D01*
X101190477Y-78486266D02*
X101238096Y-78391028D01*
X101238096Y-78391028D02*
X101238096Y-78343409D01*
X101238096Y-78343409D02*
X101190477Y-78248171D01*
X101190477Y-78248171D02*
X101095239Y-78200552D01*
X101095239Y-78200552D02*
X100952382Y-78200552D01*
X100952382Y-78200552D02*
X100857144Y-78248171D01*
X99619048Y-78867219D02*
X99619048Y-77867219D01*
X99190477Y-78867219D02*
X99190477Y-78343409D01*
X99190477Y-78343409D02*
X99238096Y-78248171D01*
X99238096Y-78248171D02*
X99333334Y-78200552D01*
X99333334Y-78200552D02*
X99476191Y-78200552D01*
X99476191Y-78200552D02*
X99571429Y-78248171D01*
X99571429Y-78248171D02*
X99619048Y-78295790D01*
X98285715Y-78867219D02*
X98285715Y-78343409D01*
X98285715Y-78343409D02*
X98333334Y-78248171D01*
X98333334Y-78248171D02*
X98428572Y-78200552D01*
X98428572Y-78200552D02*
X98619048Y-78200552D01*
X98619048Y-78200552D02*
X98714286Y-78248171D01*
X98285715Y-78819600D02*
X98380953Y-78867219D01*
X98380953Y-78867219D02*
X98619048Y-78867219D01*
X98619048Y-78867219D02*
X98714286Y-78819600D01*
X98714286Y-78819600D02*
X98761905Y-78724361D01*
X98761905Y-78724361D02*
X98761905Y-78629123D01*
X98761905Y-78629123D02*
X98714286Y-78533885D01*
X98714286Y-78533885D02*
X98619048Y-78486266D01*
X98619048Y-78486266D02*
X98380953Y-78486266D01*
X98380953Y-78486266D02*
X98285715Y-78438647D01*
X97904762Y-78200552D02*
X97666667Y-78867219D01*
X97666667Y-78867219D02*
X97428572Y-78200552D01*
X96666667Y-78819600D02*
X96761905Y-78867219D01*
X96761905Y-78867219D02*
X96952381Y-78867219D01*
X96952381Y-78867219D02*
X97047619Y-78819600D01*
X97047619Y-78819600D02*
X97095238Y-78724361D01*
X97095238Y-78724361D02*
X97095238Y-78343409D01*
X97095238Y-78343409D02*
X97047619Y-78248171D01*
X97047619Y-78248171D02*
X96952381Y-78200552D01*
X96952381Y-78200552D02*
X96761905Y-78200552D01*
X96761905Y-78200552D02*
X96666667Y-78248171D01*
X96666667Y-78248171D02*
X96619048Y-78343409D01*
X96619048Y-78343409D02*
X96619048Y-78438647D01*
X96619048Y-78438647D02*
X97095238Y-78533885D01*
X95000000Y-78867219D02*
X95000000Y-78343409D01*
X95000000Y-78343409D02*
X95047619Y-78248171D01*
X95047619Y-78248171D02*
X95142857Y-78200552D01*
X95142857Y-78200552D02*
X95333333Y-78200552D01*
X95333333Y-78200552D02*
X95428571Y-78248171D01*
X95000000Y-78819600D02*
X95095238Y-78867219D01*
X95095238Y-78867219D02*
X95333333Y-78867219D01*
X95333333Y-78867219D02*
X95428571Y-78819600D01*
X95428571Y-78819600D02*
X95476190Y-78724361D01*
X95476190Y-78724361D02*
X95476190Y-78629123D01*
X95476190Y-78629123D02*
X95428571Y-78533885D01*
X95428571Y-78533885D02*
X95333333Y-78486266D01*
X95333333Y-78486266D02*
X95095238Y-78486266D01*
X95095238Y-78486266D02*
X95000000Y-78438647D01*
X93904761Y-78200552D02*
X93523809Y-78200552D01*
X93761904Y-77867219D02*
X93761904Y-78724361D01*
X93761904Y-78724361D02*
X93714285Y-78819600D01*
X93714285Y-78819600D02*
X93619047Y-78867219D01*
X93619047Y-78867219D02*
X93523809Y-78867219D01*
X92809523Y-78819600D02*
X92904761Y-78867219D01*
X92904761Y-78867219D02*
X93095237Y-78867219D01*
X93095237Y-78867219D02*
X93190475Y-78819600D01*
X93190475Y-78819600D02*
X93238094Y-78724361D01*
X93238094Y-78724361D02*
X93238094Y-78343409D01*
X93238094Y-78343409D02*
X93190475Y-78248171D01*
X93190475Y-78248171D02*
X93095237Y-78200552D01*
X93095237Y-78200552D02*
X92904761Y-78200552D01*
X92904761Y-78200552D02*
X92809523Y-78248171D01*
X92809523Y-78248171D02*
X92761904Y-78343409D01*
X92761904Y-78343409D02*
X92761904Y-78438647D01*
X92761904Y-78438647D02*
X93238094Y-78533885D01*
X91904761Y-78867219D02*
X91904761Y-78343409D01*
X91904761Y-78343409D02*
X91952380Y-78248171D01*
X91952380Y-78248171D02*
X92047618Y-78200552D01*
X92047618Y-78200552D02*
X92238094Y-78200552D01*
X92238094Y-78200552D02*
X92333332Y-78248171D01*
X91904761Y-78819600D02*
X91999999Y-78867219D01*
X91999999Y-78867219D02*
X92238094Y-78867219D01*
X92238094Y-78867219D02*
X92333332Y-78819600D01*
X92333332Y-78819600D02*
X92380951Y-78724361D01*
X92380951Y-78724361D02*
X92380951Y-78629123D01*
X92380951Y-78629123D02*
X92333332Y-78533885D01*
X92333332Y-78533885D02*
X92238094Y-78486266D01*
X92238094Y-78486266D02*
X91999999Y-78486266D01*
X91999999Y-78486266D02*
X91904761Y-78438647D01*
X90666665Y-78200552D02*
X90666665Y-79200552D01*
X90666665Y-78248171D02*
X90571427Y-78200552D01*
X90571427Y-78200552D02*
X90380951Y-78200552D01*
X90380951Y-78200552D02*
X90285713Y-78248171D01*
X90285713Y-78248171D02*
X90238094Y-78295790D01*
X90238094Y-78295790D02*
X90190475Y-78391028D01*
X90190475Y-78391028D02*
X90190475Y-78676742D01*
X90190475Y-78676742D02*
X90238094Y-78771980D01*
X90238094Y-78771980D02*
X90285713Y-78819600D01*
X90285713Y-78819600D02*
X90380951Y-78867219D01*
X90380951Y-78867219D02*
X90571427Y-78867219D01*
X90571427Y-78867219D02*
X90666665Y-78819600D01*
X89333332Y-78867219D02*
X89333332Y-78343409D01*
X89333332Y-78343409D02*
X89380951Y-78248171D01*
X89380951Y-78248171D02*
X89476189Y-78200552D01*
X89476189Y-78200552D02*
X89666665Y-78200552D01*
X89666665Y-78200552D02*
X89761903Y-78248171D01*
X89333332Y-78819600D02*
X89428570Y-78867219D01*
X89428570Y-78867219D02*
X89666665Y-78867219D01*
X89666665Y-78867219D02*
X89761903Y-78819600D01*
X89761903Y-78819600D02*
X89809522Y-78724361D01*
X89809522Y-78724361D02*
X89809522Y-78629123D01*
X89809522Y-78629123D02*
X89761903Y-78533885D01*
X89761903Y-78533885D02*
X89666665Y-78486266D01*
X89666665Y-78486266D02*
X89428570Y-78486266D01*
X89428570Y-78486266D02*
X89333332Y-78438647D01*
X88857141Y-78867219D02*
X88857141Y-78200552D01*
X88857141Y-78391028D02*
X88809522Y-78295790D01*
X88809522Y-78295790D02*
X88761903Y-78248171D01*
X88761903Y-78248171D02*
X88666665Y-78200552D01*
X88666665Y-78200552D02*
X88571427Y-78200552D01*
X88380950Y-78200552D02*
X87999998Y-78200552D01*
X88238093Y-77867219D02*
X88238093Y-78724361D01*
X88238093Y-78724361D02*
X88190474Y-78819600D01*
X88190474Y-78819600D02*
X88095236Y-78867219D01*
X88095236Y-78867219D02*
X87999998Y-78867219D01*
X87761902Y-78200552D02*
X87523807Y-78867219D01*
X87285712Y-78200552D02*
X87523807Y-78867219D01*
X87523807Y-78867219D02*
X87619045Y-79105314D01*
X87619045Y-79105314D02*
X87666664Y-79152933D01*
X87666664Y-79152933D02*
X87761902Y-79200552D01*
D11*
X102142857Y-33790752D02*
X101952381Y-34457419D01*
X101952381Y-34457419D02*
X101761905Y-33981228D01*
X101761905Y-33981228D02*
X101571429Y-34457419D01*
X101571429Y-34457419D02*
X101380953Y-33790752D01*
X100571429Y-34457419D02*
X100571429Y-33933609D01*
X100571429Y-33933609D02*
X100619048Y-33838371D01*
X100619048Y-33838371D02*
X100714286Y-33790752D01*
X100714286Y-33790752D02*
X100904762Y-33790752D01*
X100904762Y-33790752D02*
X101000000Y-33838371D01*
X100571429Y-34409800D02*
X100666667Y-34457419D01*
X100666667Y-34457419D02*
X100904762Y-34457419D01*
X100904762Y-34457419D02*
X101000000Y-34409800D01*
X101000000Y-34409800D02*
X101047619Y-34314561D01*
X101047619Y-34314561D02*
X101047619Y-34219323D01*
X101047619Y-34219323D02*
X101000000Y-34124085D01*
X101000000Y-34124085D02*
X100904762Y-34076466D01*
X100904762Y-34076466D02*
X100666667Y-34076466D01*
X100666667Y-34076466D02*
X100571429Y-34028847D01*
X100238095Y-33790752D02*
X99857143Y-33790752D01*
X100095238Y-33457419D02*
X100095238Y-34314561D01*
X100095238Y-34314561D02*
X100047619Y-34409800D01*
X100047619Y-34409800D02*
X99952381Y-34457419D01*
X99952381Y-34457419D02*
X99857143Y-34457419D01*
X99142857Y-34409800D02*
X99238095Y-34457419D01*
X99238095Y-34457419D02*
X99428571Y-34457419D01*
X99428571Y-34457419D02*
X99523809Y-34409800D01*
X99523809Y-34409800D02*
X99571428Y-34314561D01*
X99571428Y-34314561D02*
X99571428Y-33933609D01*
X99571428Y-33933609D02*
X99523809Y-33838371D01*
X99523809Y-33838371D02*
X99428571Y-33790752D01*
X99428571Y-33790752D02*
X99238095Y-33790752D01*
X99238095Y-33790752D02*
X99142857Y-33838371D01*
X99142857Y-33838371D02*
X99095238Y-33933609D01*
X99095238Y-33933609D02*
X99095238Y-34028847D01*
X99095238Y-34028847D02*
X99571428Y-34124085D01*
X98666666Y-34457419D02*
X98666666Y-33790752D01*
X98666666Y-33981228D02*
X98619047Y-33885990D01*
X98619047Y-33885990D02*
X98571428Y-33838371D01*
X98571428Y-33838371D02*
X98476190Y-33790752D01*
X98476190Y-33790752D02*
X98380952Y-33790752D01*
X96857142Y-34457419D02*
X96857142Y-33457419D01*
X96857142Y-34409800D02*
X96952380Y-34457419D01*
X96952380Y-34457419D02*
X97142856Y-34457419D01*
X97142856Y-34457419D02*
X97238094Y-34409800D01*
X97238094Y-34409800D02*
X97285713Y-34362180D01*
X97285713Y-34362180D02*
X97333332Y-34266942D01*
X97333332Y-34266942D02*
X97333332Y-33981228D01*
X97333332Y-33981228D02*
X97285713Y-33885990D01*
X97285713Y-33885990D02*
X97238094Y-33838371D01*
X97238094Y-33838371D02*
X97142856Y-33790752D01*
X97142856Y-33790752D02*
X96952380Y-33790752D01*
X96952380Y-33790752D02*
X96857142Y-33838371D01*
X96380951Y-34457419D02*
X96380951Y-33790752D01*
X96380951Y-33981228D02*
X96333332Y-33885990D01*
X96333332Y-33885990D02*
X96285713Y-33838371D01*
X96285713Y-33838371D02*
X96190475Y-33790752D01*
X96190475Y-33790752D02*
X96095237Y-33790752D01*
X95333332Y-34457419D02*
X95333332Y-33933609D01*
X95333332Y-33933609D02*
X95380951Y-33838371D01*
X95380951Y-33838371D02*
X95476189Y-33790752D01*
X95476189Y-33790752D02*
X95666665Y-33790752D01*
X95666665Y-33790752D02*
X95761903Y-33838371D01*
X95333332Y-34409800D02*
X95428570Y-34457419D01*
X95428570Y-34457419D02*
X95666665Y-34457419D01*
X95666665Y-34457419D02*
X95761903Y-34409800D01*
X95761903Y-34409800D02*
X95809522Y-34314561D01*
X95809522Y-34314561D02*
X95809522Y-34219323D01*
X95809522Y-34219323D02*
X95761903Y-34124085D01*
X95761903Y-34124085D02*
X95666665Y-34076466D01*
X95666665Y-34076466D02*
X95428570Y-34076466D01*
X95428570Y-34076466D02*
X95333332Y-34028847D01*
X94857141Y-34457419D02*
X94857141Y-33790752D01*
X94857141Y-33457419D02*
X94904760Y-33505038D01*
X94904760Y-33505038D02*
X94857141Y-33552657D01*
X94857141Y-33552657D02*
X94809522Y-33505038D01*
X94809522Y-33505038D02*
X94857141Y-33457419D01*
X94857141Y-33457419D02*
X94857141Y-33552657D01*
X94380951Y-33790752D02*
X94380951Y-34457419D01*
X94380951Y-33885990D02*
X94333332Y-33838371D01*
X94333332Y-33838371D02*
X94238094Y-33790752D01*
X94238094Y-33790752D02*
X94095237Y-33790752D01*
X94095237Y-33790752D02*
X93999999Y-33838371D01*
X93999999Y-33838371D02*
X93952380Y-33933609D01*
X93952380Y-33933609D02*
X93952380Y-34457419D01*
X205142857Y-112290752D02*
X204952381Y-112957419D01*
X204952381Y-112957419D02*
X204761905Y-112481228D01*
X204761905Y-112481228D02*
X204571429Y-112957419D01*
X204571429Y-112957419D02*
X204380953Y-112290752D01*
X203571429Y-112957419D02*
X203571429Y-112433609D01*
X203571429Y-112433609D02*
X203619048Y-112338371D01*
X203619048Y-112338371D02*
X203714286Y-112290752D01*
X203714286Y-112290752D02*
X203904762Y-112290752D01*
X203904762Y-112290752D02*
X204000000Y-112338371D01*
X203571429Y-112909800D02*
X203666667Y-112957419D01*
X203666667Y-112957419D02*
X203904762Y-112957419D01*
X203904762Y-112957419D02*
X204000000Y-112909800D01*
X204000000Y-112909800D02*
X204047619Y-112814561D01*
X204047619Y-112814561D02*
X204047619Y-112719323D01*
X204047619Y-112719323D02*
X204000000Y-112624085D01*
X204000000Y-112624085D02*
X203904762Y-112576466D01*
X203904762Y-112576466D02*
X203666667Y-112576466D01*
X203666667Y-112576466D02*
X203571429Y-112528847D01*
X203238095Y-112290752D02*
X202857143Y-112290752D01*
X203095238Y-111957419D02*
X203095238Y-112814561D01*
X203095238Y-112814561D02*
X203047619Y-112909800D01*
X203047619Y-112909800D02*
X202952381Y-112957419D01*
X202952381Y-112957419D02*
X202857143Y-112957419D01*
X202142857Y-112909800D02*
X202238095Y-112957419D01*
X202238095Y-112957419D02*
X202428571Y-112957419D01*
X202428571Y-112957419D02*
X202523809Y-112909800D01*
X202523809Y-112909800D02*
X202571428Y-112814561D01*
X202571428Y-112814561D02*
X202571428Y-112433609D01*
X202571428Y-112433609D02*
X202523809Y-112338371D01*
X202523809Y-112338371D02*
X202428571Y-112290752D01*
X202428571Y-112290752D02*
X202238095Y-112290752D01*
X202238095Y-112290752D02*
X202142857Y-112338371D01*
X202142857Y-112338371D02*
X202095238Y-112433609D01*
X202095238Y-112433609D02*
X202095238Y-112528847D01*
X202095238Y-112528847D02*
X202571428Y-112624085D01*
X201666666Y-112957419D02*
X201666666Y-112290752D01*
X201666666Y-112481228D02*
X201619047Y-112385990D01*
X201619047Y-112385990D02*
X201571428Y-112338371D01*
X201571428Y-112338371D02*
X201476190Y-112290752D01*
X201476190Y-112290752D02*
X201380952Y-112290752D01*
X199857142Y-112957419D02*
X199857142Y-111957419D01*
X199857142Y-112909800D02*
X199952380Y-112957419D01*
X199952380Y-112957419D02*
X200142856Y-112957419D01*
X200142856Y-112957419D02*
X200238094Y-112909800D01*
X200238094Y-112909800D02*
X200285713Y-112862180D01*
X200285713Y-112862180D02*
X200333332Y-112766942D01*
X200333332Y-112766942D02*
X200333332Y-112481228D01*
X200333332Y-112481228D02*
X200285713Y-112385990D01*
X200285713Y-112385990D02*
X200238094Y-112338371D01*
X200238094Y-112338371D02*
X200142856Y-112290752D01*
X200142856Y-112290752D02*
X199952380Y-112290752D01*
X199952380Y-112290752D02*
X199857142Y-112338371D01*
X199380951Y-112957419D02*
X199380951Y-112290752D01*
X199380951Y-112481228D02*
X199333332Y-112385990D01*
X199333332Y-112385990D02*
X199285713Y-112338371D01*
X199285713Y-112338371D02*
X199190475Y-112290752D01*
X199190475Y-112290752D02*
X199095237Y-112290752D01*
X198333332Y-112957419D02*
X198333332Y-112433609D01*
X198333332Y-112433609D02*
X198380951Y-112338371D01*
X198380951Y-112338371D02*
X198476189Y-112290752D01*
X198476189Y-112290752D02*
X198666665Y-112290752D01*
X198666665Y-112290752D02*
X198761903Y-112338371D01*
X198333332Y-112909800D02*
X198428570Y-112957419D01*
X198428570Y-112957419D02*
X198666665Y-112957419D01*
X198666665Y-112957419D02*
X198761903Y-112909800D01*
X198761903Y-112909800D02*
X198809522Y-112814561D01*
X198809522Y-112814561D02*
X198809522Y-112719323D01*
X198809522Y-112719323D02*
X198761903Y-112624085D01*
X198761903Y-112624085D02*
X198666665Y-112576466D01*
X198666665Y-112576466D02*
X198428570Y-112576466D01*
X198428570Y-112576466D02*
X198333332Y-112528847D01*
X197857141Y-112957419D02*
X197857141Y-112290752D01*
X197857141Y-111957419D02*
X197904760Y-112005038D01*
X197904760Y-112005038D02*
X197857141Y-112052657D01*
X197857141Y-112052657D02*
X197809522Y-112005038D01*
X197809522Y-112005038D02*
X197857141Y-111957419D01*
X197857141Y-111957419D02*
X197857141Y-112052657D01*
X197380951Y-112290752D02*
X197380951Y-112957419D01*
X197380951Y-112385990D02*
X197333332Y-112338371D01*
X197333332Y-112338371D02*
X197238094Y-112290752D01*
X197238094Y-112290752D02*
X197095237Y-112290752D01*
X197095237Y-112290752D02*
X196999999Y-112338371D01*
X196999999Y-112338371D02*
X196952380Y-112433609D01*
X196952380Y-112433609D02*
X196952380Y-112957419D01*
X205142857Y-33790752D02*
X204952381Y-34457419D01*
X204952381Y-34457419D02*
X204761905Y-33981228D01*
X204761905Y-33981228D02*
X204571429Y-34457419D01*
X204571429Y-34457419D02*
X204380953Y-33790752D01*
X203571429Y-34457419D02*
X203571429Y-33933609D01*
X203571429Y-33933609D02*
X203619048Y-33838371D01*
X203619048Y-33838371D02*
X203714286Y-33790752D01*
X203714286Y-33790752D02*
X203904762Y-33790752D01*
X203904762Y-33790752D02*
X204000000Y-33838371D01*
X203571429Y-34409800D02*
X203666667Y-34457419D01*
X203666667Y-34457419D02*
X203904762Y-34457419D01*
X203904762Y-34457419D02*
X204000000Y-34409800D01*
X204000000Y-34409800D02*
X204047619Y-34314561D01*
X204047619Y-34314561D02*
X204047619Y-34219323D01*
X204047619Y-34219323D02*
X204000000Y-34124085D01*
X204000000Y-34124085D02*
X203904762Y-34076466D01*
X203904762Y-34076466D02*
X203666667Y-34076466D01*
X203666667Y-34076466D02*
X203571429Y-34028847D01*
X203238095Y-33790752D02*
X202857143Y-33790752D01*
X203095238Y-33457419D02*
X203095238Y-34314561D01*
X203095238Y-34314561D02*
X203047619Y-34409800D01*
X203047619Y-34409800D02*
X202952381Y-34457419D01*
X202952381Y-34457419D02*
X202857143Y-34457419D01*
X202142857Y-34409800D02*
X202238095Y-34457419D01*
X202238095Y-34457419D02*
X202428571Y-34457419D01*
X202428571Y-34457419D02*
X202523809Y-34409800D01*
X202523809Y-34409800D02*
X202571428Y-34314561D01*
X202571428Y-34314561D02*
X202571428Y-33933609D01*
X202571428Y-33933609D02*
X202523809Y-33838371D01*
X202523809Y-33838371D02*
X202428571Y-33790752D01*
X202428571Y-33790752D02*
X202238095Y-33790752D01*
X202238095Y-33790752D02*
X202142857Y-33838371D01*
X202142857Y-33838371D02*
X202095238Y-33933609D01*
X202095238Y-33933609D02*
X202095238Y-34028847D01*
X202095238Y-34028847D02*
X202571428Y-34124085D01*
X201666666Y-34457419D02*
X201666666Y-33790752D01*
X201666666Y-33981228D02*
X201619047Y-33885990D01*
X201619047Y-33885990D02*
X201571428Y-33838371D01*
X201571428Y-33838371D02*
X201476190Y-33790752D01*
X201476190Y-33790752D02*
X201380952Y-33790752D01*
X199857142Y-34457419D02*
X199857142Y-33457419D01*
X199857142Y-34409800D02*
X199952380Y-34457419D01*
X199952380Y-34457419D02*
X200142856Y-34457419D01*
X200142856Y-34457419D02*
X200238094Y-34409800D01*
X200238094Y-34409800D02*
X200285713Y-34362180D01*
X200285713Y-34362180D02*
X200333332Y-34266942D01*
X200333332Y-34266942D02*
X200333332Y-33981228D01*
X200333332Y-33981228D02*
X200285713Y-33885990D01*
X200285713Y-33885990D02*
X200238094Y-33838371D01*
X200238094Y-33838371D02*
X200142856Y-33790752D01*
X200142856Y-33790752D02*
X199952380Y-33790752D01*
X199952380Y-33790752D02*
X199857142Y-33838371D01*
X199380951Y-34457419D02*
X199380951Y-33790752D01*
X199380951Y-33981228D02*
X199333332Y-33885990D01*
X199333332Y-33885990D02*
X199285713Y-33838371D01*
X199285713Y-33838371D02*
X199190475Y-33790752D01*
X199190475Y-33790752D02*
X199095237Y-33790752D01*
X198333332Y-34457419D02*
X198333332Y-33933609D01*
X198333332Y-33933609D02*
X198380951Y-33838371D01*
X198380951Y-33838371D02*
X198476189Y-33790752D01*
X198476189Y-33790752D02*
X198666665Y-33790752D01*
X198666665Y-33790752D02*
X198761903Y-33838371D01*
X198333332Y-34409800D02*
X198428570Y-34457419D01*
X198428570Y-34457419D02*
X198666665Y-34457419D01*
X198666665Y-34457419D02*
X198761903Y-34409800D01*
X198761903Y-34409800D02*
X198809522Y-34314561D01*
X198809522Y-34314561D02*
X198809522Y-34219323D01*
X198809522Y-34219323D02*
X198761903Y-34124085D01*
X198761903Y-34124085D02*
X198666665Y-34076466D01*
X198666665Y-34076466D02*
X198428570Y-34076466D01*
X198428570Y-34076466D02*
X198333332Y-34028847D01*
X197857141Y-34457419D02*
X197857141Y-33790752D01*
X197857141Y-33457419D02*
X197904760Y-33505038D01*
X197904760Y-33505038D02*
X197857141Y-33552657D01*
X197857141Y-33552657D02*
X197809522Y-33505038D01*
X197809522Y-33505038D02*
X197857141Y-33457419D01*
X197857141Y-33457419D02*
X197857141Y-33552657D01*
X197380951Y-33790752D02*
X197380951Y-34457419D01*
X197380951Y-33885990D02*
X197333332Y-33838371D01*
X197333332Y-33838371D02*
X197238094Y-33790752D01*
X197238094Y-33790752D02*
X197095237Y-33790752D01*
X197095237Y-33790752D02*
X196999999Y-33838371D01*
X196999999Y-33838371D02*
X196952380Y-33933609D01*
X196952380Y-33933609D02*
X196952380Y-34457419D01*
X102142857Y-121290752D02*
X101952381Y-121957419D01*
X101952381Y-121957419D02*
X101761905Y-121481228D01*
X101761905Y-121481228D02*
X101571429Y-121957419D01*
X101571429Y-121957419D02*
X101380953Y-121290752D01*
X100571429Y-121957419D02*
X100571429Y-121433609D01*
X100571429Y-121433609D02*
X100619048Y-121338371D01*
X100619048Y-121338371D02*
X100714286Y-121290752D01*
X100714286Y-121290752D02*
X100904762Y-121290752D01*
X100904762Y-121290752D02*
X101000000Y-121338371D01*
X100571429Y-121909800D02*
X100666667Y-121957419D01*
X100666667Y-121957419D02*
X100904762Y-121957419D01*
X100904762Y-121957419D02*
X101000000Y-121909800D01*
X101000000Y-121909800D02*
X101047619Y-121814561D01*
X101047619Y-121814561D02*
X101047619Y-121719323D01*
X101047619Y-121719323D02*
X101000000Y-121624085D01*
X101000000Y-121624085D02*
X100904762Y-121576466D01*
X100904762Y-121576466D02*
X100666667Y-121576466D01*
X100666667Y-121576466D02*
X100571429Y-121528847D01*
X100238095Y-121290752D02*
X99857143Y-121290752D01*
X100095238Y-120957419D02*
X100095238Y-121814561D01*
X100095238Y-121814561D02*
X100047619Y-121909800D01*
X100047619Y-121909800D02*
X99952381Y-121957419D01*
X99952381Y-121957419D02*
X99857143Y-121957419D01*
X99142857Y-121909800D02*
X99238095Y-121957419D01*
X99238095Y-121957419D02*
X99428571Y-121957419D01*
X99428571Y-121957419D02*
X99523809Y-121909800D01*
X99523809Y-121909800D02*
X99571428Y-121814561D01*
X99571428Y-121814561D02*
X99571428Y-121433609D01*
X99571428Y-121433609D02*
X99523809Y-121338371D01*
X99523809Y-121338371D02*
X99428571Y-121290752D01*
X99428571Y-121290752D02*
X99238095Y-121290752D01*
X99238095Y-121290752D02*
X99142857Y-121338371D01*
X99142857Y-121338371D02*
X99095238Y-121433609D01*
X99095238Y-121433609D02*
X99095238Y-121528847D01*
X99095238Y-121528847D02*
X99571428Y-121624085D01*
X98666666Y-121957419D02*
X98666666Y-121290752D01*
X98666666Y-121481228D02*
X98619047Y-121385990D01*
X98619047Y-121385990D02*
X98571428Y-121338371D01*
X98571428Y-121338371D02*
X98476190Y-121290752D01*
X98476190Y-121290752D02*
X98380952Y-121290752D01*
X96857142Y-121957419D02*
X96857142Y-120957419D01*
X96857142Y-121909800D02*
X96952380Y-121957419D01*
X96952380Y-121957419D02*
X97142856Y-121957419D01*
X97142856Y-121957419D02*
X97238094Y-121909800D01*
X97238094Y-121909800D02*
X97285713Y-121862180D01*
X97285713Y-121862180D02*
X97333332Y-121766942D01*
X97333332Y-121766942D02*
X97333332Y-121481228D01*
X97333332Y-121481228D02*
X97285713Y-121385990D01*
X97285713Y-121385990D02*
X97238094Y-121338371D01*
X97238094Y-121338371D02*
X97142856Y-121290752D01*
X97142856Y-121290752D02*
X96952380Y-121290752D01*
X96952380Y-121290752D02*
X96857142Y-121338371D01*
X96380951Y-121957419D02*
X96380951Y-121290752D01*
X96380951Y-121481228D02*
X96333332Y-121385990D01*
X96333332Y-121385990D02*
X96285713Y-121338371D01*
X96285713Y-121338371D02*
X96190475Y-121290752D01*
X96190475Y-121290752D02*
X96095237Y-121290752D01*
X95333332Y-121957419D02*
X95333332Y-121433609D01*
X95333332Y-121433609D02*
X95380951Y-121338371D01*
X95380951Y-121338371D02*
X95476189Y-121290752D01*
X95476189Y-121290752D02*
X95666665Y-121290752D01*
X95666665Y-121290752D02*
X95761903Y-121338371D01*
X95333332Y-121909800D02*
X95428570Y-121957419D01*
X95428570Y-121957419D02*
X95666665Y-121957419D01*
X95666665Y-121957419D02*
X95761903Y-121909800D01*
X95761903Y-121909800D02*
X95809522Y-121814561D01*
X95809522Y-121814561D02*
X95809522Y-121719323D01*
X95809522Y-121719323D02*
X95761903Y-121624085D01*
X95761903Y-121624085D02*
X95666665Y-121576466D01*
X95666665Y-121576466D02*
X95428570Y-121576466D01*
X95428570Y-121576466D02*
X95333332Y-121528847D01*
X94857141Y-121957419D02*
X94857141Y-121290752D01*
X94857141Y-120957419D02*
X94904760Y-121005038D01*
X94904760Y-121005038D02*
X94857141Y-121052657D01*
X94857141Y-121052657D02*
X94809522Y-121005038D01*
X94809522Y-121005038D02*
X94857141Y-120957419D01*
X94857141Y-120957419D02*
X94857141Y-121052657D01*
X94380951Y-121290752D02*
X94380951Y-121957419D01*
X94380951Y-121385990D02*
X94333332Y-121338371D01*
X94333332Y-121338371D02*
X94238094Y-121290752D01*
X94238094Y-121290752D02*
X94095237Y-121290752D01*
X94095237Y-121290752D02*
X93999999Y-121338371D01*
X93999999Y-121338371D02*
X93952380Y-121433609D01*
X93952380Y-121433609D02*
X93952380Y-121957419D01*
%TO.C,REF\u002A\u002A*%
X93000000Y-34000000D02*
G75*
G02*
X92000000Y-34000000I-500000J0D01*
G01*
X92000000Y-34000000D02*
X92000040Y-33992254D01*
X92000160Y-33984468D01*
X92000360Y-33976642D01*
X92000641Y-33968775D01*
X92001004Y-33960868D01*
X92001448Y-33952918D01*
X92001974Y-33944927D01*
X92002583Y-33936894D01*
X92003276Y-33928817D01*
X92004052Y-33920698D01*
X92004913Y-33912536D01*
X92005858Y-33904330D01*
X92006889Y-33896079D01*
X92008005Y-33887785D01*
X92009209Y-33879445D01*
X92010499Y-33871060D01*
X92011877Y-33862630D01*
X92013343Y-33854154D01*
X92014898Y-33845632D01*
X92016543Y-33837063D01*
X92018278Y-33828448D01*
X92020104Y-33819786D01*
X92022021Y-33811076D01*
X92024030Y-33802319D01*
X92026132Y-33793514D01*
X92028328Y-33784661D01*
X92030617Y-33775760D01*
X92033002Y-33766810D01*
X92035482Y-33757812D01*
X92038058Y-33748764D01*
X92040731Y-33739668D01*
X92043501Y-33730522D01*
X92046370Y-33721327D01*
X92049338Y-33712082D01*
X92052405Y-33702788D01*
X92055572Y-33693444D01*
X92058841Y-33684050D01*
X92062211Y-33674606D01*
X92065684Y-33665112D01*
X92069260Y-33655569D01*
X92072939Y-33645975D01*
X92076723Y-33636332D01*
X92080612Y-33626638D01*
X92084607Y-33616896D01*
X92088708Y-33607103D01*
X92092916Y-33597261D01*
X92097231Y-33587370D01*
X92101655Y-33577430D01*
X92106188Y-33567441D01*
X92110830Y-33557404D01*
X92115582Y-33547318D01*
X92120444Y-33537185D01*
X92125417Y-33527004D01*
X92130502Y-33516777D01*
X92135698Y-33506503D01*
X92141007Y-33496184D01*
X92146428Y-33485819D01*
X92151962Y-33475410D01*
X92157609Y-33464958D01*
X92163369Y-33454462D01*
X92169244Y-33443925D01*
X92175231Y-33433346D01*
X92181333Y-33422728D01*
X92187548Y-33412071D01*
X92193877Y-33401377D01*
X92200320Y-33390646D01*
X92206876Y-33379881D01*
X92213544Y-33369083D01*
X92220325Y-33358253D01*
X92227218Y-33347394D01*
X92234222Y-33336508D01*
X92241337Y-33325596D01*
X92248561Y-33314662D01*
X92255893Y-33303707D01*
X92263332Y-33292734D01*
X92270876Y-33281747D01*
X92278523Y-33270749D01*
X92286272Y-33259743D01*
X92294120Y-33248733D01*
X92302065Y-33237723D01*
X92310103Y-33226719D01*
X92318231Y-33215724D01*
X92326445Y-33204745D01*
X92334741Y-33193788D01*
X92343114Y-33182859D01*
X92351558Y-33171966D01*
X92360067Y-33161118D01*
X92368633Y-33150322D01*
X92377248Y-33139590D01*
X92385903Y-33128934D01*
X92394585Y-33118367D01*
X92403282Y-33107903D01*
X92411979Y-33097560D01*
X92420658Y-33087358D01*
X92429297Y-33077322D01*
X92437871Y-33067478D01*
X92446347Y-33057862D01*
X92454686Y-33048515D01*
X92462837Y-33039490D01*
X92470734Y-33030857D01*
X92478283Y-33022711D01*
X92485348Y-33015189D01*
X92491710Y-33008512D01*
X92496953Y-33003095D01*
X92500000Y-33000000D01*
X93000000Y-34000000D02*
X92999960Y-33992254D01*
X92999840Y-33984468D01*
X92999640Y-33976642D01*
X92999359Y-33968775D01*
X92998996Y-33960868D01*
X92998552Y-33952918D01*
X92998026Y-33944927D01*
X92997417Y-33936894D01*
X92996724Y-33928817D01*
X92995948Y-33920698D01*
X92995087Y-33912536D01*
X92994142Y-33904330D01*
X92993111Y-33896079D01*
X92991995Y-33887785D01*
X92990791Y-33879445D01*
X92989501Y-33871060D01*
X92988123Y-33862630D01*
X92986657Y-33854154D01*
X92985102Y-33845632D01*
X92983457Y-33837063D01*
X92981722Y-33828448D01*
X92979896Y-33819786D01*
X92977979Y-33811076D01*
X92975970Y-33802319D01*
X92973868Y-33793514D01*
X92971672Y-33784661D01*
X92969383Y-33775760D01*
X92966998Y-33766810D01*
X92964518Y-33757812D01*
X92961942Y-33748764D01*
X92959269Y-33739668D01*
X92956499Y-33730522D01*
X92953630Y-33721327D01*
X92950662Y-33712082D01*
X92947595Y-33702788D01*
X92944428Y-33693444D01*
X92941159Y-33684050D01*
X92937789Y-33674606D01*
X92934316Y-33665112D01*
X92930740Y-33655569D01*
X92927061Y-33645975D01*
X92923277Y-33636332D01*
X92919388Y-33626638D01*
X92915393Y-33616896D01*
X92911292Y-33607103D01*
X92907084Y-33597261D01*
X92902769Y-33587370D01*
X92898345Y-33577430D01*
X92893812Y-33567441D01*
X92889170Y-33557404D01*
X92884418Y-33547318D01*
X92879556Y-33537185D01*
X92874583Y-33527004D01*
X92869498Y-33516777D01*
X92864302Y-33506503D01*
X92858993Y-33496184D01*
X92853572Y-33485819D01*
X92848038Y-33475410D01*
X92842391Y-33464958D01*
X92836631Y-33454462D01*
X92830756Y-33443925D01*
X92824769Y-33433346D01*
X92818667Y-33422728D01*
X92812452Y-33412071D01*
X92806123Y-33401377D01*
X92799680Y-33390646D01*
X92793124Y-33379881D01*
X92786456Y-33369083D01*
X92779675Y-33358253D01*
X92772782Y-33347394D01*
X92765778Y-33336508D01*
X92758663Y-33325596D01*
X92751439Y-33314662D01*
X92744107Y-33303707D01*
X92736668Y-33292734D01*
X92729124Y-33281747D01*
X92721477Y-33270749D01*
X92713728Y-33259743D01*
X92705880Y-33248733D01*
X92697935Y-33237723D01*
X92689897Y-33226719D01*
X92681769Y-33215724D01*
X92673555Y-33204745D01*
X92665259Y-33193788D01*
X92656886Y-33182859D01*
X92648442Y-33171966D01*
X92639933Y-33161118D01*
X92631367Y-33150322D01*
X92622752Y-33139590D01*
X92614097Y-33128934D01*
X92605415Y-33118367D01*
X92596718Y-33107903D01*
X92588021Y-33097560D01*
X92579342Y-33087358D01*
X92570703Y-33077322D01*
X92562129Y-33067478D01*
X92553653Y-33057862D01*
X92545314Y-33048515D01*
X92537163Y-33039490D01*
X92529266Y-33030857D01*
X92521717Y-33022711D01*
X92514652Y-33015189D01*
X92508290Y-33008512D01*
X92503047Y-33003095D01*
X92500000Y-33000000D01*
X196000000Y-112500000D02*
G75*
G02*
X195000000Y-112500000I-500000J0D01*
G01*
X195000000Y-112500000D02*
X195000040Y-112492254D01*
X195000160Y-112484468D01*
X195000360Y-112476642D01*
X195000641Y-112468775D01*
X195001004Y-112460868D01*
X195001448Y-112452918D01*
X195001974Y-112444927D01*
X195002583Y-112436894D01*
X195003276Y-112428817D01*
X195004052Y-112420698D01*
X195004913Y-112412536D01*
X195005858Y-112404330D01*
X195006889Y-112396079D01*
X195008005Y-112387785D01*
X195009209Y-112379445D01*
X195010499Y-112371060D01*
X195011877Y-112362630D01*
X195013343Y-112354154D01*
X195014898Y-112345632D01*
X195016543Y-112337063D01*
X195018278Y-112328448D01*
X195020104Y-112319786D01*
X195022021Y-112311076D01*
X195024030Y-112302319D01*
X195026132Y-112293514D01*
X195028328Y-112284661D01*
X195030617Y-112275760D01*
X195033002Y-112266810D01*
X195035482Y-112257812D01*
X195038058Y-112248764D01*
X195040731Y-112239668D01*
X195043501Y-112230522D01*
X195046370Y-112221327D01*
X195049338Y-112212082D01*
X195052405Y-112202788D01*
X195055572Y-112193444D01*
X195058841Y-112184050D01*
X195062211Y-112174606D01*
X195065684Y-112165112D01*
X195069260Y-112155569D01*
X195072939Y-112145975D01*
X195076723Y-112136332D01*
X195080612Y-112126638D01*
X195084607Y-112116896D01*
X195088708Y-112107103D01*
X195092916Y-112097261D01*
X195097231Y-112087370D01*
X195101655Y-112077430D01*
X195106188Y-112067441D01*
X195110830Y-112057404D01*
X195115582Y-112047318D01*
X195120444Y-112037185D01*
X195125417Y-112027004D01*
X195130502Y-112016777D01*
X195135698Y-112006503D01*
X195141007Y-111996184D01*
X195146428Y-111985819D01*
X195151962Y-111975410D01*
X195157609Y-111964958D01*
X195163369Y-111954462D01*
X195169244Y-111943925D01*
X195175231Y-111933346D01*
X195181333Y-111922728D01*
X195187548Y-111912071D01*
X195193877Y-111901377D01*
X195200320Y-111890646D01*
X195206876Y-111879881D01*
X195213544Y-111869083D01*
X195220325Y-111858253D01*
X195227218Y-111847394D01*
X195234222Y-111836508D01*
X195241337Y-111825596D01*
X195248561Y-111814662D01*
X195255893Y-111803707D01*
X195263332Y-111792734D01*
X195270876Y-111781747D01*
X195278523Y-111770749D01*
X195286272Y-111759743D01*
X195294120Y-111748733D01*
X195302065Y-111737723D01*
X195310103Y-111726719D01*
X195318231Y-111715724D01*
X195326445Y-111704745D01*
X195334741Y-111693788D01*
X195343114Y-111682859D01*
X195351558Y-111671966D01*
X195360067Y-111661118D01*
X195368633Y-111650322D01*
X195377248Y-111639590D01*
X195385903Y-111628934D01*
X195394585Y-111618367D01*
X195403282Y-111607903D01*
X195411979Y-111597560D01*
X195420658Y-111587358D01*
X195429297Y-111577322D01*
X195437871Y-111567478D01*
X195446347Y-111557862D01*
X195454686Y-111548515D01*
X195462837Y-111539490D01*
X195470734Y-111530857D01*
X195478283Y-111522711D01*
X195485348Y-111515189D01*
X195491710Y-111508512D01*
X195496953Y-111503095D01*
X195500000Y-111500000D01*
X196000000Y-112500000D02*
X195999960Y-112492254D01*
X195999840Y-112484468D01*
X195999640Y-112476642D01*
X195999359Y-112468775D01*
X195998996Y-112460868D01*
X195998552Y-112452918D01*
X195998026Y-112444927D01*
X195997417Y-112436894D01*
X195996724Y-112428817D01*
X195995948Y-112420698D01*
X195995087Y-112412536D01*
X195994142Y-112404330D01*
X195993111Y-112396079D01*
X195991995Y-112387785D01*
X195990791Y-112379445D01*
X195989501Y-112371060D01*
X195988123Y-112362630D01*
X195986657Y-112354154D01*
X195985102Y-112345632D01*
X195983457Y-112337063D01*
X195981722Y-112328448D01*
X195979896Y-112319786D01*
X195977979Y-112311076D01*
X195975970Y-112302319D01*
X195973868Y-112293514D01*
X195971672Y-112284661D01*
X195969383Y-112275760D01*
X195966998Y-112266810D01*
X195964518Y-112257812D01*
X195961942Y-112248764D01*
X195959269Y-112239668D01*
X195956499Y-112230522D01*
X195953630Y-112221327D01*
X195950662Y-112212082D01*
X195947595Y-112202788D01*
X195944428Y-112193444D01*
X195941159Y-112184050D01*
X195937789Y-112174606D01*
X195934316Y-112165112D01*
X195930740Y-112155569D01*
X195927061Y-112145975D01*
X195923277Y-112136332D01*
X195919388Y-112126638D01*
X195915393Y-112116896D01*
X195911292Y-112107103D01*
X195907084Y-112097261D01*
X195902769Y-112087370D01*
X195898345Y-112077430D01*
X195893812Y-112067441D01*
X195889170Y-112057404D01*
X195884418Y-112047318D01*
X195879556Y-112037185D01*
X195874583Y-112027004D01*
X195869498Y-112016777D01*
X195864302Y-112006503D01*
X195858993Y-111996184D01*
X195853572Y-111985819D01*
X195848038Y-111975410D01*
X195842391Y-111964958D01*
X195836631Y-111954462D01*
X195830756Y-111943925D01*
X195824769Y-111933346D01*
X195818667Y-111922728D01*
X195812452Y-111912071D01*
X195806123Y-111901377D01*
X195799680Y-111890646D01*
X195793124Y-111879881D01*
X195786456Y-111869083D01*
X195779675Y-111858253D01*
X195772782Y-111847394D01*
X195765778Y-111836508D01*
X195758663Y-111825596D01*
X195751439Y-111814662D01*
X195744107Y-111803707D01*
X195736668Y-111792734D01*
X195729124Y-111781747D01*
X195721477Y-111770749D01*
X195713728Y-111759743D01*
X195705880Y-111748733D01*
X195697935Y-111737723D01*
X195689897Y-111726719D01*
X195681769Y-111715724D01*
X195673555Y-111704745D01*
X195665259Y-111693788D01*
X195656886Y-111682859D01*
X195648442Y-111671966D01*
X195639933Y-111661118D01*
X195631367Y-111650322D01*
X195622752Y-111639590D01*
X195614097Y-111628934D01*
X195605415Y-111618367D01*
X195596718Y-111607903D01*
X195588021Y-111597560D01*
X195579342Y-111587358D01*
X195570703Y-111577322D01*
X195562129Y-111567478D01*
X195553653Y-111557862D01*
X195545314Y-111548515D01*
X195537163Y-111539490D01*
X195529266Y-111530857D01*
X195521717Y-111522711D01*
X195514652Y-111515189D01*
X195508290Y-111508512D01*
X195503047Y-111503095D01*
X195500000Y-111500000D01*
X196000000Y-34000000D02*
G75*
G02*
X195000000Y-34000000I-500000J0D01*
G01*
X195000000Y-34000000D02*
X195000040Y-33992254D01*
X195000160Y-33984468D01*
X195000360Y-33976642D01*
X195000641Y-33968775D01*
X195001004Y-33960868D01*
X195001448Y-33952918D01*
X195001974Y-33944927D01*
X195002583Y-33936894D01*
X195003276Y-33928817D01*
X195004052Y-33920698D01*
X195004913Y-33912536D01*
X195005858Y-33904330D01*
X195006889Y-33896079D01*
X195008005Y-33887785D01*
X195009209Y-33879445D01*
X195010499Y-33871060D01*
X195011877Y-33862630D01*
X195013343Y-33854154D01*
X195014898Y-33845632D01*
X195016543Y-33837063D01*
X195018278Y-33828448D01*
X195020104Y-33819786D01*
X195022021Y-33811076D01*
X195024030Y-33802319D01*
X195026132Y-33793514D01*
X195028328Y-33784661D01*
X195030617Y-33775760D01*
X195033002Y-33766810D01*
X195035482Y-33757812D01*
X195038058Y-33748764D01*
X195040731Y-33739668D01*
X195043501Y-33730522D01*
X195046370Y-33721327D01*
X195049338Y-33712082D01*
X195052405Y-33702788D01*
X195055572Y-33693444D01*
X195058841Y-33684050D01*
X195062211Y-33674606D01*
X195065684Y-33665112D01*
X195069260Y-33655569D01*
X195072939Y-33645975D01*
X195076723Y-33636332D01*
X195080612Y-33626638D01*
X195084607Y-33616896D01*
X195088708Y-33607103D01*
X195092916Y-33597261D01*
X195097231Y-33587370D01*
X195101655Y-33577430D01*
X195106188Y-33567441D01*
X195110830Y-33557404D01*
X195115582Y-33547318D01*
X195120444Y-33537185D01*
X195125417Y-33527004D01*
X195130502Y-33516777D01*
X195135698Y-33506503D01*
X195141007Y-33496184D01*
X195146428Y-33485819D01*
X195151962Y-33475410D01*
X195157609Y-33464958D01*
X195163369Y-33454462D01*
X195169244Y-33443925D01*
X195175231Y-33433346D01*
X195181333Y-33422728D01*
X195187548Y-33412071D01*
X195193877Y-33401377D01*
X195200320Y-33390646D01*
X195206876Y-33379881D01*
X195213544Y-33369083D01*
X195220325Y-33358253D01*
X195227218Y-33347394D01*
X195234222Y-33336508D01*
X195241337Y-33325596D01*
X195248561Y-33314662D01*
X195255893Y-33303707D01*
X195263332Y-33292734D01*
X195270876Y-33281747D01*
X195278523Y-33270749D01*
X195286272Y-33259743D01*
X195294120Y-33248733D01*
X195302065Y-33237723D01*
X195310103Y-33226719D01*
X195318231Y-33215724D01*
X195326445Y-33204745D01*
X195334741Y-33193788D01*
X195343114Y-33182859D01*
X195351558Y-33171966D01*
X195360067Y-33161118D01*
X195368633Y-33150322D01*
X195377248Y-33139590D01*
X195385903Y-33128934D01*
X195394585Y-33118367D01*
X195403282Y-33107903D01*
X195411979Y-33097560D01*
X195420658Y-33087358D01*
X195429297Y-33077322D01*
X195437871Y-33067478D01*
X195446347Y-33057862D01*
X195454686Y-33048515D01*
X195462837Y-33039490D01*
X195470734Y-33030857D01*
X195478283Y-33022711D01*
X195485348Y-33015189D01*
X195491710Y-33008512D01*
X195496953Y-33003095D01*
X195500000Y-33000000D01*
X196000000Y-34000000D02*
X195999960Y-33992254D01*
X195999840Y-33984468D01*
X195999640Y-33976642D01*
X195999359Y-33968775D01*
X195998996Y-33960868D01*
X195998552Y-33952918D01*
X195998026Y-33944927D01*
X195997417Y-33936894D01*
X195996724Y-33928817D01*
X195995948Y-33920698D01*
X195995087Y-33912536D01*
X195994142Y-33904330D01*
X195993111Y-33896079D01*
X195991995Y-33887785D01*
X195990791Y-33879445D01*
X195989501Y-33871060D01*
X195988123Y-33862630D01*
X195986657Y-33854154D01*
X195985102Y-33845632D01*
X195983457Y-33837063D01*
X195981722Y-33828448D01*
X195979896Y-33819786D01*
X195977979Y-33811076D01*
X195975970Y-33802319D01*
X195973868Y-33793514D01*
X195971672Y-33784661D01*
X195969383Y-33775760D01*
X195966998Y-33766810D01*
X195964518Y-33757812D01*
X195961942Y-33748764D01*
X195959269Y-33739668D01*
X195956499Y-33730522D01*
X195953630Y-33721327D01*
X195950662Y-33712082D01*
X195947595Y-33702788D01*
X195944428Y-33693444D01*
X195941159Y-33684050D01*
X195937789Y-33674606D01*
X195934316Y-33665112D01*
X195930740Y-33655569D01*
X195927061Y-33645975D01*
X195923277Y-33636332D01*
X195919388Y-33626638D01*
X195915393Y-33616896D01*
X195911292Y-33607103D01*
X195907084Y-33597261D01*
X195902769Y-33587370D01*
X195898345Y-33577430D01*
X195893812Y-33567441D01*
X195889170Y-33557404D01*
X195884418Y-33547318D01*
X195879556Y-33537185D01*
X195874583Y-33527004D01*
X195869498Y-33516777D01*
X195864302Y-33506503D01*
X195858993Y-33496184D01*
X195853572Y-33485819D01*
X195848038Y-33475410D01*
X195842391Y-33464958D01*
X195836631Y-33454462D01*
X195830756Y-33443925D01*
X195824769Y-33433346D01*
X195818667Y-33422728D01*
X195812452Y-33412071D01*
X195806123Y-33401377D01*
X195799680Y-33390646D01*
X195793124Y-33379881D01*
X195786456Y-33369083D01*
X195779675Y-33358253D01*
X195772782Y-33347394D01*
X195765778Y-33336508D01*
X195758663Y-33325596D01*
X195751439Y-33314662D01*
X195744107Y-33303707D01*
X195736668Y-33292734D01*
X195729124Y-33281747D01*
X195721477Y-33270749D01*
X195713728Y-33259743D01*
X195705880Y-33248733D01*
X195697935Y-33237723D01*
X195689897Y-33226719D01*
X195681769Y-33215724D01*
X195673555Y-33204745D01*
X195665259Y-33193788D01*
X195656886Y-33182859D01*
X195648442Y-33171966D01*
X195639933Y-33161118D01*
X195631367Y-33150322D01*
X195622752Y-33139590D01*
X195614097Y-33128934D01*
X195605415Y-33118367D01*
X195596718Y-33107903D01*
X195588021Y-33097560D01*
X195579342Y-33087358D01*
X195570703Y-33077322D01*
X195562129Y-33067478D01*
X195553653Y-33057862D01*
X195545314Y-33048515D01*
X195537163Y-33039490D01*
X195529266Y-33030857D01*
X195521717Y-33022711D01*
X195514652Y-33015189D01*
X195508290Y-33008512D01*
X195503047Y-33003095D01*
X195500000Y-33000000D01*
X93000000Y-121500000D02*
G75*
G02*
X92000000Y-121500000I-500000J0D01*
G01*
X92000000Y-121500000D02*
X92000040Y-121492254D01*
X92000160Y-121484468D01*
X92000360Y-121476642D01*
X92000641Y-121468775D01*
X92001004Y-121460868D01*
X92001448Y-121452918D01*
X92001974Y-121444927D01*
X92002583Y-121436894D01*
X92003276Y-121428817D01*
X92004052Y-121420698D01*
X92004913Y-121412536D01*
X92005858Y-121404330D01*
X92006889Y-121396079D01*
X92008005Y-121387785D01*
X92009209Y-121379445D01*
X92010499Y-121371060D01*
X92011877Y-121362630D01*
X92013343Y-121354154D01*
X92014898Y-121345632D01*
X92016543Y-121337063D01*
X92018278Y-121328448D01*
X92020104Y-121319786D01*
X92022021Y-121311076D01*
X92024030Y-121302319D01*
X92026132Y-121293514D01*
X92028328Y-121284661D01*
X92030617Y-121275760D01*
X92033002Y-121266810D01*
X92035482Y-121257812D01*
X92038058Y-121248764D01*
X92040731Y-121239668D01*
X92043501Y-121230522D01*
X92046370Y-121221327D01*
X92049338Y-121212082D01*
X92052405Y-121202788D01*
X92055572Y-121193444D01*
X92058841Y-121184050D01*
X92062211Y-121174606D01*
X92065684Y-121165112D01*
X92069260Y-121155569D01*
X92072939Y-121145975D01*
X92076723Y-121136332D01*
X92080612Y-121126638D01*
X92084607Y-121116896D01*
X92088708Y-121107103D01*
X92092916Y-121097261D01*
X92097231Y-121087370D01*
X92101655Y-121077430D01*
X92106188Y-121067441D01*
X92110830Y-121057404D01*
X92115582Y-121047318D01*
X92120444Y-121037185D01*
X92125417Y-121027004D01*
X92130502Y-121016777D01*
X92135698Y-121006503D01*
X92141007Y-120996184D01*
X92146428Y-120985819D01*
X92151962Y-120975410D01*
X92157609Y-120964958D01*
X92163369Y-120954462D01*
X92169244Y-120943925D01*
X92175231Y-120933346D01*
X92181333Y-120922728D01*
X92187548Y-120912071D01*
X92193877Y-120901377D01*
X92200320Y-120890646D01*
X92206876Y-120879881D01*
X92213544Y-120869083D01*
X92220325Y-120858253D01*
X92227218Y-120847394D01*
X92234222Y-120836508D01*
X92241337Y-120825596D01*
X92248561Y-120814662D01*
X92255893Y-120803707D01*
X92263332Y-120792734D01*
X92270876Y-120781747D01*
X92278523Y-120770749D01*
X92286272Y-120759743D01*
X92294120Y-120748733D01*
X92302065Y-120737723D01*
X92310103Y-120726719D01*
X92318231Y-120715724D01*
X92326445Y-120704745D01*
X92334741Y-120693788D01*
X92343114Y-120682859D01*
X92351558Y-120671966D01*
X92360067Y-120661118D01*
X92368633Y-120650322D01*
X92377248Y-120639590D01*
X92385903Y-120628934D01*
X92394585Y-120618367D01*
X92403282Y-120607903D01*
X92411979Y-120597560D01*
X92420658Y-120587358D01*
X92429297Y-120577322D01*
X92437871Y-120567478D01*
X92446347Y-120557862D01*
X92454686Y-120548515D01*
X92462837Y-120539490D01*
X92470734Y-120530857D01*
X92478283Y-120522711D01*
X92485348Y-120515189D01*
X92491710Y-120508512D01*
X92496953Y-120503095D01*
X92500000Y-120500000D01*
X93000000Y-121500000D02*
X92999960Y-121492254D01*
X92999840Y-121484468D01*
X92999640Y-121476642D01*
X92999359Y-121468775D01*
X92998996Y-121460868D01*
X92998552Y-121452918D01*
X92998026Y-121444927D01*
X92997417Y-121436894D01*
X92996724Y-121428817D01*
X92995948Y-121420698D01*
X92995087Y-121412536D01*
X92994142Y-121404330D01*
X92993111Y-121396079D01*
X92991995Y-121387785D01*
X92990791Y-121379445D01*
X92989501Y-121371060D01*
X92988123Y-121362630D01*
X92986657Y-121354154D01*
X92985102Y-121345632D01*
X92983457Y-121337063D01*
X92981722Y-121328448D01*
X92979896Y-121319786D01*
X92977979Y-121311076D01*
X92975970Y-121302319D01*
X92973868Y-121293514D01*
X92971672Y-121284661D01*
X92969383Y-121275760D01*
X92966998Y-121266810D01*
X92964518Y-121257812D01*
X92961942Y-121248764D01*
X92959269Y-121239668D01*
X92956499Y-121230522D01*
X92953630Y-121221327D01*
X92950662Y-121212082D01*
X92947595Y-121202788D01*
X92944428Y-121193444D01*
X92941159Y-121184050D01*
X92937789Y-121174606D01*
X92934316Y-121165112D01*
X92930740Y-121155569D01*
X92927061Y-121145975D01*
X92923277Y-121136332D01*
X92919388Y-121126638D01*
X92915393Y-121116896D01*
X92911292Y-121107103D01*
X92907084Y-121097261D01*
X92902769Y-121087370D01*
X92898345Y-121077430D01*
X92893812Y-121067441D01*
X92889170Y-121057404D01*
X92884418Y-121047318D01*
X92879556Y-121037185D01*
X92874583Y-121027004D01*
X92869498Y-121016777D01*
X92864302Y-121006503D01*
X92858993Y-120996184D01*
X92853572Y-120985819D01*
X92848038Y-120975410D01*
X92842391Y-120964958D01*
X92836631Y-120954462D01*
X92830756Y-120943925D01*
X92824769Y-120933346D01*
X92818667Y-120922728D01*
X92812452Y-120912071D01*
X92806123Y-120901377D01*
X92799680Y-120890646D01*
X92793124Y-120879881D01*
X92786456Y-120869083D01*
X92779675Y-120858253D01*
X92772782Y-120847394D01*
X92765778Y-120836508D01*
X92758663Y-120825596D01*
X92751439Y-120814662D01*
X92744107Y-120803707D01*
X92736668Y-120792734D01*
X92729124Y-120781747D01*
X92721477Y-120770749D01*
X92713728Y-120759743D01*
X92705880Y-120748733D01*
X92697935Y-120737723D01*
X92689897Y-120726719D01*
X92681769Y-120715724D01*
X92673555Y-120704745D01*
X92665259Y-120693788D01*
X92656886Y-120682859D01*
X92648442Y-120671966D01*
X92639933Y-120661118D01*
X92631367Y-120650322D01*
X92622752Y-120639590D01*
X92614097Y-120628934D01*
X92605415Y-120618367D01*
X92596718Y-120607903D01*
X92588021Y-120597560D01*
X92579342Y-120587358D01*
X92570703Y-120577322D01*
X92562129Y-120567478D01*
X92553653Y-120557862D01*
X92545314Y-120548515D01*
X92537163Y-120539490D01*
X92529266Y-120530857D01*
X92521717Y-120522711D01*
X92514652Y-120515189D01*
X92508290Y-120508512D01*
X92503047Y-120503095D01*
X92500000Y-120500000D01*
%TD*%
%LPC*%
D12*
%TO.C,REF\u002A\u002A*%
X196000000Y-118500000D02*
X204000000Y-118500000D01*
X204000000Y-114500000D02*
X196000000Y-114500000D01*
X196000000Y-118500000D02*
G75*
G02*
X196000000Y-114500000I0J2000000D01*
G01*
X204000000Y-114500000D02*
G75*
G02*
X204000000Y-118500000I0J-2000000D01*
G01*
X93000000Y-127500000D02*
X101000000Y-127500000D01*
X101000000Y-123500000D02*
X93000000Y-123500000D01*
X93000000Y-127500000D02*
G75*
G02*
X93000000Y-123500000I0J2000000D01*
G01*
X101000000Y-123500000D02*
G75*
G02*
X101000000Y-127500000I0J-2000000D01*
G01*
X196000000Y-40000000D02*
X204000000Y-40000000D01*
X204000000Y-36000000D02*
X196000000Y-36000000D01*
X196000000Y-40000000D02*
G75*
G02*
X196000000Y-36000000I0J2000000D01*
G01*
X204000000Y-36000000D02*
G75*
G02*
X204000000Y-40000000I0J-2000000D01*
G01*
X93000000Y-40000000D02*
X101000000Y-40000000D01*
X101000000Y-36000000D02*
X93000000Y-36000000D01*
X93000000Y-40000000D02*
G75*
G02*
X93000000Y-36000000I0J2000000D01*
G01*
X101000000Y-36000000D02*
G75*
G02*
X101000000Y-40000000I0J-2000000D01*
G01*
%TD*%
%LPD*%
M02*
