%TF.GenerationSoftware,KiCad,Pcbnew,9.0.4*%
%TF.CreationDate,2026-03-05T05:19:44+09:00*%
%TF.ProjectId,dasicPlate,64617369-6350-46c6-9174-652e6b696361,rev?*%
%TF.SameCoordinates,Original*%
%TF.FileFunction,Profile,NP*%
%FSLAX46Y46*%
G04 Gerber Fmt 4.6, Leading zero omitted, Abs format (unit mm)*
G04 Created by KiCad (PCBNEW 9.0.4) date 2026-03-05 05:19:44*
%MOMM*%
%LPD*%
G01*
G04 APERTURE LIST*
%ADD10C,0.100000*%
%TA.AperFunction,Profile*%
%ADD11C,0.100000*%
%TD*%
%TA.AperFunction,Profile*%
%ADD12C,0.050000*%
%TD*%
G04 APERTURE END LIST*
D10*
X237000000Y-126500000D02*
X236999960Y-126511048D01*
X236999840Y-126522088D01*
X236999641Y-126533117D01*
X236999361Y-126544138D01*
X236999002Y-126555148D01*
X236998564Y-126566148D01*
X236998045Y-126577138D01*
X236997448Y-126588117D01*
X236996771Y-126599084D01*
X236996014Y-126610041D01*
X236995178Y-126620985D01*
X236994263Y-126631918D01*
X236993269Y-126642838D01*
X236992196Y-126653746D01*
X236991044Y-126664640D01*
X236989813Y-126675522D01*
X236988503Y-126686389D01*
X236987114Y-126697243D01*
X236985646Y-126708082D01*
X236984100Y-126718907D01*
X236982475Y-126729717D01*
X236980772Y-126740511D01*
X236978990Y-126751290D01*
X236977130Y-126762052D01*
X236975192Y-126772799D01*
X236973175Y-126783528D01*
X236971081Y-126794240D01*
X236968908Y-126804935D01*
X236966657Y-126815611D01*
X236964329Y-126826270D01*
X236961923Y-126836909D01*
X236959439Y-126847530D01*
X236956878Y-126858130D01*
X236954240Y-126868711D01*
X236951524Y-126879272D01*
X236948731Y-126889812D01*
X236945860Y-126900331D01*
X236942913Y-126910828D01*
X236939889Y-126921303D01*
X236936789Y-126931756D01*
X236933611Y-126942186D01*
X236930358Y-126952593D01*
X236927028Y-126962975D01*
X236923621Y-126973334D01*
X236920139Y-126983668D01*
X236916581Y-126993977D01*
X236912947Y-127004261D01*
X236909237Y-127014518D01*
X236905452Y-127024749D01*
X236901592Y-127034953D01*
X236897656Y-127045130D01*
X236893646Y-127055279D01*
X236889561Y-127065400D01*
X236885401Y-127075491D01*
X236881167Y-127085554D01*
X236876859Y-127095587D01*
X236872477Y-127105589D01*
X236868020Y-127115561D01*
X236863491Y-127125501D01*
X236858888Y-127135410D01*
X236854211Y-127145286D01*
X236849462Y-127155130D01*
X236844640Y-127164941D01*
X236839745Y-127174718D01*
X236834779Y-127184460D01*
X236829740Y-127194168D01*
X236824629Y-127203840D01*
X236819447Y-127213477D01*
X236814194Y-127223078D01*
X236808869Y-127232641D01*
X236803474Y-127242168D01*
X236798009Y-127251656D01*
X236792473Y-127261106D01*
X236786867Y-127270518D01*
X236781192Y-127279889D01*
X236775447Y-127289221D01*
X236769634Y-127298513D01*
X236763751Y-127307763D01*
X236757801Y-127316972D01*
X236751782Y-127326139D01*
X236745696Y-127335264D01*
X236739542Y-127344345D01*
X236733321Y-127353383D01*
X236727033Y-127362376D01*
X236720679Y-127371325D01*
X236714259Y-127380229D01*
X236707773Y-127389087D01*
X236701222Y-127397899D01*
X236694607Y-127406664D01*
X236687926Y-127415382D01*
X236681182Y-127424052D01*
X236674373Y-127432674D01*
X236667501Y-127441247D01*
X236660567Y-127449771D01*
X236653569Y-127458245D01*
X236646510Y-127466669D01*
X236639389Y-127475042D01*
X236632206Y-127483363D01*
X236624963Y-127491633D01*
X236617659Y-127499850D01*
X236610295Y-127508014D01*
X236602871Y-127516125D01*
X236595388Y-127524183D01*
X236587847Y-127532186D01*
X236580247Y-127540134D01*
X236572589Y-127548027D01*
X236564874Y-127555864D01*
X236557102Y-127563645D01*
X236553195Y-127567514D01*
X236549274Y-127571369D01*
X236545339Y-127575210D01*
X236541389Y-127579036D01*
X236537426Y-127582848D01*
X236533450Y-127586646D01*
X236529459Y-127590429D01*
X236525455Y-127594197D01*
X236521437Y-127597951D01*
X236517405Y-127601690D01*
X236513360Y-127605414D01*
X236509302Y-127609124D01*
X236505230Y-127612818D01*
X236501145Y-127616498D01*
X236497047Y-127620163D01*
X236492935Y-127623812D01*
X236488810Y-127627447D01*
X236484672Y-127631067D01*
X236480521Y-127634671D01*
X236476357Y-127638260D01*
X236472181Y-127641834D01*
X236467991Y-127645392D01*
X236463789Y-127648935D01*
X236459574Y-127652463D01*
X236455346Y-127655975D01*
X236451106Y-127659471D01*
X236446853Y-127662952D01*
X236442588Y-127666418D01*
X236438311Y-127669867D01*
X236434020Y-127673301D01*
X236429718Y-127676719D01*
X236425404Y-127680121D01*
X236421078Y-127683507D01*
X236416739Y-127686878D01*
X236412388Y-127690232D01*
X236408026Y-127693570D01*
X236403652Y-127696892D01*
X236399265Y-127700198D01*
X236394867Y-127703488D01*
X236390457Y-127706761D01*
X236386037Y-127710018D01*
X236381603Y-127713259D01*
X236377159Y-127716484D01*
X236372703Y-127719692D01*
X236368237Y-127722883D01*
X236363758Y-127726058D01*
X236359269Y-127729217D01*
X236354768Y-127732359D01*
X236350256Y-127735484D01*
X236345733Y-127738592D01*
X236341200Y-127741684D01*
X236336655Y-127744759D01*
X236332099Y-127747817D01*
X236327533Y-127750859D01*
X236322956Y-127753883D01*
X236318368Y-127756890D01*
X236313770Y-127759880D01*
X236309161Y-127762854D01*
X236304543Y-127765810D01*
X236299913Y-127768750D01*
X236295273Y-127771671D01*
X236290623Y-127774576D01*
X236285963Y-127777464D01*
X236281292Y-127780334D01*
X236276612Y-127783187D01*
X236271921Y-127786023D01*
X236267222Y-127788841D01*
X236262511Y-127791642D01*
X236257792Y-127794425D01*
X236253061Y-127797191D01*
X236248323Y-127799939D01*
X236243573Y-127802670D01*
X236238816Y-127805383D01*
X236234047Y-127808079D01*
X236229270Y-127810756D01*
X236224483Y-127813417D01*
X236219688Y-127816059D01*
X236214882Y-127818684D01*
X236210069Y-127821290D01*
X236205245Y-127823880D01*
X236200414Y-127826450D01*
X236195572Y-127829004D01*
X236190722Y-127831539D01*
X236185863Y-127834056D01*
X236180996Y-127836555D01*
X236176119Y-127839037D01*
X236171235Y-127841499D01*
X236166341Y-127843945D01*
X236161439Y-127846371D01*
X236156528Y-127848780D01*
X236151610Y-127851170D01*
X236146682Y-127853543D01*
X236141748Y-127855897D01*
X236136804Y-127858233D01*
X236131853Y-127860550D01*
X236126893Y-127862850D01*
X236121926Y-127865130D01*
X236116949Y-127867393D01*
X236111967Y-127869637D01*
X236106975Y-127871863D01*
X236101977Y-127874069D01*
X236096969Y-127876258D01*
X236091956Y-127878428D01*
X236086933Y-127880580D01*
X236081905Y-127882713D01*
X236076867Y-127884827D01*
X236071824Y-127886923D01*
X236066772Y-127889000D01*
X236061714Y-127891059D01*
X236056647Y-127893099D01*
X236051575Y-127895120D01*
X236046494Y-127897122D01*
X236041408Y-127899106D01*
X236036313Y-127901071D01*
X236031214Y-127903017D01*
X236026105Y-127904944D01*
X236020991Y-127906852D01*
X236015869Y-127908742D01*
X236010742Y-127910613D01*
X236005607Y-127912465D01*
X236000467Y-127914297D01*
X235995318Y-127916112D01*
X235990165Y-127917906D01*
X235985004Y-127919683D01*
X235979839Y-127921439D01*
X235974665Y-127923178D01*
X235969487Y-127924896D01*
X235964300Y-127926597D01*
X235959110Y-127928277D01*
X235953912Y-127929939D01*
X235948710Y-127931581D01*
X235943499Y-127933205D01*
X235938286Y-127934809D01*
X235933064Y-127936395D01*
X235927838Y-127937961D01*
X235922605Y-127939508D01*
X235917368Y-127941035D01*
X235912123Y-127942544D01*
X235906875Y-127944033D01*
X235901620Y-127945503D01*
X235896361Y-127946954D01*
X235891094Y-127948385D01*
X235885825Y-127949797D01*
X235880548Y-127951190D01*
X235875268Y-127952563D01*
X235869980Y-127953918D01*
X235864690Y-127955252D01*
X235859392Y-127956568D01*
X235854092Y-127957864D01*
X235848784Y-127959141D01*
X235843474Y-127960398D01*
X235838157Y-127961636D01*
X235832837Y-127962854D01*
X235827510Y-127964053D01*
X235822180Y-127965232D01*
X235816844Y-127966392D01*
X235811505Y-127967533D01*
X235806160Y-127968654D01*
X235800812Y-127969755D01*
X235795458Y-127970837D01*
X235790101Y-127971900D01*
X235784738Y-127972943D01*
X235779373Y-127973966D01*
X235774001Y-127974970D01*
X235768627Y-127975954D01*
X235763247Y-127976919D01*
X235757865Y-127977864D01*
X235752476Y-127978789D01*
X235747086Y-127979695D01*
X235741689Y-127980581D01*
X235736291Y-127981447D01*
X235730887Y-127982295D01*
X235725481Y-127983122D01*
X235720069Y-127983929D01*
X235714655Y-127984717D01*
X235709236Y-127985485D01*
X235703815Y-127986234D01*
X235698388Y-127986963D01*
X235692960Y-127987672D01*
X235687526Y-127988361D01*
X235682091Y-127989030D01*
X235676650Y-127989681D01*
X235671208Y-127990310D01*
X235665760Y-127990921D01*
X235660311Y-127991511D01*
X235654857Y-127992082D01*
X235649402Y-127992633D01*
X235643941Y-127993165D01*
X235638479Y-127993676D01*
X235633012Y-127994167D01*
X235627544Y-127994639D01*
X235622070Y-127995091D01*
X235616596Y-127995523D01*
X235611117Y-127995936D01*
X235605637Y-127996328D01*
X235600152Y-127996700D01*
X235594666Y-127997053D01*
X235589175Y-127997386D01*
X235583684Y-127997699D01*
X235578188Y-127997992D01*
X235572691Y-127998265D01*
X235567189Y-127998518D01*
X235561687Y-127998751D01*
X235556180Y-127998964D01*
X235550673Y-127999158D01*
X235545161Y-127999331D01*
X235539649Y-127999485D01*
X235534132Y-127999618D01*
X235528615Y-127999732D01*
X235523093Y-127999825D01*
X235517571Y-127999899D01*
X235512045Y-127999953D01*
X235506519Y-127999986D01*
X235500988Y-128000000D01*
X235500000Y-128000000D01*
D11*
X161500000Y-26000000D02*
X235500000Y-26000000D01*
X161146447Y-26353553D02*
X161500000Y-26000000D01*
D10*
X152499864Y-128000000D02*
X152462285Y-128000040D01*
X152424092Y-128000161D01*
X152385280Y-128000364D01*
X152345842Y-128000651D01*
X152305775Y-128001022D01*
X152265074Y-128001480D01*
X152223732Y-128002025D01*
X152181746Y-128002658D01*
X152139110Y-128003382D01*
X152095819Y-128004197D01*
X152051869Y-128005105D01*
X152007255Y-128006106D01*
X151961972Y-128007203D01*
X151916015Y-128008397D01*
X151869380Y-128009688D01*
X151822063Y-128011079D01*
X151774058Y-128012570D01*
X151725361Y-128014163D01*
X151675968Y-128015859D01*
X151625874Y-128017659D01*
X151575076Y-128019564D01*
X151523568Y-128021577D01*
X151471347Y-128023698D01*
X151418409Y-128025928D01*
X151364750Y-128028269D01*
X151310365Y-128030722D01*
X151255250Y-128033288D01*
X151199403Y-128035968D01*
X151142819Y-128038764D01*
X151085494Y-128041677D01*
X151027425Y-128044708D01*
X150968608Y-128047859D01*
X150909040Y-128051130D01*
X150848718Y-128054522D01*
X150787637Y-128058038D01*
X150725796Y-128061678D01*
X150663190Y-128065443D01*
X150599816Y-128069335D01*
X150535672Y-128073355D01*
X150470755Y-128077503D01*
X150405061Y-128081781D01*
X150338588Y-128086191D01*
X150271334Y-128090732D01*
X150203295Y-128095407D01*
X150134469Y-128100217D01*
X150064855Y-128105162D01*
X149994448Y-128110243D01*
X149923247Y-128115463D01*
X149851251Y-128120821D01*
X149778456Y-128126319D01*
X149704861Y-128131958D01*
X149630464Y-128137738D01*
X149555263Y-128143662D01*
X149479256Y-128149729D01*
X149402441Y-128155942D01*
X149324818Y-128162300D01*
X149246384Y-128168806D01*
X149167139Y-128175459D01*
X149087080Y-128182260D01*
X149006207Y-128189212D01*
X148924518Y-128196314D01*
X148842013Y-128203567D01*
X148758690Y-128210973D01*
X148674549Y-128218532D01*
X148589589Y-128226246D01*
X148503809Y-128234114D01*
X148417208Y-128242138D01*
X148329786Y-128250319D01*
X148241543Y-128258657D01*
X148152478Y-128267153D01*
X148062591Y-128275808D01*
X147971882Y-128284623D01*
X147880351Y-128293599D01*
X147787997Y-128302736D01*
X147694821Y-128312034D01*
X147600824Y-128321495D01*
X147518971Y-128329799D01*
D11*
X233750000Y-123500000D02*
G75*
G02*
X231250000Y-123500000I-1250000J0D01*
G01*
X231250000Y-123500000D02*
G75*
G02*
X233750000Y-123500000I1250000J0D01*
G01*
X148500000Y-26500000D02*
X160792893Y-26500000D01*
D10*
X135853553Y-26353553D02*
X135858054Y-26357997D01*
X135862609Y-26362383D01*
X135867219Y-26366711D01*
X135871883Y-26370980D01*
X135876600Y-26375188D01*
X135881370Y-26379337D01*
X135886191Y-26383425D01*
X135891063Y-26387451D01*
X135895986Y-26391415D01*
X135900959Y-26395317D01*
X135905980Y-26399155D01*
X135911050Y-26402929D01*
X135916167Y-26406640D01*
X135921330Y-26410285D01*
X135926540Y-26413865D01*
X135931794Y-26417379D01*
X135937093Y-26420826D01*
X135942436Y-26424206D01*
X135947821Y-26427519D01*
X135953247Y-26430763D01*
X135958715Y-26433939D01*
X135964223Y-26437045D01*
X135969769Y-26440081D01*
X135975354Y-26443048D01*
X135980977Y-26445944D01*
X135986635Y-26448768D01*
X135992330Y-26451521D01*
X135998059Y-26454201D01*
X136003821Y-26456810D01*
X136009616Y-26459345D01*
X136015443Y-26461806D01*
X136018368Y-26463009D01*
X136021301Y-26464194D01*
X136024241Y-26465360D01*
X136027188Y-26466508D01*
X136030143Y-26467637D01*
X136033105Y-26468747D01*
X136036074Y-26469838D01*
X136039049Y-26470911D01*
X136042031Y-26471964D01*
X136045020Y-26472999D01*
X136048016Y-26474015D01*
X136051018Y-26475012D01*
X136054025Y-26475990D01*
X136057040Y-26476949D01*
X136060060Y-26477889D01*
X136063086Y-26478810D01*
X136066117Y-26479711D01*
X136069155Y-26480594D01*
X136072197Y-26481457D01*
X136075246Y-26482301D01*
X136078299Y-26483125D01*
X136081358Y-26483930D01*
X136084421Y-26484716D01*
X136087490Y-26485483D01*
X136090563Y-26486230D01*
X136093641Y-26486957D01*
X136096723Y-26487665D01*
X136099811Y-26488354D01*
X136102901Y-26489023D01*
X136105997Y-26489672D01*
X136109096Y-26490302D01*
X136112200Y-26490912D01*
X136115306Y-26491503D01*
X136118417Y-26492073D01*
X136121531Y-26492624D01*
X136124649Y-26493156D01*
X136127770Y-26493668D01*
X136130894Y-26494160D01*
X136134021Y-26494632D01*
X136137152Y-26495084D01*
X136140284Y-26495517D01*
X136143420Y-26495929D01*
X136146558Y-26496322D01*
X136149699Y-26496695D01*
X136152842Y-26497048D01*
X136155988Y-26497382D01*
X136159135Y-26497695D01*
X136162285Y-26497988D01*
X136165436Y-26498262D01*
X136168590Y-26498515D01*
X136171744Y-26498749D01*
X136174901Y-26498963D01*
X136178058Y-26499156D01*
X136181218Y-26499330D01*
X136184378Y-26499484D01*
X136187541Y-26499617D01*
X136190702Y-26499731D01*
X136193867Y-26499825D01*
X136197030Y-26499899D01*
X136200196Y-26499952D01*
X136203361Y-26499986D01*
X136206528Y-26500000D01*
X136207107Y-26500000D01*
D11*
X91290322Y-137404541D02*
X61500000Y-137404541D01*
X85750000Y-30500000D02*
G75*
G02*
X83250000Y-30500000I-1250000J0D01*
G01*
X83250000Y-30500000D02*
G75*
G02*
X85750000Y-30500000I1250000J0D01*
G01*
X146362499Y-124000000D02*
G75*
G02*
X143862499Y-124000000I-1250000J0D01*
G01*
X143862499Y-124000000D02*
G75*
G02*
X146362499Y-124000000I1250000J0D01*
G01*
X237000000Y-27500000D02*
X237000000Y-126500000D01*
X114258036Y-133377853D02*
X91550794Y-137381752D01*
D10*
X139447815Y-129335511D02*
X139351685Y-129349005D01*
X139255252Y-129362561D01*
X139158592Y-129376170D01*
X139061629Y-129389842D01*
X138964440Y-129403566D01*
X138866949Y-129417352D01*
X138769235Y-129431191D01*
X138671219Y-129445092D01*
X138572982Y-129459045D01*
X138474444Y-129473062D01*
X138375687Y-129487129D01*
X138276630Y-129501259D01*
X138177356Y-129515441D01*
X138077782Y-129529686D01*
X137977993Y-129543982D01*
X137877905Y-129558340D01*
X137777605Y-129572750D01*
X137677006Y-129587223D01*
X137576196Y-129601746D01*
X137475088Y-129616332D01*
X137373772Y-129630969D01*
X137272158Y-129645669D01*
X137170338Y-129660419D01*
X137068221Y-129675233D01*
X136965900Y-129690096D01*
X136863283Y-129705022D01*
X136760463Y-129719999D01*
X136657347Y-129735038D01*
X136554031Y-129750127D01*
X136450420Y-129765280D01*
X136346611Y-129780481D01*
X136242507Y-129795746D01*
X136138207Y-129811060D01*
X136033613Y-129826438D01*
X135928824Y-129841864D01*
X135823743Y-129857354D01*
X135718468Y-129872892D01*
X135612901Y-129888494D01*
X135507144Y-129904144D01*
X135401094Y-129919858D01*
X135294856Y-129935620D01*
X135188326Y-129951446D01*
X135081610Y-129967319D01*
X134974602Y-129983256D01*
X134867410Y-129999241D01*
X134759928Y-130015289D01*
X134652262Y-130031385D01*
X134544307Y-130047545D01*
X134436170Y-130063752D01*
X134327745Y-130080022D01*
X134219140Y-130096340D01*
X134110246Y-130112721D01*
X134001175Y-130129150D01*
X133891816Y-130145641D01*
X133782282Y-130162180D01*
X133672460Y-130178783D01*
X133562464Y-130195431D01*
X133452181Y-130212144D01*
X133341726Y-130228903D01*
X133230985Y-130245726D01*
X133120074Y-130262594D01*
X133008877Y-130279527D01*
X132897511Y-130296505D01*
X132785861Y-130313548D01*
X132674043Y-130330636D01*
X132561941Y-130347787D01*
X132449673Y-130364985D01*
X132337122Y-130382246D01*
X132224407Y-130399552D01*
X132111409Y-130416922D01*
X131998249Y-130434337D01*
X131884807Y-130451816D01*
X131771204Y-130469341D01*
X131657319Y-130486928D01*
X131543275Y-130504561D01*
X131428950Y-130522257D01*
X131314468Y-130539998D01*
X131199705Y-130557803D01*
X131084787Y-130575652D01*
X130969588Y-130593565D01*
X130854235Y-130611523D01*
X130738604Y-130629544D01*
X130622819Y-130647609D01*
X130506755Y-130665738D01*
X130390541Y-130683910D01*
X130274048Y-130702147D01*
X130157406Y-130720427D01*
X130040486Y-130738771D01*
X129923418Y-130757159D01*
X129806073Y-130775610D01*
X129688582Y-130794105D01*
X129570814Y-130812663D01*
X129452901Y-130831265D01*
X129334713Y-130849930D01*
X129216380Y-130868639D01*
X129097773Y-130887411D01*
X128979023Y-130906226D01*
X128859999Y-130925104D01*
X128740834Y-130944026D01*
X128621395Y-130963011D01*
X128501817Y-130982039D01*
X128381965Y-131001130D01*
X128261975Y-131020264D01*
X128141713Y-131039461D01*
X128021314Y-131058701D01*
X127900643Y-131078004D01*
X127779836Y-131097349D01*
X127658759Y-131116758D01*
X127537546Y-131136209D01*
X127416064Y-131155723D01*
X127294448Y-131175280D01*
X127172563Y-131194900D01*
X127050545Y-131214561D01*
X126928259Y-131234286D01*
X126805842Y-131254053D01*
X126683157Y-131273883D01*
X126560342Y-131293754D01*
X126437259Y-131313689D01*
X126314048Y-131333665D01*
X126190570Y-131353704D01*
X126066965Y-131373785D01*
X125943094Y-131393929D01*
X125819096Y-131414114D01*
X125694834Y-131434362D01*
X125570446Y-131454651D01*
X125445793Y-131475004D01*
X125321017Y-131495397D01*
X125195976Y-131515853D01*
X125070813Y-131536350D01*
X124945386Y-131556911D01*
X124819838Y-131577511D01*
X124694026Y-131598175D01*
X124568095Y-131618880D01*
X124441901Y-131639647D01*
X124315588Y-131660455D01*
X124189013Y-131681326D01*
X124062320Y-131702236D01*
X123935366Y-131723210D01*
X123808295Y-131744224D01*
X123680964Y-131765301D01*
X123553517Y-131786418D01*
X123425810Y-131807598D01*
X123297988Y-131828817D01*
X123169907Y-131850100D01*
X123041712Y-131871421D01*
X122913259Y-131892807D01*
X122784693Y-131914231D01*
X122655869Y-131935718D01*
X122526933Y-131957245D01*
X122397740Y-131978835D01*
X122268437Y-132000463D01*
X122138876Y-132022155D01*
X122009206Y-132043886D01*
X121879280Y-132065679D01*
X121749246Y-132087511D01*
X121618956Y-132109407D01*
X121488558Y-132131341D01*
X121357906Y-132153338D01*
X121227146Y-132175373D01*
X121096133Y-132197472D01*
X120965014Y-132219608D01*
X120833641Y-132241808D01*
X120702164Y-132264046D01*
X120570433Y-132286347D01*
X120438599Y-132308685D01*
X120306513Y-132331087D01*
X120174323Y-132353527D01*
X120041882Y-132376030D01*
X119909339Y-132398570D01*
X119776545Y-132421173D01*
X119643649Y-132443814D01*
X119510503Y-132466518D01*
X119377258Y-132489259D01*
X119243762Y-132512064D01*
X119110167Y-132534905D01*
X118976322Y-132557810D01*
X118842379Y-132580751D01*
X118708188Y-132603756D01*
X118573899Y-132626798D01*
X118439362Y-132649902D01*
X118304728Y-132673044D01*
X118169847Y-132696248D01*
X118034870Y-132719489D01*
X117899646Y-132742793D01*
X117764327Y-132766134D01*
X117628762Y-132789537D01*
X117493102Y-132812977D01*
X117357197Y-132836480D01*
X117221199Y-132860020D01*
X117084956Y-132883622D01*
X116948620Y-132907260D01*
X116812039Y-132930961D01*
X116675367Y-132954699D01*
X116538451Y-132978499D01*
X116401444Y-133002335D01*
X116264194Y-133026234D01*
X116126854Y-133050169D01*
X115989271Y-133074167D01*
X115851598Y-133098200D01*
X115713684Y-133122296D01*
X115575681Y-133146428D01*
X115437436Y-133170623D01*
X115299104Y-133194853D01*
X115160530Y-133219146D01*
X115021870Y-133243474D01*
X114882969Y-133267865D01*
X114743982Y-133292291D01*
X114604754Y-133316780D01*
X114465442Y-133341304D01*
X114325890Y-133365891D01*
X114258036Y-133377853D01*
D11*
X60000000Y-135904541D02*
X60000000Y-27500000D01*
D10*
X60000000Y-27500000D02*
X60000040Y-27488952D01*
X60000160Y-27477912D01*
X60000359Y-27466883D01*
X60000639Y-27455862D01*
X60000998Y-27444852D01*
X60001436Y-27433852D01*
X60001955Y-27422862D01*
X60002552Y-27411883D01*
X60003229Y-27400916D01*
X60003986Y-27389959D01*
X60004822Y-27379015D01*
X60005737Y-27368082D01*
X60006731Y-27357162D01*
X60007804Y-27346254D01*
X60008956Y-27335360D01*
X60010187Y-27324478D01*
X60011497Y-27313611D01*
X60012886Y-27302757D01*
X60014354Y-27291918D01*
X60015900Y-27281093D01*
X60017525Y-27270283D01*
X60019228Y-27259489D01*
X60021010Y-27248710D01*
X60022870Y-27237948D01*
X60024808Y-27227201D01*
X60026825Y-27216472D01*
X60028919Y-27205760D01*
X60031092Y-27195065D01*
X60033343Y-27184389D01*
X60035671Y-27173730D01*
X60038077Y-27163091D01*
X60040561Y-27152470D01*
X60043122Y-27141870D01*
X60045760Y-27131289D01*
X60048476Y-27120728D01*
X60051269Y-27110188D01*
X60054140Y-27099669D01*
X60057087Y-27089172D01*
X60060111Y-27078697D01*
X60063211Y-27068244D01*
X60066389Y-27057814D01*
X60069642Y-27047407D01*
X60072972Y-27037025D01*
X60076379Y-27026666D01*
X60079861Y-27016332D01*
X60083419Y-27006023D01*
X60087053Y-26995739D01*
X60090763Y-26985482D01*
X60094548Y-26975251D01*
X60098408Y-26965047D01*
X60102344Y-26954870D01*
X60106354Y-26944721D01*
X60110439Y-26934600D01*
X60114599Y-26924509D01*
X60118833Y-26914446D01*
X60123141Y-26904413D01*
X60127523Y-26894411D01*
X60131980Y-26884439D01*
X60136509Y-26874499D01*
X60141112Y-26864590D01*
X60145789Y-26854714D01*
X60150538Y-26844870D01*
X60155360Y-26835059D01*
X60160255Y-26825282D01*
X60165221Y-26815540D01*
X60170260Y-26805832D01*
X60175371Y-26796160D01*
X60180553Y-26786523D01*
X60185806Y-26776922D01*
X60191131Y-26767359D01*
X60196526Y-26757832D01*
X60201991Y-26748344D01*
X60207527Y-26738894D01*
X60213133Y-26729482D01*
X60218808Y-26720111D01*
X60224553Y-26710779D01*
X60230366Y-26701487D01*
X60236249Y-26692237D01*
X60242199Y-26683028D01*
X60248218Y-26673861D01*
X60254304Y-26664736D01*
X60260458Y-26655655D01*
X60266679Y-26646617D01*
X60272967Y-26637624D01*
X60279321Y-26628675D01*
X60285741Y-26619771D01*
X60292227Y-26610913D01*
X60298778Y-26602101D01*
X60305393Y-26593336D01*
X60312074Y-26584618D01*
X60318818Y-26575948D01*
X60325627Y-26567326D01*
X60332499Y-26558753D01*
X60339433Y-26550229D01*
X60346431Y-26541755D01*
X60353490Y-26533331D01*
X60360611Y-26524958D01*
X60367794Y-26516637D01*
X60375037Y-26508367D01*
X60382341Y-26500150D01*
X60389705Y-26491986D01*
X60397129Y-26483875D01*
X60404612Y-26475817D01*
X60412153Y-26467814D01*
X60419753Y-26459866D01*
X60427411Y-26451973D01*
X60435126Y-26444136D01*
X60442898Y-26436355D01*
X60446805Y-26432486D01*
X60450726Y-26428631D01*
X60454661Y-26424790D01*
X60458611Y-26420964D01*
X60462574Y-26417152D01*
X60466550Y-26413354D01*
X60470541Y-26409571D01*
X60474545Y-26405803D01*
X60478563Y-26402049D01*
X60482595Y-26398310D01*
X60486640Y-26394586D01*
X60490698Y-26390876D01*
X60494770Y-26387182D01*
X60498855Y-26383502D01*
X60502953Y-26379837D01*
X60507065Y-26376188D01*
X60511190Y-26372553D01*
X60515328Y-26368933D01*
X60519479Y-26365329D01*
X60523643Y-26361740D01*
X60527819Y-26358166D01*
X60532009Y-26354608D01*
X60536211Y-26351065D01*
X60540426Y-26347537D01*
X60544654Y-26344025D01*
X60548894Y-26340529D01*
X60553147Y-26337048D01*
X60557412Y-26333582D01*
X60561689Y-26330133D01*
X60565980Y-26326699D01*
X60570282Y-26323281D01*
X60574596Y-26319879D01*
X60578922Y-26316493D01*
X60583261Y-26313122D01*
X60587612Y-26309768D01*
X60591974Y-26306430D01*
X60596348Y-26303108D01*
X60600735Y-26299802D01*
X60605133Y-26296512D01*
X60609543Y-26293239D01*
X60613963Y-26289982D01*
X60618397Y-26286741D01*
X60622841Y-26283516D01*
X60627297Y-26280308D01*
X60631763Y-26277117D01*
X60636242Y-26273942D01*
X60640731Y-26270783D01*
X60645232Y-26267641D01*
X60649744Y-26264516D01*
X60654267Y-26261408D01*
X60658800Y-26258316D01*
X60663345Y-26255241D01*
X60667901Y-26252183D01*
X60672467Y-26249141D01*
X60677044Y-26246117D01*
X60681632Y-26243110D01*
X60686230Y-26240120D01*
X60690839Y-26237146D01*
X60695457Y-26234190D01*
X60700087Y-26231250D01*
X60704727Y-26228329D01*
X60709377Y-26225424D01*
X60714037Y-26222536D01*
X60718708Y-26219666D01*
X60723388Y-26216813D01*
X60728079Y-26213977D01*
X60732778Y-26211159D01*
X60737489Y-26208358D01*
X60742208Y-26205575D01*
X60746939Y-26202809D01*
X60751677Y-26200061D01*
X60756427Y-26197330D01*
X60761184Y-26194617D01*
X60765953Y-26191921D01*
X60770730Y-26189244D01*
X60775517Y-26186583D01*
X60780312Y-26183941D01*
X60785118Y-26181316D01*
X60789931Y-26178710D01*
X60794755Y-26176120D01*
X60799586Y-26173550D01*
X60804428Y-26170996D01*
X60809278Y-26168461D01*
X60814137Y-26165944D01*
X60819004Y-26163445D01*
X60823881Y-26160963D01*
X60828765Y-26158501D01*
X60833659Y-26156055D01*
X60838561Y-26153629D01*
X60843472Y-26151220D01*
X60848390Y-26148830D01*
X60853318Y-26146457D01*
X60858252Y-26144103D01*
X60863196Y-26141767D01*
X60868147Y-26139450D01*
X60873107Y-26137150D01*
X60878074Y-26134870D01*
X60883051Y-26132607D01*
X60888033Y-26130363D01*
X60893025Y-26128137D01*
X60898023Y-26125931D01*
X60903031Y-26123742D01*
X60908044Y-26121572D01*
X60913067Y-26119420D01*
X60918095Y-26117287D01*
X60923133Y-26115173D01*
X60928176Y-26113077D01*
X60933228Y-26111000D01*
X60938286Y-26108941D01*
X60943353Y-26106901D01*
X60948425Y-26104880D01*
X60953506Y-26102878D01*
X60958592Y-26100894D01*
X60963687Y-26098929D01*
X60968786Y-26096983D01*
X60973895Y-26095056D01*
X60979009Y-26093148D01*
X60984131Y-26091258D01*
X60989258Y-26089387D01*
X60994393Y-26087535D01*
X60999533Y-26085703D01*
X61004682Y-26083888D01*
X61009835Y-26082094D01*
X61014996Y-26080317D01*
X61020161Y-26078561D01*
X61025335Y-26076822D01*
X61030513Y-26075104D01*
X61035700Y-26073403D01*
X61040890Y-26071723D01*
X61046088Y-26070061D01*
X61051290Y-26068419D01*
X61056501Y-26066795D01*
X61061714Y-26065191D01*
X61066936Y-26063605D01*
X61072162Y-26062039D01*
X61077395Y-26060492D01*
X61082632Y-26058965D01*
X61087877Y-26057456D01*
X61093125Y-26055967D01*
X61098380Y-26054497D01*
X61103639Y-26053046D01*
X61108906Y-26051615D01*
X61114175Y-26050203D01*
X61119452Y-26048810D01*
X61124732Y-26047437D01*
X61130020Y-26046082D01*
X61135310Y-26044748D01*
X61140608Y-26043432D01*
X61145908Y-26042136D01*
X61151216Y-26040859D01*
X61156526Y-26039602D01*
X61161843Y-26038364D01*
X61167163Y-26037146D01*
X61172490Y-26035947D01*
X61177820Y-26034768D01*
X61183156Y-26033608D01*
X61188495Y-26032467D01*
X61193840Y-26031346D01*
X61199188Y-26030245D01*
X61204542Y-26029163D01*
X61209899Y-26028100D01*
X61215262Y-26027057D01*
X61220627Y-26026034D01*
X61225999Y-26025030D01*
X61231373Y-26024046D01*
X61236753Y-26023081D01*
X61242135Y-26022136D01*
X61247524Y-26021211D01*
X61252914Y-26020305D01*
X61258311Y-26019419D01*
X61263709Y-26018553D01*
X61269113Y-26017705D01*
X61274519Y-26016878D01*
X61279931Y-26016071D01*
X61285345Y-26015283D01*
X61290764Y-26014515D01*
X61296185Y-26013766D01*
X61301612Y-26013037D01*
X61307040Y-26012328D01*
X61312474Y-26011639D01*
X61317909Y-26010970D01*
X61323350Y-26010319D01*
X61328792Y-26009690D01*
X61334240Y-26009079D01*
X61339689Y-26008489D01*
X61345143Y-26007918D01*
X61350598Y-26007367D01*
X61356059Y-26006835D01*
X61361521Y-26006324D01*
X61366988Y-26005833D01*
X61372456Y-26005361D01*
X61377930Y-26004909D01*
X61383404Y-26004477D01*
X61388883Y-26004064D01*
X61394363Y-26003672D01*
X61399848Y-26003300D01*
X61405334Y-26002947D01*
X61410825Y-26002614D01*
X61416316Y-26002301D01*
X61421812Y-26002008D01*
X61427309Y-26001735D01*
X61432811Y-26001482D01*
X61438313Y-26001249D01*
X61443820Y-26001036D01*
X61449327Y-26000842D01*
X61454839Y-26000669D01*
X61460351Y-26000515D01*
X61465868Y-26000382D01*
X61471385Y-26000268D01*
X61476907Y-26000175D01*
X61482429Y-26000101D01*
X61487955Y-26000047D01*
X61493481Y-26000014D01*
X61499012Y-26000000D01*
X61500000Y-26000000D01*
D11*
X235500000Y-128000000D02*
X152499864Y-128000000D01*
D10*
X147518971Y-128329799D02*
X147421659Y-128339747D01*
X147323340Y-128349878D01*
X147224007Y-128360194D01*
X147123653Y-128370697D01*
X147022272Y-128381388D01*
X146919858Y-128392268D01*
X146816404Y-128403339D01*
X146711903Y-128414604D01*
X146606350Y-128426062D01*
X146499737Y-128437715D01*
X146392058Y-128449566D01*
X146283306Y-128461616D01*
X146173476Y-128473866D01*
X146062560Y-128486317D01*
X145950553Y-128498972D01*
X145837447Y-128511831D01*
X145723235Y-128524897D01*
X145607913Y-128538170D01*
X145491472Y-128551653D01*
X145373906Y-128565347D01*
X145255210Y-128579253D01*
X145135375Y-128593373D01*
X145014396Y-128607709D01*
X144892267Y-128622262D01*
X144768980Y-128637033D01*
X144644529Y-128652025D01*
X144518907Y-128667238D01*
X144392109Y-128682675D01*
X144264127Y-128698336D01*
X144134954Y-128714224D01*
X144004585Y-128730339D01*
X143873013Y-128746685D01*
X143740231Y-128763261D01*
X143606232Y-128780070D01*
X143471011Y-128797113D01*
X143334559Y-128814391D01*
X143196872Y-128831907D01*
X143057942Y-128849662D01*
X142917763Y-128867657D01*
X142776328Y-128885895D01*
X142633631Y-128904375D01*
X142489665Y-128923101D01*
X142344424Y-128942074D01*
X142197900Y-128961295D01*
X142050089Y-128980766D01*
X141900982Y-129000488D01*
X141750574Y-129020463D01*
X141598857Y-129040693D01*
X141445827Y-129061178D01*
X141291475Y-129081922D01*
X141135795Y-129102924D01*
X140978782Y-129124188D01*
X140820428Y-129145714D01*
X140660727Y-129167504D01*
X140499673Y-129189559D01*
X140337258Y-129211882D01*
X140173477Y-129234473D01*
X140008324Y-129257334D01*
X139841791Y-129280468D01*
X139673872Y-129303874D01*
X139504561Y-129327556D01*
X139447815Y-129335511D01*
D11*
X65750000Y-132904541D02*
G75*
G02*
X63250000Y-132904541I-1250000J0D01*
G01*
X63250000Y-132904541D02*
G75*
G02*
X65750000Y-132904541I1250000J0D01*
G01*
X233750000Y-30500000D02*
G75*
G02*
X231250000Y-30500000I-1250000J0D01*
G01*
X231250000Y-30500000D02*
G75*
G02*
X233750000Y-30500000I1250000J0D01*
G01*
X135500000Y-26000000D02*
X135853553Y-26353553D01*
X61500000Y-26000000D02*
X135500000Y-26000000D01*
D10*
X235500000Y-26000000D02*
X235511048Y-26000040D01*
X235522088Y-26000160D01*
X235533117Y-26000359D01*
X235544138Y-26000639D01*
X235555148Y-26000998D01*
X235566148Y-26001436D01*
X235577138Y-26001955D01*
X235588117Y-26002552D01*
X235599084Y-26003229D01*
X235610041Y-26003986D01*
X235620985Y-26004822D01*
X235631918Y-26005737D01*
X235642838Y-26006731D01*
X235653746Y-26007804D01*
X235664640Y-26008956D01*
X235675522Y-26010187D01*
X235686389Y-26011497D01*
X235697243Y-26012886D01*
X235708082Y-26014354D01*
X235718907Y-26015900D01*
X235729717Y-26017525D01*
X235740511Y-26019228D01*
X235751290Y-26021010D01*
X235762052Y-26022870D01*
X235772799Y-26024808D01*
X235783528Y-26026825D01*
X235794240Y-26028919D01*
X235804935Y-26031092D01*
X235815611Y-26033343D01*
X235826270Y-26035671D01*
X235836909Y-26038077D01*
X235847530Y-26040561D01*
X235858130Y-26043122D01*
X235868711Y-26045760D01*
X235879272Y-26048476D01*
X235889812Y-26051269D01*
X235900331Y-26054140D01*
X235910828Y-26057087D01*
X235921303Y-26060111D01*
X235931756Y-26063211D01*
X235942186Y-26066389D01*
X235952593Y-26069642D01*
X235962975Y-26072972D01*
X235973334Y-26076379D01*
X235983668Y-26079861D01*
X235993977Y-26083419D01*
X236004261Y-26087053D01*
X236014518Y-26090763D01*
X236024749Y-26094548D01*
X236034953Y-26098408D01*
X236045130Y-26102344D01*
X236055279Y-26106354D01*
X236065400Y-26110439D01*
X236075491Y-26114599D01*
X236085554Y-26118833D01*
X236095587Y-26123141D01*
X236105589Y-26127523D01*
X236115561Y-26131980D01*
X236125501Y-26136509D01*
X236135410Y-26141112D01*
X236145286Y-26145789D01*
X236155130Y-26150538D01*
X236164941Y-26155360D01*
X236174718Y-26160255D01*
X236184460Y-26165221D01*
X236194168Y-26170260D01*
X236203840Y-26175371D01*
X236213477Y-26180553D01*
X236223078Y-26185806D01*
X236232641Y-26191131D01*
X236242168Y-26196526D01*
X236251656Y-26201991D01*
X236261106Y-26207527D01*
X236270518Y-26213133D01*
X236279889Y-26218808D01*
X236289221Y-26224553D01*
X236298513Y-26230366D01*
X236307763Y-26236249D01*
X236316972Y-26242199D01*
X236326139Y-26248218D01*
X236335264Y-26254304D01*
X236344345Y-26260458D01*
X236353383Y-26266679D01*
X236362376Y-26272967D01*
X236371325Y-26279321D01*
X236380229Y-26285741D01*
X236389087Y-26292227D01*
X236397899Y-26298778D01*
X236406664Y-26305393D01*
X236415382Y-26312074D01*
X236424052Y-26318818D01*
X236432674Y-26325627D01*
X236441247Y-26332499D01*
X236449771Y-26339433D01*
X236458245Y-26346431D01*
X236466669Y-26353490D01*
X236475042Y-26360611D01*
X236483363Y-26367794D01*
X236491633Y-26375037D01*
X236499850Y-26382341D01*
X236508014Y-26389705D01*
X236516125Y-26397129D01*
X236524183Y-26404612D01*
X236532186Y-26412153D01*
X236540134Y-26419753D01*
X236548027Y-26427411D01*
X236555864Y-26435126D01*
X236563645Y-26442898D01*
X236567514Y-26446805D01*
X236571369Y-26450726D01*
X236575210Y-26454661D01*
X236579036Y-26458611D01*
X236582848Y-26462574D01*
X236586646Y-26466550D01*
X236590429Y-26470541D01*
X236594197Y-26474545D01*
X236597951Y-26478563D01*
X236601690Y-26482595D01*
X236605414Y-26486640D01*
X236609124Y-26490698D01*
X236612818Y-26494770D01*
X236616498Y-26498855D01*
X236620163Y-26502953D01*
X236623812Y-26507065D01*
X236627447Y-26511190D01*
X236631067Y-26515328D01*
X236634671Y-26519479D01*
X236638260Y-26523643D01*
X236641834Y-26527819D01*
X236645392Y-26532009D01*
X236648935Y-26536211D01*
X236652463Y-26540426D01*
X236655975Y-26544654D01*
X236659471Y-26548894D01*
X236662952Y-26553147D01*
X236666418Y-26557412D01*
X236669867Y-26561689D01*
X236673301Y-26565980D01*
X236676719Y-26570282D01*
X236680121Y-26574596D01*
X236683507Y-26578922D01*
X236686878Y-26583261D01*
X236690232Y-26587612D01*
X236693570Y-26591974D01*
X236696892Y-26596348D01*
X236700198Y-26600735D01*
X236703488Y-26605133D01*
X236706761Y-26609543D01*
X236710018Y-26613963D01*
X236713259Y-26618397D01*
X236716484Y-26622841D01*
X236719692Y-26627297D01*
X236722883Y-26631763D01*
X236726058Y-26636242D01*
X236729217Y-26640731D01*
X236732359Y-26645232D01*
X236735484Y-26649744D01*
X236738592Y-26654267D01*
X236741684Y-26658800D01*
X236744759Y-26663345D01*
X236747817Y-26667901D01*
X236750859Y-26672467D01*
X236753883Y-26677044D01*
X236756890Y-26681632D01*
X236759880Y-26686230D01*
X236762854Y-26690839D01*
X236765810Y-26695457D01*
X236768750Y-26700087D01*
X236771671Y-26704727D01*
X236774576Y-26709377D01*
X236777464Y-26714037D01*
X236780334Y-26718708D01*
X236783187Y-26723388D01*
X236786023Y-26728079D01*
X236788841Y-26732778D01*
X236791642Y-26737489D01*
X236794425Y-26742208D01*
X236797191Y-26746939D01*
X236799939Y-26751677D01*
X236802670Y-26756427D01*
X236805383Y-26761184D01*
X236808079Y-26765953D01*
X236810756Y-26770730D01*
X236813417Y-26775517D01*
X236816059Y-26780312D01*
X236818684Y-26785118D01*
X236821290Y-26789931D01*
X236823880Y-26794755D01*
X236826450Y-26799586D01*
X236829004Y-26804428D01*
X236831539Y-26809278D01*
X236834056Y-26814137D01*
X236836555Y-26819004D01*
X236839037Y-26823881D01*
X236841499Y-26828765D01*
X236843945Y-26833659D01*
X236846371Y-26838561D01*
X236848780Y-26843472D01*
X236851170Y-26848390D01*
X236853543Y-26853318D01*
X236855897Y-26858252D01*
X236858233Y-26863196D01*
X236860550Y-26868147D01*
X236862850Y-26873107D01*
X236865130Y-26878074D01*
X236867393Y-26883051D01*
X236869637Y-26888033D01*
X236871863Y-26893025D01*
X236874069Y-26898023D01*
X236876258Y-26903031D01*
X236878428Y-26908044D01*
X236880580Y-26913067D01*
X236882713Y-26918095D01*
X236884827Y-26923133D01*
X236886923Y-26928176D01*
X236889000Y-26933228D01*
X236891059Y-26938286D01*
X236893099Y-26943353D01*
X236895120Y-26948425D01*
X236897122Y-26953506D01*
X236899106Y-26958592D01*
X236901071Y-26963687D01*
X236903017Y-26968786D01*
X236904944Y-26973895D01*
X236906852Y-26979009D01*
X236908742Y-26984131D01*
X236910613Y-26989258D01*
X236912465Y-26994393D01*
X236914297Y-26999533D01*
X236916112Y-27004682D01*
X236917906Y-27009835D01*
X236919683Y-27014996D01*
X236921439Y-27020161D01*
X236923178Y-27025335D01*
X236924896Y-27030513D01*
X236926597Y-27035700D01*
X236928277Y-27040890D01*
X236929939Y-27046088D01*
X236931581Y-27051290D01*
X236933205Y-27056501D01*
X236934809Y-27061714D01*
X236936395Y-27066936D01*
X236937961Y-27072162D01*
X236939508Y-27077395D01*
X236941035Y-27082632D01*
X236942544Y-27087877D01*
X236944033Y-27093125D01*
X236945503Y-27098380D01*
X236946954Y-27103639D01*
X236948385Y-27108906D01*
X236949797Y-27114175D01*
X236951190Y-27119452D01*
X236952563Y-27124732D01*
X236953918Y-27130020D01*
X236955252Y-27135310D01*
X236956568Y-27140608D01*
X236957864Y-27145908D01*
X236959141Y-27151216D01*
X236960398Y-27156526D01*
X236961636Y-27161843D01*
X236962854Y-27167163D01*
X236964053Y-27172490D01*
X236965232Y-27177820D01*
X236966392Y-27183156D01*
X236967533Y-27188495D01*
X236968654Y-27193840D01*
X236969755Y-27199188D01*
X236970837Y-27204542D01*
X236971900Y-27209899D01*
X236972943Y-27215262D01*
X236973966Y-27220627D01*
X236974970Y-27225999D01*
X236975954Y-27231373D01*
X236976919Y-27236753D01*
X236977864Y-27242135D01*
X236978789Y-27247524D01*
X236979695Y-27252914D01*
X236980581Y-27258311D01*
X236981447Y-27263709D01*
X236982295Y-27269113D01*
X236983122Y-27274519D01*
X236983929Y-27279931D01*
X236984717Y-27285345D01*
X236985485Y-27290764D01*
X236986234Y-27296185D01*
X236986963Y-27301612D01*
X236987672Y-27307040D01*
X236988361Y-27312474D01*
X236989030Y-27317909D01*
X236989681Y-27323350D01*
X236990310Y-27328792D01*
X236990921Y-27334240D01*
X236991511Y-27339689D01*
X236992082Y-27345143D01*
X236992633Y-27350598D01*
X236993165Y-27356059D01*
X236993676Y-27361521D01*
X236994167Y-27366988D01*
X236994639Y-27372456D01*
X236995091Y-27377930D01*
X236995523Y-27383404D01*
X236995936Y-27388883D01*
X236996328Y-27394363D01*
X236996700Y-27399848D01*
X236997053Y-27405334D01*
X236997386Y-27410825D01*
X236997699Y-27416316D01*
X236997992Y-27421812D01*
X236998265Y-27427309D01*
X236998518Y-27432811D01*
X236998751Y-27438313D01*
X236998964Y-27443820D01*
X236999158Y-27449327D01*
X236999331Y-27454839D01*
X236999485Y-27460351D01*
X236999618Y-27465868D01*
X236999732Y-27471385D01*
X236999825Y-27476907D01*
X236999899Y-27482429D01*
X236999953Y-27487955D01*
X236999986Y-27493481D01*
X237000000Y-27499012D01*
X237000000Y-27500000D01*
D11*
X136207107Y-26500000D02*
X148500000Y-26500000D01*
X233750000Y-79500000D02*
G75*
G02*
X231250000Y-79500000I-1250000J0D01*
G01*
X231250000Y-79500000D02*
G75*
G02*
X233750000Y-79500000I1250000J0D01*
G01*
D10*
X61500000Y-137404541D02*
X61488952Y-137404501D01*
X61477912Y-137404381D01*
X61466883Y-137404182D01*
X61455862Y-137403902D01*
X61444852Y-137403543D01*
X61433852Y-137403105D01*
X61422862Y-137402586D01*
X61411883Y-137401989D01*
X61400916Y-137401312D01*
X61389959Y-137400555D01*
X61379015Y-137399719D01*
X61368082Y-137398804D01*
X61357162Y-137397810D01*
X61346254Y-137396737D01*
X61335360Y-137395585D01*
X61324478Y-137394354D01*
X61313611Y-137393044D01*
X61302757Y-137391655D01*
X61291918Y-137390187D01*
X61281093Y-137388641D01*
X61270283Y-137387016D01*
X61259489Y-137385313D01*
X61248710Y-137383531D01*
X61237948Y-137381671D01*
X61227201Y-137379733D01*
X61216472Y-137377716D01*
X61205760Y-137375622D01*
X61195065Y-137373449D01*
X61184389Y-137371198D01*
X61173730Y-137368870D01*
X61163091Y-137366464D01*
X61152470Y-137363980D01*
X61141870Y-137361419D01*
X61131289Y-137358781D01*
X61120728Y-137356065D01*
X61110188Y-137353272D01*
X61099669Y-137350401D01*
X61089172Y-137347454D01*
X61078697Y-137344430D01*
X61068244Y-137341330D01*
X61057814Y-137338152D01*
X61047407Y-137334899D01*
X61037025Y-137331569D01*
X61026666Y-137328162D01*
X61016332Y-137324680D01*
X61006023Y-137321122D01*
X60995739Y-137317488D01*
X60985482Y-137313778D01*
X60975251Y-137309993D01*
X60965047Y-137306133D01*
X60954870Y-137302197D01*
X60944721Y-137298187D01*
X60934600Y-137294102D01*
X60924509Y-137289942D01*
X60914446Y-137285708D01*
X60904413Y-137281400D01*
X60894411Y-137277018D01*
X60884439Y-137272561D01*
X60874499Y-137268032D01*
X60864590Y-137263429D01*
X60854714Y-137258752D01*
X60844870Y-137254003D01*
X60835059Y-137249181D01*
X60825282Y-137244286D01*
X60815540Y-137239320D01*
X60805832Y-137234281D01*
X60796160Y-137229170D01*
X60786523Y-137223988D01*
X60776922Y-137218735D01*
X60767359Y-137213410D01*
X60757832Y-137208015D01*
X60748344Y-137202550D01*
X60738894Y-137197014D01*
X60729482Y-137191408D01*
X60720111Y-137185733D01*
X60710779Y-137179988D01*
X60701487Y-137174175D01*
X60692237Y-137168292D01*
X60683028Y-137162342D01*
X60673861Y-137156323D01*
X60664736Y-137150237D01*
X60655655Y-137144083D01*
X60646617Y-137137862D01*
X60637624Y-137131574D01*
X60628675Y-137125220D01*
X60619771Y-137118800D01*
X60610913Y-137112314D01*
X60602101Y-137105763D01*
X60593336Y-137099148D01*
X60584618Y-137092467D01*
X60575948Y-137085723D01*
X60567326Y-137078914D01*
X60558753Y-137072042D01*
X60550229Y-137065108D01*
X60541755Y-137058110D01*
X60533331Y-137051051D01*
X60524958Y-137043930D01*
X60516637Y-137036747D01*
X60508367Y-137029504D01*
X60500150Y-137022200D01*
X60491986Y-137014836D01*
X60483875Y-137007412D01*
X60475817Y-136999929D01*
X60467814Y-136992388D01*
X60459866Y-136984788D01*
X60451973Y-136977130D01*
X60444136Y-136969415D01*
X60436355Y-136961643D01*
X60432486Y-136957736D01*
X60428631Y-136953815D01*
X60424790Y-136949880D01*
X60420964Y-136945930D01*
X60417152Y-136941967D01*
X60413354Y-136937991D01*
X60409571Y-136934000D01*
X60405803Y-136929996D01*
X60402049Y-136925978D01*
X60398310Y-136921946D01*
X60394586Y-136917901D01*
X60390876Y-136913843D01*
X60387182Y-136909771D01*
X60383502Y-136905686D01*
X60379837Y-136901588D01*
X60376188Y-136897476D01*
X60372553Y-136893351D01*
X60368933Y-136889213D01*
X60365329Y-136885062D01*
X60361740Y-136880898D01*
X60358166Y-136876722D01*
X60354608Y-136872532D01*
X60351065Y-136868330D01*
X60347537Y-136864115D01*
X60344025Y-136859887D01*
X60340529Y-136855647D01*
X60337048Y-136851394D01*
X60333582Y-136847129D01*
X60330133Y-136842852D01*
X60326699Y-136838561D01*
X60323281Y-136834259D01*
X60319879Y-136829945D01*
X60316493Y-136825619D01*
X60313122Y-136821280D01*
X60309768Y-136816929D01*
X60306430Y-136812567D01*
X60303108Y-136808193D01*
X60299802Y-136803806D01*
X60296512Y-136799408D01*
X60293239Y-136794998D01*
X60289982Y-136790578D01*
X60286741Y-136786144D01*
X60283516Y-136781700D01*
X60280308Y-136777244D01*
X60277117Y-136772778D01*
X60273942Y-136768299D01*
X60270783Y-136763810D01*
X60267641Y-136759309D01*
X60264516Y-136754797D01*
X60261408Y-136750274D01*
X60258316Y-136745741D01*
X60255241Y-136741196D01*
X60252183Y-136736640D01*
X60249141Y-136732074D01*
X60246117Y-136727497D01*
X60243110Y-136722909D01*
X60240120Y-136718311D01*
X60237146Y-136713702D01*
X60234190Y-136709084D01*
X60231250Y-136704454D01*
X60228329Y-136699814D01*
X60225424Y-136695164D01*
X60222536Y-136690504D01*
X60219666Y-136685833D01*
X60216813Y-136681153D01*
X60213977Y-136676462D01*
X60211159Y-136671763D01*
X60208358Y-136667052D01*
X60205575Y-136662333D01*
X60202809Y-136657602D01*
X60200061Y-136652864D01*
X60197330Y-136648114D01*
X60194617Y-136643357D01*
X60191921Y-136638588D01*
X60189244Y-136633811D01*
X60186583Y-136629024D01*
X60183941Y-136624229D01*
X60181316Y-136619423D01*
X60178710Y-136614610D01*
X60176120Y-136609786D01*
X60173550Y-136604955D01*
X60170996Y-136600113D01*
X60168461Y-136595263D01*
X60165944Y-136590404D01*
X60163445Y-136585537D01*
X60160963Y-136580660D01*
X60158501Y-136575776D01*
X60156055Y-136570882D01*
X60153629Y-136565980D01*
X60151220Y-136561069D01*
X60148830Y-136556151D01*
X60146457Y-136551223D01*
X60144103Y-136546289D01*
X60141767Y-136541345D01*
X60139450Y-136536394D01*
X60137150Y-136531434D01*
X60134870Y-136526467D01*
X60132607Y-136521490D01*
X60130363Y-136516508D01*
X60128137Y-136511516D01*
X60125931Y-136506518D01*
X60123742Y-136501510D01*
X60121572Y-136496497D01*
X60119420Y-136491474D01*
X60117287Y-136486446D01*
X60115173Y-136481408D01*
X60113077Y-136476365D01*
X60111000Y-136471313D01*
X60108941Y-136466255D01*
X60106901Y-136461188D01*
X60104880Y-136456116D01*
X60102878Y-136451035D01*
X60100894Y-136445949D01*
X60098929Y-136440854D01*
X60096983Y-136435755D01*
X60095056Y-136430646D01*
X60093148Y-136425532D01*
X60091258Y-136420410D01*
X60089387Y-136415283D01*
X60087535Y-136410148D01*
X60085703Y-136405008D01*
X60083888Y-136399859D01*
X60082094Y-136394706D01*
X60080317Y-136389545D01*
X60078561Y-136384380D01*
X60076822Y-136379206D01*
X60075104Y-136374028D01*
X60073403Y-136368841D01*
X60071723Y-136363651D01*
X60070061Y-136358453D01*
X60068419Y-136353251D01*
X60066795Y-136348040D01*
X60065191Y-136342827D01*
X60063605Y-136337605D01*
X60062039Y-136332379D01*
X60060492Y-136327146D01*
X60058965Y-136321909D01*
X60057456Y-136316664D01*
X60055967Y-136311416D01*
X60054497Y-136306161D01*
X60053046Y-136300902D01*
X60051615Y-136295635D01*
X60050203Y-136290366D01*
X60048810Y-136285089D01*
X60047437Y-136279809D01*
X60046082Y-136274521D01*
X60044748Y-136269231D01*
X60043432Y-136263933D01*
X60042136Y-136258633D01*
X60040859Y-136253325D01*
X60039602Y-136248015D01*
X60038364Y-136242698D01*
X60037146Y-136237378D01*
X60035947Y-136232051D01*
X60034768Y-136226721D01*
X60033608Y-136221385D01*
X60032467Y-136216046D01*
X60031346Y-136210701D01*
X60030245Y-136205353D01*
X60029163Y-136199999D01*
X60028100Y-136194642D01*
X60027057Y-136189279D01*
X60026034Y-136183914D01*
X60025030Y-136178542D01*
X60024046Y-136173168D01*
X60023081Y-136167788D01*
X60022136Y-136162406D01*
X60021211Y-136157017D01*
X60020305Y-136151627D01*
X60019419Y-136146230D01*
X60018553Y-136140832D01*
X60017705Y-136135428D01*
X60016878Y-136130022D01*
X60016071Y-136124610D01*
X60015283Y-136119196D01*
X60014515Y-136113777D01*
X60013766Y-136108356D01*
X60013037Y-136102929D01*
X60012328Y-136097501D01*
X60011639Y-136092067D01*
X60010970Y-136086632D01*
X60010319Y-136081191D01*
X60009690Y-136075749D01*
X60009079Y-136070301D01*
X60008489Y-136064852D01*
X60007918Y-136059398D01*
X60007367Y-136053943D01*
X60006835Y-136048482D01*
X60006324Y-136043020D01*
X60005833Y-136037553D01*
X60005361Y-136032085D01*
X60004909Y-136026611D01*
X60004477Y-136021137D01*
X60004064Y-136015658D01*
X60003672Y-136010178D01*
X60003300Y-136004693D01*
X60002947Y-135999207D01*
X60002614Y-135993716D01*
X60002301Y-135988225D01*
X60002008Y-135982729D01*
X60001735Y-135977232D01*
X60001482Y-135971730D01*
X60001249Y-135966228D01*
X60001036Y-135960721D01*
X60000842Y-135955214D01*
X60000669Y-135949702D01*
X60000515Y-135944190D01*
X60000382Y-135938673D01*
X60000268Y-135933156D01*
X60000175Y-135927634D01*
X60000101Y-135922112D01*
X60000047Y-135916586D01*
X60000014Y-135911060D01*
X60000000Y-135905529D01*
X60000000Y-135904541D01*
X160792893Y-26500000D02*
X160799218Y-26499960D01*
X160805541Y-26499840D01*
X160811861Y-26499640D01*
X160818177Y-26499361D01*
X160824488Y-26499002D01*
X160830794Y-26498563D01*
X160837094Y-26498044D01*
X160843386Y-26497446D01*
X160849670Y-26496768D01*
X160855945Y-26496010D01*
X160862210Y-26495174D01*
X160868463Y-26494258D01*
X160874705Y-26493264D01*
X160880934Y-26492190D01*
X160887149Y-26491038D01*
X160893350Y-26489807D01*
X160899534Y-26488497D01*
X160905702Y-26487110D01*
X160911852Y-26485644D01*
X160917983Y-26484101D01*
X160924095Y-26482480D01*
X160930186Y-26480782D01*
X160936255Y-26479008D01*
X160942302Y-26477156D01*
X160948325Y-26475228D01*
X160954323Y-26473224D01*
X160960296Y-26471144D01*
X160966243Y-26468988D01*
X160972162Y-26466758D01*
X160978052Y-26464453D01*
X160983913Y-26462073D01*
X160986832Y-26460855D01*
X160989744Y-26459619D01*
X160992647Y-26458365D01*
X160995543Y-26457092D01*
X160998430Y-26455801D01*
X161001309Y-26454492D01*
X161004180Y-26453164D01*
X161007043Y-26451819D01*
X161009897Y-26450455D01*
X161012742Y-26449073D01*
X161015578Y-26447674D01*
X161018406Y-26446256D01*
X161021224Y-26444821D01*
X161024034Y-26443367D01*
X161026834Y-26441896D01*
X161029625Y-26440408D01*
X161032406Y-26438902D01*
X161035178Y-26437378D01*
X161037939Y-26435836D01*
X161040692Y-26434278D01*
X161043434Y-26432702D01*
X161046166Y-26431108D01*
X161048888Y-26429498D01*
X161051600Y-26427870D01*
X161054301Y-26426225D01*
X161056992Y-26424563D01*
X161059672Y-26422884D01*
X161062342Y-26421188D01*
X161065000Y-26419475D01*
X161067648Y-26417746D01*
X161070285Y-26416000D01*
X161072911Y-26414237D01*
X161075525Y-26412458D01*
X161078129Y-26410661D01*
X161080720Y-26408849D01*
X161083301Y-26407020D01*
X161085869Y-26405175D01*
X161088427Y-26403314D01*
X161090971Y-26401437D01*
X161093505Y-26399543D01*
X161096026Y-26397634D01*
X161098535Y-26395708D01*
X161101032Y-26393767D01*
X161103517Y-26391810D01*
X161105989Y-26389837D01*
X161108449Y-26387848D01*
X161110896Y-26385845D01*
X161113331Y-26383824D01*
X161115752Y-26381790D01*
X161118161Y-26379739D01*
X161120557Y-26377674D01*
X161122940Y-26375592D01*
X161125310Y-26373497D01*
X161127667Y-26371385D01*
X161130010Y-26369260D01*
X161132341Y-26367118D01*
X161134657Y-26364963D01*
X161136961Y-26362791D01*
X161139250Y-26360607D01*
X161141526Y-26358406D01*
X161143788Y-26356192D01*
X161146037Y-26353962D01*
X161146447Y-26353553D01*
D11*
X65750000Y-65000000D02*
G75*
G02*
X63250000Y-65000000I-1250000J0D01*
G01*
X63250000Y-65000000D02*
G75*
G02*
X65750000Y-65000000I1250000J0D01*
G01*
D10*
X91550794Y-137381752D02*
X91540001Y-137383615D01*
X91529194Y-137385398D01*
X91518374Y-137387103D01*
X91507542Y-137388729D01*
X91496698Y-137390276D01*
X91485844Y-137391743D01*
X91474978Y-137393131D01*
X91464103Y-137394440D01*
X91453219Y-137395670D01*
X91442325Y-137396819D01*
X91431424Y-137397890D01*
X91420515Y-137398880D01*
X91415057Y-137399346D01*
X91409598Y-137399791D01*
X91404138Y-137400217D01*
X91398676Y-137400622D01*
X91393212Y-137401008D01*
X91387747Y-137401374D01*
X91382281Y-137401720D01*
X91376813Y-137402045D01*
X91371345Y-137402351D01*
X91365875Y-137402637D01*
X91360404Y-137402903D01*
X91354932Y-137403149D01*
X91349459Y-137403375D01*
X91343986Y-137403581D01*
X91338511Y-137403767D01*
X91333036Y-137403933D01*
X91327561Y-137404079D01*
X91322085Y-137404205D01*
X91316608Y-137404311D01*
X91311131Y-137404397D01*
X91305654Y-137404463D01*
X91300177Y-137404509D01*
X91290322Y-137404541D01*
D12*
%TO.C,REF\u002A\u002A*%
X196000000Y-114500000D02*
X204000000Y-114500000D01*
X204000000Y-118500000D02*
X196000000Y-118500000D01*
X196000000Y-118500000D02*
G75*
G02*
X196000000Y-114500000I0J2000000D01*
G01*
X204000000Y-114500000D02*
G75*
G02*
X204000000Y-118500000I0J-2000000D01*
G01*
X93000000Y-123500000D02*
X101000000Y-123500000D01*
X101000000Y-127500000D02*
X93000000Y-127500000D01*
X93000000Y-127500000D02*
G75*
G02*
X93000000Y-123500000I0J2000000D01*
G01*
X101000000Y-123500000D02*
G75*
G02*
X101000000Y-127500000I0J-2000000D01*
G01*
X196000000Y-36000000D02*
X204000000Y-36000000D01*
X204000000Y-40000000D02*
X196000000Y-40000000D01*
X196000000Y-40000000D02*
G75*
G02*
X196000000Y-36000000I0J2000000D01*
G01*
X204000000Y-36000000D02*
G75*
G02*
X204000000Y-40000000I0J-2000000D01*
G01*
X93000000Y-36000000D02*
X101000000Y-36000000D01*
X101000000Y-40000000D02*
X93000000Y-40000000D01*
X93000000Y-40000000D02*
G75*
G02*
X93000000Y-36000000I0J2000000D01*
G01*
X101000000Y-36000000D02*
G75*
G02*
X101000000Y-40000000I0J-2000000D01*
G01*
%TD*%
M02*
