%TF.GenerationSoftware,KiCad,Pcbnew,9.0.4*%
%TF.CreationDate,2026-03-05T05:19:43+09:00*%
%TF.ProjectId,dasicPlate,64617369-6350-46c6-9174-652e6b696361,rev?*%
%TF.SameCoordinates,Original*%
%TF.FileFunction,Legend,Top*%
%TF.FilePolarity,Positive*%
%FSLAX46Y46*%
G04 Gerber Fmt 4.6, Leading zero omitted, Abs format (unit mm)*
G04 Created by KiCad (PCBNEW 9.0.4) date 2026-03-05 05:19:43*
%MOMM*%
%LPD*%
G01*
G04 APERTURE LIST*
%ADD10C,0.200000*%
%ADD11C,0.100000*%
%ADD12C,1.000000*%
G04 APERTURE END LIST*
D10*
X87500000Y-80000000D02*
X97000000Y-80000000D01*
X87523807Y-78867219D02*
X87428569Y-78819600D01*
X87428569Y-78819600D02*
X87380950Y-78724361D01*
X87380950Y-78724361D02*
X87380950Y-77867219D01*
X88285712Y-78819600D02*
X88190474Y-78867219D01*
X88190474Y-78867219D02*
X87999998Y-78867219D01*
X87999998Y-78867219D02*
X87904760Y-78819600D01*
X87904760Y-78819600D02*
X87857141Y-78724361D01*
X87857141Y-78724361D02*
X87857141Y-78343409D01*
X87857141Y-78343409D02*
X87904760Y-78248171D01*
X87904760Y-78248171D02*
X87999998Y-78200552D01*
X87999998Y-78200552D02*
X88190474Y-78200552D01*
X88190474Y-78200552D02*
X88285712Y-78248171D01*
X88285712Y-78248171D02*
X88333331Y-78343409D01*
X88333331Y-78343409D02*
X88333331Y-78438647D01*
X88333331Y-78438647D02*
X87857141Y-78533885D01*
X88619046Y-78200552D02*
X88999998Y-78200552D01*
X88761903Y-77867219D02*
X88761903Y-78724361D01*
X88761903Y-78724361D02*
X88809522Y-78819600D01*
X88809522Y-78819600D02*
X88904760Y-78867219D01*
X88904760Y-78867219D02*
X88999998Y-78867219D01*
X89380951Y-77867219D02*
X89285713Y-78057695D01*
X89761903Y-78819600D02*
X89857141Y-78867219D01*
X89857141Y-78867219D02*
X90047617Y-78867219D01*
X90047617Y-78867219D02*
X90142855Y-78819600D01*
X90142855Y-78819600D02*
X90190474Y-78724361D01*
X90190474Y-78724361D02*
X90190474Y-78676742D01*
X90190474Y-78676742D02*
X90142855Y-78581504D01*
X90142855Y-78581504D02*
X90047617Y-78533885D01*
X90047617Y-78533885D02*
X89904760Y-78533885D01*
X89904760Y-78533885D02*
X89809522Y-78486266D01*
X89809522Y-78486266D02*
X89761903Y-78391028D01*
X89761903Y-78391028D02*
X89761903Y-78343409D01*
X89761903Y-78343409D02*
X89809522Y-78248171D01*
X89809522Y-78248171D02*
X89904760Y-78200552D01*
X89904760Y-78200552D02*
X90047617Y-78200552D01*
X90047617Y-78200552D02*
X90142855Y-78248171D01*
X91380951Y-78867219D02*
X91380951Y-77867219D01*
X91809522Y-78867219D02*
X91809522Y-78343409D01*
X91809522Y-78343409D02*
X91761903Y-78248171D01*
X91761903Y-78248171D02*
X91666665Y-78200552D01*
X91666665Y-78200552D02*
X91523808Y-78200552D01*
X91523808Y-78200552D02*
X91428570Y-78248171D01*
X91428570Y-78248171D02*
X91380951Y-78295790D01*
X92714284Y-78867219D02*
X92714284Y-78343409D01*
X92714284Y-78343409D02*
X92666665Y-78248171D01*
X92666665Y-78248171D02*
X92571427Y-78200552D01*
X92571427Y-78200552D02*
X92380951Y-78200552D01*
X92380951Y-78200552D02*
X92285713Y-78248171D01*
X92714284Y-78819600D02*
X92619046Y-78867219D01*
X92619046Y-78867219D02*
X92380951Y-78867219D01*
X92380951Y-78867219D02*
X92285713Y-78819600D01*
X92285713Y-78819600D02*
X92238094Y-78724361D01*
X92238094Y-78724361D02*
X92238094Y-78629123D01*
X92238094Y-78629123D02*
X92285713Y-78533885D01*
X92285713Y-78533885D02*
X92380951Y-78486266D01*
X92380951Y-78486266D02*
X92619046Y-78486266D01*
X92619046Y-78486266D02*
X92714284Y-78438647D01*
X93095237Y-78200552D02*
X93333332Y-78867219D01*
X93333332Y-78867219D02*
X93571427Y-78200552D01*
X94333332Y-78819600D02*
X94238094Y-78867219D01*
X94238094Y-78867219D02*
X94047618Y-78867219D01*
X94047618Y-78867219D02*
X93952380Y-78819600D01*
X93952380Y-78819600D02*
X93904761Y-78724361D01*
X93904761Y-78724361D02*
X93904761Y-78343409D01*
X93904761Y-78343409D02*
X93952380Y-78248171D01*
X93952380Y-78248171D02*
X94047618Y-78200552D01*
X94047618Y-78200552D02*
X94238094Y-78200552D01*
X94238094Y-78200552D02*
X94333332Y-78248171D01*
X94333332Y-78248171D02*
X94380951Y-78343409D01*
X94380951Y-78343409D02*
X94380951Y-78438647D01*
X94380951Y-78438647D02*
X93904761Y-78533885D01*
X95999999Y-78867219D02*
X95999999Y-78343409D01*
X95999999Y-78343409D02*
X95952380Y-78248171D01*
X95952380Y-78248171D02*
X95857142Y-78200552D01*
X95857142Y-78200552D02*
X95666666Y-78200552D01*
X95666666Y-78200552D02*
X95571428Y-78248171D01*
X95999999Y-78819600D02*
X95904761Y-78867219D01*
X95904761Y-78867219D02*
X95666666Y-78867219D01*
X95666666Y-78867219D02*
X95571428Y-78819600D01*
X95571428Y-78819600D02*
X95523809Y-78724361D01*
X95523809Y-78724361D02*
X95523809Y-78629123D01*
X95523809Y-78629123D02*
X95571428Y-78533885D01*
X95571428Y-78533885D02*
X95666666Y-78486266D01*
X95666666Y-78486266D02*
X95904761Y-78486266D01*
X95904761Y-78486266D02*
X95999999Y-78438647D01*
X97095238Y-78200552D02*
X97476190Y-78200552D01*
X97238095Y-77867219D02*
X97238095Y-78724361D01*
X97238095Y-78724361D02*
X97285714Y-78819600D01*
X97285714Y-78819600D02*
X97380952Y-78867219D01*
X97380952Y-78867219D02*
X97476190Y-78867219D01*
X98190476Y-78819600D02*
X98095238Y-78867219D01*
X98095238Y-78867219D02*
X97904762Y-78867219D01*
X97904762Y-78867219D02*
X97809524Y-78819600D01*
X97809524Y-78819600D02*
X97761905Y-78724361D01*
X97761905Y-78724361D02*
X97761905Y-78343409D01*
X97761905Y-78343409D02*
X97809524Y-78248171D01*
X97809524Y-78248171D02*
X97904762Y-78200552D01*
X97904762Y-78200552D02*
X98095238Y-78200552D01*
X98095238Y-78200552D02*
X98190476Y-78248171D01*
X98190476Y-78248171D02*
X98238095Y-78343409D01*
X98238095Y-78343409D02*
X98238095Y-78438647D01*
X98238095Y-78438647D02*
X97761905Y-78533885D01*
X99095238Y-78867219D02*
X99095238Y-78343409D01*
X99095238Y-78343409D02*
X99047619Y-78248171D01*
X99047619Y-78248171D02*
X98952381Y-78200552D01*
X98952381Y-78200552D02*
X98761905Y-78200552D01*
X98761905Y-78200552D02*
X98666667Y-78248171D01*
X99095238Y-78819600D02*
X99000000Y-78867219D01*
X99000000Y-78867219D02*
X98761905Y-78867219D01*
X98761905Y-78867219D02*
X98666667Y-78819600D01*
X98666667Y-78819600D02*
X98619048Y-78724361D01*
X98619048Y-78724361D02*
X98619048Y-78629123D01*
X98619048Y-78629123D02*
X98666667Y-78533885D01*
X98666667Y-78533885D02*
X98761905Y-78486266D01*
X98761905Y-78486266D02*
X99000000Y-78486266D01*
X99000000Y-78486266D02*
X99095238Y-78438647D01*
X100333334Y-78200552D02*
X100333334Y-79200552D01*
X100333334Y-78248171D02*
X100428572Y-78200552D01*
X100428572Y-78200552D02*
X100619048Y-78200552D01*
X100619048Y-78200552D02*
X100714286Y-78248171D01*
X100714286Y-78248171D02*
X100761905Y-78295790D01*
X100761905Y-78295790D02*
X100809524Y-78391028D01*
X100809524Y-78391028D02*
X100809524Y-78676742D01*
X100809524Y-78676742D02*
X100761905Y-78771980D01*
X100761905Y-78771980D02*
X100714286Y-78819600D01*
X100714286Y-78819600D02*
X100619048Y-78867219D01*
X100619048Y-78867219D02*
X100428572Y-78867219D01*
X100428572Y-78867219D02*
X100333334Y-78819600D01*
X101666667Y-78867219D02*
X101666667Y-78343409D01*
X101666667Y-78343409D02*
X101619048Y-78248171D01*
X101619048Y-78248171D02*
X101523810Y-78200552D01*
X101523810Y-78200552D02*
X101333334Y-78200552D01*
X101333334Y-78200552D02*
X101238096Y-78248171D01*
X101666667Y-78819600D02*
X101571429Y-78867219D01*
X101571429Y-78867219D02*
X101333334Y-78867219D01*
X101333334Y-78867219D02*
X101238096Y-78819600D01*
X101238096Y-78819600D02*
X101190477Y-78724361D01*
X101190477Y-78724361D02*
X101190477Y-78629123D01*
X101190477Y-78629123D02*
X101238096Y-78533885D01*
X101238096Y-78533885D02*
X101333334Y-78486266D01*
X101333334Y-78486266D02*
X101571429Y-78486266D01*
X101571429Y-78486266D02*
X101666667Y-78438647D01*
X102142858Y-78867219D02*
X102142858Y-78200552D01*
X102142858Y-78391028D02*
X102190477Y-78295790D01*
X102190477Y-78295790D02*
X102238096Y-78248171D01*
X102238096Y-78248171D02*
X102333334Y-78200552D01*
X102333334Y-78200552D02*
X102428572Y-78200552D01*
X102619049Y-78200552D02*
X103000001Y-78200552D01*
X102761906Y-77867219D02*
X102761906Y-78724361D01*
X102761906Y-78724361D02*
X102809525Y-78819600D01*
X102809525Y-78819600D02*
X102904763Y-78867219D01*
X102904763Y-78867219D02*
X103000001Y-78867219D01*
X103238097Y-78200552D02*
X103476192Y-78867219D01*
X103714287Y-78200552D02*
X103476192Y-78867219D01*
X103476192Y-78867219D02*
X103380954Y-79105314D01*
X103380954Y-79105314D02*
X103333335Y-79152933D01*
X103333335Y-79152933D02*
X103238097Y-79200552D01*
D11*
X91892858Y-33790752D02*
X92083334Y-34457419D01*
X92083334Y-34457419D02*
X92273810Y-33981228D01*
X92273810Y-33981228D02*
X92464286Y-34457419D01*
X92464286Y-34457419D02*
X92654762Y-33790752D01*
X93464286Y-34457419D02*
X93464286Y-33933609D01*
X93464286Y-33933609D02*
X93416667Y-33838371D01*
X93416667Y-33838371D02*
X93321429Y-33790752D01*
X93321429Y-33790752D02*
X93130953Y-33790752D01*
X93130953Y-33790752D02*
X93035715Y-33838371D01*
X93464286Y-34409800D02*
X93369048Y-34457419D01*
X93369048Y-34457419D02*
X93130953Y-34457419D01*
X93130953Y-34457419D02*
X93035715Y-34409800D01*
X93035715Y-34409800D02*
X92988096Y-34314561D01*
X92988096Y-34314561D02*
X92988096Y-34219323D01*
X92988096Y-34219323D02*
X93035715Y-34124085D01*
X93035715Y-34124085D02*
X93130953Y-34076466D01*
X93130953Y-34076466D02*
X93369048Y-34076466D01*
X93369048Y-34076466D02*
X93464286Y-34028847D01*
X93797620Y-33790752D02*
X94178572Y-33790752D01*
X93940477Y-33457419D02*
X93940477Y-34314561D01*
X93940477Y-34314561D02*
X93988096Y-34409800D01*
X93988096Y-34409800D02*
X94083334Y-34457419D01*
X94083334Y-34457419D02*
X94178572Y-34457419D01*
X94892858Y-34409800D02*
X94797620Y-34457419D01*
X94797620Y-34457419D02*
X94607144Y-34457419D01*
X94607144Y-34457419D02*
X94511906Y-34409800D01*
X94511906Y-34409800D02*
X94464287Y-34314561D01*
X94464287Y-34314561D02*
X94464287Y-33933609D01*
X94464287Y-33933609D02*
X94511906Y-33838371D01*
X94511906Y-33838371D02*
X94607144Y-33790752D01*
X94607144Y-33790752D02*
X94797620Y-33790752D01*
X94797620Y-33790752D02*
X94892858Y-33838371D01*
X94892858Y-33838371D02*
X94940477Y-33933609D01*
X94940477Y-33933609D02*
X94940477Y-34028847D01*
X94940477Y-34028847D02*
X94464287Y-34124085D01*
X95369049Y-34457419D02*
X95369049Y-33790752D01*
X95369049Y-33981228D02*
X95416668Y-33885990D01*
X95416668Y-33885990D02*
X95464287Y-33838371D01*
X95464287Y-33838371D02*
X95559525Y-33790752D01*
X95559525Y-33790752D02*
X95654763Y-33790752D01*
X97178573Y-34457419D02*
X97178573Y-33457419D01*
X97178573Y-34409800D02*
X97083335Y-34457419D01*
X97083335Y-34457419D02*
X96892859Y-34457419D01*
X96892859Y-34457419D02*
X96797621Y-34409800D01*
X96797621Y-34409800D02*
X96750002Y-34362180D01*
X96750002Y-34362180D02*
X96702383Y-34266942D01*
X96702383Y-34266942D02*
X96702383Y-33981228D01*
X96702383Y-33981228D02*
X96750002Y-33885990D01*
X96750002Y-33885990D02*
X96797621Y-33838371D01*
X96797621Y-33838371D02*
X96892859Y-33790752D01*
X96892859Y-33790752D02*
X97083335Y-33790752D01*
X97083335Y-33790752D02*
X97178573Y-33838371D01*
X97654764Y-34457419D02*
X97654764Y-33790752D01*
X97654764Y-33981228D02*
X97702383Y-33885990D01*
X97702383Y-33885990D02*
X97750002Y-33838371D01*
X97750002Y-33838371D02*
X97845240Y-33790752D01*
X97845240Y-33790752D02*
X97940478Y-33790752D01*
X98702383Y-34457419D02*
X98702383Y-33933609D01*
X98702383Y-33933609D02*
X98654764Y-33838371D01*
X98654764Y-33838371D02*
X98559526Y-33790752D01*
X98559526Y-33790752D02*
X98369050Y-33790752D01*
X98369050Y-33790752D02*
X98273812Y-33838371D01*
X98702383Y-34409800D02*
X98607145Y-34457419D01*
X98607145Y-34457419D02*
X98369050Y-34457419D01*
X98369050Y-34457419D02*
X98273812Y-34409800D01*
X98273812Y-34409800D02*
X98226193Y-34314561D01*
X98226193Y-34314561D02*
X98226193Y-34219323D01*
X98226193Y-34219323D02*
X98273812Y-34124085D01*
X98273812Y-34124085D02*
X98369050Y-34076466D01*
X98369050Y-34076466D02*
X98607145Y-34076466D01*
X98607145Y-34076466D02*
X98702383Y-34028847D01*
X99178574Y-34457419D02*
X99178574Y-33790752D01*
X99178574Y-33457419D02*
X99130955Y-33505038D01*
X99130955Y-33505038D02*
X99178574Y-33552657D01*
X99178574Y-33552657D02*
X99226193Y-33505038D01*
X99226193Y-33505038D02*
X99178574Y-33457419D01*
X99178574Y-33457419D02*
X99178574Y-33552657D01*
X99654764Y-33790752D02*
X99654764Y-34457419D01*
X99654764Y-33885990D02*
X99702383Y-33838371D01*
X99702383Y-33838371D02*
X99797621Y-33790752D01*
X99797621Y-33790752D02*
X99940478Y-33790752D01*
X99940478Y-33790752D02*
X100035716Y-33838371D01*
X100035716Y-33838371D02*
X100083335Y-33933609D01*
X100083335Y-33933609D02*
X100083335Y-34457419D01*
X194892858Y-112290752D02*
X195083334Y-112957419D01*
X195083334Y-112957419D02*
X195273810Y-112481228D01*
X195273810Y-112481228D02*
X195464286Y-112957419D01*
X195464286Y-112957419D02*
X195654762Y-112290752D01*
X196464286Y-112957419D02*
X196464286Y-112433609D01*
X196464286Y-112433609D02*
X196416667Y-112338371D01*
X196416667Y-112338371D02*
X196321429Y-112290752D01*
X196321429Y-112290752D02*
X196130953Y-112290752D01*
X196130953Y-112290752D02*
X196035715Y-112338371D01*
X196464286Y-112909800D02*
X196369048Y-112957419D01*
X196369048Y-112957419D02*
X196130953Y-112957419D01*
X196130953Y-112957419D02*
X196035715Y-112909800D01*
X196035715Y-112909800D02*
X195988096Y-112814561D01*
X195988096Y-112814561D02*
X195988096Y-112719323D01*
X195988096Y-112719323D02*
X196035715Y-112624085D01*
X196035715Y-112624085D02*
X196130953Y-112576466D01*
X196130953Y-112576466D02*
X196369048Y-112576466D01*
X196369048Y-112576466D02*
X196464286Y-112528847D01*
X196797620Y-112290752D02*
X197178572Y-112290752D01*
X196940477Y-111957419D02*
X196940477Y-112814561D01*
X196940477Y-112814561D02*
X196988096Y-112909800D01*
X196988096Y-112909800D02*
X197083334Y-112957419D01*
X197083334Y-112957419D02*
X197178572Y-112957419D01*
X197892858Y-112909800D02*
X197797620Y-112957419D01*
X197797620Y-112957419D02*
X197607144Y-112957419D01*
X197607144Y-112957419D02*
X197511906Y-112909800D01*
X197511906Y-112909800D02*
X197464287Y-112814561D01*
X197464287Y-112814561D02*
X197464287Y-112433609D01*
X197464287Y-112433609D02*
X197511906Y-112338371D01*
X197511906Y-112338371D02*
X197607144Y-112290752D01*
X197607144Y-112290752D02*
X197797620Y-112290752D01*
X197797620Y-112290752D02*
X197892858Y-112338371D01*
X197892858Y-112338371D02*
X197940477Y-112433609D01*
X197940477Y-112433609D02*
X197940477Y-112528847D01*
X197940477Y-112528847D02*
X197464287Y-112624085D01*
X198369049Y-112957419D02*
X198369049Y-112290752D01*
X198369049Y-112481228D02*
X198416668Y-112385990D01*
X198416668Y-112385990D02*
X198464287Y-112338371D01*
X198464287Y-112338371D02*
X198559525Y-112290752D01*
X198559525Y-112290752D02*
X198654763Y-112290752D01*
X200178573Y-112957419D02*
X200178573Y-111957419D01*
X200178573Y-112909800D02*
X200083335Y-112957419D01*
X200083335Y-112957419D02*
X199892859Y-112957419D01*
X199892859Y-112957419D02*
X199797621Y-112909800D01*
X199797621Y-112909800D02*
X199750002Y-112862180D01*
X199750002Y-112862180D02*
X199702383Y-112766942D01*
X199702383Y-112766942D02*
X199702383Y-112481228D01*
X199702383Y-112481228D02*
X199750002Y-112385990D01*
X199750002Y-112385990D02*
X199797621Y-112338371D01*
X199797621Y-112338371D02*
X199892859Y-112290752D01*
X199892859Y-112290752D02*
X200083335Y-112290752D01*
X200083335Y-112290752D02*
X200178573Y-112338371D01*
X200654764Y-112957419D02*
X200654764Y-112290752D01*
X200654764Y-112481228D02*
X200702383Y-112385990D01*
X200702383Y-112385990D02*
X200750002Y-112338371D01*
X200750002Y-112338371D02*
X200845240Y-112290752D01*
X200845240Y-112290752D02*
X200940478Y-112290752D01*
X201702383Y-112957419D02*
X201702383Y-112433609D01*
X201702383Y-112433609D02*
X201654764Y-112338371D01*
X201654764Y-112338371D02*
X201559526Y-112290752D01*
X201559526Y-112290752D02*
X201369050Y-112290752D01*
X201369050Y-112290752D02*
X201273812Y-112338371D01*
X201702383Y-112909800D02*
X201607145Y-112957419D01*
X201607145Y-112957419D02*
X201369050Y-112957419D01*
X201369050Y-112957419D02*
X201273812Y-112909800D01*
X201273812Y-112909800D02*
X201226193Y-112814561D01*
X201226193Y-112814561D02*
X201226193Y-112719323D01*
X201226193Y-112719323D02*
X201273812Y-112624085D01*
X201273812Y-112624085D02*
X201369050Y-112576466D01*
X201369050Y-112576466D02*
X201607145Y-112576466D01*
X201607145Y-112576466D02*
X201702383Y-112528847D01*
X202178574Y-112957419D02*
X202178574Y-112290752D01*
X202178574Y-111957419D02*
X202130955Y-112005038D01*
X202130955Y-112005038D02*
X202178574Y-112052657D01*
X202178574Y-112052657D02*
X202226193Y-112005038D01*
X202226193Y-112005038D02*
X202178574Y-111957419D01*
X202178574Y-111957419D02*
X202178574Y-112052657D01*
X202654764Y-112290752D02*
X202654764Y-112957419D01*
X202654764Y-112385990D02*
X202702383Y-112338371D01*
X202702383Y-112338371D02*
X202797621Y-112290752D01*
X202797621Y-112290752D02*
X202940478Y-112290752D01*
X202940478Y-112290752D02*
X203035716Y-112338371D01*
X203035716Y-112338371D02*
X203083335Y-112433609D01*
X203083335Y-112433609D02*
X203083335Y-112957419D01*
X194892858Y-33790752D02*
X195083334Y-34457419D01*
X195083334Y-34457419D02*
X195273810Y-33981228D01*
X195273810Y-33981228D02*
X195464286Y-34457419D01*
X195464286Y-34457419D02*
X195654762Y-33790752D01*
X196464286Y-34457419D02*
X196464286Y-33933609D01*
X196464286Y-33933609D02*
X196416667Y-33838371D01*
X196416667Y-33838371D02*
X196321429Y-33790752D01*
X196321429Y-33790752D02*
X196130953Y-33790752D01*
X196130953Y-33790752D02*
X196035715Y-33838371D01*
X196464286Y-34409800D02*
X196369048Y-34457419D01*
X196369048Y-34457419D02*
X196130953Y-34457419D01*
X196130953Y-34457419D02*
X196035715Y-34409800D01*
X196035715Y-34409800D02*
X195988096Y-34314561D01*
X195988096Y-34314561D02*
X195988096Y-34219323D01*
X195988096Y-34219323D02*
X196035715Y-34124085D01*
X196035715Y-34124085D02*
X196130953Y-34076466D01*
X196130953Y-34076466D02*
X196369048Y-34076466D01*
X196369048Y-34076466D02*
X196464286Y-34028847D01*
X196797620Y-33790752D02*
X197178572Y-33790752D01*
X196940477Y-33457419D02*
X196940477Y-34314561D01*
X196940477Y-34314561D02*
X196988096Y-34409800D01*
X196988096Y-34409800D02*
X197083334Y-34457419D01*
X197083334Y-34457419D02*
X197178572Y-34457419D01*
X197892858Y-34409800D02*
X197797620Y-34457419D01*
X197797620Y-34457419D02*
X197607144Y-34457419D01*
X197607144Y-34457419D02*
X197511906Y-34409800D01*
X197511906Y-34409800D02*
X197464287Y-34314561D01*
X197464287Y-34314561D02*
X197464287Y-33933609D01*
X197464287Y-33933609D02*
X197511906Y-33838371D01*
X197511906Y-33838371D02*
X197607144Y-33790752D01*
X197607144Y-33790752D02*
X197797620Y-33790752D01*
X197797620Y-33790752D02*
X197892858Y-33838371D01*
X197892858Y-33838371D02*
X197940477Y-33933609D01*
X197940477Y-33933609D02*
X197940477Y-34028847D01*
X197940477Y-34028847D02*
X197464287Y-34124085D01*
X198369049Y-34457419D02*
X198369049Y-33790752D01*
X198369049Y-33981228D02*
X198416668Y-33885990D01*
X198416668Y-33885990D02*
X198464287Y-33838371D01*
X198464287Y-33838371D02*
X198559525Y-33790752D01*
X198559525Y-33790752D02*
X198654763Y-33790752D01*
X200178573Y-34457419D02*
X200178573Y-33457419D01*
X200178573Y-34409800D02*
X200083335Y-34457419D01*
X200083335Y-34457419D02*
X199892859Y-34457419D01*
X199892859Y-34457419D02*
X199797621Y-34409800D01*
X199797621Y-34409800D02*
X199750002Y-34362180D01*
X199750002Y-34362180D02*
X199702383Y-34266942D01*
X199702383Y-34266942D02*
X199702383Y-33981228D01*
X199702383Y-33981228D02*
X199750002Y-33885990D01*
X199750002Y-33885990D02*
X199797621Y-33838371D01*
X199797621Y-33838371D02*
X199892859Y-33790752D01*
X199892859Y-33790752D02*
X200083335Y-33790752D01*
X200083335Y-33790752D02*
X200178573Y-33838371D01*
X200654764Y-34457419D02*
X200654764Y-33790752D01*
X200654764Y-33981228D02*
X200702383Y-33885990D01*
X200702383Y-33885990D02*
X200750002Y-33838371D01*
X200750002Y-33838371D02*
X200845240Y-33790752D01*
X200845240Y-33790752D02*
X200940478Y-33790752D01*
X201702383Y-34457419D02*
X201702383Y-33933609D01*
X201702383Y-33933609D02*
X201654764Y-33838371D01*
X201654764Y-33838371D02*
X201559526Y-33790752D01*
X201559526Y-33790752D02*
X201369050Y-33790752D01*
X201369050Y-33790752D02*
X201273812Y-33838371D01*
X201702383Y-34409800D02*
X201607145Y-34457419D01*
X201607145Y-34457419D02*
X201369050Y-34457419D01*
X201369050Y-34457419D02*
X201273812Y-34409800D01*
X201273812Y-34409800D02*
X201226193Y-34314561D01*
X201226193Y-34314561D02*
X201226193Y-34219323D01*
X201226193Y-34219323D02*
X201273812Y-34124085D01*
X201273812Y-34124085D02*
X201369050Y-34076466D01*
X201369050Y-34076466D02*
X201607145Y-34076466D01*
X201607145Y-34076466D02*
X201702383Y-34028847D01*
X202178574Y-34457419D02*
X202178574Y-33790752D01*
X202178574Y-33457419D02*
X202130955Y-33505038D01*
X202130955Y-33505038D02*
X202178574Y-33552657D01*
X202178574Y-33552657D02*
X202226193Y-33505038D01*
X202226193Y-33505038D02*
X202178574Y-33457419D01*
X202178574Y-33457419D02*
X202178574Y-33552657D01*
X202654764Y-33790752D02*
X202654764Y-34457419D01*
X202654764Y-33885990D02*
X202702383Y-33838371D01*
X202702383Y-33838371D02*
X202797621Y-33790752D01*
X202797621Y-33790752D02*
X202940478Y-33790752D01*
X202940478Y-33790752D02*
X203035716Y-33838371D01*
X203035716Y-33838371D02*
X203083335Y-33933609D01*
X203083335Y-33933609D02*
X203083335Y-34457419D01*
X91892858Y-121290752D02*
X92083334Y-121957419D01*
X92083334Y-121957419D02*
X92273810Y-121481228D01*
X92273810Y-121481228D02*
X92464286Y-121957419D01*
X92464286Y-121957419D02*
X92654762Y-121290752D01*
X93464286Y-121957419D02*
X93464286Y-121433609D01*
X93464286Y-121433609D02*
X93416667Y-121338371D01*
X93416667Y-121338371D02*
X93321429Y-121290752D01*
X93321429Y-121290752D02*
X93130953Y-121290752D01*
X93130953Y-121290752D02*
X93035715Y-121338371D01*
X93464286Y-121909800D02*
X93369048Y-121957419D01*
X93369048Y-121957419D02*
X93130953Y-121957419D01*
X93130953Y-121957419D02*
X93035715Y-121909800D01*
X93035715Y-121909800D02*
X92988096Y-121814561D01*
X92988096Y-121814561D02*
X92988096Y-121719323D01*
X92988096Y-121719323D02*
X93035715Y-121624085D01*
X93035715Y-121624085D02*
X93130953Y-121576466D01*
X93130953Y-121576466D02*
X93369048Y-121576466D01*
X93369048Y-121576466D02*
X93464286Y-121528847D01*
X93797620Y-121290752D02*
X94178572Y-121290752D01*
X93940477Y-120957419D02*
X93940477Y-121814561D01*
X93940477Y-121814561D02*
X93988096Y-121909800D01*
X93988096Y-121909800D02*
X94083334Y-121957419D01*
X94083334Y-121957419D02*
X94178572Y-121957419D01*
X94892858Y-121909800D02*
X94797620Y-121957419D01*
X94797620Y-121957419D02*
X94607144Y-121957419D01*
X94607144Y-121957419D02*
X94511906Y-121909800D01*
X94511906Y-121909800D02*
X94464287Y-121814561D01*
X94464287Y-121814561D02*
X94464287Y-121433609D01*
X94464287Y-121433609D02*
X94511906Y-121338371D01*
X94511906Y-121338371D02*
X94607144Y-121290752D01*
X94607144Y-121290752D02*
X94797620Y-121290752D01*
X94797620Y-121290752D02*
X94892858Y-121338371D01*
X94892858Y-121338371D02*
X94940477Y-121433609D01*
X94940477Y-121433609D02*
X94940477Y-121528847D01*
X94940477Y-121528847D02*
X94464287Y-121624085D01*
X95369049Y-121957419D02*
X95369049Y-121290752D01*
X95369049Y-121481228D02*
X95416668Y-121385990D01*
X95416668Y-121385990D02*
X95464287Y-121338371D01*
X95464287Y-121338371D02*
X95559525Y-121290752D01*
X95559525Y-121290752D02*
X95654763Y-121290752D01*
X97178573Y-121957419D02*
X97178573Y-120957419D01*
X97178573Y-121909800D02*
X97083335Y-121957419D01*
X97083335Y-121957419D02*
X96892859Y-121957419D01*
X96892859Y-121957419D02*
X96797621Y-121909800D01*
X96797621Y-121909800D02*
X96750002Y-121862180D01*
X96750002Y-121862180D02*
X96702383Y-121766942D01*
X96702383Y-121766942D02*
X96702383Y-121481228D01*
X96702383Y-121481228D02*
X96750002Y-121385990D01*
X96750002Y-121385990D02*
X96797621Y-121338371D01*
X96797621Y-121338371D02*
X96892859Y-121290752D01*
X96892859Y-121290752D02*
X97083335Y-121290752D01*
X97083335Y-121290752D02*
X97178573Y-121338371D01*
X97654764Y-121957419D02*
X97654764Y-121290752D01*
X97654764Y-121481228D02*
X97702383Y-121385990D01*
X97702383Y-121385990D02*
X97750002Y-121338371D01*
X97750002Y-121338371D02*
X97845240Y-121290752D01*
X97845240Y-121290752D02*
X97940478Y-121290752D01*
X98702383Y-121957419D02*
X98702383Y-121433609D01*
X98702383Y-121433609D02*
X98654764Y-121338371D01*
X98654764Y-121338371D02*
X98559526Y-121290752D01*
X98559526Y-121290752D02*
X98369050Y-121290752D01*
X98369050Y-121290752D02*
X98273812Y-121338371D01*
X98702383Y-121909800D02*
X98607145Y-121957419D01*
X98607145Y-121957419D02*
X98369050Y-121957419D01*
X98369050Y-121957419D02*
X98273812Y-121909800D01*
X98273812Y-121909800D02*
X98226193Y-121814561D01*
X98226193Y-121814561D02*
X98226193Y-121719323D01*
X98226193Y-121719323D02*
X98273812Y-121624085D01*
X98273812Y-121624085D02*
X98369050Y-121576466D01*
X98369050Y-121576466D02*
X98607145Y-121576466D01*
X98607145Y-121576466D02*
X98702383Y-121528847D01*
X99178574Y-121957419D02*
X99178574Y-121290752D01*
X99178574Y-120957419D02*
X99130955Y-121005038D01*
X99130955Y-121005038D02*
X99178574Y-121052657D01*
X99178574Y-121052657D02*
X99226193Y-121005038D01*
X99226193Y-121005038D02*
X99178574Y-120957419D01*
X99178574Y-120957419D02*
X99178574Y-121052657D01*
X99654764Y-121290752D02*
X99654764Y-121957419D01*
X99654764Y-121385990D02*
X99702383Y-121338371D01*
X99702383Y-121338371D02*
X99797621Y-121290752D01*
X99797621Y-121290752D02*
X99940478Y-121290752D01*
X99940478Y-121290752D02*
X100035716Y-121338371D01*
X100035716Y-121338371D02*
X100083335Y-121433609D01*
X100083335Y-121433609D02*
X100083335Y-121957419D01*
%TO.C,REF\u002A\u002A*%
X102035716Y-34000000D02*
G75*
G02*
X101035716Y-34000000I-500000J0D01*
G01*
X101035716Y-34000000D02*
X101035756Y-33992254D01*
X101035876Y-33984468D01*
X101036076Y-33976642D01*
X101036357Y-33968775D01*
X101036720Y-33960868D01*
X101037164Y-33952918D01*
X101037690Y-33944927D01*
X101038299Y-33936894D01*
X101038992Y-33928817D01*
X101039768Y-33920698D01*
X101040629Y-33912536D01*
X101041574Y-33904330D01*
X101042605Y-33896079D01*
X101043721Y-33887785D01*
X101044925Y-33879445D01*
X101046215Y-33871060D01*
X101047593Y-33862630D01*
X101049059Y-33854154D01*
X101050614Y-33845632D01*
X101052259Y-33837063D01*
X101053994Y-33828448D01*
X101055820Y-33819786D01*
X101057737Y-33811076D01*
X101059746Y-33802319D01*
X101061848Y-33793514D01*
X101064044Y-33784661D01*
X101066333Y-33775760D01*
X101068718Y-33766810D01*
X101071198Y-33757812D01*
X101073774Y-33748764D01*
X101076447Y-33739668D01*
X101079217Y-33730522D01*
X101082086Y-33721327D01*
X101085054Y-33712082D01*
X101088121Y-33702788D01*
X101091288Y-33693444D01*
X101094557Y-33684050D01*
X101097927Y-33674606D01*
X101101400Y-33665112D01*
X101104976Y-33655569D01*
X101108655Y-33645975D01*
X101112439Y-33636332D01*
X101116328Y-33626638D01*
X101120323Y-33616896D01*
X101124424Y-33607103D01*
X101128632Y-33597261D01*
X101132947Y-33587370D01*
X101137371Y-33577430D01*
X101141904Y-33567441D01*
X101146546Y-33557404D01*
X101151298Y-33547318D01*
X101156160Y-33537185D01*
X101161133Y-33527004D01*
X101166218Y-33516777D01*
X101171414Y-33506503D01*
X101176723Y-33496184D01*
X101182144Y-33485819D01*
X101187678Y-33475410D01*
X101193325Y-33464958D01*
X101199085Y-33454462D01*
X101204960Y-33443925D01*
X101210947Y-33433346D01*
X101217049Y-33422728D01*
X101223264Y-33412071D01*
X101229593Y-33401377D01*
X101236036Y-33390646D01*
X101242592Y-33379881D01*
X101249260Y-33369083D01*
X101256041Y-33358253D01*
X101262934Y-33347394D01*
X101269938Y-33336508D01*
X101277053Y-33325596D01*
X101284277Y-33314662D01*
X101291609Y-33303707D01*
X101299048Y-33292734D01*
X101306592Y-33281747D01*
X101314239Y-33270749D01*
X101321988Y-33259743D01*
X101329836Y-33248733D01*
X101337781Y-33237723D01*
X101345819Y-33226719D01*
X101353947Y-33215724D01*
X101362161Y-33204745D01*
X101370457Y-33193788D01*
X101378830Y-33182859D01*
X101387274Y-33171966D01*
X101395783Y-33161118D01*
X101404349Y-33150322D01*
X101412964Y-33139590D01*
X101421619Y-33128934D01*
X101430301Y-33118367D01*
X101438998Y-33107903D01*
X101447695Y-33097560D01*
X101456374Y-33087358D01*
X101465013Y-33077322D01*
X101473587Y-33067478D01*
X101482063Y-33057862D01*
X101490402Y-33048515D01*
X101498553Y-33039490D01*
X101506450Y-33030857D01*
X101513999Y-33022711D01*
X101521064Y-33015189D01*
X101527426Y-33008512D01*
X101532669Y-33003095D01*
X101535716Y-33000000D01*
X102035716Y-34000000D02*
X102035676Y-33992254D01*
X102035556Y-33984468D01*
X102035356Y-33976642D01*
X102035075Y-33968775D01*
X102034712Y-33960868D01*
X102034268Y-33952918D01*
X102033742Y-33944927D01*
X102033133Y-33936894D01*
X102032440Y-33928817D01*
X102031664Y-33920698D01*
X102030803Y-33912536D01*
X102029858Y-33904330D01*
X102028827Y-33896079D01*
X102027711Y-33887785D01*
X102026507Y-33879445D01*
X102025217Y-33871060D01*
X102023839Y-33862630D01*
X102022373Y-33854154D01*
X102020818Y-33845632D01*
X102019173Y-33837063D01*
X102017438Y-33828448D01*
X102015612Y-33819786D01*
X102013695Y-33811076D01*
X102011686Y-33802319D01*
X102009584Y-33793514D01*
X102007388Y-33784661D01*
X102005099Y-33775760D01*
X102002714Y-33766810D01*
X102000234Y-33757812D01*
X101997658Y-33748764D01*
X101994985Y-33739668D01*
X101992215Y-33730522D01*
X101989346Y-33721327D01*
X101986378Y-33712082D01*
X101983311Y-33702788D01*
X101980144Y-33693444D01*
X101976875Y-33684050D01*
X101973505Y-33674606D01*
X101970032Y-33665112D01*
X101966456Y-33655569D01*
X101962777Y-33645975D01*
X101958993Y-33636332D01*
X101955104Y-33626638D01*
X101951109Y-33616896D01*
X101947008Y-33607103D01*
X101942800Y-33597261D01*
X101938485Y-33587370D01*
X101934061Y-33577430D01*
X101929528Y-33567441D01*
X101924886Y-33557404D01*
X101920134Y-33547318D01*
X101915272Y-33537185D01*
X101910299Y-33527004D01*
X101905214Y-33516777D01*
X101900018Y-33506503D01*
X101894709Y-33496184D01*
X101889288Y-33485819D01*
X101883754Y-33475410D01*
X101878107Y-33464958D01*
X101872347Y-33454462D01*
X101866472Y-33443925D01*
X101860485Y-33433346D01*
X101854383Y-33422728D01*
X101848168Y-33412071D01*
X101841839Y-33401377D01*
X101835396Y-33390646D01*
X101828840Y-33379881D01*
X101822172Y-33369083D01*
X101815391Y-33358253D01*
X101808498Y-33347394D01*
X101801494Y-33336508D01*
X101794379Y-33325596D01*
X101787155Y-33314662D01*
X101779823Y-33303707D01*
X101772384Y-33292734D01*
X101764840Y-33281747D01*
X101757193Y-33270749D01*
X101749444Y-33259743D01*
X101741596Y-33248733D01*
X101733651Y-33237723D01*
X101725613Y-33226719D01*
X101717485Y-33215724D01*
X101709271Y-33204745D01*
X101700975Y-33193788D01*
X101692602Y-33182859D01*
X101684158Y-33171966D01*
X101675649Y-33161118D01*
X101667083Y-33150322D01*
X101658468Y-33139590D01*
X101649813Y-33128934D01*
X101641131Y-33118367D01*
X101632434Y-33107903D01*
X101623737Y-33097560D01*
X101615058Y-33087358D01*
X101606419Y-33077322D01*
X101597845Y-33067478D01*
X101589369Y-33057862D01*
X101581030Y-33048515D01*
X101572879Y-33039490D01*
X101564982Y-33030857D01*
X101557433Y-33022711D01*
X101550368Y-33015189D01*
X101544006Y-33008512D01*
X101538763Y-33003095D01*
X101535716Y-33000000D01*
X205035716Y-112500000D02*
G75*
G02*
X204035716Y-112500000I-500000J0D01*
G01*
X204035716Y-112500000D02*
X204035756Y-112492254D01*
X204035876Y-112484468D01*
X204036076Y-112476642D01*
X204036357Y-112468775D01*
X204036720Y-112460868D01*
X204037164Y-112452918D01*
X204037690Y-112444927D01*
X204038299Y-112436894D01*
X204038992Y-112428817D01*
X204039768Y-112420698D01*
X204040629Y-112412536D01*
X204041574Y-112404330D01*
X204042605Y-112396079D01*
X204043721Y-112387785D01*
X204044925Y-112379445D01*
X204046215Y-112371060D01*
X204047593Y-112362630D01*
X204049059Y-112354154D01*
X204050614Y-112345632D01*
X204052259Y-112337063D01*
X204053994Y-112328448D01*
X204055820Y-112319786D01*
X204057737Y-112311076D01*
X204059746Y-112302319D01*
X204061848Y-112293514D01*
X204064044Y-112284661D01*
X204066333Y-112275760D01*
X204068718Y-112266810D01*
X204071198Y-112257812D01*
X204073774Y-112248764D01*
X204076447Y-112239668D01*
X204079217Y-112230522D01*
X204082086Y-112221327D01*
X204085054Y-112212082D01*
X204088121Y-112202788D01*
X204091288Y-112193444D01*
X204094557Y-112184050D01*
X204097927Y-112174606D01*
X204101400Y-112165112D01*
X204104976Y-112155569D01*
X204108655Y-112145975D01*
X204112439Y-112136332D01*
X204116328Y-112126638D01*
X204120323Y-112116896D01*
X204124424Y-112107103D01*
X204128632Y-112097261D01*
X204132947Y-112087370D01*
X204137371Y-112077430D01*
X204141904Y-112067441D01*
X204146546Y-112057404D01*
X204151298Y-112047318D01*
X204156160Y-112037185D01*
X204161133Y-112027004D01*
X204166218Y-112016777D01*
X204171414Y-112006503D01*
X204176723Y-111996184D01*
X204182144Y-111985819D01*
X204187678Y-111975410D01*
X204193325Y-111964958D01*
X204199085Y-111954462D01*
X204204960Y-111943925D01*
X204210947Y-111933346D01*
X204217049Y-111922728D01*
X204223264Y-111912071D01*
X204229593Y-111901377D01*
X204236036Y-111890646D01*
X204242592Y-111879881D01*
X204249260Y-111869083D01*
X204256041Y-111858253D01*
X204262934Y-111847394D01*
X204269938Y-111836508D01*
X204277053Y-111825596D01*
X204284277Y-111814662D01*
X204291609Y-111803707D01*
X204299048Y-111792734D01*
X204306592Y-111781747D01*
X204314239Y-111770749D01*
X204321988Y-111759743D01*
X204329836Y-111748733D01*
X204337781Y-111737723D01*
X204345819Y-111726719D01*
X204353947Y-111715724D01*
X204362161Y-111704745D01*
X204370457Y-111693788D01*
X204378830Y-111682859D01*
X204387274Y-111671966D01*
X204395783Y-111661118D01*
X204404349Y-111650322D01*
X204412964Y-111639590D01*
X204421619Y-111628934D01*
X204430301Y-111618367D01*
X204438998Y-111607903D01*
X204447695Y-111597560D01*
X204456374Y-111587358D01*
X204465013Y-111577322D01*
X204473587Y-111567478D01*
X204482063Y-111557862D01*
X204490402Y-111548515D01*
X204498553Y-111539490D01*
X204506450Y-111530857D01*
X204513999Y-111522711D01*
X204521064Y-111515189D01*
X204527426Y-111508512D01*
X204532669Y-111503095D01*
X204535716Y-111500000D01*
X205035716Y-112500000D02*
X205035676Y-112492254D01*
X205035556Y-112484468D01*
X205035356Y-112476642D01*
X205035075Y-112468775D01*
X205034712Y-112460868D01*
X205034268Y-112452918D01*
X205033742Y-112444927D01*
X205033133Y-112436894D01*
X205032440Y-112428817D01*
X205031664Y-112420698D01*
X205030803Y-112412536D01*
X205029858Y-112404330D01*
X205028827Y-112396079D01*
X205027711Y-112387785D01*
X205026507Y-112379445D01*
X205025217Y-112371060D01*
X205023839Y-112362630D01*
X205022373Y-112354154D01*
X205020818Y-112345632D01*
X205019173Y-112337063D01*
X205017438Y-112328448D01*
X205015612Y-112319786D01*
X205013695Y-112311076D01*
X205011686Y-112302319D01*
X205009584Y-112293514D01*
X205007388Y-112284661D01*
X205005099Y-112275760D01*
X205002714Y-112266810D01*
X205000234Y-112257812D01*
X204997658Y-112248764D01*
X204994985Y-112239668D01*
X204992215Y-112230522D01*
X204989346Y-112221327D01*
X204986378Y-112212082D01*
X204983311Y-112202788D01*
X204980144Y-112193444D01*
X204976875Y-112184050D01*
X204973505Y-112174606D01*
X204970032Y-112165112D01*
X204966456Y-112155569D01*
X204962777Y-112145975D01*
X204958993Y-112136332D01*
X204955104Y-112126638D01*
X204951109Y-112116896D01*
X204947008Y-112107103D01*
X204942800Y-112097261D01*
X204938485Y-112087370D01*
X204934061Y-112077430D01*
X204929528Y-112067441D01*
X204924886Y-112057404D01*
X204920134Y-112047318D01*
X204915272Y-112037185D01*
X204910299Y-112027004D01*
X204905214Y-112016777D01*
X204900018Y-112006503D01*
X204894709Y-111996184D01*
X204889288Y-111985819D01*
X204883754Y-111975410D01*
X204878107Y-111964958D01*
X204872347Y-111954462D01*
X204866472Y-111943925D01*
X204860485Y-111933346D01*
X204854383Y-111922728D01*
X204848168Y-111912071D01*
X204841839Y-111901377D01*
X204835396Y-111890646D01*
X204828840Y-111879881D01*
X204822172Y-111869083D01*
X204815391Y-111858253D01*
X204808498Y-111847394D01*
X204801494Y-111836508D01*
X204794379Y-111825596D01*
X204787155Y-111814662D01*
X204779823Y-111803707D01*
X204772384Y-111792734D01*
X204764840Y-111781747D01*
X204757193Y-111770749D01*
X204749444Y-111759743D01*
X204741596Y-111748733D01*
X204733651Y-111737723D01*
X204725613Y-111726719D01*
X204717485Y-111715724D01*
X204709271Y-111704745D01*
X204700975Y-111693788D01*
X204692602Y-111682859D01*
X204684158Y-111671966D01*
X204675649Y-111661118D01*
X204667083Y-111650322D01*
X204658468Y-111639590D01*
X204649813Y-111628934D01*
X204641131Y-111618367D01*
X204632434Y-111607903D01*
X204623737Y-111597560D01*
X204615058Y-111587358D01*
X204606419Y-111577322D01*
X204597845Y-111567478D01*
X204589369Y-111557862D01*
X204581030Y-111548515D01*
X204572879Y-111539490D01*
X204564982Y-111530857D01*
X204557433Y-111522711D01*
X204550368Y-111515189D01*
X204544006Y-111508512D01*
X204538763Y-111503095D01*
X204535716Y-111500000D01*
X205035716Y-34000000D02*
G75*
G02*
X204035716Y-34000000I-500000J0D01*
G01*
X204035716Y-34000000D02*
X204035756Y-33992254D01*
X204035876Y-33984468D01*
X204036076Y-33976642D01*
X204036357Y-33968775D01*
X204036720Y-33960868D01*
X204037164Y-33952918D01*
X204037690Y-33944927D01*
X204038299Y-33936894D01*
X204038992Y-33928817D01*
X204039768Y-33920698D01*
X204040629Y-33912536D01*
X204041574Y-33904330D01*
X204042605Y-33896079D01*
X204043721Y-33887785D01*
X204044925Y-33879445D01*
X204046215Y-33871060D01*
X204047593Y-33862630D01*
X204049059Y-33854154D01*
X204050614Y-33845632D01*
X204052259Y-33837063D01*
X204053994Y-33828448D01*
X204055820Y-33819786D01*
X204057737Y-33811076D01*
X204059746Y-33802319D01*
X204061848Y-33793514D01*
X204064044Y-33784661D01*
X204066333Y-33775760D01*
X204068718Y-33766810D01*
X204071198Y-33757812D01*
X204073774Y-33748764D01*
X204076447Y-33739668D01*
X204079217Y-33730522D01*
X204082086Y-33721327D01*
X204085054Y-33712082D01*
X204088121Y-33702788D01*
X204091288Y-33693444D01*
X204094557Y-33684050D01*
X204097927Y-33674606D01*
X204101400Y-33665112D01*
X204104976Y-33655569D01*
X204108655Y-33645975D01*
X204112439Y-33636332D01*
X204116328Y-33626638D01*
X204120323Y-33616896D01*
X204124424Y-33607103D01*
X204128632Y-33597261D01*
X204132947Y-33587370D01*
X204137371Y-33577430D01*
X204141904Y-33567441D01*
X204146546Y-33557404D01*
X204151298Y-33547318D01*
X204156160Y-33537185D01*
X204161133Y-33527004D01*
X204166218Y-33516777D01*
X204171414Y-33506503D01*
X204176723Y-33496184D01*
X204182144Y-33485819D01*
X204187678Y-33475410D01*
X204193325Y-33464958D01*
X204199085Y-33454462D01*
X204204960Y-33443925D01*
X204210947Y-33433346D01*
X204217049Y-33422728D01*
X204223264Y-33412071D01*
X204229593Y-33401377D01*
X204236036Y-33390646D01*
X204242592Y-33379881D01*
X204249260Y-33369083D01*
X204256041Y-33358253D01*
X204262934Y-33347394D01*
X204269938Y-33336508D01*
X204277053Y-33325596D01*
X204284277Y-33314662D01*
X204291609Y-33303707D01*
X204299048Y-33292734D01*
X204306592Y-33281747D01*
X204314239Y-33270749D01*
X204321988Y-33259743D01*
X204329836Y-33248733D01*
X204337781Y-33237723D01*
X204345819Y-33226719D01*
X204353947Y-33215724D01*
X204362161Y-33204745D01*
X204370457Y-33193788D01*
X204378830Y-33182859D01*
X204387274Y-33171966D01*
X204395783Y-33161118D01*
X204404349Y-33150322D01*
X204412964Y-33139590D01*
X204421619Y-33128934D01*
X204430301Y-33118367D01*
X204438998Y-33107903D01*
X204447695Y-33097560D01*
X204456374Y-33087358D01*
X204465013Y-33077322D01*
X204473587Y-33067478D01*
X204482063Y-33057862D01*
X204490402Y-33048515D01*
X204498553Y-33039490D01*
X204506450Y-33030857D01*
X204513999Y-33022711D01*
X204521064Y-33015189D01*
X204527426Y-33008512D01*
X204532669Y-33003095D01*
X204535716Y-33000000D01*
X205035716Y-34000000D02*
X205035676Y-33992254D01*
X205035556Y-33984468D01*
X205035356Y-33976642D01*
X205035075Y-33968775D01*
X205034712Y-33960868D01*
X205034268Y-33952918D01*
X205033742Y-33944927D01*
X205033133Y-33936894D01*
X205032440Y-33928817D01*
X205031664Y-33920698D01*
X205030803Y-33912536D01*
X205029858Y-33904330D01*
X205028827Y-33896079D01*
X205027711Y-33887785D01*
X205026507Y-33879445D01*
X205025217Y-33871060D01*
X205023839Y-33862630D01*
X205022373Y-33854154D01*
X205020818Y-33845632D01*
X205019173Y-33837063D01*
X205017438Y-33828448D01*
X205015612Y-33819786D01*
X205013695Y-33811076D01*
X205011686Y-33802319D01*
X205009584Y-33793514D01*
X205007388Y-33784661D01*
X205005099Y-33775760D01*
X205002714Y-33766810D01*
X205000234Y-33757812D01*
X204997658Y-33748764D01*
X204994985Y-33739668D01*
X204992215Y-33730522D01*
X204989346Y-33721327D01*
X204986378Y-33712082D01*
X204983311Y-33702788D01*
X204980144Y-33693444D01*
X204976875Y-33684050D01*
X204973505Y-33674606D01*
X204970032Y-33665112D01*
X204966456Y-33655569D01*
X204962777Y-33645975D01*
X204958993Y-33636332D01*
X204955104Y-33626638D01*
X204951109Y-33616896D01*
X204947008Y-33607103D01*
X204942800Y-33597261D01*
X204938485Y-33587370D01*
X204934061Y-33577430D01*
X204929528Y-33567441D01*
X204924886Y-33557404D01*
X204920134Y-33547318D01*
X204915272Y-33537185D01*
X204910299Y-33527004D01*
X204905214Y-33516777D01*
X204900018Y-33506503D01*
X204894709Y-33496184D01*
X204889288Y-33485819D01*
X204883754Y-33475410D01*
X204878107Y-33464958D01*
X204872347Y-33454462D01*
X204866472Y-33443925D01*
X204860485Y-33433346D01*
X204854383Y-33422728D01*
X204848168Y-33412071D01*
X204841839Y-33401377D01*
X204835396Y-33390646D01*
X204828840Y-33379881D01*
X204822172Y-33369083D01*
X204815391Y-33358253D01*
X204808498Y-33347394D01*
X204801494Y-33336508D01*
X204794379Y-33325596D01*
X204787155Y-33314662D01*
X204779823Y-33303707D01*
X204772384Y-33292734D01*
X204764840Y-33281747D01*
X204757193Y-33270749D01*
X204749444Y-33259743D01*
X204741596Y-33248733D01*
X204733651Y-33237723D01*
X204725613Y-33226719D01*
X204717485Y-33215724D01*
X204709271Y-33204745D01*
X204700975Y-33193788D01*
X204692602Y-33182859D01*
X204684158Y-33171966D01*
X204675649Y-33161118D01*
X204667083Y-33150322D01*
X204658468Y-33139590D01*
X204649813Y-33128934D01*
X204641131Y-33118367D01*
X204632434Y-33107903D01*
X204623737Y-33097560D01*
X204615058Y-33087358D01*
X204606419Y-33077322D01*
X204597845Y-33067478D01*
X204589369Y-33057862D01*
X204581030Y-33048515D01*
X204572879Y-33039490D01*
X204564982Y-33030857D01*
X204557433Y-33022711D01*
X204550368Y-33015189D01*
X204544006Y-33008512D01*
X204538763Y-33003095D01*
X204535716Y-33000000D01*
X102035716Y-121500000D02*
G75*
G02*
X101035716Y-121500000I-500000J0D01*
G01*
X101035716Y-121500000D02*
X101035756Y-121492254D01*
X101035876Y-121484468D01*
X101036076Y-121476642D01*
X101036357Y-121468775D01*
X101036720Y-121460868D01*
X101037164Y-121452918D01*
X101037690Y-121444927D01*
X101038299Y-121436894D01*
X101038992Y-121428817D01*
X101039768Y-121420698D01*
X101040629Y-121412536D01*
X101041574Y-121404330D01*
X101042605Y-121396079D01*
X101043721Y-121387785D01*
X101044925Y-121379445D01*
X101046215Y-121371060D01*
X101047593Y-121362630D01*
X101049059Y-121354154D01*
X101050614Y-121345632D01*
X101052259Y-121337063D01*
X101053994Y-121328448D01*
X101055820Y-121319786D01*
X101057737Y-121311076D01*
X101059746Y-121302319D01*
X101061848Y-121293514D01*
X101064044Y-121284661D01*
X101066333Y-121275760D01*
X101068718Y-121266810D01*
X101071198Y-121257812D01*
X101073774Y-121248764D01*
X101076447Y-121239668D01*
X101079217Y-121230522D01*
X101082086Y-121221327D01*
X101085054Y-121212082D01*
X101088121Y-121202788D01*
X101091288Y-121193444D01*
X101094557Y-121184050D01*
X101097927Y-121174606D01*
X101101400Y-121165112D01*
X101104976Y-121155569D01*
X101108655Y-121145975D01*
X101112439Y-121136332D01*
X101116328Y-121126638D01*
X101120323Y-121116896D01*
X101124424Y-121107103D01*
X101128632Y-121097261D01*
X101132947Y-121087370D01*
X101137371Y-121077430D01*
X101141904Y-121067441D01*
X101146546Y-121057404D01*
X101151298Y-121047318D01*
X101156160Y-121037185D01*
X101161133Y-121027004D01*
X101166218Y-121016777D01*
X101171414Y-121006503D01*
X101176723Y-120996184D01*
X101182144Y-120985819D01*
X101187678Y-120975410D01*
X101193325Y-120964958D01*
X101199085Y-120954462D01*
X101204960Y-120943925D01*
X101210947Y-120933346D01*
X101217049Y-120922728D01*
X101223264Y-120912071D01*
X101229593Y-120901377D01*
X101236036Y-120890646D01*
X101242592Y-120879881D01*
X101249260Y-120869083D01*
X101256041Y-120858253D01*
X101262934Y-120847394D01*
X101269938Y-120836508D01*
X101277053Y-120825596D01*
X101284277Y-120814662D01*
X101291609Y-120803707D01*
X101299048Y-120792734D01*
X101306592Y-120781747D01*
X101314239Y-120770749D01*
X101321988Y-120759743D01*
X101329836Y-120748733D01*
X101337781Y-120737723D01*
X101345819Y-120726719D01*
X101353947Y-120715724D01*
X101362161Y-120704745D01*
X101370457Y-120693788D01*
X101378830Y-120682859D01*
X101387274Y-120671966D01*
X101395783Y-120661118D01*
X101404349Y-120650322D01*
X101412964Y-120639590D01*
X101421619Y-120628934D01*
X101430301Y-120618367D01*
X101438998Y-120607903D01*
X101447695Y-120597560D01*
X101456374Y-120587358D01*
X101465013Y-120577322D01*
X101473587Y-120567478D01*
X101482063Y-120557862D01*
X101490402Y-120548515D01*
X101498553Y-120539490D01*
X101506450Y-120530857D01*
X101513999Y-120522711D01*
X101521064Y-120515189D01*
X101527426Y-120508512D01*
X101532669Y-120503095D01*
X101535716Y-120500000D01*
X102035716Y-121500000D02*
X102035676Y-121492254D01*
X102035556Y-121484468D01*
X102035356Y-121476642D01*
X102035075Y-121468775D01*
X102034712Y-121460868D01*
X102034268Y-121452918D01*
X102033742Y-121444927D01*
X102033133Y-121436894D01*
X102032440Y-121428817D01*
X102031664Y-121420698D01*
X102030803Y-121412536D01*
X102029858Y-121404330D01*
X102028827Y-121396079D01*
X102027711Y-121387785D01*
X102026507Y-121379445D01*
X102025217Y-121371060D01*
X102023839Y-121362630D01*
X102022373Y-121354154D01*
X102020818Y-121345632D01*
X102019173Y-121337063D01*
X102017438Y-121328448D01*
X102015612Y-121319786D01*
X102013695Y-121311076D01*
X102011686Y-121302319D01*
X102009584Y-121293514D01*
X102007388Y-121284661D01*
X102005099Y-121275760D01*
X102002714Y-121266810D01*
X102000234Y-121257812D01*
X101997658Y-121248764D01*
X101994985Y-121239668D01*
X101992215Y-121230522D01*
X101989346Y-121221327D01*
X101986378Y-121212082D01*
X101983311Y-121202788D01*
X101980144Y-121193444D01*
X101976875Y-121184050D01*
X101973505Y-121174606D01*
X101970032Y-121165112D01*
X101966456Y-121155569D01*
X101962777Y-121145975D01*
X101958993Y-121136332D01*
X101955104Y-121126638D01*
X101951109Y-121116896D01*
X101947008Y-121107103D01*
X101942800Y-121097261D01*
X101938485Y-121087370D01*
X101934061Y-121077430D01*
X101929528Y-121067441D01*
X101924886Y-121057404D01*
X101920134Y-121047318D01*
X101915272Y-121037185D01*
X101910299Y-121027004D01*
X101905214Y-121016777D01*
X101900018Y-121006503D01*
X101894709Y-120996184D01*
X101889288Y-120985819D01*
X101883754Y-120975410D01*
X101878107Y-120964958D01*
X101872347Y-120954462D01*
X101866472Y-120943925D01*
X101860485Y-120933346D01*
X101854383Y-120922728D01*
X101848168Y-120912071D01*
X101841839Y-120901377D01*
X101835396Y-120890646D01*
X101828840Y-120879881D01*
X101822172Y-120869083D01*
X101815391Y-120858253D01*
X101808498Y-120847394D01*
X101801494Y-120836508D01*
X101794379Y-120825596D01*
X101787155Y-120814662D01*
X101779823Y-120803707D01*
X101772384Y-120792734D01*
X101764840Y-120781747D01*
X101757193Y-120770749D01*
X101749444Y-120759743D01*
X101741596Y-120748733D01*
X101733651Y-120737723D01*
X101725613Y-120726719D01*
X101717485Y-120715724D01*
X101709271Y-120704745D01*
X101700975Y-120693788D01*
X101692602Y-120682859D01*
X101684158Y-120671966D01*
X101675649Y-120661118D01*
X101667083Y-120650322D01*
X101658468Y-120639590D01*
X101649813Y-120628934D01*
X101641131Y-120618367D01*
X101632434Y-120607903D01*
X101623737Y-120597560D01*
X101615058Y-120587358D01*
X101606419Y-120577322D01*
X101597845Y-120567478D01*
X101589369Y-120557862D01*
X101581030Y-120548515D01*
X101572879Y-120539490D01*
X101564982Y-120530857D01*
X101557433Y-120522711D01*
X101550368Y-120515189D01*
X101544006Y-120508512D01*
X101538763Y-120503095D01*
X101535716Y-120500000D01*
%TD*%
%LPC*%
D12*
%TO.C,REF\u002A\u002A*%
X196000000Y-114500000D02*
X204000000Y-114500000D01*
X204000000Y-118500000D02*
X196000000Y-118500000D01*
X196000000Y-118500000D02*
G75*
G02*
X196000000Y-114500000I0J2000000D01*
G01*
X204000000Y-114500000D02*
G75*
G02*
X204000000Y-118500000I0J-2000000D01*
G01*
X93000000Y-123500000D02*
X101000000Y-123500000D01*
X101000000Y-127500000D02*
X93000000Y-127500000D01*
X93000000Y-127500000D02*
G75*
G02*
X93000000Y-123500000I0J2000000D01*
G01*
X101000000Y-123500000D02*
G75*
G02*
X101000000Y-127500000I0J-2000000D01*
G01*
X196000000Y-36000000D02*
X204000000Y-36000000D01*
X204000000Y-40000000D02*
X196000000Y-40000000D01*
X196000000Y-40000000D02*
G75*
G02*
X196000000Y-36000000I0J2000000D01*
G01*
X204000000Y-36000000D02*
G75*
G02*
X204000000Y-40000000I0J-2000000D01*
G01*
X93000000Y-36000000D02*
X101000000Y-36000000D01*
X101000000Y-40000000D02*
X93000000Y-40000000D01*
X93000000Y-40000000D02*
G75*
G02*
X93000000Y-36000000I0J2000000D01*
G01*
X101000000Y-36000000D02*
G75*
G02*
X101000000Y-40000000I0J-2000000D01*
G01*
%TD*%
%LPD*%
M02*
