%TF.GenerationSoftware,KiCad,Pcbnew,9.0.4*%
%TF.CreationDate,2026-03-23T18:26:35+09:00*%
%TF.ProjectId,dasic,64617369-632e-46b6-9963-61645f706362,rev?*%
%TF.SameCoordinates,Original*%
%TF.FileFunction,Paste,Top*%
%TF.FilePolarity,Positive*%
%FSLAX46Y46*%
G04 Gerber Fmt 4.6, Leading zero omitted, Abs format (unit mm)*
G04 Created by KiCad (PCBNEW 9.0.4) date 2026-03-23 18:26:35*
%MOMM*%
%LPD*%
G01*
G04 APERTURE LIST*
%ADD10C,3.000000*%
%ADD11R,1.400000X0.940000*%
%ADD12R,1.000000X1.700000*%
%ADD13C,1.000000*%
G04 APERTURE END LIST*
D10*
%TO.C,SW29*%
X122305153Y-114924318D03*
X128999748Y-116323064D03*
%TD*%
D11*
%TO.C,D13*%
X70725001Y-106999998D03*
X74275001Y-107000002D03*
%TD*%
D10*
%TO.C,SW24*%
X163959999Y-91420000D03*
X170309999Y-93960000D03*
%TD*%
%TO.C,SW19*%
X192459999Y-72419999D03*
X198809999Y-74959999D03*
%TD*%
%TO.C,SW26*%
X201960000Y-91420000D03*
X208310000Y-93960000D03*
%TD*%
%TO.C,SW11*%
X163960000Y-53420000D03*
X170310000Y-55960000D03*
%TD*%
D11*
%TO.C,D1*%
X70725000Y-76999998D03*
X74275000Y-77000002D03*
%TD*%
D10*
%TO.C,SW13*%
X201960000Y-53420000D03*
X208310000Y-55960000D03*
%TD*%
D11*
%TO.C,D9*%
X70724999Y-96999998D03*
X74274999Y-97000002D03*
%TD*%
%TO.C,D15*%
X70725002Y-111999997D03*
X74275002Y-112000001D03*
%TD*%
%TO.C,D11*%
X70724999Y-101999997D03*
X74274999Y-102000001D03*
%TD*%
%TO.C,D18*%
X70724999Y-119499996D03*
X74274999Y-119500000D03*
%TD*%
D10*
%TO.C,SW27*%
X220960000Y-91420000D03*
X227310000Y-93960000D03*
%TD*%
D11*
%TO.C,D14*%
X70725001Y-109499997D03*
X74275001Y-109500001D03*
%TD*%
%TO.C,D17*%
X70725002Y-116999996D03*
X74275002Y-117000000D03*
%TD*%
%TO.C,D2*%
X70725001Y-79499998D03*
X74275001Y-79500002D03*
%TD*%
%TO.C,D8*%
X70725001Y-94499998D03*
X74275001Y-94500002D03*
%TD*%
D12*
%TO.C,SW34*%
X79649999Y-67849999D03*
X79650002Y-74149999D03*
X75849998Y-67850001D03*
X75850001Y-74150001D03*
%TD*%
D10*
%TO.C,SW25*%
X182960000Y-91419998D03*
X189310000Y-93959998D03*
%TD*%
D11*
%TO.C,D16*%
X70725001Y-114499998D03*
X74275001Y-114500002D03*
%TD*%
D10*
%TO.C,SW17*%
X154460000Y-72420000D03*
X160810000Y-74960000D03*
%TD*%
D11*
%TO.C,D10*%
X70724996Y-99499996D03*
X74274996Y-99500000D03*
%TD*%
%TO.C,D7*%
X70724998Y-91999998D03*
X74274998Y-92000002D03*
%TD*%
D10*
%TO.C,SW6*%
X192460000Y-34419999D03*
X198810000Y-36959999D03*
%TD*%
%TO.C,SW23*%
X143735084Y-92524837D03*
X150282296Y-94501732D03*
%TD*%
%TO.C,SW28*%
X101254887Y-118636048D03*
X107949482Y-120034794D03*
%TD*%
%TO.C,SW8*%
X100343063Y-60917510D03*
X107037658Y-62316256D03*
%TD*%
%TO.C,SW15*%
X104869926Y-89729143D03*
X98175329Y-88330394D03*
%TD*%
%TO.C,SW1*%
X95566536Y-42466635D03*
X102261131Y-43865381D03*
%TD*%
%TO.C,SW2*%
X114277883Y-39167320D03*
X120972478Y-40566066D03*
%TD*%
D11*
%TO.C,D4*%
X70725000Y-84499997D03*
X74275000Y-84500001D03*
%TD*%
D10*
%TO.C,SW21*%
X109400247Y-108223430D03*
X102705652Y-106824684D03*
%TD*%
%TO.C,SW21*%
X111988833Y-97450258D03*
X118683428Y-98849004D03*
%TD*%
%TO.C,SW3*%
X134198935Y-34696858D03*
X140746147Y-36673753D03*
%TD*%
D11*
%TO.C,D6*%
X70725000Y-89499995D03*
X74275000Y-89499999D03*
%TD*%
D10*
%TO.C,SW5*%
X173460000Y-34420000D03*
X179810000Y-36960000D03*
%TD*%
D11*
%TO.C,D19*%
X70725001Y-121999995D03*
X74275001Y-121999999D03*
%TD*%
D10*
%TO.C,SW20*%
X211460000Y-72420001D03*
X217810000Y-74960001D03*
%TD*%
%TO.C,SW31*%
X188040002Y-120580001D03*
X181690001Y-118039997D03*
%TD*%
%TO.C,SW30*%
X169040000Y-120579999D03*
X162690000Y-118039999D03*
%TD*%
D11*
%TO.C,D20*%
X70725000Y-124499998D03*
X74275000Y-124500002D03*
%TD*%
D10*
%TO.C,SW18*%
X173460000Y-72419999D03*
X179810000Y-74959999D03*
%TD*%
%TO.C,SW15*%
X102780669Y-79780798D03*
X109475266Y-81179547D03*
%TD*%
D11*
%TO.C,D5*%
X70725001Y-86999996D03*
X74275001Y-87000000D03*
%TD*%
D10*
%TO.C,SW9*%
X123732247Y-56793366D03*
X130426842Y-58192112D03*
%TD*%
D11*
%TO.C,D12*%
X70725000Y-104499997D03*
X74275000Y-104500001D03*
%TD*%
D10*
%TO.C,SW22*%
X130450513Y-104511700D03*
X123755918Y-103112954D03*
%TD*%
%TO.C,SW7*%
X211460000Y-34420000D03*
X217810000Y-36960000D03*
%TD*%
%TO.C,SW12*%
X182960000Y-53419999D03*
X189310000Y-55959999D03*
%TD*%
%TO.C,SW4*%
X154460000Y-34420000D03*
X160810000Y-36960000D03*
%TD*%
%TO.C,SW10*%
X144960000Y-53420000D03*
X151310000Y-55960000D03*
%TD*%
D11*
%TO.C,D3*%
X70725001Y-81999996D03*
X74275001Y-82000000D03*
%TD*%
D10*
%TO.C,SW16*%
X133186611Y-74419412D03*
X139881206Y-75818158D03*
%TD*%
%TO.C,SW14*%
X220959999Y-53420000D03*
X227309999Y-55960000D03*
%TD*%
%TO.C,SW30*%
X166335004Y-110419995D03*
X172685000Y-112959999D03*
%TD*%
D11*
%TO.C,D28*%
X81975001Y-120749999D03*
X85525001Y-120749999D03*
%TD*%
%TO.C,D22*%
X81975002Y-105749999D03*
X85525002Y-105749999D03*
%TD*%
%TO.C,D29*%
X81975000Y-118250000D03*
X85525000Y-118250000D03*
%TD*%
D10*
%TO.C,SW32*%
X210685003Y-112959998D03*
X204335003Y-110419998D03*
%TD*%
D11*
%TO.C,D31*%
X81974994Y-113250003D03*
X85524994Y-113250003D03*
%TD*%
%TO.C,D25*%
X81975001Y-98250004D03*
X85525001Y-98250004D03*
%TD*%
%TO.C,D23*%
X81974998Y-103249997D03*
X85524998Y-103249997D03*
%TD*%
%TO.C,D21*%
X81974999Y-108249997D03*
X85524999Y-108249997D03*
%TD*%
%TO.C,D24*%
X81975000Y-100750000D03*
X85525000Y-100750000D03*
%TD*%
%TO.C,D26*%
X81974998Y-95750001D03*
X85524998Y-95750001D03*
%TD*%
D13*
%TO.C,U1*%
X83620000Y-32280000D03*
X68380000Y-32280000D03*
X83620000Y-34820000D03*
X68380000Y-34820000D03*
X83620000Y-37360000D03*
X68380000Y-37360000D03*
X83620000Y-39900000D03*
X68380000Y-39900000D03*
X83620000Y-42440000D03*
X68380000Y-42440000D03*
X83620000Y-44980000D03*
X68380000Y-44980000D03*
X83620000Y-47520000D03*
X68380000Y-47520000D03*
X83620000Y-50060000D03*
X68380000Y-50060000D03*
X83620000Y-52600000D03*
X68380000Y-52600000D03*
X83620000Y-55140000D03*
X68380000Y-55140000D03*
X83620000Y-57680000D03*
X68380000Y-57680000D03*
X83620000Y-60220000D03*
X68380000Y-60220000D03*
%TD*%
D11*
%TO.C,D30*%
X81974992Y-115749997D03*
X85524992Y-115749997D03*
%TD*%
%TO.C,D27*%
X81975002Y-93250001D03*
X85525002Y-93250001D03*
%TD*%
D10*
%TO.C,SW32*%
X210190000Y-118039999D03*
X216540000Y-120579999D03*
%TD*%
D11*
%TO.C,D32*%
X81974997Y-110750001D03*
X85524997Y-110750001D03*
%TD*%
M02*
