%TF.GenerationSoftware,KiCad,Pcbnew,9.0.4*%
%TF.CreationDate,2026-03-04T00:34:42+09:00*%
%TF.ProjectId,dasic,64617369-632e-46b6-9963-61645f706362,rev?*%
%TF.SameCoordinates,Original*%
%TF.FileFunction,Paste,Bot*%
%TF.FilePolarity,Positive*%
%FSLAX46Y46*%
G04 Gerber Fmt 4.6, Leading zero omitted, Abs format (unit mm)*
G04 Created by KiCad (PCBNEW 9.0.4) date 2026-03-04 00:34:42*
%MOMM*%
%LPD*%
G01*
G04 APERTURE LIST*
%ADD10C,3.000000*%
%ADD11R,1.400000X0.940000*%
%ADD12R,1.000000X1.700000*%
%ADD13C,1.600000*%
%ADD14R,1.600000X1.600000*%
G04 APERTURE END LIST*
D10*
%TO.C,SW29*%
X121495513Y-117646263D03*
X127307976Y-114042185D03*
%TD*%
D11*
%TO.C,D13*%
X70725001Y-106999998D03*
X74275001Y-107000002D03*
%TD*%
D10*
%TO.C,SW24*%
X162689999Y-93960000D03*
X169039999Y-91420000D03*
%TD*%
%TO.C,SW19*%
X191189999Y-74959999D03*
X197539999Y-72419999D03*
%TD*%
%TO.C,SW26*%
X200690000Y-93960000D03*
X207040000Y-91420000D03*
%TD*%
%TO.C,SW11*%
X162690000Y-55960000D03*
X169040000Y-53420000D03*
%TD*%
D11*
%TO.C,D1*%
X70725000Y-76999998D03*
X74275000Y-77000002D03*
%TD*%
D10*
%TO.C,SW13*%
X200690000Y-55960000D03*
X207040000Y-53420000D03*
%TD*%
D11*
%TO.C,D9*%
X70724999Y-96999998D03*
X74274999Y-97000002D03*
%TD*%
%TO.C,D15*%
X70725002Y-111999997D03*
X74275002Y-112000001D03*
%TD*%
%TO.C,D11*%
X70724999Y-101999997D03*
X74274999Y-102000001D03*
%TD*%
%TO.C,D18*%
X70724999Y-119499996D03*
X74274999Y-119500000D03*
%TD*%
D10*
%TO.C,SW27*%
X219690000Y-93960000D03*
X226040000Y-91420000D03*
%TD*%
D11*
%TO.C,D14*%
X70725001Y-109499997D03*
X74275001Y-109500001D03*
%TD*%
%TO.C,D17*%
X70725002Y-116999996D03*
X74275002Y-117000000D03*
%TD*%
%TO.C,D2*%
X70725001Y-79499998D03*
X74275001Y-79500002D03*
%TD*%
%TO.C,D8*%
X70725001Y-94499998D03*
X74275001Y-94500002D03*
%TD*%
D10*
%TO.C,SW25*%
X181690000Y-93959998D03*
X188040000Y-91419998D03*
%TD*%
D11*
%TO.C,D16*%
X70725001Y-114499998D03*
X74275001Y-114500002D03*
%TD*%
D10*
%TO.C,SW17*%
X153190000Y-74960000D03*
X159540000Y-72420000D03*
%TD*%
D11*
%TO.C,D10*%
X70724996Y-99499996D03*
X74274996Y-99500000D03*
%TD*%
%TO.C,D7*%
X70724998Y-91999998D03*
X74274998Y-92000002D03*
%TD*%
D10*
%TO.C,SW6*%
X191190000Y-36959999D03*
X197540000Y-34419999D03*
%TD*%
%TO.C,SW23*%
X142691293Y-95165859D03*
X148795753Y-92082085D03*
%TD*%
%TO.C,SW28*%
X100445247Y-121357993D03*
X106257710Y-117753915D03*
%TD*%
%TO.C,SW8*%
X99533423Y-63639455D03*
X105345886Y-60035377D03*
%TD*%
%TO.C,SW1*%
X94756896Y-45188580D03*
X100569359Y-41584502D03*
%TD*%
%TO.C,SW2*%
X113468243Y-41889265D03*
X119280706Y-38285187D03*
%TD*%
D11*
%TO.C,D4*%
X70725000Y-84499997D03*
X74275000Y-84500001D03*
%TD*%
D10*
%TO.C,SW21*%
X110209887Y-105501485D03*
X104397424Y-109105563D03*
%TD*%
%TO.C,SW21*%
X111179193Y-100172203D03*
X116991656Y-96568125D03*
%TD*%
%TO.C,SW3*%
X133155144Y-37337880D03*
X139259604Y-34254106D03*
%TD*%
D11*
%TO.C,D6*%
X70725000Y-89499995D03*
X74275000Y-89499999D03*
%TD*%
D10*
%TO.C,SW5*%
X172190000Y-36960000D03*
X178540000Y-34420000D03*
%TD*%
D11*
%TO.C,D19*%
X70725001Y-121999995D03*
X74275001Y-121999999D03*
%TD*%
D10*
%TO.C,SW20*%
X210190000Y-74960001D03*
X216540000Y-72420001D03*
%TD*%
%TO.C,SW31*%
X189310000Y-118039999D03*
X182960001Y-120579999D03*
%TD*%
D11*
%TO.C,D20*%
X70725000Y-124499998D03*
X74275000Y-124500002D03*
%TD*%
D10*
%TO.C,SW18*%
X172190000Y-74959999D03*
X178540000Y-72419999D03*
%TD*%
D11*
%TO.C,D5*%
X70725001Y-86999996D03*
X74275001Y-87000000D03*
%TD*%
D10*
%TO.C,SW9*%
X122922607Y-59515311D03*
X128735070Y-55911233D03*
%TD*%
D11*
%TO.C,D12*%
X70725000Y-104499997D03*
X74275000Y-104500001D03*
%TD*%
D10*
%TO.C,SW22*%
X131260153Y-101789755D03*
X125447690Y-105393833D03*
%TD*%
%TO.C,SW7*%
X210190000Y-36960000D03*
X216540000Y-34420000D03*
%TD*%
%TO.C,SW12*%
X181690000Y-55959999D03*
X188040000Y-53419999D03*
%TD*%
%TO.C,SW4*%
X153190000Y-36960000D03*
X159540000Y-34420000D03*
%TD*%
%TO.C,SW10*%
X143690000Y-55960000D03*
X150040000Y-53420000D03*
%TD*%
D11*
%TO.C,D3*%
X70725001Y-81999996D03*
X74275001Y-82000000D03*
%TD*%
D10*
%TO.C,SW16*%
X132376971Y-77141357D03*
X138189434Y-73537279D03*
%TD*%
%TO.C,SW14*%
X219689999Y-55960000D03*
X226039999Y-53420000D03*
%TD*%
D11*
%TO.C,D28*%
X81975001Y-120749999D03*
X85525001Y-120749999D03*
%TD*%
%TO.C,D22*%
X81975002Y-105749999D03*
X85525002Y-105749999D03*
%TD*%
D10*
%TO.C,SW30*%
X166335001Y-120579999D03*
X172685000Y-118039999D03*
%TD*%
D11*
%TO.C,D29*%
X81975000Y-118250000D03*
X85525000Y-118250000D03*
%TD*%
D10*
%TO.C,SW32*%
X209415003Y-110419998D03*
X203065003Y-112959998D03*
%TD*%
D11*
%TO.C,D31*%
X81974994Y-113250003D03*
X85524994Y-113250003D03*
%TD*%
%TO.C,D25*%
X81975001Y-98250004D03*
X85525001Y-98250004D03*
%TD*%
%TO.C,D23*%
X81974998Y-103249997D03*
X85524998Y-103249997D03*
%TD*%
D12*
%TO.C,SW34*%
X79650002Y-74149999D03*
X79649999Y-67849999D03*
X75850001Y-74150001D03*
X75849998Y-67850001D03*
%TD*%
D10*
%TO.C,SW15*%
X103105654Y-79723496D03*
X97293197Y-83327573D03*
%TD*%
D11*
%TO.C,D21*%
X81974999Y-108249997D03*
X85524999Y-108249997D03*
%TD*%
%TO.C,D24*%
X81975000Y-100750000D03*
X85525000Y-100750000D03*
%TD*%
%TO.C,D26*%
X81974998Y-95750001D03*
X85524998Y-95750001D03*
%TD*%
D13*
%TO.C,U1*%
X83620000Y-32280000D03*
X68380000Y-32280000D03*
D14*
X68380000Y-32280000D03*
D13*
X83620000Y-34820000D03*
X68380000Y-34820000D03*
X83620000Y-37360000D03*
X68380000Y-37360000D03*
X83620000Y-39900000D03*
X68380000Y-39900000D03*
X83620000Y-42440000D03*
X68380000Y-42440000D03*
X83620000Y-44980000D03*
X68380000Y-44980000D03*
X83620000Y-47520000D03*
X68380000Y-47520000D03*
X83620000Y-50060000D03*
X68380000Y-50060000D03*
X83620000Y-52600000D03*
X68380000Y-52600000D03*
X83620000Y-55140000D03*
X68380000Y-55140000D03*
X83620000Y-57680000D03*
X68380000Y-57680000D03*
X83620000Y-60220000D03*
X68380000Y-60220000D03*
%TD*%
D11*
%TO.C,D30*%
X81974992Y-115749997D03*
X85524992Y-115749997D03*
%TD*%
%TO.C,D27*%
X81975002Y-93250001D03*
X85525002Y-93250001D03*
%TD*%
D10*
%TO.C,SW30*%
X169040002Y-110419997D03*
X162690001Y-112960001D03*
%TD*%
%TO.C,SW32*%
X211460000Y-120579999D03*
X217810000Y-118039999D03*
%TD*%
%TO.C,SW15*%
X104544941Y-89786445D03*
X110357398Y-86182368D03*
%TD*%
D11*
%TO.C,D32*%
X81974997Y-110750001D03*
X85524997Y-110750001D03*
%TD*%
M02*
