M48
; DRILL file {KiCad 9.0.4} date 2026-03-23T18:25:57+0900
; FORMAT={-:-/ absolute / metric / decimal}
; #@! TF.CreationDate,2026-03-23T18:25:57+09:00
; #@! TF.GenerationSoftware,Kicad,Pcbnew,9.0.4
; #@! TF.FileFunction,Plated,1,2,PTH
FMAT,2
METRIC
; #@! TA.AperFunction,Plated,PTH,ViaDrill
T1C0.300
; #@! TA.AperFunction,Plated,PTH,ComponentDrill
T2C0.400
; #@! TA.AperFunction,Plated,PTH,ComponentDrill
T3C0.600
; #@! TA.AperFunction,Plated,PTH,ComponentDrill
T4C0.813
; #@! TA.AperFunction,Plated,PTH,ComponentDrill
T5C0.900
; #@! TA.AperFunction,Plated,PTH,ComponentDrill
T6C1.550
%
G90
G05
T1
X66.75Y-60.75
X67.0Y-29.0
X67.0Y-70.5
X67.0Y-126.5
X72.5Y-62.0
X73.5Y-40.0
X74.0Y-65.25
X75.0Y-65.25
X75.75Y-62.5
X76.0Y-65.25
X76.25Y-71.0
X76.75Y-62.5
X77.75Y-62.5
X78.25Y-93.25
X78.25Y-122.0
X78.25Y-124.5
X79.65Y-71.0
X80.0Y-77.0
X80.0Y-78.0
X80.0Y-79.0
X80.0Y-80.0
X80.0Y-81.0
X80.0Y-82.0
X80.0Y-83.0
X84.0Y-29.0
X85.0Y-126.5
X88.25Y-53.68
X88.25Y-49.68
X88.25Y-50.68
X88.25Y-51.68
X88.25Y-54.68
X88.25Y-52.68
X88.25Y-55.68
X90.0Y-94.5
X90.0Y-97.0
X90.0Y-99.5
X90.0Y-102.0
X90.0Y-104.5
X90.0Y-107.0
X90.0Y-109.5
X90.0Y-112.0
X90.0Y-114.5
X90.0Y-117.0
X90.0Y-119.5
X92.5Y-37.75
X93.5Y-37.75
X95.5Y-50.0
X95.5Y-133.0
X96.0Y-29.0
X97.5Y-55.0
X98.5Y-55.0
X98.5Y-112.0
X99.5Y-55.0
X100.5Y-55.0
X101.5Y-55.0
X102.5Y-55.0
X103.25Y-62.5
X103.5Y-55.0
X103.5Y-38.0
X104.25Y-41.5
X104.5Y-38.0
X105.5Y-38.0
X106.5Y-38.0
X107.5Y-38.0
X108.5Y-38.0
X109.5Y-38.0
X113.0Y-47.5
X115.0Y-118.5
X119.0Y-108.5
X120.5Y-72.5
X121.5Y-72.5
X122.5Y-72.5
X123.5Y-72.5
X124.0Y-34.0
X124.5Y-72.5
X125.0Y-96.0
X125.5Y-72.5
X126.75Y-57.75
X130.0Y-35.0
X134.0Y-42.0
X135.5Y-103.5
X135.5Y-126.0
X137.5Y-84.5
X137.5Y-106.5
X145.25Y-30.25
X147.0Y-101.5
X147.5Y-62.0
X157.0Y-42.5
X157.0Y-81.0
X158.0Y-124.0
X166.5Y-62.0
X166.5Y-100.0
X167.75Y-112.5
X176.0Y-42.5
X176.0Y-81.0
X185.5Y-62.0
X185.5Y-100.0
X195.0Y-42.5
X195.0Y-81.5
X204.5Y-62.0
X204.5Y-100.0
X214.0Y-42.5
X214.0Y-81.5
X223.099Y-44.599
X223.5Y-62.0
X223.5Y-100.0
X224.5Y-37.7
X225.5Y-29.0
X227.25Y-43.0
X231.25Y-49.0
X232.0Y-29.0
X232.0Y-67.0
X232.0Y-88.0
X232.0Y-124.0
T2
X72.19Y-34.82
X72.19Y-37.36
X72.19Y-39.9
X72.19Y-42.44
X72.19Y-44.98
X72.19Y-47.52
X72.19Y-50.06
X72.19Y-52.6
X72.19Y-55.14
X72.19Y-57.68
X72.19Y-60.22
X79.81Y-32.28
X79.81Y-34.82
X79.81Y-37.36
X79.81Y-39.9
X79.81Y-42.44
X79.81Y-44.98
X79.81Y-47.52
X79.81Y-50.06
X79.81Y-52.6
X79.81Y-55.14
X79.81Y-57.68
X79.81Y-60.22
T3
X72.19Y-32.28
T4
X68.69Y-99.5
X68.69Y-92.0
X68.69Y-97.0
X68.69Y-102.0
X68.69Y-119.5
X68.69Y-77.0
X68.69Y-84.5
X68.69Y-89.5
X68.69Y-104.5
X68.69Y-124.5
X68.69Y-79.5
X68.69Y-82.0
X68.69Y-87.0
X68.69Y-94.5
X68.69Y-107.0
X68.69Y-109.5
X68.69Y-114.5
X68.69Y-122.0
X68.69Y-112.0
X68.69Y-117.0
X76.31Y-99.5
X76.31Y-92.0
X76.31Y-97.0
X76.31Y-102.0
X76.31Y-119.5
X76.31Y-77.0
X76.31Y-84.5
X76.31Y-89.5
X76.31Y-104.5
X76.31Y-124.5
X76.31Y-79.5
X76.31Y-82.0
X76.31Y-87.0
X76.31Y-94.5
X76.31Y-107.0
X76.31Y-109.5
X76.31Y-114.5
X76.31Y-122.0
X76.31Y-112.0
X76.31Y-117.0
X79.94Y-115.75
X79.94Y-113.25
X79.94Y-110.75
X79.94Y-95.75
X79.94Y-103.25
X79.94Y-108.25
X79.94Y-100.75
X79.94Y-118.25
X79.94Y-98.25
X79.94Y-120.75
X79.94Y-93.25
X79.94Y-105.75
X87.56Y-115.75
X87.56Y-113.25
X87.56Y-110.75
X87.56Y-95.75
X87.56Y-103.25
X87.56Y-108.25
X87.56Y-100.75
X87.56Y-118.25
X87.56Y-98.25
X87.56Y-120.75
X87.56Y-93.25
X87.56Y-105.75
T6
X94.757Y-45.189
X95.567Y-42.467
X97.293Y-83.328
X98.175Y-88.33
X99.533Y-63.639
X100.343Y-60.918
X100.445Y-121.358
X100.569Y-41.585
X101.255Y-118.636
X102.261Y-43.865
X102.706Y-106.825
X102.781Y-79.781
X103.106Y-79.723
X104.397Y-109.106
X104.545Y-89.786
X104.87Y-89.729
X105.346Y-60.035
X106.258Y-117.754
X107.038Y-62.316
X107.949Y-120.035
X109.4Y-108.223
X109.475Y-81.18
X110.21Y-105.501
X110.357Y-86.182
X111.179Y-100.172
X111.989Y-97.45
X113.468Y-41.889
X114.278Y-39.167
X116.992Y-96.568
X118.683Y-98.849
X119.281Y-38.285
X120.972Y-40.566
X121.496Y-117.646
X122.305Y-114.924
X122.923Y-59.515
X123.732Y-56.793
X123.756Y-103.113
X125.448Y-105.394
X127.308Y-114.042
X128.735Y-55.911
X129.0Y-116.323
X130.427Y-58.192
X130.451Y-104.512
X131.26Y-101.79
X132.377Y-77.141
X133.155Y-37.338
X133.187Y-74.419
X134.199Y-34.697
X138.189Y-73.537
X139.26Y-34.254
X139.881Y-75.818
X140.746Y-36.674
X142.691Y-95.166
X143.69Y-55.96
X143.735Y-92.525
X144.96Y-53.42
X148.796Y-92.082
X150.04Y-53.42
X150.282Y-94.502
X151.31Y-55.96
X153.19Y-36.96
X153.19Y-74.96
X154.46Y-34.42
X154.46Y-72.42
X159.54Y-34.42
X159.54Y-72.42
X160.81Y-36.96
X160.81Y-74.96
X162.69Y-93.96
X162.69Y-55.96
X162.69Y-118.04
X162.69Y-112.96
X163.96Y-91.42
X163.96Y-53.42
X166.335Y-120.58
X166.335Y-110.42
X169.04Y-91.42
X169.04Y-53.42
X169.04Y-120.58
X169.04Y-110.42
X170.31Y-93.96
X170.31Y-55.96
X172.19Y-36.96
X172.19Y-74.96
X172.685Y-112.96
X172.685Y-118.04
X173.46Y-34.42
X173.46Y-72.42
X178.54Y-34.42
X178.54Y-72.42
X179.81Y-36.96
X179.81Y-74.96
X181.69Y-55.96
X181.69Y-93.96
X181.69Y-118.04
X182.96Y-53.42
X182.96Y-91.42
X182.96Y-120.58
X188.04Y-53.42
X188.04Y-91.42
X188.04Y-120.58
X189.31Y-55.96
X189.31Y-93.96
X189.31Y-118.04
X191.19Y-74.96
X191.19Y-36.96
X192.46Y-72.42
X192.46Y-34.42
X197.54Y-72.42
X197.54Y-34.42
X198.81Y-74.96
X198.81Y-36.96
X200.69Y-55.96
X200.69Y-93.96
X201.96Y-53.42
X201.96Y-91.42
X203.065Y-112.96
X204.335Y-110.42
X207.04Y-53.42
X207.04Y-91.42
X208.31Y-55.96
X208.31Y-93.96
X209.415Y-110.42
X210.19Y-36.96
X210.19Y-74.96
X210.19Y-118.04
X210.685Y-112.96
X211.46Y-34.42
X211.46Y-72.42
X211.46Y-120.58
X216.54Y-34.42
X216.54Y-72.42
X216.54Y-120.58
X217.81Y-36.96
X217.81Y-74.96
X217.81Y-118.04
X219.69Y-55.96
X219.69Y-93.96
X220.96Y-53.42
X220.96Y-91.42
X226.04Y-53.42
X226.04Y-91.42
X227.31Y-55.96
X227.31Y-93.96
T5
G00X226.7Y-30.9
M15
G01X226.7Y-30.5
M16
G05
G00X226.7Y-33.9
M15
G01X226.7Y-33.5
M16
G05
G00X226.7Y-37.9
M15
G01X226.7Y-37.5
M16
G05
G00X226.7Y-38.6
M15
G01X226.7Y-39.0
M16
G05
G00X231.3Y-30.5
M15
G01X231.3Y-30.9
M16
G05
G00X231.3Y-33.5
M15
G01X231.3Y-33.9
M16
G05
G00X231.3Y-37.5
M15
G01X231.3Y-37.9
M16
G05
G00X231.3Y-39.0
M15
G01X231.3Y-38.6
M16
G05
M30
