M48
; DRILL file {KiCad 9.0.4} date 2026-03-23T18:18:23+0900
; FORMAT={-:-/ absolute / metric / decimal}
; #@! TF.CreationDate,2026-03-23T18:18:23+09:00
; #@! TF.GenerationSoftware,Kicad,Pcbnew,9.0.4
; #@! TF.FileFunction,NonPlated,1,2,NPTH
FMAT,2
METRIC
; #@! TA.AperFunction,NonPlated,NPTH,ComponentDrill
T1C0.800
; #@! TA.AperFunction,NonPlated,NPTH,ComponentDrill
T2C1.100
; #@! TA.AperFunction,NonPlated,NPTH,ComponentDrill
T3C1.702
; #@! TA.AperFunction,NonPlated,NPTH,ComponentDrill
T4C3.000
; #@! TA.AperFunction,NonPlated,NPTH,ComponentDrill
T5C3.048
; #@! TA.AperFunction,NonPlated,NPTH,ComponentDrill
T6C3.988
; #@! TA.AperFunction,NonPlated,NPTH,ComponentDrill
T7C4.000
%
G90
G05
T1
X229.0Y-29.1
X229.0Y-29.1
X229.0Y-36.1
X229.0Y-36.1
T2
X68.38Y-32.28
X68.38Y-34.82
X68.38Y-37.36
X68.38Y-39.9
X68.38Y-42.44
X68.38Y-44.98
X68.38Y-47.52
X68.38Y-50.06
X68.38Y-52.6
X68.38Y-55.14
X68.38Y-57.68
X68.38Y-60.22
X83.62Y-32.28
X83.62Y-34.82
X83.62Y-37.36
X83.62Y-39.9
X83.62Y-42.44
X83.62Y-44.98
X83.62Y-47.52
X83.62Y-50.06
X83.62Y-52.6
X83.62Y-55.14
X83.62Y-57.68
X83.62Y-60.22
T3
X93.947Y-47.911
X96.484Y-86.05
X98.724Y-66.361
X99.636Y-124.08
X101.014Y-104.544
X101.161Y-85.225
X103.953Y-46.146
X106.489Y-84.285
X108.729Y-64.597
X109.641Y-122.316
X110.37Y-102.894
X111.02Y-102.78
X111.167Y-83.46
X112.659Y-44.611
X120.375Y-101.13
X120.686Y-120.368
X122.064Y-100.832
X122.113Y-62.237
X122.664Y-42.847
X130.692Y-118.604
X131.567Y-79.863
X132.07Y-99.068
X132.111Y-39.979
X132.119Y-60.473
X141.573Y-78.099
X141.648Y-97.807
X142.233Y-39.093
X142.42Y-58.5
X151.769Y-96.921
X151.92Y-39.5
X151.92Y-77.5
X152.58Y-58.5
X161.42Y-96.5
X161.42Y-115.5
X161.42Y-58.5
X162.08Y-39.5
X162.08Y-77.5
X163.795Y-115.5
X170.92Y-39.5
X170.92Y-77.5
X171.58Y-96.5
X171.58Y-58.5
X171.58Y-115.5
X173.955Y-115.5
X180.42Y-115.5
X180.42Y-58.5
X180.42Y-96.5
X181.08Y-39.5
X181.08Y-77.5
X189.92Y-77.5
X189.92Y-39.5
X190.58Y-58.5
X190.58Y-96.5
X190.58Y-115.5
X199.42Y-58.5
X199.42Y-96.5
X200.08Y-77.5
X200.08Y-39.5
X201.795Y-115.5
X208.92Y-115.5
X208.92Y-39.5
X208.92Y-77.5
X209.58Y-58.5
X209.58Y-96.5
X211.955Y-115.5
X218.42Y-58.5
X218.42Y-96.5
X219.08Y-115.5
X219.08Y-39.5
X219.08Y-77.5
X228.58Y-58.5
X228.58Y-96.5
T4
X94.757Y-45.189
X95.567Y-42.467
X97.293Y-83.328
X99.533Y-63.639
X100.343Y-60.918
X100.445Y-121.358
X100.569Y-41.585
X101.255Y-118.636
X102.261Y-43.865
X102.706Y-106.825
X102.781Y-79.781
X103.106Y-79.723
X104.397Y-109.106
X105.346Y-60.035
X106.258Y-117.754
X107.038Y-62.316
X107.949Y-120.035
X109.4Y-108.223
X109.475Y-81.18
X110.21Y-105.501
X111.179Y-100.172
X111.989Y-97.45
X113.468Y-41.889
X114.278Y-39.167
X116.992Y-96.568
X118.683Y-98.849
X119.281Y-38.285
X120.972Y-40.566
X121.496Y-117.646
X122.305Y-114.924
X122.923Y-59.515
X123.732Y-56.793
X123.756Y-103.113
X125.448Y-105.394
X127.308Y-114.042
X128.735Y-55.911
X129.0Y-116.323
X130.427Y-58.192
X130.451Y-104.512
X131.26Y-101.79
X132.377Y-77.141
X133.155Y-37.338
X133.187Y-74.419
X134.199Y-34.697
X138.189Y-73.537
X139.26Y-34.254
X139.881Y-75.818
X140.746Y-36.674
X142.691Y-95.166
X143.69Y-55.96
X143.735Y-92.525
X144.96Y-53.42
X148.796Y-92.082
X150.04Y-53.42
X150.282Y-94.502
X151.31Y-55.96
X153.19Y-36.96
X153.19Y-74.96
X154.46Y-34.42
X154.46Y-72.42
X159.54Y-34.42
X159.54Y-72.42
X160.81Y-36.96
X160.81Y-74.96
X162.69Y-93.96
X162.69Y-55.96
X162.69Y-118.04
X163.96Y-91.42
X163.96Y-53.42
X166.335Y-120.58
X169.04Y-91.42
X169.04Y-53.42
X169.04Y-120.58
X170.31Y-93.96
X170.31Y-55.96
X172.19Y-36.96
X172.19Y-74.96
X172.685Y-118.04
X173.46Y-34.42
X173.46Y-72.42
X178.54Y-34.42
X178.54Y-72.42
X179.81Y-36.96
X179.81Y-74.96
X181.69Y-55.96
X181.69Y-93.96
X182.96Y-110.42
X182.96Y-53.42
X182.96Y-91.42
X188.04Y-53.42
X188.04Y-91.42
X189.31Y-112.96
X189.31Y-55.96
X189.31Y-93.96
X191.19Y-74.96
X191.19Y-36.96
X192.46Y-72.42
X192.46Y-34.42
X197.54Y-72.42
X197.54Y-34.42
X198.81Y-74.96
X198.81Y-36.96
X200.69Y-55.96
X200.69Y-93.96
X201.96Y-53.42
X201.96Y-91.42
X203.065Y-112.96
X207.04Y-53.42
X207.04Y-91.42
X208.31Y-55.96
X208.31Y-93.96
X209.415Y-110.42
X210.19Y-36.96
X210.19Y-74.96
X211.46Y-110.42
X211.46Y-34.42
X211.46Y-72.42
X216.54Y-34.42
X216.54Y-72.42
X217.81Y-112.96
X217.81Y-36.96
X217.81Y-74.96
X219.69Y-55.96
X219.69Y-93.96
X220.96Y-53.42
X220.96Y-91.42
X226.04Y-53.42
X226.04Y-91.42
X227.31Y-55.96
X227.31Y-93.96
T5
X95.621Y-93.294
X102.403Y-97.206
X119.134Y-89.148
X125.916Y-93.06
X194.937Y-122.485
X202.062Y-122.485
X218.813Y-122.485
X225.938Y-122.485
T6
X92.974Y-78.286
X105.049Y-112.215
X116.487Y-74.14
X128.562Y-108.069
X194.937Y-107.245
X202.062Y-107.245
X218.813Y-107.245
X225.938Y-107.245
T7
X98.95Y-47.028
X101.486Y-85.167
X103.727Y-65.479
X104.638Y-123.198
X106.017Y-103.662
X106.164Y-84.343
X115.372Y-102.012
X117.661Y-43.729
X125.689Y-119.486
X127.067Y-99.95
X127.116Y-61.355
X136.57Y-78.981
X137.172Y-39.536
X146.708Y-97.364
X147.5Y-58.5
X157.0Y-39.5
X157.0Y-77.5
X166.5Y-96.5
X166.5Y-58.5
X166.5Y-115.5
X168.875Y-115.5
X176.0Y-39.5
X176.0Y-77.5
X185.5Y-58.5
X185.5Y-96.5
X185.5Y-115.5
X195.0Y-77.5
X195.0Y-39.5
X204.5Y-58.5
X204.5Y-96.5
X206.875Y-115.5
X214.0Y-115.5
X214.0Y-39.5
X214.0Y-77.5
X223.5Y-58.5
X223.5Y-96.5
M30
