%TF.GenerationSoftware,KiCad,Pcbnew,9.0.4*%
%TF.CreationDate,2026-03-04T00:34:42+09:00*%
%TF.ProjectId,dasic,64617369-632e-46b6-9963-61645f706362,rev?*%
%TF.SameCoordinates,Original*%
%TF.FileFunction,Soldermask,Top*%
%TF.FilePolarity,Negative*%
%FSLAX46Y46*%
G04 Gerber Fmt 4.6, Leading zero omitted, Abs format (unit mm)*
G04 Created by KiCad (PCBNEW 9.0.4) date 2026-03-04 00:34:42*
%MOMM*%
%LPD*%
G01*
G04 APERTURE LIST*
G04 Aperture macros list*
%AMFreePoly0*
4,1,6,1.000000,0.000000,0.500000,-0.750000,-0.500000,-0.750000,-0.500000,0.750000,0.500000,0.750000,1.000000,0.000000,1.000000,0.000000,$1*%
%AMFreePoly1*
4,1,6,0.500000,-0.750000,-0.650000,-0.750000,-0.150000,0.000000,-0.650000,0.750000,0.500000,0.750000,0.500000,-0.750000,0.500000,-0.750000,$1*%
%AMFreePoly2*
4,1,6,0.600000,0.200000,0.000000,-0.400000,-0.600000,0.200000,-0.600000,0.400000,0.600000,0.400000,0.600000,0.200000,0.600000,0.200000,$1*%
%AMFreePoly3*
4,1,6,0.600000,-0.250000,-0.600000,-0.250000,-0.600000,1.000000,0.000000,0.400000,0.600000,1.000000,0.600000,-0.250000,0.600000,-0.250000,$1*%
G04 Aperture macros list end*
%ADD10C,0.200000*%
%ADD11C,1.700000*%
%ADD12C,4.000000*%
%ADD13C,3.000000*%
%ADD14R,1.397000X1.397000*%
%ADD15R,1.400000X0.940000*%
%ADD16C,1.397000*%
%ADD17FreePoly0,0.000000*%
%ADD18FreePoly1,0.000000*%
%ADD19R,1.000000X1.700000*%
%ADD20FreePoly0,180.000000*%
%ADD21FreePoly1,180.000000*%
%ADD22C,0.800000*%
%ADD23O,1.600000X2.000000*%
%ADD24C,1.600000*%
%ADD25R,1.600000X1.600000*%
%ADD26FreePoly2,270.000000*%
%ADD27FreePoly2,90.000000*%
%ADD28FreePoly3,90.000000*%
%ADD29FreePoly3,270.000000*%
G04 APERTURE END LIST*
%TO.C,JP6*%
G36*
X228025000Y-48250000D02*
G01*
X230475000Y-48250000D01*
X230475000Y-49750000D01*
X228025000Y-49750000D01*
X228025000Y-48250000D01*
G37*
%TO.C,JP4*%
G36*
X230475000Y-46250000D02*
G01*
X228025000Y-46250000D01*
X228025000Y-44750000D01*
X230475000Y-44750000D01*
X230475000Y-46250000D01*
G37*
%TO.C,JP2*%
G36*
X230475000Y-43750000D02*
G01*
X228025000Y-43750000D01*
X228025000Y-42250000D01*
X230475000Y-42250000D01*
X230475000Y-43750000D01*
G37*
D10*
%TO.C,U1*%
X70920000Y-35328000D02*
X69904000Y-35328000D01*
X69904000Y-34312000D01*
X70920000Y-34312000D01*
X70920000Y-35328000D01*
G36*
X70920000Y-35328000D02*
G01*
X69904000Y-35328000D01*
X69904000Y-34312000D01*
X70920000Y-34312000D01*
X70920000Y-35328000D01*
G37*
X70920001Y-37868000D02*
X69904000Y-37868000D01*
X69904001Y-36852000D01*
X70920000Y-36852000D01*
X70920001Y-37868000D01*
G36*
X70920001Y-37868000D02*
G01*
X69904000Y-37868000D01*
X69904001Y-36852000D01*
X70920000Y-36852000D01*
X70920001Y-37868000D01*
G37*
X70920000Y-40408000D02*
X69904000Y-40408000D01*
X69904000Y-39392000D01*
X70920000Y-39392000D01*
X70920000Y-40408000D01*
G36*
X70920000Y-40408000D02*
G01*
X69904000Y-40408000D01*
X69904000Y-39392000D01*
X70920000Y-39392000D01*
X70920000Y-40408000D01*
G37*
X70920000Y-42948000D02*
X69904000Y-42947999D01*
X69904000Y-41932000D01*
X70920000Y-41931999D01*
X70920000Y-42948000D01*
G36*
X70920000Y-42948000D02*
G01*
X69904000Y-42947999D01*
X69904000Y-41932000D01*
X70920000Y-41931999D01*
X70920000Y-42948000D01*
G37*
X70920000Y-44472001D02*
X70920000Y-45488000D01*
X69904000Y-45488001D01*
X69904000Y-44472000D01*
X70920000Y-44472001D01*
G36*
X70920000Y-44472001D02*
G01*
X70920000Y-45488000D01*
X69904000Y-45488001D01*
X69904000Y-44472000D01*
X70920000Y-44472001D01*
G37*
X70920000Y-47012000D02*
X70920000Y-48027999D01*
X69904000Y-48028000D01*
X69904000Y-47011999D01*
X70920000Y-47012000D01*
G36*
X70920000Y-47012000D02*
G01*
X70920000Y-48027999D01*
X69904000Y-48028000D01*
X69904000Y-47011999D01*
X70920000Y-47012000D01*
G37*
X70920000Y-50568001D02*
X69904000Y-50568000D01*
X69904000Y-49552001D01*
X70920000Y-49552000D01*
X70920000Y-50568001D01*
G36*
X70920000Y-50568001D02*
G01*
X69904000Y-50568000D01*
X69904000Y-49552001D01*
X70920000Y-49552000D01*
X70920000Y-50568001D01*
G37*
X70920000Y-53108000D02*
X69904000Y-53108000D01*
X69904000Y-52092000D01*
X70920000Y-52092000D01*
X70920000Y-53108000D01*
G36*
X70920000Y-53108000D02*
G01*
X69904000Y-53108000D01*
X69904000Y-52092000D01*
X70920000Y-52092000D01*
X70920000Y-53108000D01*
G37*
X70920000Y-58188000D02*
X69904000Y-58188000D01*
X69904000Y-57172000D01*
X70920000Y-57172000D01*
X70920000Y-58188000D01*
G36*
X70920000Y-58188000D02*
G01*
X69904000Y-58188000D01*
X69904000Y-57172000D01*
X70920000Y-57172000D01*
X70920000Y-58188000D01*
G37*
X70920001Y-60728000D02*
X69904000Y-60728000D01*
X69904001Y-59712000D01*
X70920000Y-59712000D01*
X70920001Y-60728000D01*
G36*
X70920001Y-60728000D02*
G01*
X69904000Y-60728000D01*
X69904001Y-59712000D01*
X70920000Y-59712000D01*
X70920001Y-60728000D01*
G37*
X70920000Y-32788000D02*
X69904001Y-32788000D01*
X69904000Y-31772000D01*
X70920001Y-31772000D01*
X70920000Y-32788000D01*
G36*
X70920000Y-32788000D02*
G01*
X69904001Y-32788000D01*
X69904000Y-31772000D01*
X70920001Y-31772000D01*
X70920000Y-32788000D01*
G37*
X70920000Y-55648000D02*
X69904001Y-55648000D01*
X69904000Y-54632000D01*
X70920001Y-54632000D01*
X70920000Y-55648000D01*
G36*
X70920000Y-55648000D02*
G01*
X69904001Y-55648000D01*
X69904000Y-54632000D01*
X70920001Y-54632000D01*
X70920000Y-55648000D01*
G37*
X82096000Y-37868000D02*
X81079999Y-37868000D01*
X81080000Y-36852000D01*
X82095999Y-36852000D01*
X82096000Y-37868000D01*
G36*
X82096000Y-37868000D02*
G01*
X81079999Y-37868000D01*
X81080000Y-36852000D01*
X82095999Y-36852000D01*
X82096000Y-37868000D01*
G37*
X82096000Y-60728000D02*
X81079999Y-60728000D01*
X81080000Y-59712000D01*
X82095999Y-59712000D01*
X82096000Y-60728000D01*
G36*
X82096000Y-60728000D02*
G01*
X81079999Y-60728000D01*
X81080000Y-59712000D01*
X82095999Y-59712000D01*
X82096000Y-60728000D01*
G37*
X82095999Y-32788000D02*
X81080000Y-32788000D01*
X81079999Y-31772000D01*
X82096000Y-31772000D01*
X82095999Y-32788000D01*
G36*
X82095999Y-32788000D02*
G01*
X81080000Y-32788000D01*
X81079999Y-31772000D01*
X82096000Y-31772000D01*
X82095999Y-32788000D01*
G37*
X82096000Y-35328000D02*
X81080000Y-35328000D01*
X81080000Y-34312000D01*
X82096000Y-34312000D01*
X82096000Y-35328000D01*
G36*
X82096000Y-35328000D02*
G01*
X81080000Y-35328000D01*
X81080000Y-34312000D01*
X82096000Y-34312000D01*
X82096000Y-35328000D01*
G37*
X82096000Y-40408000D02*
X81080000Y-40408000D01*
X81080000Y-39392000D01*
X82096000Y-39392000D01*
X82096000Y-40408000D01*
G36*
X82096000Y-40408000D02*
G01*
X81080000Y-40408000D01*
X81080000Y-39392000D01*
X82096000Y-39392000D01*
X82096000Y-40408000D01*
G37*
X82096000Y-41932000D02*
X82096000Y-42947999D01*
X81080000Y-42948000D01*
X81080000Y-41931999D01*
X82096000Y-41932000D01*
G36*
X82096000Y-41932000D02*
G01*
X82096000Y-42947999D01*
X81080000Y-42948000D01*
X81080000Y-41931999D01*
X82096000Y-41932000D01*
G37*
X82096000Y-45488001D02*
X81080000Y-45488000D01*
X81080000Y-44472001D01*
X82096000Y-44472000D01*
X82096000Y-45488001D01*
G36*
X82096000Y-45488001D02*
G01*
X81080000Y-45488000D01*
X81080000Y-44472001D01*
X82096000Y-44472000D01*
X82096000Y-45488001D01*
G37*
X82096000Y-48028000D02*
X81080000Y-48027999D01*
X81080000Y-47012000D01*
X82096000Y-47011999D01*
X82096000Y-48028000D01*
G36*
X82096000Y-48028000D02*
G01*
X81080000Y-48027999D01*
X81080000Y-47012000D01*
X82096000Y-47011999D01*
X82096000Y-48028000D01*
G37*
X82096000Y-49552001D02*
X82096000Y-50568000D01*
X81080000Y-50568001D01*
X81080000Y-49552000D01*
X82096000Y-49552001D01*
G36*
X82096000Y-49552001D02*
G01*
X82096000Y-50568000D01*
X81080000Y-50568001D01*
X81080000Y-49552000D01*
X82096000Y-49552001D01*
G37*
X82096000Y-53108000D02*
X81080000Y-53108000D01*
X81080000Y-52092000D01*
X82096000Y-52092000D01*
X82096000Y-53108000D01*
G36*
X82096000Y-53108000D02*
G01*
X81080000Y-53108000D01*
X81080000Y-52092000D01*
X82096000Y-52092000D01*
X82096000Y-53108000D01*
G37*
X82095999Y-55648000D02*
X81080000Y-55648000D01*
X81079999Y-54632000D01*
X82096000Y-54632000D01*
X82095999Y-55648000D01*
G36*
X82095999Y-55648000D02*
G01*
X81080000Y-55648000D01*
X81079999Y-54632000D01*
X82096000Y-54632000D01*
X82095999Y-55648000D01*
G37*
X82096000Y-58188000D02*
X81080000Y-58188000D01*
X81080000Y-57172000D01*
X82096000Y-57172000D01*
X82096000Y-58188000D01*
G36*
X82096000Y-58188000D02*
G01*
X81080000Y-58188000D01*
X81080000Y-57172000D01*
X82096000Y-57172000D01*
X82096000Y-58188000D01*
G37*
%TD*%
D11*
%TO.C,SW29*%
X120685874Y-120368208D03*
D12*
X125688697Y-119486075D03*
D11*
X130691520Y-118603942D03*
D13*
X122305153Y-114924318D03*
X128999748Y-116323064D03*
%TD*%
D14*
%TO.C,D13*%
X68690001Y-106999997D03*
D15*
X70725001Y-106999998D03*
X74275001Y-107000002D03*
D16*
X76310001Y-107000003D03*
%TD*%
D11*
%TO.C,SW24*%
X161419999Y-96500000D03*
D12*
X166499999Y-96500000D03*
D11*
X171579999Y-96500000D03*
D13*
X163959999Y-91420000D03*
X170309999Y-93960000D03*
%TD*%
D11*
%TO.C,SW19*%
X189919999Y-77499999D03*
D12*
X194999999Y-77499999D03*
D11*
X200079999Y-77499999D03*
D13*
X192459999Y-72419999D03*
X198809999Y-74959999D03*
%TD*%
D11*
%TO.C,SW26*%
X199420000Y-96500000D03*
D12*
X204500000Y-96500000D03*
D11*
X209580000Y-96500000D03*
D13*
X201960000Y-91420000D03*
X208310000Y-93960000D03*
%TD*%
D11*
%TO.C,SW11*%
X161420000Y-58500000D03*
D12*
X166500000Y-58500000D03*
D11*
X171580000Y-58500000D03*
D13*
X163960000Y-53420000D03*
X170310000Y-55960000D03*
%TD*%
D14*
%TO.C,D1*%
X68690000Y-76999997D03*
D15*
X70725000Y-76999998D03*
X74275000Y-77000002D03*
D16*
X76310000Y-77000003D03*
%TD*%
D11*
%TO.C,SW13*%
X199420000Y-58500000D03*
D12*
X204500000Y-58500000D03*
D11*
X209580000Y-58500000D03*
D13*
X201960000Y-53420000D03*
X208310000Y-55960000D03*
%TD*%
D14*
%TO.C,D9*%
X68689999Y-96999997D03*
D15*
X70724999Y-96999998D03*
X74274999Y-97000002D03*
D16*
X76309999Y-97000003D03*
%TD*%
D14*
%TO.C,D15*%
X68690002Y-111999996D03*
D15*
X70725002Y-111999997D03*
X74275002Y-112000001D03*
D16*
X76310002Y-112000002D03*
%TD*%
D17*
%TO.C,JP6*%
X228525000Y-49000000D03*
D18*
X229975000Y-49000000D03*
%TD*%
D14*
%TO.C,D11*%
X68689999Y-101999996D03*
D15*
X70724999Y-101999997D03*
X74274999Y-102000001D03*
D16*
X76309999Y-102000002D03*
%TD*%
D14*
%TO.C,D18*%
X68689999Y-119499995D03*
D15*
X70724999Y-119499996D03*
X74274999Y-119500000D03*
D16*
X76309999Y-119500001D03*
%TD*%
D11*
%TO.C,SW27*%
X218420000Y-96500000D03*
D12*
X223500000Y-96500000D03*
D11*
X228580000Y-96500000D03*
D13*
X220960000Y-91420000D03*
X227310000Y-93960000D03*
%TD*%
D14*
%TO.C,D14*%
X68690001Y-109499996D03*
D15*
X70725001Y-109499997D03*
X74275001Y-109500001D03*
D16*
X76310001Y-109500002D03*
%TD*%
D14*
%TO.C,D17*%
X68690002Y-116999995D03*
D15*
X70725002Y-116999996D03*
X74275002Y-117000000D03*
D16*
X76310002Y-117000001D03*
%TD*%
D14*
%TO.C,D2*%
X68690001Y-79499997D03*
D15*
X70725001Y-79499998D03*
X74275001Y-79500002D03*
D16*
X76310001Y-79500003D03*
%TD*%
D14*
%TO.C,D8*%
X68690001Y-94499997D03*
D15*
X70725001Y-94499998D03*
X74275001Y-94500002D03*
D16*
X76310001Y-94500003D03*
%TD*%
D19*
%TO.C,SW34*%
X79649999Y-67849999D03*
X79650002Y-74149999D03*
X75849998Y-67850001D03*
X75850001Y-74150001D03*
%TD*%
D11*
%TO.C,SW25*%
X180420000Y-96499998D03*
D12*
X185500000Y-96499998D03*
D11*
X190580000Y-96499998D03*
D13*
X182960000Y-91419998D03*
X189310000Y-93959998D03*
%TD*%
D14*
%TO.C,D16*%
X68690001Y-114499997D03*
D15*
X70725001Y-114499998D03*
X74275001Y-114500002D03*
D16*
X76310001Y-114500003D03*
%TD*%
D20*
%TO.C,JP4*%
X229975000Y-45500000D03*
D21*
X228525000Y-45500000D03*
%TD*%
D20*
%TO.C,JP2*%
X229975000Y-43000000D03*
D21*
X228525000Y-43000000D03*
%TD*%
D11*
%TO.C,SW17*%
X151920000Y-77500000D03*
D12*
X157000000Y-77500000D03*
D11*
X162080000Y-77500000D03*
D13*
X154460000Y-72420000D03*
X160810000Y-74960000D03*
%TD*%
D14*
%TO.C,D10*%
X68689996Y-99499995D03*
D15*
X70724996Y-99499996D03*
X74274996Y-99500000D03*
D16*
X76309996Y-99500001D03*
%TD*%
D14*
%TO.C,D7*%
X68689998Y-91999997D03*
D15*
X70724998Y-91999998D03*
X74274998Y-92000002D03*
D16*
X76309998Y-92000003D03*
%TD*%
D11*
%TO.C,SW6*%
X189920000Y-39499999D03*
D12*
X195000000Y-39499999D03*
D11*
X200080000Y-39499999D03*
D13*
X192460000Y-34419999D03*
X198810000Y-36959999D03*
%TD*%
D11*
%TO.C,SW23*%
X141647501Y-97806881D03*
D12*
X146708170Y-97364130D03*
D11*
X151768839Y-96921379D03*
D13*
X143735084Y-92524837D03*
X150282296Y-94501732D03*
%TD*%
D11*
%TO.C,SW28*%
X99635608Y-124079938D03*
D12*
X104638431Y-123197805D03*
D11*
X109641254Y-122315672D03*
D13*
X101254887Y-118636048D03*
X107949482Y-120034794D03*
%TD*%
D11*
%TO.C,SW8*%
X98723784Y-66361400D03*
D12*
X103726607Y-65479267D03*
D11*
X108729430Y-64597134D03*
D13*
X100343063Y-60917510D03*
X107037658Y-62316256D03*
%TD*%
D22*
%TO.C,J1*%
X229000000Y-29100000D03*
X229000000Y-36100000D03*
D23*
X231300000Y-33700000D03*
X231300000Y-30700000D03*
X226700000Y-38800000D03*
X231300000Y-37700000D03*
%TD*%
D11*
%TO.C,SW15*%
X106489203Y-84285251D03*
D12*
X101486379Y-85167385D03*
D11*
X96483555Y-86049519D03*
D13*
X104869926Y-89729143D03*
X98175329Y-88330394D03*
%TD*%
D11*
%TO.C,SW1*%
X93947257Y-47910525D03*
D12*
X98950080Y-47028392D03*
D11*
X103952903Y-46146259D03*
D13*
X95566536Y-42466635D03*
X102261131Y-43865381D03*
%TD*%
D11*
%TO.C,SW2*%
X112658604Y-44611210D03*
D12*
X117661427Y-43729077D03*
D11*
X122664250Y-42846944D03*
D13*
X114277883Y-39167320D03*
X120972478Y-40566066D03*
%TD*%
D14*
%TO.C,D4*%
X68690000Y-84499996D03*
D15*
X70725000Y-84499997D03*
X74275000Y-84500001D03*
D16*
X76310000Y-84500002D03*
%TD*%
D11*
%TO.C,SW21*%
X111019526Y-102779540D03*
D12*
X106016703Y-103661673D03*
D11*
X101013880Y-104543806D03*
D13*
X109400247Y-108223430D03*
X102705652Y-106824684D03*
%TD*%
D11*
%TO.C,SW21*%
X110369554Y-102894148D03*
D12*
X115372377Y-102012015D03*
D11*
X120375200Y-101129882D03*
D13*
X111988833Y-97450258D03*
X118683428Y-98849004D03*
%TD*%
D11*
%TO.C,SW3*%
X132111352Y-39978902D03*
D12*
X137172021Y-39536151D03*
D11*
X142232690Y-39093400D03*
D13*
X134198935Y-34696858D03*
X140746147Y-36673753D03*
%TD*%
D14*
%TO.C,D6*%
X68690000Y-89499994D03*
D15*
X70725000Y-89499995D03*
X74275000Y-89499999D03*
D16*
X76310000Y-89500000D03*
%TD*%
D11*
%TO.C,SW5*%
X170920000Y-39500000D03*
D12*
X176000000Y-39500000D03*
D11*
X181080000Y-39500000D03*
D13*
X173460000Y-34420000D03*
X179810000Y-36960000D03*
%TD*%
D14*
%TO.C,D19*%
X68690001Y-121999994D03*
D15*
X70725001Y-121999995D03*
X74275001Y-121999999D03*
D16*
X76310001Y-122000000D03*
%TD*%
D11*
%TO.C,SW20*%
X208920000Y-77500001D03*
D12*
X214000000Y-77500001D03*
D11*
X219080000Y-77500001D03*
D13*
X211460000Y-72420001D03*
X217810000Y-74960001D03*
%TD*%
D11*
%TO.C,SW31*%
X190580001Y-115499998D03*
D12*
X185500000Y-115499999D03*
D11*
X180419999Y-115500000D03*
D13*
X188040002Y-120580001D03*
X181690001Y-118039997D03*
%TD*%
D11*
%TO.C,SW30*%
X171580000Y-115499999D03*
D12*
X166500000Y-115499999D03*
D11*
X161420000Y-115499999D03*
D13*
X169040000Y-120579999D03*
X162690000Y-118039999D03*
%TD*%
D14*
%TO.C,D20*%
X68690000Y-124499997D03*
D15*
X70725000Y-124499998D03*
X74275000Y-124500002D03*
D16*
X76310000Y-124500003D03*
%TD*%
D11*
%TO.C,SW18*%
X170920000Y-77499999D03*
D12*
X176000000Y-77499999D03*
D11*
X181080000Y-77499999D03*
D13*
X173460000Y-72419999D03*
X179810000Y-74959999D03*
%TD*%
D11*
%TO.C,SW15*%
X101161392Y-85224690D03*
D12*
X106164216Y-84342556D03*
D11*
X111167040Y-83460422D03*
D13*
X102780669Y-79780798D03*
X109475266Y-81179547D03*
%TD*%
D14*
%TO.C,D5*%
X68690001Y-86999995D03*
D15*
X70725001Y-86999996D03*
X74275001Y-87000000D03*
D16*
X76310001Y-87000001D03*
%TD*%
D11*
%TO.C,SW9*%
X122112968Y-62237256D03*
D12*
X127115791Y-61355123D03*
D11*
X132118614Y-60472990D03*
D13*
X123732247Y-56793366D03*
X130426842Y-58192112D03*
%TD*%
D14*
%TO.C,D12*%
X68690000Y-104499996D03*
D15*
X70725000Y-104499997D03*
X74275000Y-104500001D03*
D16*
X76310000Y-104500002D03*
%TD*%
D11*
%TO.C,SW22*%
X132069792Y-99067810D03*
D12*
X127066969Y-99949943D03*
D11*
X122064146Y-100832076D03*
D13*
X130450513Y-104511700D03*
X123755918Y-103112954D03*
%TD*%
D11*
%TO.C,SW7*%
X208920000Y-39500000D03*
D12*
X214000000Y-39500000D03*
D11*
X219080000Y-39500000D03*
D13*
X211460000Y-34420000D03*
X217810000Y-36960000D03*
%TD*%
D11*
%TO.C,SW12*%
X180420000Y-58499999D03*
D12*
X185500000Y-58499999D03*
D11*
X190580000Y-58499999D03*
D13*
X182960000Y-53419999D03*
X189310000Y-55959999D03*
%TD*%
D11*
%TO.C,SW4*%
X151920000Y-39500000D03*
D12*
X157000000Y-39500000D03*
D11*
X162080000Y-39500000D03*
D13*
X154460000Y-34420000D03*
X160810000Y-36960000D03*
%TD*%
D11*
%TO.C,SW10*%
X142420000Y-58500000D03*
D12*
X147500000Y-58500000D03*
D11*
X152580000Y-58500000D03*
D13*
X144960000Y-53420000D03*
X151310000Y-55960000D03*
%TD*%
D14*
%TO.C,D3*%
X68690001Y-81999995D03*
D15*
X70725001Y-81999996D03*
X74275001Y-82000000D03*
D16*
X76310001Y-82000001D03*
%TD*%
D11*
%TO.C,SW16*%
X131567332Y-79863302D03*
D12*
X136570155Y-78981169D03*
D11*
X141572978Y-78099036D03*
D13*
X133186611Y-74419412D03*
X139881206Y-75818158D03*
%TD*%
D11*
%TO.C,SW14*%
X218419999Y-58500000D03*
D12*
X223499999Y-58500000D03*
D11*
X228579999Y-58500000D03*
D13*
X220959999Y-53420000D03*
X227309999Y-55960000D03*
%TD*%
D11*
%TO.C,SW30*%
X163794998Y-115499998D03*
D12*
X168875000Y-115499999D03*
D11*
X173955002Y-115500000D03*
D13*
X166335004Y-110419995D03*
X172685000Y-112959999D03*
%TD*%
D14*
%TO.C,D28*%
X79940003Y-120749999D03*
D15*
X81975001Y-120749999D03*
X85525001Y-120749999D03*
D16*
X87559999Y-120749999D03*
%TD*%
D22*
%TO.C,J2*%
X229000000Y-36100000D03*
X229000000Y-29100000D03*
D23*
X226700000Y-33700000D03*
X226700000Y-30700000D03*
X231300000Y-38800000D03*
X226700000Y-37700000D03*
%TD*%
D14*
%TO.C,D22*%
X79940004Y-105749999D03*
D15*
X81975002Y-105749999D03*
X85525002Y-105749999D03*
D16*
X87560000Y-105749999D03*
%TD*%
D11*
%TO.C,SW30*%
X163794999Y-115500000D03*
D12*
X168875000Y-115499999D03*
D11*
X173955001Y-115499998D03*
%TD*%
D14*
%TO.C,D29*%
X79940002Y-118250000D03*
D15*
X81975000Y-118250000D03*
X85525000Y-118250000D03*
D16*
X87559998Y-118250000D03*
%TD*%
D11*
%TO.C,SW32*%
X211955003Y-115499998D03*
D12*
X206875003Y-115499998D03*
D11*
X201795003Y-115499998D03*
D13*
X210685003Y-112959998D03*
X204335003Y-110419998D03*
%TD*%
D14*
%TO.C,D31*%
X79939996Y-113250003D03*
D15*
X81974994Y-113250003D03*
X85524994Y-113250003D03*
D16*
X87559992Y-113250003D03*
%TD*%
D14*
%TO.C,D25*%
X79940003Y-98250004D03*
D15*
X81975001Y-98250004D03*
X85525001Y-98250004D03*
D16*
X87559999Y-98250004D03*
%TD*%
D14*
%TO.C,D23*%
X79940000Y-103249997D03*
D15*
X81974998Y-103249997D03*
X85524998Y-103249997D03*
D16*
X87559996Y-103249997D03*
%TD*%
D11*
%TO.C,SW15*%
X106489202Y-84285253D03*
D12*
X101486379Y-85167385D03*
D11*
X96483556Y-86049517D03*
%TD*%
D14*
%TO.C,D21*%
X79940001Y-108249997D03*
D15*
X81974999Y-108249997D03*
X85524999Y-108249997D03*
D16*
X87559997Y-108249997D03*
%TD*%
D14*
%TO.C,D24*%
X79940002Y-100750000D03*
D15*
X81975000Y-100750000D03*
X85525000Y-100750000D03*
D16*
X87559998Y-100750000D03*
%TD*%
D14*
%TO.C,D26*%
X79940000Y-95750001D03*
D15*
X81974998Y-95750001D03*
X85524998Y-95750001D03*
D16*
X87559996Y-95750001D03*
%TD*%
D24*
%TO.C,U1*%
X83620000Y-32280000D03*
D25*
X83620000Y-32280000D03*
D26*
X81842000Y-32280000D03*
D27*
X70158000Y-32280000D03*
D24*
X68380000Y-32280000D03*
X83620000Y-34820000D03*
D26*
X81842000Y-34820000D03*
D27*
X70158000Y-34820000D03*
D24*
X68380000Y-34820000D03*
X83620000Y-37360000D03*
D26*
X81842000Y-37360000D03*
D27*
X70158000Y-37360000D03*
D24*
X68380000Y-37360000D03*
X83620000Y-39900000D03*
D26*
X81842000Y-39900000D03*
D27*
X70158000Y-39900000D03*
D24*
X68380000Y-39900000D03*
X83620000Y-42440000D03*
D26*
X81842000Y-42440000D03*
D27*
X70158000Y-42440000D03*
D24*
X68380000Y-42440000D03*
X83620000Y-44980000D03*
D26*
X81842000Y-44980000D03*
D27*
X70158000Y-44980000D03*
D24*
X68380000Y-44980000D03*
X83620000Y-47520000D03*
D26*
X81842000Y-47520000D03*
D27*
X70158000Y-47520000D03*
D24*
X68380000Y-47520000D03*
X83620000Y-50060000D03*
D26*
X81842000Y-50060000D03*
D27*
X70158000Y-50060000D03*
D24*
X68380000Y-50060000D03*
X83620000Y-52600000D03*
D26*
X81842000Y-52600000D03*
D27*
X70158000Y-52600000D03*
D24*
X68380000Y-52600000D03*
X83620000Y-55140000D03*
D26*
X81842000Y-55140000D03*
D27*
X70158000Y-55140000D03*
D24*
X68380000Y-55140000D03*
X83620000Y-57680000D03*
D26*
X81842000Y-57680000D03*
D27*
X70158000Y-57680000D03*
D24*
X68380000Y-57680000D03*
X83620000Y-60220000D03*
D26*
X81842000Y-60220000D03*
D27*
X70158000Y-60220000D03*
D24*
X68380000Y-60220000D03*
D28*
X71174000Y-32280000D03*
X71174000Y-34820000D03*
X71174000Y-37360000D03*
X71174000Y-39900000D03*
X71174000Y-42440000D03*
X71174000Y-44980000D03*
X71174000Y-47520000D03*
X71174000Y-50060000D03*
X71174000Y-52600000D03*
X71174000Y-55140000D03*
X71174000Y-57680000D03*
X71174000Y-60220000D03*
D29*
X80826000Y-60220000D03*
X80826000Y-57680000D03*
X80826000Y-55140000D03*
X80826000Y-52600000D03*
X80826000Y-50060000D03*
X80826000Y-47520000D03*
X80826000Y-44980000D03*
X80826000Y-42440000D03*
X80826000Y-39900000D03*
X80826000Y-37360000D03*
X80826000Y-34820000D03*
X80826000Y-32280000D03*
%TD*%
D14*
%TO.C,D30*%
X79939994Y-115749997D03*
D15*
X81974992Y-115749997D03*
X85524992Y-115749997D03*
D16*
X87559990Y-115749997D03*
%TD*%
D14*
%TO.C,D27*%
X79940004Y-93250001D03*
D15*
X81975002Y-93250001D03*
X85525002Y-93250001D03*
D16*
X87560000Y-93250001D03*
%TD*%
D11*
%TO.C,SW30*%
X171580001Y-115500000D03*
D12*
X166500000Y-115499999D03*
D11*
X161419999Y-115499998D03*
%TD*%
%TO.C,SW32*%
X208920000Y-115499999D03*
D12*
X214000000Y-115499999D03*
D11*
X219080000Y-115499999D03*
D13*
X210190000Y-118039999D03*
X216540000Y-120579999D03*
%TD*%
D11*
%TO.C,SW15*%
X101161393Y-85224688D03*
D12*
X106164216Y-84342556D03*
D11*
X111167039Y-83460424D03*
%TD*%
D14*
%TO.C,D32*%
X79939999Y-110750001D03*
D15*
X81974997Y-110750001D03*
X85524997Y-110750001D03*
D16*
X87559995Y-110750001D03*
%TD*%
M02*
