M48
; DRILL file {KiCad 9.0.4} date 2026-03-04T00:34:48+0900
; FORMAT={-:-/ absolute / metric / decimal}
; #@! TF.CreationDate,2026-03-04T00:34:48+09:00
; #@! TF.GenerationSoftware,Kicad,Pcbnew,9.0.4
; #@! TF.FileFunction,NonPlated,1,2,NPTH
FMAT,2
METRIC
; #@! TA.AperFunction,NonPlated,NPTH,ComponentDrill
T1C0.800
; #@! TA.AperFunction,NonPlated,NPTH,ComponentDrill
T2C1.700
; #@! TA.AperFunction,NonPlated,NPTH,ComponentDrill
T3C3.048
; #@! TA.AperFunction,NonPlated,NPTH,ComponentDrill
T4C3.988
; #@! TA.AperFunction,NonPlated,NPTH,ComponentDrill
T5C4.000
%
G90
G05
T1
X229.0Y-29.1
X229.0Y-29.1
X229.0Y-36.1
X229.0Y-36.1
T2
X93.947Y-47.911
X96.484Y-86.05
X96.484Y-86.05
X98.724Y-66.361
X99.636Y-124.08
X101.014Y-104.544
X101.161Y-85.225
X101.161Y-85.225
X103.953Y-46.146
X106.489Y-84.285
X106.489Y-84.285
X108.729Y-64.597
X109.641Y-122.316
X110.37Y-102.894
X111.02Y-102.78
X111.167Y-83.46
X111.167Y-83.46
X112.659Y-44.611
X120.375Y-101.13
X120.686Y-120.368
X122.064Y-100.832
X122.113Y-62.237
X122.664Y-42.847
X130.692Y-118.604
X131.567Y-79.863
X132.07Y-99.068
X132.111Y-39.979
X132.119Y-60.473
X141.573Y-78.099
X141.648Y-97.807
X142.233Y-39.093
X142.42Y-58.5
X151.769Y-96.921
X151.92Y-39.5
X151.92Y-77.5
X152.58Y-58.5
X161.42Y-96.5
X161.42Y-115.5
X161.42Y-58.5
X161.42Y-115.5
X162.08Y-39.5
X162.08Y-77.5
X163.795Y-115.5
X163.795Y-115.5
X170.92Y-39.5
X170.92Y-77.5
X171.58Y-96.5
X171.58Y-58.5
X171.58Y-115.5
X171.58Y-115.5
X173.955Y-115.5
X173.955Y-115.5
X180.42Y-115.5
X180.42Y-58.5
X180.42Y-96.5
X181.08Y-39.5
X181.08Y-77.5
X189.92Y-77.5
X189.92Y-39.5
X190.58Y-58.5
X190.58Y-96.5
X190.58Y-115.5
X199.42Y-58.5
X199.42Y-96.5
X200.08Y-77.5
X200.08Y-39.5
X201.795Y-115.5
X208.92Y-39.5
X208.92Y-77.5
X208.92Y-115.5
X209.58Y-58.5
X209.58Y-96.5
X211.955Y-115.5
X218.42Y-58.5
X218.42Y-96.5
X219.08Y-39.5
X219.08Y-77.5
X219.08Y-115.5
X228.58Y-58.5
X228.58Y-96.5
T3
X95.621Y-93.294
X102.403Y-97.206
X119.134Y-89.148
X125.916Y-93.06
X194.937Y-108.515
X202.062Y-122.485
X218.813Y-108.515
X225.938Y-122.485
T4
X92.974Y-78.286
X105.049Y-112.215
X116.487Y-74.14
X128.562Y-108.069
X194.937Y-123.755
X202.062Y-107.245
X218.813Y-123.755
X225.938Y-107.245
T5
X98.95Y-47.028
X101.486Y-85.167
X101.486Y-85.167
X103.727Y-65.479
X104.638Y-123.198
X106.017Y-103.662
X106.164Y-84.343
X106.164Y-84.343
X115.372Y-102.012
X117.661Y-43.729
X125.689Y-119.486
X127.067Y-99.95
X127.116Y-61.355
X136.57Y-78.981
X137.172Y-39.536
X146.708Y-97.364
X147.5Y-58.5
X157.0Y-39.5
X157.0Y-77.5
X166.5Y-96.5
X166.5Y-58.5
X166.5Y-115.5
X166.5Y-115.5
X168.875Y-115.5
X168.875Y-115.5
X176.0Y-39.5
X176.0Y-77.5
X185.5Y-58.5
X185.5Y-96.5
X185.5Y-115.5
X195.0Y-77.5
X195.0Y-39.5
X204.5Y-58.5
X204.5Y-96.5
X206.875Y-115.5
X214.0Y-39.5
X214.0Y-77.5
X214.0Y-115.5
X223.5Y-58.5
X223.5Y-96.5
M30
