  0
SECTION
  2
HEADER
  9
$ACADVER
  1
AC1015
  9
$ACADMAINTVER
 70
    20
  9
$DWGCODEPAGE
  3
ANSI_1252
  9
$INSBASE
 10
0.0
 20
0.0
 30
0.0
  9
$EXTMIN
 10
-160.035707974432
 20
24.384405141383
 30
0.0
  9
$EXTMAX
 10
-3.499999999999
 20
131.305248171816
 30
0.0
  9
$LIMMIN
 10
-160.035707974432
 20
24.384405141383
  9
$LIMMAX
 10
-3.499999999999
 20
131.305248171816
  9
$ORTHOMODE
 70
     0
  9
$REGENMODE
 70
     1
  9
$FILLMODE
 70
     1
  9
$QTEXTMODE
 70
     0
  9
$MIRRTEXT
 70
     0
  9
$LTSCALE
 40
1.0
  9
$ATTMODE
 70
     1
  9
$TEXTSIZE
 40
2.5
  9
$TRACEWID
 40
1.0
  9
$TEXTSTYLE
  7
Standard
  9
$CLAYER
  8
0
  9
$CELTYPE
  6
ByLayer
  9
$CECOLOR
 62
   256
  9
$CELTSCALE
 40
1.0
  9
$DISPSILH
 70
     0
  9
$DIMSCALE
 40
1.0
  9
$DIMASZ
 40
2.5
  9
$DIMEXO
 40
0.625
  9
$DIMDLI
 40
3.75
  9
$DIMRND
 40
0.0
  9
$DIMDLE
 40
0.0
  9
$DIMEXE
 40
1.25
  9
$DIMTP
 40
0.0
  9
$DIMTM
 40
0.0
  9
$DIMTXT
 40
2.5
  9
$DIMCEN
 40
2.5
  9
$DIMTSZ
 40
0.0
  9
$DIMTOL
 70
     0
  9
$DIMLIM
 70
     0
  9
$DIMTIH
 70
     0
  9
$DIMTOH
 70
     0
  9
$DIMSE1
 70
     0
  9
$DIMSE2
 70
     0
  9
$DIMTAD
 70
     1
  9
$DIMZIN
 70
     8
  9
$DIMBLK
  1

  9
$DIMASO
 70
     1
  9
$DIMSHO
 70
     1
  9
$DIMPOST
  1

  9
$DIMAPOST
  1

  9
$DIMALT
 70
     0
  9
$DIMALTD
 70
     3
  9
$DIMALTF
 40
0.03937007874
  9
$DIMLFAC
 40
1.0
  9
$DIMTOFL
 70
     1
  9
$DIMTVP
 40
0.0
  9
$DIMTIX
 70
     0
  9
$DIMSOXD
 70
     0
  9
$DIMSAH
 70
     0
  9
$DIMBLK1
  1

  9
$DIMBLK2
  1

  9
$DIMSTYLE
  2
ISO-25
  9
$DIMCLRD
 70
     0
  9
$DIMCLRE
 70
     0
  9
$DIMCLRT
 70
     0
  9
$DIMTFAC
 40
1.0
  9
$DIMGAP
 40
0.625
  9
$DIMJUST
 70
     0
  9
$DIMSD1
 70
     0
  9
$DIMSD2
 70
     0
  9
$DIMTOLJ
 70
     0
  9
$DIMTZIN
 70
     8
  9
$DIMALTZ
 70
     0
  9
$DIMALTTZ
 70
     0
  9
$DIMUPT
 70
     0
  9
$DIMDEC
 70
     2
  9
$DIMTDEC
 70
     2
  9
$DIMALTU
 70
     2
  9
$DIMALTTD
 70
     3
  9
$DIMTXSTY
  7
Standard
  9
$DIMAUNIT
 70
     0
  9
$DIMADEC
 70
     0
  9
$DIMALTRND
 40
0.0
  9
$DIMAZIN
 70
     0
  9
$DIMDSEP
 70
    44
  9
$DIMATFIT
 70
     3
  9
$DIMFRAC
 70
     0
  9
$DIMLDRBLK
  1

  9
$DIMLUNIT
 70
     2
  9
$DIMLWD
 70
    -2
  9
$DIMLWE
 70
    -2
  9
$DIMTMOVE
 70
     0
  9
$LUNITS
 70
     2
  9
$LUPREC
 70
     4
  9
$SKETCHINC
 40
1.0
  9
$FILLETRAD
 40
0.0
  9
$AUNITS
 70
     0
  9
$AUPREC
 70
     0
  9
$MENU
  1
.
  9
$ELEVATION
 40
0.0
  9
$PELEVATION
 40
0.0
  9
$THICKNESS
 40
0.0
  9
$LIMCHECK
 70
     0
  9
$CHAMFERA
 40
0.0
  9
$CHAMFERB
 40
0.0
  9
$CHAMFERC
 40
0.0
  9
$CHAMFERD
 40
0.0
  9
$SKPOLY
 70
     0
  9
$TDCREATE
 40
2456236.994979560841
  9
$TDUCREATE
 40
2456237.328312892932
  9
$TDUPDATE
 40
2456236.997909063008
  9
$TDUUPDATE
 40
2456237.331242396031
  9
$TDINDWG
 40
0.0029298727
  9
$TDUSRTIMER
 40
0.0029298727
  9
$USRTIMER
 70
     1
  9
$ANGBASE
 50
0.0
  9
$ANGDIR
 70
     0
  9
$PDMODE
 70
     0
  9
$PDSIZE
 40
0.0
  9
$PLINEWID
 40
0.0
  9
$SPLFRAME
 70
     0
  9
$SPLINETYPE
 70
     6
  9
$SPLINESEGS
 70
     8
  9
$HANDSEED
  5
e3
  9
$SURFTAB1
 70
     6
  9
$SURFTAB2
 70
     6
  9
$SURFTYPE
 70
     6
  9
$SURFU
 70
     6
  9
$SURFV
 70
     6
  9
$UCSBASE
  2

  9
$UCSNAME
  2

  9
$UCSORG
 10
0.0
 20
0.0
 30
0.0
  9
$UCSXDIR
 10
1.0
 20
0.0
 30
0.0
  9
$UCSYDIR
 10
0.0
 20
1.0
 30
0.0
  9
$UCSORTHOREF
  2

  9
$UCSORTHOVIEW
 70
     0
  9
$UCSORGTOP
 10
0.0
 20
0.0
 30
0.0
  9
$UCSORGBOTTOM
 10
0.0
 20
0.0
 30
0.0
  9
$UCSORGLEFT
 10
0.0
 20
0.0
 30
0.0
  9
$UCSORGRIGHT
 10
0.0
 20
0.0
 30
0.0
  9
$UCSORGFRONT
 10
0.0
 20
0.0
 30
0.0
  9
$UCSORGBACK
 10
0.0
 20
0.0
 30
0.0
  9
$PUCSBASE
  2

  9
$PUCSNAME
  2

  9
$PUCSORG
 10
0.0
 20
0.0
 30
0.0
  9
$PUCSXDIR
 10
1.0
 20
0.0
 30
0.0
  9
$PUCSYDIR
 10
0.0
 20
1.0
 30
0.0
  9
$PUCSORTHOREF
  2

  9
$PUCSORTHOVIEW
 70
     0
  9
$PUCSORGTOP
 10
0.0
 20
0.0
 30
0.0
  9
$PUCSORGBOTTOM
 10
0.0
 20
0.0
 30
0.0
  9
$PUCSORGLEFT
 10
0.0
 20
0.0
 30
0.0
  9
$PUCSORGRIGHT
 10
0.0
 20
0.0
 30
0.0
  9
$PUCSORGFRONT
 10
0.0
 20
0.0
 30
0.0
  9
$PUCSORGBACK
 10
0.0
 20
0.0
 30
0.0
  9
$USERI1
 70
     0
  9
$USERI2
 70
     0
  9
$USERI3
 70
     0
  9
$USERI4
 70
     0
  9
$USERI5
 70
     0
  9
$USERR1
 40
0.0
  9
$USERR2
 40
0.0
  9
$USERR3
 40
0.0
  9
$USERR4
 40
0.0
  9
$USERR5
 40
0.0
  9
$WORLDVIEW
 70
     1
  9
$SHADEDGE
 70
     3
  9
$SHADEDIF
 70
    70
  9
$TILEMODE
 70
     1
  9
$MAXACTVP
 70
    64
  9
$PINSBASE
 10
0.0
 20
0.0
 30
0.0
  9
$PLIMCHECK
 70
     0
  9
$PEXTMIN
 10
100000000000000000000.0
 20
100000000000000000000.0
 30
100000000000000000000.0
  9
$PEXTMAX
 10
-100000000000000000000.0
 20
-100000000000000000000.0
 30
-100000000000000000000.0
  9
$PLIMMIN
 10
0.0
 20
0.0
  9
$PLIMMAX
 10
420.0
 20
297.0
  9
$UNITMODE
 70
     0
  9
$VISRETAIN
 70
     1
  9
$PLINEGEN
 70
     0
  9
$PSLTSCALE
 70
     1
  9
$TREEDEPTH
 70
  3020
  9
$CMLSTYLE
  2
Standard
  9
$CMLJUST
 70
     0
  9
$CMLSCALE
 40
20.0
  9
$PROXYGRAPHICS
 70
     1
  9
$MEASUREMENT
 70
     1
  9
$CELWEIGHT
370
-1
  9
$ENDCAPS
280
     0
  9
$JOINSTYLE
280
     0
  9
$LWDISPLAY
290
0
  9
$INSUNITS
 70
     0
  9
$HYPERLINKBASE
  1

  9
$STYLESHEET
  1

  9
$XEDIT
290
1
  9
$CEPSNTYPE
380
0
  9
$PSTYLEMODE
290
1
  9
$FINGERPRINTGUID
  2
{9F64BE1D-7005-473A-A8E1-C681473DCB35}
  9
$VERSIONGUID
  2
{14C65E86-4364-4B17-B71B-D4CF0DEE0ACB}
  9
$EXTNAMES
290
1
  9
$PSVPSCALE
 40
0.0
  9
$OLESTARTUP
290
0
  0
ENDSEC
  0
SECTION
  2
CLASSES
  0
CLASS
  1
ACDBDICTIONARYWDFLT
  2
AcDbDictionaryWithDefault
  3
ObjectDBX Classes
 90
     0
280
     0
281
     0
  0
CLASS
  1
MATERIAL
  2
AcDbMaterial
  3
ObjectDBX Classes
 90
  1153
280
     0
281
     0
  0
CLASS
  1
VISUALSTYLE
  2
AcDbVisualStyle
  3
ObjectDBX Classes
 90
  4095
280
     0
281
     0
  0
CLASS
  1
SCALE
  2
AcDbScale
  3
ObjectDBX Classes
 90
  1153
280
     0
281
     0
  0
CLASS
  1
TABLESTYLE
  2
AcDbTableStyle
  3
ObjectDBX Classes
 90
  4095
280
     0
281
     0
  0
CLASS
  1
MLEADERSTYLE
  2
AcDbMLeaderStyle
  3
ACDB_MLEADERSTYLE_CLASS
 90
  4095
280
     0
281
     0
  0
CLASS
  1
DICTIONARYVAR
  2
AcDbDictionaryVar
  3
ObjectDBX Classes
 90
     0
280
     0
281
     0
  0
CLASS
  1
CELLSTYLEMAP
  2
AcDbCellStyleMap
  3
ObjectDBX Classes
 90
  1152
280
     0
281
     0
  0
CLASS
  1
ACDBPLACEHOLDER
  2
AcDbPlaceHolder
  3
ObjectDBX Classes
 90
     0
280
     0
281
     0
  0
CLASS
  1
LAYOUT
  2
AcDbLayout
  3
ObjectDBX Classes
 90
     0
280
     0
281
     0
  0
ENDSEC
  0
SECTION
  2
TABLES
  0
TABLE
  2
VPORT
  5
8
330
0
100
AcDbSymbolTable
 70
     1
  0
VPORT
  5
5F
330
8
100
AcDbSymbolTableRecord
100
AcDbViewportTableRecord
  2
*Active
 70
     0
 10
0.0
 20
0.0
 11
1.0
 21
1.0
 12
362.004492939666
 22
148.5
 13
0.0
 23
0.0
 14
10.0
 24
10.0
 15
10.0
 25
10.0
 16
0.0
 26
0.0
 36
1.0
 17
-160.035707974432
 27
24.384405141383
 37
0.0
 40
297.0
 41
2.437740693196
 42
50.0
 43
0.0
 44
0.0
 50
0.0
 51
0.0
 71
     0
 72
  1000
 73
     1
 74
     3
 75
     0
 76
     0
 77
     0
 78
     0
281
     0
 65
     1
110
0.0
120
0.0
130
0.0
111
1.0
121
0.0
131
0.0
112
0.0
122
1.0
132
0.0
 79
     0
146
0.0
  0
ENDTAB
  0
TABLE
  2
LTYPE
  5
5
330
0
100
AcDbSymbolTable
 70
     3
  0
LTYPE
  5
63
330
5
100
AcDbSymbolTableRecord
100
AcDbLinetypeTableRecord
  2
ByBlock
 70
     0
  3

 72
    65
 73
     0
 40
0.0
  0
LTYPE
  5
64
330
5
100
AcDbSymbolTableRecord
100
AcDbLinetypeTableRecord
  2
ByLayer
 70
     0
  3

 72
    65
 73
     0
 40
0.0
  0
LTYPE
  5
65
330
5
100
AcDbSymbolTableRecord
100
AcDbLinetypeTableRecord
  2
Continuous
 70
     0
  3
Solid line
 72
    65
 73
     0
 40
0.0
  0
ENDTAB
  0
TABLE
  2
LAYER
  5
2
330
0
100
AcDbSymbolTable
 70
     2
  0
LAYER
  5
5C
102
{ACAD_XDICTIONARY
360
9A
102
}
330
2
100
AcDbSymbolTableRecord
100
AcDbLayerTableRecord
 70
     0
  6
Continuous
370
-3
390
F
  2
0
 62
     7
  0
LAYER
  5
b8
100
AcDbSymbolTableRecord
100
AcDbLayerTableRecord
  6
Continuous
 70
     0
370
-3
390
F
  2
Plate
 62
     3
  0
ENDTAB
  0
TABLE
  2
STYLE
  5
3
330
0
100
AcDbSymbolTable
 70
     2
  0
STYLE
  5
5D
330
3
100
AcDbSymbolTableRecord
100
AcDbTextStyleTableRecord
  2
Standard
 70
     0
 40
0.0
 41
1.0
 50
0.0
 71
     0
 42
2.5
  3
txt
  4

  0
STYLE
  5
62
330
3
100
AcDbSymbolTableRecord
100
AcDbTextStyleTableRecord
  2
Annotative
 70
     0
 40
0.0
 41
1.0
 50
0.0
 71
     0
 42
0.2
  3

  4

1001
AcadAnnotative
1000
AnnotativeData
1002
{
1070
     1
1070
     1
1002
}
  0
ENDTAB
  0
TABLE
  2
VIEW
  5
6
330
0
100
AcDbSymbolTable
 70
     0
  0
ENDTAB
  0
TABLE
  2
UCS
  5
7
330
0
100
AcDbSymbolTable
 70
     0
  0
ENDTAB
  0
TABLE
  2
APPID
  5
9
330
0
100
AcDbSymbolTable
 70
     5
  0
APPID
  5
5E
330
9
100
AcDbSymbolTableRecord
100
AcDbRegAppTableRecord
  2
ACAD
 70
     0
  0
APPID
  5
66
330
9
100
AcDbSymbolTableRecord
100
AcDbRegAppTableRecord
  2
AcadAnnotative
 70
     0
  0
APPID
  5
70
330
9
100
AcDbSymbolTableRecord
100
AcDbRegAppTableRecord
  2
ACAD_MLEADERVER
 70
     0
  0
APPID
  5
80
330
9
100
AcDbSymbolTableRecord
100
AcDbRegAppTableRecord
  2
ACAD_EXEMPT_FROM_CAD_STANDARDS
 70
     0
  0
APPID
  5
AF
330
9
100
AcDbSymbolTableRecord
100
AcDbRegAppTableRecord
  2
ACAD_DSTYLE_DIMJOGGED_JOGANGLE_SYMBOL
 70
     0
  0
ENDTAB
  0
TABLE
  2
DIMSTYLE
  5
A
330
0
100
AcDbSymbolTable
100
AcDbDimStyleTable
 71
     1
340
60
 70
     2
  0
DIMSTYLE
105
60
330
A
100
AcDbSymbolTableRecord
100
AcDbDimStyleTableRecord
  2
ISO-25
 70
     0
 41
2.5
 42
0.625
 43
3.75
 44
1.25
 73
     0
 74
     0
 77
     1
 78
     8
140
2.5
141
2.5
143
0.03937007874
147
0.625
171
     3
172
     1
271
     2
272
     2
274
     3
278
44
283
     0
284
     8
340
5D
1001
ACAD_DSTYLE_DIMJOGGED_JOGANGLE_SYMBOL
1070
   384
1040
1.570796326794896
  0
DIMSTYLE
105
61
330
A
100
AcDbSymbolTableRecord
100
AcDbDimStyleTableRecord
  2
Annotative
 70
     0
340
5D
1001
AcadAnnotative
1000
AnnotativeData
1002
{
1070
     1
1070
     1
1002
}
  0
ENDTAB
  0
TABLE
  2
BLOCK_RECORD
  5
1
330
0
100
AcDbSymbolTable
 70
     3
  0
BLOCK_RECORD
  5
75
330
1
100
AcDbSymbolTableRecord
100
AcDbBlockTableRecord
  2
*Model_Space
340
78
  0
BLOCK_RECORD
  5
71
330
1
100
AcDbSymbolTableRecord
100
AcDbBlockTableRecord
  2
*Paper_Space
340
74
  0
BLOCK_RECORD
  5
79
330
1
100
AcDbSymbolTableRecord
100
AcDbBlockTableRecord
  2
*Paper_Space0
340
7C
  0
ENDTAB
  0
ENDSEC
  0
SECTION
  2
BLOCKS
  0
BLOCK
  5
76
102
{ACAD_REACTORS
330
75
102
}
100
AcDbEntity
  8
0
100
AcDbBlockBegin
  2
*Model_Space
 70
     0
 10
0.0
 20
0.0
 30
0.0
  3
*Model_Space
  1

  0
ENDBLK
  5
77
102
{ACAD_REACTORS
330
75
102
}
100
AcDbEntity
  8
0
100
AcDbBlockEnd
  0
BLOCK
  5
72
102
{ACAD_REACTORS
330
71
102
}
100
AcDbEntity
 67
     1
  8
0
100
AcDbBlockBegin
  2
*Paper_Space
 70
     0
 10
0.0
 20
0.0
 30
0.0
  3
*Paper_Space
  1

  0
ENDBLK
  5
73
102
{ACAD_REACTORS
330
71
102
}
100
AcDbEntity
 67
     1
  8
0
100
AcDbBlockEnd
  0
BLOCK
  5
7A
102
{ACAD_REACTORS
330
79
102
}
100
AcDbEntity
 67
     1
  8
0
100
AcDbBlockBegin
  2
*Paper_Space0
 70
     0
 10
0.0
 20
0.0
 30
0.0
  3
*Paper_Space0
  1

  0
ENDBLK
  5
7B
102
{ACAD_REACTORS
330
79
102
}
100
AcDbEntity
 67
     1
  8
0
100
AcDbBlockEnd
  0
ENDSEC
  0
SECTION
  2
ENTITIES
  0
SPLINE
  5
b9
100
AcDbEntity
  8
Plate
100
AcDbSpline
 70
     9
 71
     3
 72
    29
 73
    25
 74
     0
 42
0.0000001
 43
0.0000001
 40
0.0
 40
0.0
 40
0.0
 40
0.0
 40
1.0
 40
1.0
 40
1.0
 40
14.0
 40
14.0
 40
14.0
 40
15.0
 40
15.0
 40
15.0
 40
28.0
 40
28.0
 40
28.0
 40
29.0
 40
29.0
 40
29.0
 40
42.0
 40
42.0
 40
42.0
 40
43.0
 40
43.0
 40
43.0
 40
56.0
 40
56.0
 40
56.0
 40
56.0
 10
-131.603513971955
 20
107.654135225856
 30
0.0
 10
-131.555605828922
 20
107.382434645262
 30
0.0
 10
-131.295986587209
 20
107.20064729515
 30
0.0
 10
-131.024286006615
 20
107.248555438183
 30
0.0
 10
-126.756785743562
 20
108.00103087474
 30
0.0
 10
-122.489285480509
 20
108.753506311297
 30
0.0
 10
-118.221785217456
 20
109.505981747853
 30
0.0
 10
-117.950084636862
 20
109.553889890886
 30
0.0
 10
-117.768297286751
 20
109.813509132599
 30
0.0
 10
-117.816205429784
 20
110.085209713193
 30
0.0
 10
-118.568680866341
 20
114.352709976246
 30
0.0
 10
-119.321156302897
 20
118.620210239299
 30
0.0
 10
-120.073631739454
 20
122.887710502352
 30
0.0
 10
-120.121539882487
 20
123.159411082946
 30
0.0
 10
-120.381159124199
 20
123.341198433057
 30
0.0
 10
-120.652859704794
 20
123.293290290024
 30
0.0
 10
-124.920359967846
 20
122.540814853468
 30
0.0
 10
-129.187860230899
 20
121.788339416911
 30
0.0
 10
-133.455360493952
 20
121.035863980354
 30
0.0
 10
-133.727061074546
 20
120.987955837321
 30
0.0
 10
-133.908848424658
 20
120.728336595609
 30
0.0
 10
-133.860940281625
 20
120.456636015015
 30
0.0
 10
-133.108464845068
 20
116.189135751962
 30
0.0
 10
-132.355989408511
 20
111.921635488909
 30
0.0
 10
-131.603513971955
 20
107.654135225856
 30
0.0
  0
SPLINE
  5
ba
100
AcDbEntity
  8
Plate
100
AcDbSpline
 70
     9
 71
     3
 72
    29
 73
    25
 74
     0
 42
0.0000001
 43
0.0000001
 40
0.0
 40
0.0
 40
0.0
 40
0.0
 40
1.0
 40
1.0
 40
1.0
 40
14.0
 40
14.0
 40
14.0
 40
15.0
 40
15.0
 40
15.0
 40
28.0
 40
28.0
 40
28.0
 40
29.0
 40
29.0
 40
29.0
 40
42.0
 40
42.0
 40
42.0
 40
43.0
 40
43.0
 40
43.0
 40
56.0
 40
56.0
 40
56.0
 40
56.0
 10
-112.734830114886
 20
112.378493895042
 30
0.0
 10
-112.710784542708
 20
112.103651747396
 30
0.0
 10
-112.467997042112
 20
111.899928845191
 30
0.0
 10
-112.193154894466
 20
111.92397441737
 30
0.0
 10
-107.876311202735
 20
112.301649302609
 30
0.0
 10
-103.559467511004
 20
112.679324187849
 30
0.0
 10
-99.242623819273
 20
113.056999073089
 30
0.0
 10
-98.967781671627
 20
113.081044645267
 30
0.0
 10
-98.764058769423
 20
113.323832145863
 30
0.0
 10
-98.788104341601
 20
113.598674293509
 30
0.0
 10
-99.165779226841
 20
117.91551798524
 30
0.0
 10
-99.543454112081
 20
122.232361676971
 30
0.0
 10
-99.921128997321
 20
126.549205368701
 30
0.0
 10
-99.945174569499
 20
126.824047516347
 30
0.0
 10
-100.187962070095
 20
127.027770418552
 30
0.0
 10
-100.462804217741
 20
127.003724846374
 30
0.0
 10
-104.779647909471
 20
126.626049961134
 30
0.0
 10
-109.096491601202
 20
126.248375075894
 30
0.0
 10
-113.413335292933
 20
125.870700190654
 30
0.0
 10
-113.688177440579
 20
125.846654618476
 30
0.0
 10
-113.891900342783
 20
125.60386711788
 30
0.0
 10
-113.867854770605
 20
125.329024970234
 30
0.0
 10
-113.490179885365
 20
121.012181278503
 30
0.0
 10
-113.112505000126
 20
116.695337586772
 30
0.0
 10
-112.734830114886
 20
112.378493895041
 30
0.0
  0
SPLINE
  5
bb
100
AcDbEntity
  8
Plate
100
AcDbSpline
 70
     9
 71
     3
 72
    29
 73
    25
 74
     0
 42
0.0000001
 43
0.0000001
 40
0.0
 40
0.0
 40
0.0
 40
0.0
 40
1.0
 40
1.0
 40
1.0
 40
14.0
 40
14.0
 40
14.0
 40
15.0
 40
15.0
 40
15.0
 40
28.0
 40
28.0
 40
28.0
 40
29.0
 40
29.0
 40
29.0
 40
42.0
 40
42.0
 40
42.0
 40
43.0
 40
43.0
 40
43.0
 40
56.0
 40
56.0
 40
56.0
 40
56.0
 10
-93.5
 20
113.0
 30
0.0
 10
-93.5
 20
112.724108
 30
0.0
 10
-93.275892
 20
112.5
 30
0.0
 10
-93.0
 20
112.5
 30
0.0
 10
-88.666666666667
 20
112.5
 30
0.0
 10
-84.333333333334
 20
112.5
 30
0.0
 10
-80.0
 20
112.5
 30
0.0
 10
-79.724108
 20
112.5
 30
0.0
 10
-79.5
 20
112.724108
 30
0.0
 10
-79.5
 20
113.0
 30
0.0
 10
-79.5
 20
117.333333333333
 30
0.0
 10
-79.5
 20
121.666666666667
 30
0.0
 10
-79.500000000001
 20
126.0
 30
0.0
 10
-79.5
 20
126.275892
 30
0.0
 10
-79.724108
 20
126.5
 30
0.0
 10
-80.0
 20
126.5
 30
0.0
 10
-84.333333333334
 20
126.5
 30
0.0
 10
-88.666666666667
 20
126.5
 30
0.0
 10
-93.000000000001
 20
126.5
 30
0.0
 10
-93.275892000001
 20
126.5
 30
0.0
 10
-93.500000000001
 20
126.275892
 30
0.0
 10
-93.500000000001
 20
126.0
 30
0.0
 10
-93.500000000001
 20
121.666666666667
 30
0.0
 10
-93.5
 20
117.333333333333
 30
0.0
 10
-93.5
 20
113.0
 30
0.0
  0
SPLINE
  5
bc
100
AcDbEntity
  8
Plate
100
AcDbSpline
 70
     9
 71
     3
 72
    29
 73
    25
 74
     0
 42
0.0000001
 43
0.0000001
 40
0.0
 40
0.0
 40
0.0
 40
0.0
 40
1.0
 40
1.0
 40
1.0
 40
14.0
 40
14.0
 40
14.0
 40
15.0
 40
15.0
 40
15.0
 40
28.0
 40
28.0
 40
28.0
 40
29.0
 40
29.0
 40
29.0
 40
42.0
 40
42.0
 40
42.0
 40
43.0
 40
43.0
 40
43.0
 40
56.0
 40
56.0
 40
56.0
 40
56.0
 10
-112.694786307959
 20
72.402042832229
 30
0.0
 10
-112.646878164926
 20
72.130342251635
 30
0.0
 10
-112.387258923213
 20
71.948554901523
 30
0.0
 10
-112.115558342619
 20
71.996463044556
 30
0.0
 10
-107.848058079566
 20
72.748938481113
 30
0.0
 10
-103.580557816513
 20
73.50141391767
 30
0.0
 10
-99.31305755346
 20
74.253889354226
 30
0.0
 10
-99.041356972866
 20
74.301797497259
 30
0.0
 10
-98.859569622755
 20
74.561416738972
 30
0.0
 10
-98.907477765788
 20
74.833117319566
 30
0.0
 10
-99.659953202344
 20
79.100617582619
 30
0.0
 10
-100.412428638901
 20
83.368117845672
 30
0.0
 10
-101.164904075458
 20
87.635618108724
 30
0.0
 10
-101.212812218491
 20
87.907318689319
 30
0.0
 10
-101.472431460203
 20
88.08910603943
 30
0.0
 10
-101.744132040797
 20
88.041197896397
 30
0.0
 10
-106.01163230385
 20
87.28872245984
 30
0.0
 10
-110.279132566903
 20
86.536247023284
 30
0.0
 10
-114.546632829956
 20
85.783771586727
 30
0.0
 10
-114.81833341055
 20
85.735863443694
 30
0.0
 10
-115.000120760662
 20
85.476244201981
 30
0.0
 10
-114.952212617629
 20
85.204543621387
 30
0.0
 10
-114.199737181072
 20
80.937043358335
 30
0.0
 10
-113.447261744515
 20
76.669543095282
 30
0.0
 10
-112.694786307959
 20
72.402042832229
 30
0.0
  0
SPLINE
  5
bd
100
AcDbEntity
  8
Plate
100
AcDbSpline
 70
     9
 71
     3
 72
    29
 73
    25
 74
     0
 42
0.0000001
 43
0.0000001
 40
0.0
 40
0.0
 40
0.0
 40
0.0
 40
1.0
 40
1.0
 40
1.0
 40
14.0
 40
14.0
 40
14.0
 40
15.0
 40
15.0
 40
15.0
 40
28.0
 40
28.0
 40
28.0
 40
29.0
 40
29.0
 40
29.0
 40
42.0
 40
42.0
 40
42.0
 40
43.0
 40
43.0
 40
43.0
 40
56.0
 40
56.0
 40
56.0
 40
56.0
 10
-103.0
 20
94.0
 30
0.0
 10
-103.0
 20
93.724108
 30
0.0
 10
-102.775892
 20
93.5
 30
0.0
 10
-102.5
 20
93.5
 30
0.0
 10
-98.166666666667
 20
93.5
 30
0.0
 10
-93.833333333334
 20
93.5
 30
0.0
 10
-89.5
 20
93.5
 30
0.0
 10
-89.224108
 20
93.5
 30
0.0
 10
-89.0
 20
93.724108
 30
0.0
 10
-89.0
 20
94.0
 30
0.0
 10
-89.0
 20
98.333333333333
 30
0.0
 10
-89.0
 20
102.666666666667
 30
0.0
 10
-89.0
 20
107.0
 30
0.0
 10
-89.0
 20
107.275892
 30
0.0
 10
-89.224108
 20
107.5
 30
0.0
 10
-89.5
 20
107.5
 30
0.0
 10
-93.833333333334
 20
107.5
 30
0.0
 10
-98.166666666667
 20
107.5
 30
0.0
 10
-102.5
 20
107.5
 30
0.0
 10
-102.775892
 20
107.5
 30
0.0
 10
-103.0
 20
107.275892
 30
0.0
 10
-103.0
 20
107.0
 30
0.0
 10
-103.0
 20
102.666666666667
 30
0.0
 10
-103.0
 20
98.333333333333
 30
0.0
 10
-103.0
 20
94.0
 30
0.0
  0
SPLINE
  5
be
100
AcDbEntity
  8
Plate
100
AcDbSpline
 70
     9
 71
     3
 72
    29
 73
    25
 74
     0
 42
0.0000001
 43
0.0000001
 40
0.0
 40
0.0
 40
0.0
 40
0.0
 40
1.0
 40
1.0
 40
1.0
 40
14.0
 40
14.0
 40
14.0
 40
15.0
 40
15.0
 40
15.0
 40
28.0
 40
28.0
 40
28.0
 40
29.0
 40
29.0
 40
29.0
 40
42.0
 40
42.0
 40
42.0
 40
43.0
 40
43.0
 40
43.0
 40
56.0
 40
56.0
 40
56.0
 40
56.0
 10
-46.0
 20
94.0
 30
0.0
 10
-46.0
 20
93.724108
 30
0.0
 10
-45.775892
 20
93.5
 30
0.0
 10
-45.5
 20
93.5
 30
0.0
 10
-41.166666666667
 20
93.5
 30
0.0
 10
-36.833333333334
 20
93.5
 30
0.0
 10
-32.5
 20
93.5
 30
0.0
 10
-32.224108
 20
93.5
 30
0.0
 10
-32.0
 20
93.724108
 30
0.0
 10
-32.0
 20
94.0
 30
0.0
 10
-32.0
 20
98.333333333333
 30
0.0
 10
-32.0
 20
102.666666666667
 30
0.0
 10
-32.0
 20
107.0
 30
0.0
 10
-32.0
 20
107.275892
 30
0.0
 10
-32.224108
 20
107.5
 30
0.0
 10
-32.5
 20
107.5
 30
0.0
 10
-36.833333333334
 20
107.5
 30
0.0
 10
-41.166666666667
 20
107.5
 30
0.0
 10
-45.5
 20
107.5
 30
0.0
 10
-45.775892
 20
107.5
 30
0.0
 10
-46.0
 20
107.275892
 30
0.0
 10
-46.0
 20
107.0
 30
0.0
 10
-46.0
 20
102.666666666667
 30
0.0
 10
-46.0
 20
98.333333333333
 30
0.0
 10
-46.0
 20
94.0
 30
0.0
  0
SPLINE
  5
bf
100
AcDbEntity
  8
Plate
100
AcDbSpline
 70
     9
 71
     3
 72
    29
 73
    25
 74
     0
 42
0.0000001
 43
0.0000001
 40
0.0
 40
0.0
 40
0.0
 40
0.0
 40
1.0
 40
1.0
 40
1.0
 40
14.0
 40
14.0
 40
14.0
 40
15.0
 40
15.0
 40
15.0
 40
28.0
 40
28.0
 40
28.0
 40
29.0
 40
29.0
 40
29.0
 40
42.0
 40
42.0
 40
42.0
 40
43.0
 40
43.0
 40
43.0
 40
56.0
 40
56.0
 40
56.0
 40
56.0
 10
-65.0
 20
94.0
 30
0.0
 10
-65.0
 20
93.724108
 30
0.0
 10
-64.775892
 20
93.5
 30
0.0
 10
-64.5
 20
93.5
 30
0.0
 10
-60.166666666667
 20
93.5
 30
0.0
 10
-55.833333333334
 20
93.5
 30
0.0
 10
-51.5
 20
93.5
 30
0.0
 10
-51.224108
 20
93.5
 30
0.0
 10
-51.0
 20
93.724108
 30
0.0
 10
-51.0
 20
94.0
 30
0.0
 10
-51.0
 20
98.333333333333
 30
0.0
 10
-51.0
 20
102.666666666667
 30
0.0
 10
-51.0
 20
107.0
 30
0.0
 10
-51.0
 20
107.275892
 30
0.0
 10
-51.224108
 20
107.5
 30
0.0
 10
-51.5
 20
107.5
 30
0.0
 10
-55.833333333334
 20
107.5
 30
0.0
 10
-60.166666666667
 20
107.5
 30
0.0
 10
-64.5
 20
107.5
 30
0.0
 10
-64.775892
 20
107.5
 30
0.0
 10
-65.0
 20
107.275892
 30
0.0
 10
-65.0
 20
107.0
 30
0.0
 10
-65.0
 20
102.666666666667
 30
0.0
 10
-65.0
 20
98.333333333333
 30
0.0
 10
-65.0
 20
94.0
 30
0.0
  0
SPLINE
  5
c0
100
AcDbEntity
  8
Plate
100
AcDbSpline
 70
     9
 71
     3
 72
    29
 73
    25
 74
     0
 42
0.0000001
 43
0.0000001
 40
0.0
 40
0.0
 40
0.0
 40
0.0
 40
1.0
 40
1.0
 40
1.0
 40
14.0
 40
14.0
 40
14.0
 40
15.0
 40
15.0
 40
15.0
 40
28.0
 40
28.0
 40
28.0
 40
29.0
 40
29.0
 40
29.0
 40
42.0
 40
42.0
 40
42.0
 40
43.0
 40
43.0
 40
43.0
 40
56.0
 40
56.0
 40
56.0
 40
56.0
 10
-84.0
 20
94.0
 30
0.0
 10
-84.0
 20
93.724108
 30
0.0
 10
-83.775892
 20
93.5
 30
0.0
 10
-83.5
 20
93.5
 30
0.0
 10
-79.166666666667
 20
93.5
 30
0.0
 10
-74.833333333334
 20
93.5
 30
0.0
 10
-70.5
 20
93.5
 30
0.0
 10
-70.224108
 20
93.5
 30
0.0
 10
-70.0
 20
93.724108
 30
0.0
 10
-70.0
 20
94.0
 30
0.0
 10
-70.0
 20
98.333333333333
 30
0.0
 10
-70.0
 20
102.666666666667
 30
0.0
 10
-70.0
 20
107.0
 30
0.0
 10
-70.0
 20
107.275892
 30
0.0
 10
-70.224108
 20
107.5
 30
0.0
 10
-70.5
 20
107.5
 30
0.0
 10
-74.833333333334
 20
107.5
 30
0.0
 10
-79.166666666667
 20
107.5
 30
0.0
 10
-83.5
 20
107.5
 30
0.0
 10
-83.775892
 20
107.5
 30
0.0
 10
-84.0
 20
107.275892
 30
0.0
 10
-84.0
 20
107.0
 30
0.0
 10
-84.0
 20
102.666666666667
 30
0.0
 10
-84.0
 20
98.333333333333
 30
0.0
 10
-84.0
 20
94.0
 30
0.0
  0
SPLINE
  5
c1
100
AcDbEntity
  8
Plate
100
AcDbSpline
 70
     9
 71
     3
 72
    29
 73
    25
 74
     0
 42
0.0000001
 43
0.0000001
 40
0.0
 40
0.0
 40
0.0
 40
0.0
 40
1.0
 40
1.0
 40
1.0
 40
14.0
 40
14.0
 40
14.0
 40
15.0
 40
15.0
 40
15.0
 40
28.0
 40
28.0
 40
28.0
 40
29.0
 40
29.0
 40
29.0
 40
42.0
 40
42.0
 40
42.0
 40
43.0
 40
43.0
 40
43.0
 40
56.0
 40
56.0
 40
56.0
 40
56.0
 10
-150.314861279187
 20
104.354819850184
 30
0.0
 10
-150.266953136154
 20
104.08311926959
 30
0.0
 10
-150.007333894441
 20
103.901331919479
 30
0.0
 10
-149.735633313847
 20
103.949240062512
 30
0.0
 10
-145.468133050794
 20
104.701715499068
 30
0.0
 10
-141.200632787741
 20
105.454190935625
 30
0.0
 10
-136.933132524688
 20
106.206666372182
 30
0.0
 10
-136.661431944094
 20
106.254574515215
 30
0.0
 10
-136.479644593983
 20
106.514193756927
 30
0.0
 10
-136.527552737016
 20
106.785894337521
 30
0.0
 10
-137.280028173572
 20
111.053394600574
 30
0.0
 10
-138.032503610129
 20
115.320894863627
 30
0.0
 10
-138.784979046686
 20
119.58839512668
 30
0.0
 10
-138.832887189719
 20
119.860095707274
 30
0.0
 10
-139.092506431432
 20
120.041883057386
 30
0.0
 10
-139.364207012026
 20
119.993974914353
 30
0.0
 10
-143.631707275078
 20
119.241499477796
 30
0.0
 10
-147.899207538131
 20
118.489024041239
 30
0.0
 10
-152.166707801184
 20
117.736548604683
 30
0.0
 10
-152.438408381778
 20
117.68864046165
 30
0.0
 10
-152.62019573189
 20
117.429021219937
 30
0.0
 10
-152.572287588857
 20
117.157320639343
 30
0.0
 10
-151.8198121523
 20
112.88982037629
 30
0.0
 10
-151.067336715743
 20
108.622320113237
 30
0.0
 10
-150.314861279187
 20
104.354819850184
 30
0.0
  0
SPLINE
  5
c2
100
AcDbEntity
  8
Plate
100
AcDbSpline
 70
     9
 71
     3
 72
    29
 73
    25
 74
     0
 42
0.0000001
 43
0.0000001
 40
0.0
 40
0.0
 40
0.0
 40
0.0
 40
1.0
 40
1.0
 40
1.0
 40
14.0
 40
14.0
 40
14.0
 40
15.0
 40
15.0
 40
15.0
 40
28.0
 40
28.0
 40
28.0
 40
29.0
 40
29.0
 40
29.0
 40
42.0
 40
42.0
 40
42.0
 40
43.0
 40
43.0
 40
43.0
 40
56.0
 40
56.0
 40
56.0
 40
56.0
 10
-46.0
 20
56.0
 30
0.0
 10
-46.0
 20
55.724108
 30
0.0
 10
-45.775892
 20
55.5
 30
0.0
 10
-45.5
 20
55.5
 30
0.0
 10
-41.166666666667
 20
55.5
 30
0.0
 10
-36.833333333334
 20
55.5
 30
0.0
 10
-32.5
 20
55.5
 30
0.0
 10
-32.224108
 20
55.5
 30
0.0
 10
-32.0
 20
55.724108
 30
0.0
 10
-32.0
 20
56.0
 30
0.0
 10
-32.0
 20
60.333333333333
 30
0.0
 10
-32.0
 20
64.666666666667
 30
0.0
 10
-32.0
 20
69.0
 30
0.0
 10
-32.0
 20
69.275892
 30
0.0
 10
-32.224108
 20
69.5
 30
0.0
 10
-32.5
 20
69.5
 30
0.0
 10
-36.833333333334
 20
69.5
 30
0.0
 10
-41.166666666667
 20
69.5
 30
0.0
 10
-45.5
 20
69.5
 30
0.0
 10
-45.775892
 20
69.5
 30
0.0
 10
-46.0
 20
69.275892
 30
0.0
 10
-46.0
 20
69.0
 30
0.0
 10
-46.0
 20
64.666666666667
 30
0.0
 10
-46.0
 20
60.333333333333
 30
0.0
 10
-46.0
 20
56.0
 30
0.0
  0
SPLINE
  5
c3
100
AcDbEntity
  8
Plate
100
AcDbSpline
 70
     9
 71
     3
 72
    29
 73
    25
 74
     0
 42
0.0000001
 43
0.0000001
 40
0.0
 40
0.0
 40
0.0
 40
0.0
 40
1.0
 40
1.0
 40
1.0
 40
14.0
 40
14.0
 40
14.0
 40
15.0
 40
15.0
 40
15.0
 40
28.0
 40
28.0
 40
28.0
 40
29.0
 40
29.0
 40
29.0
 40
42.0
 40
42.0
 40
42.0
 40
43.0
 40
43.0
 40
43.0
 40
56.0
 40
56.0
 40
56.0
 40
56.0
 10
-27.0
 20
56.0
 30
0.0
 10
-27.0
 20
55.724108
 30
0.0
 10
-26.775892
 20
55.5
 30
0.0
 10
-26.5
 20
55.5
 30
0.0
 10
-22.166666666667
 20
55.5
 30
0.0
 10
-17.833333333334
 20
55.5
 30
0.0
 10
-13.5
 20
55.5
 30
0.0
 10
-13.224108
 20
55.5
 30
0.0
 10
-13.0
 20
55.724108
 30
0.0
 10
-13.0
 20
56.0
 30
0.0
 10
-13.0
 20
60.333333333333
 30
0.0
 10
-13.0
 20
64.666666666667
 30
0.0
 10
-13.0
 20
69.0
 30
0.0
 10
-13.0
 20
69.275892
 30
0.0
 10
-13.224108
 20
69.5
 30
0.0
 10
-13.5
 20
69.5
 30
0.0
 10
-17.833333333334
 20
69.5
 30
0.0
 10
-22.166666666667
 20
69.5
 30
0.0
 10
-26.5
 20
69.5
 30
0.0
 10
-26.775892
 20
69.5
 30
0.0
 10
-27.0
 20
69.275892
 30
0.0
 10
-27.0
 20
69.0
 30
0.0
 10
-27.0
 20
64.666666666667
 30
0.0
 10
-27.0
 20
60.333333333333
 30
0.0
 10
-27.0
 20
56.0
 30
0.0
  0
SPLINE
  5
c4
100
AcDbEntity
  8
Plate
100
AcDbSpline
 70
     9
 71
     3
 72
    29
 73
    25
 74
     0
 42
0.0000001
 43
0.0000001
 40
0.0
 40
0.0
 40
0.0
 40
0.0
 40
1.0
 40
1.0
 40
1.0
 40
14.0
 40
14.0
 40
14.0
 40
15.0
 40
15.0
 40
15.0
 40
28.0
 40
28.0
 40
28.0
 40
29.0
 40
29.0
 40
29.0
 40
42.0
 40
42.0
 40
42.0
 40
43.0
 40
43.0
 40
43.0
 40
56.0
 40
56.0
 40
56.0
 40
56.0
 10
-144.626758893218
 20
28.185363266546
 30
0.0
 10
-144.578850750185
 20
27.913662685952
 30
0.0
 10
-144.319231508472
 20
27.731875335841
 30
0.0
 10
-144.047530927878
 20
27.779783478873
 30
0.0
 10
-139.780030664825
 20
28.53225891543
 30
0.0
 10
-135.512530401772
 20
29.284734351987
 30
0.0
 10
-131.245030138719
 20
30.037209788544
 30
0.0
 10
-130.973329558125
 20
30.085117931576
 30
0.0
 10
-130.791542208014
 20
30.344737173289
 30
0.0
 10
-130.839450351047
 20
30.616437753883
 30
0.0
 10
-131.591925787604
 20
34.883938016936
 30
0.0
 10
-132.34440122416
 20
39.151438279989
 30
0.0
 10
-133.096876660717
 20
43.418938543042
 30
0.0
 10
-133.14478480375
 20
43.690639123636
 30
0.0
 10
-133.404404045463
 20
43.872426473747
 30
0.0
 10
-133.676104626057
 20
43.824518330714
 30
0.0
 10
-137.943604889109
 20
43.072042894158
 30
0.0
 10
-142.211105152162
 20
42.319567457601
 30
0.0
 10
-146.478605415215
 20
41.567092021044
 30
0.0
 10
-146.750305995809
 20
41.519183878012
 30
0.0
 10
-146.932093345921
 20
41.259564636299
 30
0.0
 10
-146.884185202888
 20
40.987864055705
 30
0.0
 10
-146.131709766331
 20
36.720363792652
 30
0.0
 10
-145.379234329774
 20
32.452863529599
 30
0.0
 10
-144.626758893218
 20
28.185363266546
 30
0.0
  0
SPLINE
  5
c5
100
AcDbEntity
  8
Plate
100
AcDbSpline
 70
     9
 71
     3
 72
    29
 73
    25
 74
     0
 42
0.0000001
 43
0.0000001
 40
0.0
 40
0.0
 40
0.0
 40
0.0
 40
1.0
 40
1.0
 40
1.0
 40
14.0
 40
14.0
 40
14.0
 40
15.0
 40
15.0
 40
15.0
 40
28.0
 40
28.0
 40
28.0
 40
29.0
 40
29.0
 40
29.0
 40
42.0
 40
42.0
 40
42.0
 40
43.0
 40
43.0
 40
43.0
 40
56.0
 40
56.0
 40
56.0
 40
56.0
 10
-36.5
 20
75.0
 30
0.0
 10
-36.5
 20
74.724108
 30
0.0
 10
-36.275892
 20
74.5
 30
0.0
 10
-36.0
 20
74.5
 30
0.0
 10
-31.666666666667
 20
74.5
 30
0.0
 10
-27.333333333334
 20
74.5
 30
0.0
 10
-23.0
 20
74.5
 30
0.0
 10
-22.724108
 20
74.5
 30
0.0
 10
-22.5
 20
74.724108
 30
0.0
 10
-22.5
 20
75.0
 30
0.0
 10
-22.5
 20
79.333333333333
 30
0.0
 10
-22.5
 20
83.666666666667
 30
0.0
 10
-22.5
 20
88.0
 30
0.0
 10
-22.5
 20
88.275892
 30
0.0
 10
-22.724108
 20
88.5
 30
0.0
 10
-23.0
 20
88.5
 30
0.0
 10
-27.333333333334
 20
88.5
 30
0.0
 10
-31.666666666667
 20
88.5
 30
0.0
 10
-36.0
 20
88.5
 30
0.0
 10
-36.275892
 20
88.5
 30
0.0
 10
-36.5
 20
88.275892
 30
0.0
 10
-36.5
 20
88.0
 30
0.0
 10
-36.5
 20
83.666666666667
 30
0.0
 10
-36.5
 20
79.333333333333
 30
0.0
 10
-36.5
 20
75.0
 30
0.0
  0
SPLINE
  5
c6
100
AcDbEntity
  8
Plate
100
AcDbSpline
 70
     9
 71
     3
 72
    29
 73
    25
 74
     0
 42
0.0000001
 43
0.0000001
 40
0.0
 40
0.0
 40
0.0
 40
0.0
 40
1.0
 40
1.0
 40
1.0
 40
14.0
 40
14.0
 40
14.0
 40
15.0
 40
15.0
 40
15.0
 40
28.0
 40
28.0
 40
28.0
 40
29.0
 40
29.0
 40
29.0
 40
42.0
 40
42.0
 40
42.0
 40
43.0
 40
43.0
 40
43.0
 40
56.0
 40
56.0
 40
56.0
 40
56.0
 10
-74.5
 20
75.0
 30
0.0
 10
-74.5
 20
74.724108
 30
0.0
 10
-74.275892
 20
74.5
 30
0.0
 10
-74.0
 20
74.5
 30
0.0
 10
-69.666666666667
 20
74.5
 30
0.0
 10
-65.333333333334
 20
74.5
 30
0.0
 10
-61.0
 20
74.5
 30
0.0
 10
-60.724108
 20
74.5
 30
0.0
 10
-60.5
 20
74.724108
 30
0.0
 10
-60.5
 20
75.0
 30
0.0
 10
-60.5
 20
79.333333333333
 30
0.0
 10
-60.5
 20
83.666666666667
 30
0.0
 10
-60.5
 20
88.0
 30
0.0
 10
-60.5
 20
88.275892
 30
0.0
 10
-60.724108
 20
88.5
 30
0.0
 10
-61.0
 20
88.5
 30
0.0
 10
-65.333333333334
 20
88.5
 30
0.0
 10
-69.666666666667
 20
88.5
 30
0.0
 10
-74.0
 20
88.5
 30
0.0
 10
-74.275892
 20
88.5
 30
0.0
 10
-74.5
 20
88.275892
 30
0.0
 10
-74.5
 20
88.0
 30
0.0
 10
-74.5
 20
83.666666666667
 30
0.0
 10
-74.5
 20
79.333333333333
 30
0.0
 10
-74.5
 20
75.0
 30
0.0
  0
SPLINE
  5
c7
100
AcDbEntity
  8
Plate
100
AcDbSpline
 70
     9
 71
     3
 72
    29
 73
    25
 74
     0
 42
0.0000001
 43
0.0000001
 40
0.0
 40
0.0
 40
0.0
 40
0.0
 40
1.0
 40
1.0
 40
1.0
 40
14.0
 40
14.0
 40
14.0
 40
15.0
 40
15.0
 40
15.0
 40
28.0
 40
28.0
 40
28.0
 40
29.0
 40
29.0
 40
29.0
 40
42.0
 40
42.0
 40
42.0
 40
43.0
 40
43.0
 40
43.0
 40
56.0
 40
56.0
 40
56.0
 40
56.0
 10
-65.0
 20
56.0
 30
0.0
 10
-65.0
 20
55.724108
 30
0.0
 10
-64.775892
 20
55.5
 30
0.0
 10
-64.5
 20
55.5
 30
0.0
 10
-60.166666666667
 20
55.5
 30
0.0
 10
-55.833333333334
 20
55.5
 30
0.0
 10
-51.5
 20
55.5
 30
0.0
 10
-51.224108
 20
55.5
 30
0.0
 10
-51.0
 20
55.724108
 30
0.0
 10
-51.0
 20
56.0
 30
0.0
 10
-51.0
 20
60.333333333333
 30
0.0
 10
-51.0
 20
64.666666666667
 30
0.0
 10
-51.0
 20
69.0
 30
0.0
 10
-51.0
 20
69.275892
 30
0.0
 10
-51.224108
 20
69.5
 30
0.0
 10
-51.5
 20
69.5
 30
0.0
 10
-55.833333333334
 20
69.5
 30
0.0
 10
-60.166666666667
 20
69.5
 30
0.0
 10
-64.5
 20
69.5
 30
0.0
 10
-64.775892
 20
69.5
 30
0.0
 10
-65.0
 20
69.275892
 30
0.0
 10
-65.0
 20
69.0
 30
0.0
 10
-65.0
 20
64.666666666667
 30
0.0
 10
-65.0
 20
60.333333333333
 30
0.0
 10
-65.0
 20
56.0
 30
0.0
  0
SPLINE
  5
c8
100
AcDbEntity
  8
Plate
100
AcDbSpline
 70
     9
 71
     3
 72
    65
 73
    61
 74
     0
 42
0.0000001
 43
0.0000001
 40
0.0
 40
0.0
 40
0.0
 40
0.0
 40
1.0
 40
1.0
 40
1.0
 40
14.0
 40
14.0
 40
14.0
 40
15.0
 40
15.0
 40
15.0
 40
15.75
 40
15.75
 40
15.75
 40
16.25
 40
16.25
 40
16.25
 40
17.25
 40
17.25
 40
17.25
 40
23.0
 40
23.0
 40
23.0
 40
24.0
 40
24.0
 40
24.0
 40
24.5
 40
24.5
 40
24.5
 40
41.5
 40
41.5
 40
41.5
 40
42.0
 40
42.0
 40
42.0
 40
43.0
 40
43.0
 40
43.0
 40
48.75
 40
48.75
 40
48.75
 40
49.75
 40
49.75
 40
49.75
 40
50.25
 40
50.25
 40
50.25
 40
53.375
 40
53.375
 40
53.375
 40
54.375
 40
54.375
 40
54.375
 40
67.375
 40
67.375
 40
67.375
 40
68.375
 40
68.375
 40
68.375
 40
102.75
 40
102.75
 40
102.75
 40
102.75
 10
-142.669009476742
 20
47.315959630023
 30
0.0
 10
-142.940710057336
 20
47.26805148699
 30
0.0
 10
-143.200329299049
 20
47.449838837102
 30
0.0
 10
-143.248237442081
 20
47.721539417696
 30
0.0
 10
-144.000712878638
 20
51.989039680749
 30
0.0
 10
-144.753188315195
 20
56.256539943802
 30
0.0
 10
-145.505663751752
 20
60.524040206855
 30
0.0
 10
-145.553571894785
 20
60.795740787449
 30
0.0
 10
-145.371784544673
 20
61.055360029161
 30
0.0
 10
-145.100083964079
 20
61.103268172194
 30
0.0
 10
-144.853882025826
 20
61.146680216611
 30
0.0
 10
-144.607680087573
 20
61.190092261028
 30
0.0
 10
-144.36147814932
 20
61.233504305444
 30
0.0
 10
-144.390419512264
 20
61.397638930946
 30
0.0
 10
-144.419360875209
 20
61.561773556449
 30
0.0
 10
-144.448302238153
 20
61.725908181951
 30
0.0
 10
-144.496210381186
 20
61.997608762545
 30
0.0
 10
-144.314423031075
 20
62.257228004257
 30
0.0
 10
-144.042722450481
 20
62.30513614729
 30
0.0
 10
-142.155174257207
 20
62.637961821152
 30
0.0
 10
-140.267626063934
 20
62.970787495013
 30
0.0
 10
-138.38007787066
 20
63.303613168875
 30
0.0
 10
-138.108377290066
 20
63.351521311908
 30
0.0
 10
-137.848758048354
 20
63.169733961796
 30
0.0
 10
-137.800849905321
 20
62.898033381202
 30
0.0
 10
-137.771908542376
 20
62.7338987557
 30
0.0
 10
-137.742967179432
 20
62.569764130198
 30
0.0
 10
-137.714025816487
 20
62.405629504696
 30
0.0
 10
-132.133448549418
 20
63.389635844809
 30
0.0
 10
-126.552871282349
 20
64.373642184921
 30
0.0
 10
-120.97229401528
 20
65.357648525034
 30
0.0
 10
-121.001235378224
 20
65.521783150536
 30
0.0
 10
-121.030176741169
 20
65.685917776038
 30
0.0
 10
-121.059118104113
 20
65.85005240154
 30
0.0
 10
-121.107026247146
 20
66.121752982134
 30
0.0
 10
-120.925238897035
 20
66.381372223847
 30
0.0
 10
-120.653538316441
 20
66.42928036688
 30
0.0
 10
-118.765990123167
 20
66.762106040741
 30
0.0
 10
-116.878441929894
 20
67.094931714603
 30
0.0
 10
-114.990893736621
 20
67.427757388465
 30
0.0
 10
-114.719193156027
 20
67.475665531498
 30
0.0
 10
-114.459573914314
 20
67.293878181386
 30
0.0
 10
-114.411665771281
 20
67.022177600792
 30
0.0
 10
-114.382724408337
 20
66.85804297529
 30
0.0
 10
-114.353783045392
 20
66.693908349788
 30
0.0
 10
-114.324841682448
 20
66.529773724286
 30
0.0
 10
-113.29900027306
 20
66.710657242689
 30
0.0
 10
-112.273158863672
 20
66.891540761092
 30
0.0
 10
-111.247317454284
 20
67.072424279495
 30
0.0
 10
-110.97561687369
 20
67.120332422528
 30
0.0
 10
-110.715997631978
 20
66.938545072416
 30
0.0
 10
-110.668089488945
 20
66.666844491822
 30
0.0
 10
-109.915614052388
 20
62.39934422877
 30
0.0
 10
-109.163138615831
 20
58.131843965717
 30
0.0
 10
-108.410663179275
 20
53.864343702664
 30
0.0
 10
-108.362755036242
 20
53.59264312207
 30
0.0
 10
-108.544542386353
 20
53.333023880357
 30
0.0
 10
-108.816242966947
 20
53.285115737324
 30
0.0
 10
-120.100498470212
 20
51.295397034891
 30
0.0
 10
-131.384753973477
 20
49.305678332457
 30
0.0
 10
-142.669009476742
 20
47.315959630023
 30
0.0
  0
SPLINE
  5
c9
100
AcDbEntity
  8
Plate
100
AcDbSpline
 70
     9
 71
     3
 72
    29
 73
    25
 74
     0
 42
0.0000001
 43
0.0000001
 40
0.0
 40
0.0
 40
0.0
 40
0.0
 40
1.0
 40
1.0
 40
1.0
 40
14.0
 40
14.0
 40
14.0
 40
15.0
 40
15.0
 40
15.0
 40
28.0
 40
28.0
 40
28.0
 40
29.0
 40
29.0
 40
29.0
 40
42.0
 40
42.0
 40
42.0
 40
43.0
 40
43.0
 40
43.0
 40
56.0
 40
56.0
 40
56.0
 40
56.0
 10
-55.5
 20
75.0
 30
0.0
 10
-55.5
 20
74.724108
 30
0.0
 10
-55.275892
 20
74.5
 30
0.0
 10
-55.0
 20
74.5
 30
0.0
 10
-50.666666666667
 20
74.5
 30
0.0
 10
-46.333333333334
 20
74.5
 30
0.0
 10
-42.0
 20
74.5
 30
0.0
 10
-41.724108
 20
74.5
 30
0.0
 10
-41.5
 20
74.724108
 30
0.0
 10
-41.5
 20
75.0
 30
0.0
 10
-41.5
 20
79.333333333333
 30
0.0
 10
-41.5
 20
83.666666666667
 30
0.0
 10
-41.5
 20
88.0
 30
0.0
 10
-41.5
 20
88.275892
 30
0.0
 10
-41.724108
 20
88.5
 30
0.0
 10
-42.0
 20
88.5
 30
0.0
 10
-46.333333333334
 20
88.5
 30
0.0
 10
-50.666666666667
 20
88.5
 30
0.0
 10
-55.0
 20
88.5
 30
0.0
 10
-55.275892
 20
88.5
 30
0.0
 10
-55.5
 20
88.275892
 30
0.0
 10
-55.5
 20
88.0
 30
0.0
 10
-55.5
 20
83.666666666667
 30
0.0
 10
-55.5
 20
79.333333333333
 30
0.0
 10
-55.5
 20
75.0
 30
0.0
  0
SPLINE
  5
ca
100
AcDbEntity
  8
Plate
100
AcDbSpline
 70
     9
 71
     3
 72
    29
 73
    25
 74
     0
 42
0.0000001
 43
0.0000001
 40
0.0
 40
0.0
 40
0.0
 40
0.0
 40
1.0
 40
1.0
 40
1.0
 40
14.0
 40
14.0
 40
14.0
 40
15.0
 40
15.0
 40
15.0
 40
28.0
 40
28.0
 40
28.0
 40
29.0
 40
29.0
 40
29.0
 40
42.0
 40
42.0
 40
42.0
 40
43.0
 40
43.0
 40
43.0
 40
56.0
 40
56.0
 40
56.0
 40
56.0
 10
-84.0
 20
56.0
 30
0.0
 10
-84.0
 20
55.724108
 30
0.0
 10
-83.775892
 20
55.5
 30
0.0
 10
-83.5
 20
55.5
 30
0.0
 10
-79.166666666667
 20
55.5
 30
0.0
 10
-74.833333333334
 20
55.5
 30
0.0
 10
-70.5
 20
55.5
 30
0.0
 10
-70.224108
 20
55.5
 30
0.0
 10
-70.0
 20
55.724108
 30
0.0
 10
-70.0
 20
56.0
 30
0.0
 10
-70.0
 20
60.333333333333
 30
0.0
 10
-70.0
 20
64.666666666667
 30
0.0
 10
-70.0
 20
69.0
 30
0.0
 10
-70.0
 20
69.275892
 30
0.0
 10
-70.224108
 20
69.5
 30
0.0
 10
-70.5
 20
69.5
 30
0.0
 10
-74.833333333334
 20
69.5
 30
0.0
 10
-79.166666666667
 20
69.5
 30
0.0
 10
-83.5
 20
69.5
 30
0.0
 10
-83.775892
 20
69.5
 30
0.0
 10
-84.0
 20
69.275892
 30
0.0
 10
-84.0
 20
69.0
 30
0.0
 10
-84.0
 20
64.666666666667
 30
0.0
 10
-84.0
 20
60.333333333333
 30
0.0
 10
-84.0
 20
56.0
 30
0.0
  0
SPLINE
  5
cb
100
AcDbEntity
  8
Plate
100
AcDbSpline
 70
     9
 71
     3
 72
    29
 73
    25
 74
     0
 42
0.0000001
 43
0.0000001
 40
0.0
 40
0.0
 40
0.0
 40
0.0
 40
1.0
 40
1.0
 40
1.0
 40
14.0
 40
14.0
 40
14.0
 40
15.0
 40
15.0
 40
15.0
 40
28.0
 40
28.0
 40
28.0
 40
29.0
 40
29.0
 40
29.0
 40
42.0
 40
42.0
 40
42.0
 40
43.0
 40
43.0
 40
43.0
 40
56.0
 40
56.0
 40
56.0
 40
56.0
 10
-123.576493172582
 20
31.897093064177
 30
0.0
 10
-123.528585029549
 20
31.625392483583
 30
0.0
 10
-123.268965787836
 20
31.443605133471
 30
0.0
 10
-122.997265207242
 20
31.491513276504
 30
0.0
 10
-118.729764944189
 20
32.243988713061
 30
0.0
 10
-114.462264681136
 20
32.996464149618
 30
0.0
 10
-110.194764418084
 20
33.748939586174
 30
0.0
 10
-109.92306383749
 20
33.796847729207
 30
0.0
 10
-109.741276487378
 20
34.05646697092
 30
0.0
 10
-109.789184630411
 20
34.328167551514
 30
0.0
 10
-110.541660066968
 20
38.595667814567
 30
0.0
 10
-111.294135503524
 20
42.86316807762
 30
0.0
 10
-112.046610940081
 20
47.130668340673
 30
0.0
 10
-112.094519083114
 20
47.402368921267
 30
0.0
 10
-112.354138324827
 20
47.584156271378
 30
0.0
 10
-112.625838905421
 20
47.536248128345
 30
0.0
 10
-116.893339168474
 20
46.783772691788
 30
0.0
 10
-121.160839431526
 20
46.031297255232
 30
0.0
 10
-125.428339694579
 20
45.278821818675
 30
0.0
 10
-125.700040275173
 20
45.230913675642
 30
0.0
 10
-125.881827625285
 20
44.97129443393
 30
0.0
 10
-125.833919482252
 20
44.699593853335
 30
0.0
 10
-125.081444045695
 20
40.432093590283
 30
0.0
 10
-124.328968609139
 20
36.16459332723
 30
0.0
 10
-123.576493172582
 20
31.897093064177
 30
0.0
  0
SPLINE
  5
cc
100
AcDbEntity
  8
Plate
100
AcDbSpline
 70
     9
 71
     3
 72
    29
 73
    25
 74
     0
 42
0.0000001
 43
0.0000001
 40
0.0
 40
0.0
 40
0.0
 40
0.0
 40
1.0
 40
1.0
 40
1.0
 40
14.0
 40
14.0
 40
14.0
 40
15.0
 40
15.0
 40
15.0
 40
28.0
 40
28.0
 40
28.0
 40
29.0
 40
29.0
 40
29.0
 40
42.0
 40
42.0
 40
42.0
 40
43.0
 40
43.0
 40
43.0
 40
56.0
 40
56.0
 40
56.0
 40
56.0
 10
-36.5
 20
113.0
 30
0.0
 10
-36.5
 20
112.724108
 30
0.0
 10
-36.275892
 20
112.5
 30
0.0
 10
-36.0
 20
112.5
 30
0.0
 10
-31.666666666667
 20
112.5
 30
0.0
 10
-27.333333333334
 20
112.5
 30
0.0
 10
-23.0
 20
112.5
 30
0.0
 10
-22.724108
 20
112.5
 30
0.0
 10
-22.5
 20
112.724108
 30
0.0
 10
-22.5
 20
113.0
 30
0.0
 10
-22.5
 20
117.333333333333
 30
0.0
 10
-22.5
 20
121.666666666667
 30
0.0
 10
-22.5
 20
126.0
 30
0.0
 10
-22.500000000001
 20
126.275892
 30
0.0
 10
-22.724108
 20
126.5
 30
0.0
 10
-23.0
 20
126.5
 30
0.0
 10
-27.333333333334
 20
126.5
 30
0.0
 10
-31.666666666667
 20
126.5
 30
0.0
 10
-36.0
 20
126.5
 30
0.0
 10
-36.275892000001
 20
126.5
 30
0.0
 10
-36.500000000001
 20
126.275892
 30
0.0
 10
-36.5
 20
126.0
 30
0.0
 10
-36.5
 20
121.666666666667
 30
0.0
 10
-36.5
 20
117.333333333333
 30
0.0
 10
-36.5
 20
113.0
 30
0.0
  0
SPLINE
  5
cd
100
AcDbEntity
  8
Plate
100
AcDbSpline
 70
     9
 71
     3
 72
    29
 73
    25
 74
     0
 42
0.0000001
 43
0.0000001
 40
0.0
 40
0.0
 40
0.0
 40
0.0
 40
1.0
 40
1.0
 40
1.0
 40
14.0
 40
14.0
 40
14.0
 40
15.0
 40
15.0
 40
15.0
 40
28.0
 40
28.0
 40
28.0
 40
29.0
 40
29.0
 40
29.0
 40
42.0
 40
42.0
 40
42.0
 40
43.0
 40
43.0
 40
43.0
 40
56.0
 40
56.0
 40
56.0
 40
56.0
 10
-55.5
 20
113.0
 30
0.0
 10
-55.5
 20
112.724108
 30
0.0
 10
-55.275892000001
 20
112.5
 30
0.0
 10
-55.000000000001
 20
112.5
 30
0.0
 10
-50.666666666667
 20
112.5
 30
0.0
 10
-46.333333333334
 20
112.5
 30
0.0
 10
-42.0
 20
112.5
 30
0.0
 10
-41.724108
 20
112.5
 30
0.0
 10
-41.5
 20
112.724108
 30
0.0
 10
-41.5
 20
113.0
 30
0.0
 10
-41.5
 20
117.333333333333
 30
0.0
 10
-41.5
 20
121.666666666667
 30
0.0
 10
-41.5
 20
126.0
 30
0.0
 10
-41.5
 20
126.275892
 30
0.0
 10
-41.724108
 20
126.5
 30
0.0
 10
-42.0
 20
126.5
 30
0.0
 10
-46.333333333334
 20
126.5
 30
0.0
 10
-50.666666666667
 20
126.5
 30
0.0
 10
-55.0
 20
126.5
 30
0.0
 10
-55.275892000001
 20
126.5
 30
0.0
 10
-55.500000000001
 20
126.275892
 30
0.0
 10
-55.5
 20
126.0
 30
0.0
 10
-55.500000000001
 20
121.666666666667
 30
0.0
 10
-55.5
 20
117.333333333333
 30
0.0
 10
-55.5
 20
113.0
 30
0.0
  0
SPLINE
  5
ce
100
AcDbEntity
  8
Plate
100
AcDbSpline
 70
     9
 71
     3
 72
    29
 73
    25
 74
     0
 42
0.0000001
 43
0.0000001
 40
0.0
 40
0.0
 40
0.0
 40
0.0
 40
1.0
 40
1.0
 40
1.0
 40
14.0
 40
14.0
 40
14.0
 40
15.0
 40
15.0
 40
15.0
 40
28.0
 40
28.0
 40
28.0
 40
29.0
 40
29.0
 40
29.0
 40
42.0
 40
42.0
 40
42.0
 40
43.0
 40
43.0
 40
43.0
 40
56.0
 40
56.0
 40
56.0
 40
56.0
 10
-27.0
 20
94.0
 30
0.0
 10
-27.0
 20
93.724108
 30
0.0
 10
-26.775892
 20
93.5
 30
0.0
 10
-26.5
 20
93.5
 30
0.0
 10
-22.166666666667
 20
93.5
 30
0.0
 10
-17.833333333334
 20
93.5
 30
0.0
 10
-13.5
 20
93.5
 30
0.0
 10
-13.224108
 20
93.5
 30
0.0
 10
-13.0
 20
93.724108
 30
0.0
 10
-13.0
 20
94.0
 30
0.0
 10
-13.0
 20
98.333333333333
 30
0.0
 10
-13.0
 20
102.666666666667
 30
0.0
 10
-13.0
 20
107.0
 30
0.0
 10
-13.0
 20
107.275892
 30
0.0
 10
-13.224108
 20
107.5
 30
0.0
 10
-13.5
 20
107.5
 30
0.0
 10
-17.833333333334
 20
107.5
 30
0.0
 10
-22.166666666667
 20
107.5
 30
0.0
 10
-26.5
 20
107.5
 30
0.0
 10
-26.775892
 20
107.5
 30
0.0
 10
-27.0
 20
107.275892
 30
0.0
 10
-27.0
 20
107.0
 30
0.0
 10
-27.0
 20
102.666666666667
 30
0.0
 10
-27.0
 20
98.333333333333
 30
0.0
 10
-27.0
 20
94.0
 30
0.0
  0
SPLINE
  5
cf
100
AcDbEntity
  8
Plate
100
AcDbSpline
 70
     9
 71
     3
 72
    29
 73
    25
 74
     0
 42
0.0000001
 43
0.0000001
 40
0.0
 40
0.0
 40
0.0
 40
0.0
 40
1.0
 40
1.0
 40
1.0
 40
14.0
 40
14.0
 40
14.0
 40
15.0
 40
15.0
 40
15.0
 40
28.0
 40
28.0
 40
28.0
 40
29.0
 40
29.0
 40
29.0
 40
42.0
 40
42.0
 40
42.0
 40
43.0
 40
43.0
 40
43.0
 40
56.0
 40
56.0
 40
56.0
 40
56.0
 10
-74.5
 20
113.0
 30
0.0
 10
-74.5
 20
112.724108
 30
0.0
 10
-74.275892
 20
112.5
 30
0.0
 10
-74.0
 20
112.5
 30
0.0
 10
-69.666666666667
 20
112.5
 30
0.0
 10
-65.333333333334
 20
112.5
 30
0.0
 10
-61.0
 20
112.5
 30
0.0
 10
-60.724108
 20
112.5
 30
0.0
 10
-60.5
 20
112.724108
 30
0.0
 10
-60.5
 20
113.0
 30
0.0
 10
-60.5
 20
117.333333333333
 30
0.0
 10
-60.5
 20
121.666666666667
 30
0.0
 10
-60.500000000001
 20
126.0
 30
0.0
 10
-60.500000000001
 20
126.275892
 30
0.0
 10
-60.724108000001
 20
126.5
 30
0.0
 10
-61.000000000001
 20
126.5
 30
0.0
 10
-65.333333333334
 20
126.5
 30
0.0
 10
-69.666666666667
 20
126.5
 30
0.0
 10
-74.0
 20
126.5
 30
0.0
 10
-74.275892
 20
126.5
 30
0.0
 10
-74.5
 20
126.275892
 30
0.0
 10
-74.5
 20
126.0
 30
0.0
 10
-74.500000000001
 20
121.666666666667
 30
0.0
 10
-74.5
 20
117.333333333333
 30
0.0
 10
-74.5
 20
113.0
 30
0.0
  0
SPLINE
  5
d0
100
AcDbEntity
  8
Plate
100
AcDbSpline
 70
     9
 71
     3
 72
    50
 73
    46
 74
     0
 42
0.0000001
 43
0.0000001
 40
0.0
 40
0.0
 40
0.0
 40
0.0
 40
1.0
 40
1.0
 40
1.0
 40
13.5
 40
13.5
 40
13.5
 40
14.5
 40
14.5
 40
14.5
 40
20.25
 40
20.25
 40
20.25
 40
21.25
 40
21.25
 40
21.25
 40
21.797631245172
 40
21.797631245172
 40
21.797631245172
 40
22.797631245172
 40
22.797631245172
 40
22.797631245172
 40
23.797631245172
 40
23.797631245172
 40
23.797631245172
 40
24.797631245172
 40
24.797631245172
 40
24.797631245172
 40
32.892893735517
 40
32.892893735517
 40
32.892893735517
 40
33.892893735517
 40
33.892893735517
 40
33.892893735517
 40
34.892893735517
 40
34.892893735517
 40
34.892893735517
 40
35.892893735517
 40
35.892893735517
 40
35.892893735517
 40
36.892893735517
 40
36.892893735517
 40
36.892893735517
 40
42.517893735517
 40
42.517893735517
 40
42.517893735517
 40
42.517893735517
 10
-129.427579766018
 20
81.63671922558
 30
0.0
 10
-129.699280346612
 20
81.588811082547
 30
0.0
 10
-129.881067696724
 20
81.329191840834
 30
0.0
 10
-129.833159553691
 20
81.05749126024
 30
0.0
 10
-129.109625480079
 20
76.954125622689
 30
0.0
 10
-128.386091406467
 20
72.850759985138
 30
0.0
 10
-127.662557332854
 20
68.747394347587
 30
0.0
 10
-127.614649189822
 20
68.475693766993
 30
0.0
 10
-127.355029948109
 20
68.293906416882
 30
0.0
 10
-127.083329367515
 20
68.341814559915
 30
0.0
 10
-125.195781174241
 20
68.674640233776
 30
0.0
 10
-123.308232980968
 20
69.007465907638
 30
0.0
 10
-121.420684787695
 20
69.3402915815
 30
0.0
 10
-121.148984207101
 20
69.388199724533
 30
0.0
 10
-120.967196856989
 20
69.647818966245
 30
0.0
 10
-121.015105000022
 20
69.919519546839
 30
0.0
 10
-121.046803389275
 20
70.099290045518
 30
0.0
 10
-121.078501778527
 20
70.279060544197
 30
0.0
 10
-121.11020016778
 20
70.458831042877
 30
0.0
 10
-120.200263721318
 20
69.858096839241
 30
0.0
 10
-118.976822867493
 20
70.096906456958
 30
0.0
 10
-118.359593831198
 20
70.995735827179
 30
0.0
 10
-117.742364794903
 20
71.8945651974
 30
0.0
 10
-117.95882249371
 20
73.122157809363
 30
0.0
 10
-118.84624581448
 20
73.755676372447
 30
0.0
 10
-119.73366913525
 20
74.389194935531
 30
0.0
 10
-120.965005177236
 20
74.195161154897
 30
0.0
 10
-121.614602542932
 20
73.319439062851
 30
0.0
 10
-122.08317840266
 20
75.976864817237
 30
0.0
 10
-122.551754262388
 20
78.634290571624
 30
0.0
 10
-123.020330122116
 20
81.291716326011
 30
0.0
 10
-122.228349255206
 20
80.768855639171
 30
0.0
 10
-121.177965860913
 20
80.874559435958
 30
0.0
 10
-120.506044730094
 20
81.544737759505
 30
0.0
 10
-119.834123599275
 20
82.214916083052
 30
0.0
 10
-119.72569217526
 20
83.265021408221
 30
0.0
 10
-120.246494220329
 20
84.058357542054
 30
0.0
 10
-120.767296265398
 20
84.851693675887
 30
0.0
 10
-121.773918116161
 20
85.169799031434
 30
0.0
 10
-122.656028327984
 20
84.819801080596
 30
0.0
 10
-123.538138539807
 20
84.469803129757
 30
0.0
 10
-124.052829738978
 20
83.548081079919
 30
0.0
 10
-123.888036155325
 20
82.613490224956
 30
0.0
 10
-125.734550692223
 20
82.287899891831
 30
0.0
 10
-127.581065229121
 20
81.962309558705
 30
0.0
 10
-129.427579766018
 20
81.63671922558
 30
0.0
  0
SPLINE
  5
d1
100
AcDbEntity
  8
Plate
100
AcDbSpline
 70
     9
 71
     3
 72
    29
 73
    25
 74
     0
 42
0.0000001
 43
0.0000001
 40
0.0
 40
0.0
 40
0.0
 40
0.0
 40
1.0
 40
1.0
 40
1.0
 40
14.0
 40
14.0
 40
14.0
 40
15.0
 40
15.0
 40
15.0
 40
28.0
 40
28.0
 40
28.0
 40
29.0
 40
29.0
 40
29.0
 40
42.0
 40
42.0
 40
42.0
 40
43.0
 40
43.0
 40
43.0
 40
56.0
 40
56.0
 40
56.0
 40
56.0
 10
-93.5
 20
75.0
 30
0.0
 10
-93.5
 20
74.724108
 30
0.0
 10
-93.275892
 20
74.5
 30
0.0
 10
-93.0
 20
74.5
 30
0.0
 10
-88.666666666667
 20
74.5
 30
0.0
 10
-84.333333333334
 20
74.5
 30
0.0
 10
-80.0
 20
74.5
 30
0.0
 10
-79.724108
 20
74.5
 30
0.0
 10
-79.5
 20
74.724108
 30
0.0
 10
-79.5
 20
75.0
 30
0.0
 10
-79.5
 20
79.333333333333
 30
0.0
 10
-79.5
 20
83.666666666667
 30
0.0
 10
-79.5
 20
88.0
 30
0.0
 10
-79.5
 20
88.275892
 30
0.0
 10
-79.724108
 20
88.5
 30
0.0
 10
-80.0
 20
88.5
 30
0.0
 10
-84.333333333334
 20
88.5
 30
0.0
 10
-88.666666666667
 20
88.5
 30
0.0
 10
-93.0
 20
88.5
 30
0.0
 10
-93.275892
 20
88.5
 30
0.0
 10
-93.5
 20
88.275892
 30
0.0
 10
-93.5
 20
88.0
 30
0.0
 10
-93.5
 20
83.666666666667
 30
0.0
 10
-93.5
 20
79.333333333333
 30
0.0
 10
-93.5
 20
75.0
 30
0.0
  0
SPLINE
  5
d2
100
AcDbEntity
  8
Plate
100
AcDbSpline
 70
     9
 71
     3
 72
    29
 73
    25
 74
     0
 42
0.0000001
 43
0.0000001
 40
0.0
 40
0.0
 40
0.0
 40
0.0
 40
1.0
 40
1.0
 40
1.0
 40
14.0
 40
14.0
 40
14.0
 40
15.0
 40
15.0
 40
15.0
 40
28.0
 40
28.0
 40
28.0
 40
29.0
 40
29.0
 40
29.0
 40
42.0
 40
42.0
 40
42.0
 40
43.0
 40
43.0
 40
43.0
 40
56.0
 40
56.0
 40
56.0
 40
56.0
 10
-145.538334273997
 20
85.903944809453
 30
0.0
 10
-145.490426130964
 20
85.632244228859
 30
0.0
 10
-145.230806889251
 20
85.450456878747
 30
0.0
 10
-144.959106308657
 20
85.49836502178
 30
0.0
 10
-140.691606045604
 20
86.250840458337
 30
0.0
 10
-136.424105782551
 20
87.003315894893
 30
0.0
 10
-132.156605519498
 20
87.75579133145
 30
0.0
 10
-131.884904938904
 20
87.803699474483
 30
0.0
 10
-131.703117588793
 20
88.063318716196
 30
0.0
 10
-131.751025731826
 20
88.33501929679
 30
0.0
 10
-132.503501168382
 20
92.602519559843
 30
0.0
 10
-133.255976604939
 20
96.870019822896
 30
0.0
 10
-134.008452041496
 20
101.137520085948
 30
0.0
 10
-134.056360184529
 20
101.409220666543
 30
0.0
 10
-134.315979426241
 20
101.591008016654
 30
0.0
 10
-134.587680006835
 20
101.543099873621
 30
0.0
 10
-138.855180269888
 20
100.790624437064
 30
0.0
 10
-143.122680532941
 20
100.038149000508
 30
0.0
 10
-147.390180795994
 20
99.285673563951
 30
0.0
 10
-147.661881376588
 20
99.237765420918
 30
0.0
 10
-147.8436687267
 20
98.978146179205
 30
0.0
 10
-147.795760583667
 20
98.706445598611
 30
0.0
 10
-147.04328514711
 20
94.438945335559
 30
0.0
 10
-146.290809710553
 20
90.171445072506
 30
0.0
 10
-145.538334273997
 20
85.903944809453
 30
0.0
  0
SPLINE
  5
d3
100
AcDbEntity
  8
Plate
100
AcDbSpline
 70
     9
 71
     3
 72
    29
 73
    25
 74
     0
 42
0.0000001
 43
0.0000001
 40
0.0
 40
0.0
 40
0.0
 40
0.0
 40
1.0
 40
1.0
 40
1.0
 40
14.0
 40
14.0
 40
14.0
 40
15.0
 40
15.0
 40
15.0
 40
28.0
 40
28.0
 40
28.0
 40
29.0
 40
29.0
 40
29.0
 40
42.0
 40
42.0
 40
42.0
 40
43.0
 40
43.0
 40
43.0
 40
56.0
 40
56.0
 40
56.0
 40
56.0
 10
-122.149150139957
 20
90.028089029042
 30
0.0
 10
-122.101241996924
 20
89.756388448448
 30
0.0
 10
-121.841622755211
 20
89.574601098337
 30
0.0
 10
-121.569922174617
 20
89.62250924137
 30
0.0
 10
-117.302421911564
 20
90.374984677926
 30
0.0
 10
-113.034921648511
 20
91.127460114483
 30
0.0
 10
-108.767421385458
 20
91.87993555104
 30
0.0
 10
-108.495720804864
 20
91.927843694073
 30
0.0
 10
-108.313933454753
 20
92.187462935785
 30
0.0
 10
-108.361841597786
 20
92.459163516379
 30
0.0
 10
-109.114317034342
 20
96.726663779432
 30
0.0
 10
-109.866792470899
 20
100.994164042485
 30
0.0
 10
-110.619267907456
 20
105.261664305538
 30
0.0
 10
-110.667176050489
 20
105.533364886132
 30
0.0
 10
-110.926795292201
 20
105.715152236244
 30
0.0
 10
-111.198495872796
 20
105.667244093211
 30
0.0
 10
-115.465996135848
 20
104.914768656654
 30
0.0
 10
-119.733496398901
 20
104.162293220097
 30
0.0
 10
-124.000996661954
 20
103.409817783541
 30
0.0
 10
-124.272697242548
 20
103.361909640508
 30
0.0
 10
-124.45448459266
 20
103.102290398795
 30
0.0
 10
-124.406576449627
 20
102.830589818201
 30
0.0
 10
-123.65410101307
 20
98.563089555148
 30
0.0
 10
-122.901625576513
 20
94.295589292095
 30
0.0
 10
-122.149150139957
 20
90.028089029042
 30
0.0
  0
SPLINE
  5
d4
100
AcDbEntity
  8
Plate
100
AcDbSpline
 70
     9
 71
     3
 72
    47
 73
    43
 74
     0
 42
0.0000001
 43
0.0000001
 40
0.0
 40
0.0
 40
0.0
 40
0.0
 40
1.0
 40
1.0
 40
1.0
 40
6.75
 40
6.75
 40
6.75
 40
7.75
 40
7.75
 40
7.75
 40
8.25
 40
8.25
 40
8.25
 40
23.25
 40
23.25
 40
23.25
 40
24.25
 40
24.25
 40
24.25
 40
37.25
 40
37.25
 40
37.25
 40
38.25
 40
38.25
 40
38.25
 40
56.0
 40
56.0
 40
56.0
 40
57.0
 40
57.0
 40
57.0
 40
58.0
 40
58.0
 40
58.0
 40
61.0
 40
61.0
 40
61.0
 40
62.0
 40
62.0
 40
62.0
 40
74.5
 40
74.5
 40
74.5
 40
74.5
 10
-151.051741466894
 20
64.623250127998
 30
0.0
 10
-151.003833323861
 20
64.351549547404
 30
0.0
 10
-150.744214082149
 20
64.169762197292
 30
0.0
 10
-150.472513501555
 20
64.217670340325
 30
0.0
 10
-148.584965308281
 20
64.550496014187
 30
0.0
 10
-146.697417115008
 20
64.883321688048
 30
0.0
 10
-144.809868921735
 20
65.21614736191
 30
0.0
 10
-144.538168341141
 20
65.264055504943
 30
0.0
 10
-144.356380991029
 20
65.523674746656
 30
0.0
 10
-144.404289134062
 20
65.79537532725
 30
0.0
 10
-144.433230497006
 20
65.959509952752
 30
0.0
 10
-144.462171859951
 20
66.123644578254
 30
0.0
 10
-144.491113222895
 20
66.287779203756
 30
0.0
 10
-139.567074457834
 20
67.15602009209
 30
0.0
 10
-134.643035692773
 20
68.024260980425
 30
0.0
 10
-129.718996927712
 20
68.89250186876
 30
0.0
 10
-129.447296347118
 20
68.940410011793
 30
0.0
 10
-129.265508997007
 20
69.200029253505
 30
0.0
 10
-129.31341714004
 20
69.471729834099
 30
0.0
 10
-130.065892576596
 20
73.739230097152
 30
0.0
 10
-130.818368013153
 20
78.006730360205
 30
0.0
 10
-131.57084344971
 20
82.274230623258
 30
0.0
 10
-131.618751592743
 20
82.545931203852
 30
0.0
 10
-131.878370834455
 20
82.727718553963
 30
0.0
 10
-132.150071415049
 20
82.679810410931
 30
0.0
 10
-137.976850620372
 20
81.652392026401
 30
0.0
 10
-143.803629825694
 20
80.624973641872
 30
0.0
 10
-149.630409031016
 20
79.597555257343
 30
0.0
 10
-149.90210961161
 20
79.54964711431
 30
0.0
 10
-150.083896961722
 20
79.290027872597
 30
0.0
 10
-150.035988818689
 20
79.018327292003
 30
0.0
 10
-149.9781060928
 20
78.690058040999
 30
0.0
 10
-149.920223366911
 20
78.361788789995
 30
0.0
 10
-149.862340641022
 20
78.033519538991
 30
0.0
 10
-150.847148394034
 20
77.859871361324
 30
0.0
 10
-151.831956147046
 20
77.686223183657
 30
0.0
 10
-152.816763900058
 20
77.51257500599
 30
0.0
 10
-153.088464480652
 20
77.464666862957
 30
0.0
 10
-153.270251830764
 20
77.205047621244
 30
0.0
 10
-153.222343687731
 20
76.93334704065
 30
0.0
 10
-152.498809614119
 20
72.8299814031
 30
0.0
 10
-151.775275540507
 20
68.726615765549
 30
0.0
 10
-151.051741466894
 20
64.623250127998
 30
0.0
  0
CIRCLE
  5
d5
100
AcDbEntity
  8
Plate
100
AcDbCircle
 10
-97.109518708019
 20
48.056508037409
 30
0.0
 40
1.0
  0
CIRCLE
  5
d6
100
AcDbEntity
  8
Plate
100
AcDbCircle
 10
-154.495640856036
 20
33.045486084331
 30
0.0
 40
1.0
  0
CIRCLE
  5
d7
100
AcDbEntity
  8
Plate
100
AcDbCircle
 10
-135.076477525293
 20
127.3502902861
 30
0.0
 40
1.0
  0
CIRCLE
  5
d8
100
AcDbEntity
  8
Plate
100
AcDbCircle
 10
-6.5
 20
115.5
 30
0.0
 40
1.0
  0
CIRCLE
  5
d9
100
AcDbEntity
  8
Plate
100
AcDbCircle
 10
-6.5
 20
47.5
 30
0.0
 40
1.0
  0
SPLINE
  5
da
100
AcDbEntity
  8
Plate
100
AcDbSpline
 70
     9
 71
     3
 72
    50
 73
    46
 74
     0
 42
0.0000001
 43
0.0000001
 40
509.199895237037
 40
509.199895237037
 40
509.199895237037
 40
509.199895237037
 40
514.199895237038
 40
514.199895237038
 40
514.199895237038
 40
515.199895237038
 40
515.199895237038
 40
515.199895237038
 40
516.199895237038
 40
516.199895237038
 40
516.199895237038
 40
517.199895237038
 40
517.199895237038
 40
517.199895237038
 40
518.199895237038
 40
518.199895237038
 40
518.199895237038
 40
519.699895237038
 40
519.699895237038
 40
519.699895237038
 40
520.699895237038
 40
520.699895237038
 40
520.699895237038
 40
521.699895237038
 40
521.699895237038
 40
521.699895237038
 40
522.699895237038
 40
522.699895237038
 40
522.699895237038
 40
523.699895237038
 40
523.699895237038
 40
523.699895237038
 40
525.199895237038
 40
525.199895237038
 40
525.199895237038
 40
526.199895237038
 40
526.199895237038
 40
526.199895237038
 40
527.199895237038
 40
527.199895237038
 40
527.199895237038
 40
528.199895237038
 40
528.199895237038
 40
528.199895237038
 40
529.199895237038
 40
529.199895237038
 40
529.199895237038
 40
529.199895237038
 10
-136.843904197156
 20
122.976938829884
 30
0.0
 10
-135.202557942136
 20
123.266352459329
 30
0.0
 10
-133.561211687116
 20
123.555766088774
 30
0.0
 10
-131.919865432095
 20
123.845179718219
 30
0.0
 10
-131.648164851501
 20
123.893087861252
 30
0.0
 10
-131.46637750139
 20
124.152707102964
 30
0.0
 10
-131.514285644422
 20
124.424407683558
 30
0.0
 10
-131.753826359587
 20
125.782910586528
 30
0.0
 10
-130.844889609029
 20
127.081006795092
 30
0.0
 10
-129.486386706059
 20
127.320547510256
 30
0.0
 10
-128.942985544871
 20
127.416363796322
 30
0.0
 10
-128.579410844648
 20
127.935602279747
 30
0.0
 10
-128.675227130714
 20
128.479003440935
 30
0.0
 10
-128.77104341678
 20
129.022404602123
 30
0.0
 10
-129.290281900205
 20
129.385979302346
 30
0.0
 10
-129.833683061393
 20
129.29016301628
 30
0.0
 10
-130.326086937899
 20
129.203338927447
 30
0.0
 10
-130.818490814405
 20
129.116514838614
 30
0.0
 10
-131.310894690911
 20
129.02969074978
 30
0.0
 10
-131.8542958521
 20
128.933874463714
 30
0.0
 10
-132.217870552322
 20
128.414635980289
 30
0.0
 10
-132.122054266257
 20
127.871234819101
 30
0.0
 10
-131.834605408059
 20
126.241031335537
 30
0.0
 10
-132.925329508728
 20
124.683315885261
 30
0.0
 10
-134.555532992293
 20
124.395867027063
 30
0.0
 10
-136.185736475857
 20
124.108418168866
 30
0.0
 10
-137.743451926133
 20
125.199142269535
 30
0.0
 10
-138.03090078433
 20
126.829345753099
 30
0.0
 10
-138.126717070396
 20
127.372746914287
 30
0.0
 10
-138.645955553821
 20
127.73632161451
 30
0.0
 10
-139.189356715009
 20
127.640505328445
 30
0.0
 10
-139.681760591515
 20
127.553681239611
 30
0.0
 10
-140.174164468021
 20
127.466857150778
 30
0.0
 10
-140.666568344527
 20
127.380033061944
 30
0.0
 10
-141.209969505716
 20
127.284216775878
 30
0.0
 10
-141.573544205938
 20
126.764978292453
 30
0.0
 10
-141.477727919873
 20
126.221577131265
 30
0.0
 10
-141.381911633807
 20
125.678175970077
 30
0.0
 10
-140.862673150382
 20
125.314601269854
 30
0.0
 10
-140.319271989194
 20
125.41041755592
 30
0.0
 10
-138.960769086223
 20
125.649958271084
 30
0.0
 10
-137.66267287766
 20
124.741021520527
 30
0.0
 10
-137.423132162496
 20
123.382518617557
 30
0.0
 10
-137.375224019463
 20
123.110818036962
 30
0.0
 10
-137.11560477775
 20
122.929030686851
 30
0.0
 10
-136.843904197156
 20
122.976938829884
 30
0.0
  0
SPLINE
  5
db
100
AcDbEntity
  8
Plate
100
AcDbSpline
 70
     9
 71
     3
 72
    50
 73
    46
 74
     0
 42
0.0000001
 43
0.0000001
 40
77.692708333333
 40
77.692708333333
 40
77.692708333333
 40
77.692708333333
 40
82.692708333333
 40
82.692708333333
 40
82.692708333333
 40
83.692708333333
 40
83.692708333333
 40
83.692708333333
 40
84.692708333333
 40
84.692708333333
 40
84.692708333333
 40
85.692708333333
 40
85.692708333333
 40
85.692708333333
 40
86.692708333333
 40
86.692708333333
 40
86.692708333333
 40
88.192708333333
 40
88.192708333333
 40
88.192708333333
 40
89.192708333333
 40
89.192708333333
 40
89.192708333333
 40
90.192708333333
 40
90.192708333333
 40
90.192708333333
 40
91.192708333333
 40
91.192708333333
 40
91.192708333333
 40
92.192708333333
 40
92.192708333333
 40
92.192708333333
 40
93.692708333333
 40
93.692708333333
 40
93.692708333333
 40
94.692708333333
 40
94.692708333333
 40
94.692708333333
 40
95.692708333333
 40
95.692708333333
 40
95.692708333333
 40
96.692708333333
 40
96.692708333333
 40
96.692708333333
 40
97.692708333333
 40
97.692708333333
 40
97.692708333333
 40
97.692708333333
 10
-150.12228939982
 20
31.278059412469
 30
0.0
 10
-150.411703029265
 20
32.919405667489
 30
0.0
 10
-150.70111665871
 20
34.560751922509
 30
0.0
 10
-150.990530288155
 20
36.20209817753
 30
0.0
 10
-151.038438431188
 20
36.473798758124
 30
0.0
 10
-151.2980576729
 20
36.655586108235
 30
0.0
 10
-151.569758253494
 20
36.607677965202
 30
0.0
 10
-152.928261156464
 20
36.368137250038
 30
0.0
 10
-154.226357365028
 20
37.277074000595
 30
0.0
 10
-154.465898080192
 20
38.635576903565
 30
0.0
 10
-154.561714366258
 20
39.178978064754
 30
0.0
 10
-155.080952849683
 20
39.542552764977
 30
0.0
 10
-155.624354010871
 20
39.446736478911
 30
0.0
 10
-156.167755172059
 20
39.350920192845
 30
0.0
 10
-156.531329872282
 20
38.83168170942
 30
0.0
 10
-156.435513586217
 20
38.288280548232
 30
0.0
 10
-156.348689497383
 20
37.795876671726
 30
0.0
 10
-156.26186540855
 20
37.303472795219
 30
0.0
 10
-156.175041319716
 20
36.811068918713
 30
0.0
 10
-156.07922503365
 20
36.267667757525
 30
0.0
 10
-155.559986550225
 20
35.904093057302
 30
0.0
 10
-155.016585389037
 20
35.999909343368
 30
0.0
 10
-153.386381905473
 20
36.287358201565
 30
0.0
 10
-151.828666455197
 20
35.196634100897
 30
0.0
 10
-151.541217597
 20
33.566430617332
 30
0.0
 10
-151.253768738802
 20
31.936227133768
 30
0.0
 10
-152.344492839471
 20
30.378511683492
 30
0.0
 10
-153.974696323035
 20
30.091062825295
 30
0.0
 10
-154.518097484223
 20
29.995246539229
 30
0.0
 10
-154.881672184446
 20
29.476008055804
 30
0.0
 10
-154.785855898381
 20
28.932606894616
 30
0.0
 10
-154.699031809547
 20
28.44020301811
 30
0.0
 10
-154.612207720714
 20
27.947799141603
 30
0.0
 10
-154.52538363188
 20
27.455395265097
 30
0.0
 10
-154.429567345814
 20
26.911994103909
 30
0.0
 10
-153.910328862389
 20
26.548419403686
 30
0.0
 10
-153.366927701201
 20
26.644235689752
 30
0.0
 10
-152.823526540013
 20
26.740051975818
 30
0.0
 10
-152.45995183979
 20
27.259290459243
 30
0.0
 10
-152.555768125856
 20
27.802691620431
 30
0.0
 10
-152.79530884102
 20
29.161194523401
 30
0.0
 10
-151.886372090463
 20
30.459290731965
 30
0.0
 10
-150.527869187493
 20
30.698831447129
 30
0.0
 10
-150.256168606899
 20
30.746739590162
 30
0.0
 10
-150.074381256787
 20
31.006358831875
 30
0.0
 10
-150.12228939982
 20
31.278059412469
 30
0.0
  0
SPLINE
  5
dc
100
AcDbEntity
  8
Plate
100
AcDbSpline
 70
     9
 71
     3
 72
    50
 73
    46
 74
     0
 42
0.0000001
 43
0.0000001
 40
162.649047390425
 40
162.649047390425
 40
162.649047390425
 40
162.649047390425
 40
167.649047390425
 40
167.649047390425
 40
167.649047390425
 40
168.649047390425
 40
168.649047390425
 40
168.649047390425
 40
169.649047390425
 40
169.649047390425
 40
169.649047390425
 40
170.649047390425
 40
170.649047390425
 40
170.649047390425
 40
171.649047390425
 40
171.649047390425
 40
171.649047390425
 40
173.149047390425
 40
173.149047390425
 40
173.149047390425
 40
174.149047390425
 40
174.149047390425
 40
174.149047390425
 40
175.149047390425
 40
175.149047390425
 40
175.149047390425
 40
176.149047390425
 40
176.149047390425
 40
176.149047390425
 40
177.149047390425
 40
177.149047390425
 40
177.149047390425
 40
178.649047390425
 40
178.649047390425
 40
178.649047390425
 40
179.649047390425
 40
179.649047390425
 40
179.649047390425
 40
180.649047390425
 40
180.649047390425
 40
180.649047390425
 40
181.649047390425
 40
181.649047390425
 40
181.649047390425
 40
182.649047390425
 40
182.649047390425
 40
182.649047390425
 40
182.649047390425
 10
-94.96765493378
 20
52.259176186645
 30
0.0
 10
-96.6279794306
 20
52.113916615399
 30
0.0
 10
-98.288303927419
 20
51.968657044153
 30
0.0
 10
-99.948628424239
 20
51.823397472907
 30
0.0
 10
-100.223470571885
 20
51.799351900728
 30
0.0
 10
-100.427193474089
 20
51.556564400133
 30
0.0
 10
-100.403147901911
 20
51.281722252487
 30
0.0
 10
-100.28292004102
 20
49.907511514257
 30
0.0
 10
-101.301534552041
 20
48.693574011279
 30
0.0
 10
-102.675745290271
 20
48.573346150388
 30
0.0
 10
-103.225429585563
 20
48.525255006032
 30
0.0
 10
-103.632875389971
 20
48.039680004841
 30
0.0
 10
-103.584784245615
 20
47.489995709549
 30
0.0
 10
-103.536693101259
 20
46.940311414257
 30
0.0
 10
-103.051118100067
 20
46.532865609849
 30
0.0
 10
-102.501433804776
 20
46.580956754205
 30
0.0
 10
-102.00333645573
 20
46.624534625579
 30
0.0
 10
-101.505239106684
 20
46.668112496953
 30
0.0
 10
-101.007141757638
 20
46.711690368326
 30
0.0
 10
-100.457457462346
 20
46.759781512683
 30
0.0
 10
-100.050011657938
 20
47.245356513874
 30
0.0
 10
-100.098102802294
 20
47.795040809166
 30
0.0
 10
-100.242376235363
 20
49.444093695041
 30
0.0
 10
-99.020038822137
 20
50.900818698615
 30
0.0
 10
-97.370985936262
 20
51.045092131684
 30
0.0
 10
-95.721933050386
 20
51.189365564753
 30
0.0
 10
-94.265208046812
 20
49.967028151527
 30
0.0
 10
-94.120934613743
 20
48.317975265652
 30
0.0
 10
-94.072843469387
 20
47.76829097036
 30
0.0
 10
-93.587268468196
 20
47.360845165951
 30
0.0
 10
-93.037584172904
 20
47.408936310308
 30
0.0
 10
-92.539486823858
 20
47.452514181681
 30
0.0
 10
-92.041389474812
 20
47.496092053055
 30
0.0
 10
-91.543292125766
 20
47.539669924429
 30
0.0
 10
-90.993607830475
 20
47.587761068785
 30
0.0
 10
-90.586162026066
 20
48.073336069977
 30
0.0
 10
-90.634253170422
 20
48.623020365268
 30
0.0
 10
-90.682344314779
 20
49.17270466056
 30
0.0
 10
-91.16791931597
 20
49.580150464969
 30
0.0
 10
-91.717603611262
 20
49.532059320613
 30
0.0
 10
-93.091814349491
 20
49.411831459722
 30
0.0
 10
-94.30575185247
 20
50.430445970743
 30
0.0
 10
-94.42597971336
 20
51.804656708973
 30
0.0
 10
-94.450025285538
 20
52.079498856619
 30
0.0
 10
-94.692812786134
 20
52.283221758823
 30
0.0
 10
-94.96765493378
 20
52.259176186645
 30
0.0
  0
SPLINE
  5
dd
100
AcDbEntity
  8
Plate
100
AcDbSpline
 70
     9
 71
     3
 72
    50
 73
    46
 74
     0
 42
0.0000001
 43
0.0000001
 40
282.057738889356
 40
282.057738889356
 40
282.057738889356
 40
282.057738889356
 40
287.057738889356
 40
287.057738889356
 40
287.057738889356
 40
288.057738889356
 40
288.057738889356
 40
288.057738889356
 40
289.057738889356
 40
289.057738889356
 40
289.057738889356
 40
290.057738889356
 40
290.057738889356
 40
290.057738889356
 40
291.057738889356
 40
291.057738889356
 40
291.057738889356
 40
292.557738889356
 40
292.557738889356
 40
292.557738889356
 40
293.557738889356
 40
293.557738889356
 40
293.557738889356
 40
294.557738889356
 40
294.557738889356
 40
294.557738889356
 40
295.557738889356
 40
295.557738889356
 40
295.557738889356
 40
296.557738889356
 40
296.557738889356
 40
296.557738889356
 40
298.057738889356
 40
298.057738889356
 40
298.057738889356
 40
299.057738889356
 40
299.057738889356
 40
299.057738889356
 40
300.057738889356
 40
300.057738889356
 40
300.057738889356
 40
301.057738889356
 40
301.057738889356
 40
301.057738889356
 40
302.057738889356
 40
302.057738889356
 40
302.057738889356
 40
302.057738889356
 10
-10.5
 20
50.0
 30
0.0
 10
-10.5
 20
48.333333333333
 30
0.0
 10
-10.5
 20
46.666666666667
 30
0.0
 10
-10.5
 20
45.0
 30
0.0
 10
-10.5
 20
44.724108
 30
0.0
 10
-10.275892
 20
44.5
 30
0.0
 10
-10.0
 20
44.5
 30
0.0
 10
-8.62054
 20
44.5
 30
0.0
 10
-7.5
 20
43.37946
 30
0.0
 10
-7.5
 20
42.0
 30
0.0
 10
-7.5
 20
41.448216
 30
0.0
 10
-7.051784
 20
41.0
 30
0.0
 10
-6.5
 20
41.0
 30
0.0
 10
-5.948216
 20
41.0
 30
0.0
 10
-5.5
 20
41.448216
 30
0.0
 10
-5.5
 20
42.0
 30
0.0
 10
-5.5
 20
42.5
 30
0.0
 10
-5.5
 20
43.0
 30
0.0
 10
-5.5
 20
43.5
 30
0.0
 10
-5.5
 20
44.051784
 30
0.0
 10
-5.948216
 20
44.5
 30
0.0
 10
-6.5
 20
44.5
 30
0.0
 10
-8.155352
 20
44.5
 30
0.0
 10
-9.5
 20
45.844648
 30
0.0
 10
-9.5
 20
47.5
 30
0.0
 10
-9.5
 20
49.155352
 30
0.0
 10
-8.155352
 20
50.5
 30
0.0
 10
-6.5
 20
50.5
 30
0.0
 10
-5.948216
 20
50.5
 30
0.0
 10
-5.5
 20
50.948216
 30
0.0
 10
-5.5
 20
51.5
 30
0.0
 10
-5.5
 20
52.0
 30
0.0
 10
-5.5
 20
52.5
 30
0.0
 10
-5.5
 20
53.0
 30
0.0
 10
-5.5
 20
53.551784
 30
0.0
 10
-5.948216
 20
54.0
 30
0.0
 10
-6.5
 20
54.0
 30
0.0
 10
-7.051784
 20
54.0
 30
0.0
 10
-7.5
 20
53.551784
 30
0.0
 10
-7.5
 20
53.0
 30
0.0
 10
-7.5
 20
51.62054
 30
0.0
 10
-8.62054
 20
50.5
 30
0.0
 10
-10.0
 20
50.5
 30
0.0
 10
-10.275892
 20
50.5
 30
0.0
 10
-10.5
 20
50.275892
 30
0.0
 10
-10.5
 20
50.0
 30
0.0
  0
SPLINE
  5
de
100
AcDbEntity
  8
Plate
100
AcDbSpline
 70
     9
 71
     3
 72
    50
 73
    46
 74
     0
 42
0.0000001
 43
0.0000001
 40
0.0
 40
0.0
 40
0.0
 40
0.0
 40
1.0
 40
1.0
 40
1.0
 40
3.463967429066
 40
3.463967429066
 40
3.463967429066
 40
4.463967429066
 40
4.463967429066
 40
4.463967429066
 40
5.463967429066
 40
5.463967429066
 40
5.463967429066
 40
6.463967429066
 40
6.463967429066
 40
6.463967429066
 40
7.463967429066
 40
7.463967429066
 40
7.463967429066
 40
8.963967429066
 40
8.963967429066
 40
8.963967429066
 40
9.963967429066
 40
9.963967429066
 40
9.963967429066
 40
10.963967429066
 40
10.963967429066
 40
10.963967429066
 40
11.963967429066
 40
11.963967429066
 40
11.963967429066
 40
12.963967429066
 40
12.963967429066
 40
12.963967429066
 40
14.463967429066
 40
14.463967429066
 40
14.463967429066
 40
15.463967429066
 40
15.463967429066
 40
15.463967429066
 40
16.463967429066
 40
16.463967429066
 40
16.463967429066
 40
17.463967429066
 40
17.463967429066
 40
17.463967429066
 40
17.463967429066
 10
-8.635019376231
 20
118.905524433961
 30
0.0
 10
-9.798398263541
 20
118.147316796435
 30
0.0
 10
-10.499975258086
 20
116.852683576637
 30
0.0
 10
-10.5
 20
115.464040621652
 30
0.0
 10
-10.5
 20
114.642693747768
 30
0.0
 10
-10.5
 20
113.821346873884
 30
0.0
 10
-10.5
 20
113.0
 30
0.0
 10
-10.5
 20
112.724108
 30
0.0
 10
-10.275892
 20
112.5
 30
0.0
 10
-10.0
 20
112.5
 30
0.0
 10
-8.62054
 20
112.5
 30
0.0
 10
-7.5
 20
111.37946
 30
0.0
 10
-7.5
 20
110.0
 30
0.0
 10
-7.5
 20
109.448216
 30
0.0
 10
-7.051784
 20
109.0
 30
0.0
 10
-6.5
 20
109.0
 30
0.0
 10
-5.948216
 20
109.0
 30
0.0
 10
-5.5
 20
109.448216
 30
0.0
 10
-5.5
 20
110.0
 30
0.0
 10
-5.5
 20
110.5
 30
0.0
 10
-5.5
 20
111.0
 30
0.0
 10
-5.5
 20
111.5
 30
0.0
 10
-5.5
 20
112.051784
 30
0.0
 10
-5.948216
 20
112.5
 30
0.0
 10
-6.5
 20
112.5
 30
0.0
 10
-8.155352
 20
112.5
 30
0.0
 10
-9.5
 20
113.844648
 30
0.0
 10
-9.5
 20
115.5
 30
0.0
 10
-9.5
 20
117.155352
 30
0.0
 10
-8.155352
 20
118.5
 30
0.0
 10
-6.5
 20
118.5
 30
0.0
 10
-5.948216
 20
118.5
 30
0.0
 10
-5.5
 20
118.948216
 30
0.0
 10
-5.5
 20
119.5
 30
0.0
 10
-5.5
 20
120.0
 30
0.0
 10
-5.5
 20
120.5
 30
0.0
 10
-5.499999999999
 20
121.0
 30
0.0
 10
-5.499999999999
 20
121.551784
 30
0.0
 10
-5.948215999999
 20
122.0
 30
0.0
 10
-6.499999999999
 20
122.0
 30
0.0
 10
-7.051783999999
 20
122.0
 30
0.0
 10
-7.499999999999
 20
121.551784
 30
0.0
 10
-7.499999999999
 20
121.0
 30
0.0
 10
-7.499999999999
 20
120.154891447125
 30
0.0
 10
-7.926978218941
 20
119.366979394229
 30
0.0
 10
-8.635019376231
 20
118.905524433961
 30
0.0
  0
SPLINE
  5
df
100
AcDbEntity
  8
Plate
100
AcDbSpline
 70
     9
 71
     3
 72
   293
 73
   289
 74
     0
 42
0.0000001
 43
0.0000001
 40
0.0
 40
0.0
 40
0.0
 40
0.0
 40
1.0
 40
1.0
 40
1.0
 40
5.228169529331
 40
5.228169529331
 40
5.228169529331
 40
6.228169529331
 40
6.228169529331
 40
6.228169529331
 40
24.72816952198
 40
24.72816952198
 40
24.72816952198
 40
95.978169492139
 40
95.978169492139
 40
95.978169492139
 40
103.978169492139
 40
103.978169492139
 40
103.978169492139
 40
104.978169492139
 40
104.978169492139
 40
104.978169492139
 40
105.978169492139
 40
105.978169492139
 40
105.978169492139
 40
106.978169492139
 40
106.978169492139
 40
106.978169492139
 40
107.978169492139
 40
107.978169492139
 40
107.978169492139
 40
113.478169492139
 40
113.478169492139
 40
113.478169492139
 40
118.978169492139
 40
118.978169492139
 40
118.978169492139
 40
119.978169492139
 40
119.978169492139
 40
119.978169492139
 40
120.978169492139
 40
120.978169492139
 40
120.978169492139
 40
121.978169492139
 40
121.978169492139
 40
121.978169492139
 40
122.978169492139
 40
122.978169492139
 40
122.978169492139
 40
141.978169492139
 40
141.978169492139
 40
141.978169492139
 40
150.978169492139
 40
150.978169492139
 40
150.978169492139
 40
151.978169492139
 40
151.978169492139
 40
151.978169492139
 40
169.978169492139
 40
169.978169492139
 40
169.978169492139
 40
170.978169492139
 40
170.978169492139
 40
170.978169492139
 40
179.978169492139
 40
179.978169492139
 40
179.978169492139
 40
198.978169492139
 40
198.978169492139
 40
198.978169492139
 40
199.978169492139
 40
199.978169492139
 40
199.978169492139
 40
200.978169492139
 40
200.978169492139
 40
200.978169492139
 40
201.978169492139
 40
201.978169492139
 40
201.978169492139
 40
202.978169492139
 40
202.978169492139
 40
202.978169492139
 40
208.478169492139
 40
208.478169492139
 40
208.478169492139
 40
213.978169492139
 40
213.978169492139
 40
213.978169492139
 40
214.978169492139
 40
214.978169492139
 40
214.978169492139
 40
215.978169492139
 40
215.978169492139
 40
215.978169492139
 40
216.978169492139
 40
216.978169492139
 40
216.978169492139
 40
217.978169492139
 40
217.978169492139
 40
217.978169492139
 40
218.978169492139
 40
218.978169492139
 40
218.978169492139
 40
219.978169492139
 40
219.978169492139
 40
219.978169492139
 40
226.978169492139
 40
226.978169492139
 40
226.978169492139
 40
302.871594512223
 40
302.871594512223
 40
302.871594512223
 40
303.871594512223
 40
303.871594512223
 40
303.871594512223
 40
305.618201922737
 40
305.618201922737
 40
305.618201922737
 40
324.618201922737
 40
324.618201922737
 40
324.618201922737
 40
326.803898148686
 40
326.803898148686
 40
326.803898148686
 40
327.803898148686
 40
327.803898148686
 40
327.803898148686
 40
338.620325839821
 40
338.620325839821
 40
338.620325839821
 40
339.620325839821
 40
339.620325839821
 40
339.620325839821
 40
340.620325839821
 40
340.620325839821
 40
340.620325839821
 40
341.620325839821
 40
341.620325839821
 40
341.620325839821
 40
342.620325839821
 40
342.620325839821
 40
342.620325839821
 40
348.120325839821
 40
348.120325839821
 40
348.120325839821
 40
353.620325839821
 40
353.620325839821
 40
353.620325839821
 40
354.620325839821
 40
354.620325839821
 40
354.620325839821
 40
355.620325839821
 40
355.620325839821
 40
355.620325839821
 40
356.620325839821
 40
356.620325839821
 40
356.620325839821
 40
357.620325839821
 40
357.620325839821
 40
357.620325839821
 40
373.620325839821
 40
373.620325839821
 40
373.620325839821
 40
392.120325839821
 40
392.120325839821
 40
392.120325839821
 40
393.120325839821
 40
393.120325839821
 40
393.120325839821
 40
395.870325839821
 40
395.870325839821
 40
395.870325839821
 40
414.370325839821
 40
414.370325839821
 40
414.370325839821
 40
415.370325839821
 40
415.370325839821
 40
415.370325839821
 40
418.417200839821
 40
418.417200839821
 40
418.417200839821
 40
437.417200839821
 40
437.417200839821
 40
437.417200839821
 40
438.563034173155
 40
438.563034173155
 40
438.563034173155
 40
439.563034173155
 40
439.563034173155
 40
439.563034173155
 40
457.563034173155
 40
457.563034173155
 40
457.563034173155
 40
458.563034173155
 40
458.563034173155
 40
458.563034173155
 40
462.813034173155
 40
462.813034173155
 40
462.813034173155
 40
466.813034173155
 40
466.813034173155
 40
466.813034173155
 40
467.813034173155
 40
467.813034173155
 40
467.813034173155
 40
468.813034173155
 40
468.813034173155
 40
468.813034173155
 40
469.813034173155
 40
469.813034173155
 40
469.813034173155
 40
470.813034173155
 40
470.813034173155
 40
470.813034173155
 40
476.313034173155
 40
476.313034173155
 40
476.313034173155
 40
481.813034173155
 40
481.813034173155
 40
481.813034173155
 40
482.813034173155
 40
482.813034173155
 40
482.813034173155
 40
483.813034173155
 40
483.813034173155
 40
483.813034173155
 40
484.813034173155
 40
484.813034173155
 40
484.813034173155
 40
485.813034173155
 40
485.813034173155
 40
485.813034173155
 40
489.813034173155
 40
489.813034173155
 40
489.813034173155
 40
532.563034173155
 40
532.563034173155
 40
532.563034173155
 40
551.063034173155
 40
551.063034173155
 40
551.063034173155
 40
552.063034173155
 40
552.063034173155
 40
552.063034173155
 40
556.2912037017
 40
556.2912037017
 40
556.2912037017
 40
557.2912037017
 40
557.2912037017
 40
557.2912037017
 40
559.769373230246
 40
559.769373230246
 40
559.769373230246
 40
560.769373230246
 40
560.769373230246
 40
560.769373230246
 40
561.769373230246
 40
561.769373230246
 40
561.769373230246
 40
562.769373230246
 40
562.769373230246
 40
562.769373230246
 40
563.769373230246
 40
563.769373230246
 40
563.769373230246
 40
569.269373230246
 40
569.269373230246
 40
569.269373230246
 40
574.769373230246
 40
574.769373230246
 40
574.769373230246
 40
575.769373230246
 40
575.769373230246
 40
575.769373230246
 40
576.769373230246
 40
576.769373230246
 40
576.769373230246
 40
577.769373230246
 40
577.769373230246
 40
577.769373230246
 40
578.769373230246
 40
578.769373230246
 40
578.769373230246
 40
583.723718979711
 40
583.723718979711
 40
583.723718979711
 40
584.247542758792
 40
584.247542758792
 40
584.247542758792
 40
584.247542758792
 10
-86.521747399919
 20
52.998097349046
 30
0.0
 10
-86.50725603616
 20
52.999365179094
 30
0.0
 10
-86.49271624696
 20
53.0
 30
0.0
 10
-86.478169528546
 20
53.0
 30
0.0
 10
-85.068779685435
 20
53.0
 30
0.0
 10
-83.659389842325
 20
53.0
 30
0.0
 10
-82.249999999215
 20
53.0
 30
0.0
 10
-81.974107999215
 20
53.0
 30
0.0
 10
-81.749999999215
 20
52.775892
 30
0.0
 10
-81.749999999215
 20
52.5
 30
0.0
 10
-81.74999998953
 20
46.333333335231
 30
0.0
 10
-81.749999979845
 20
40.166666669677
 30
0.0
 10
-81.74999997016
 20
34.000000004123
 30
0.0
 10
-57.999999980106
 20
34.000000002749
 30
0.0
 10
-34.249999990053
 20
34.000000001374
 30
0.0
 10
-10.5
 20
34.0
 30
0.0
 10
-10.5
 20
36.666666666667
 30
0.0
 10
-10.5
 20
39.333333333334
 30
0.0
 10
-10.5
 20
42.0
 30
0.0
 10
-10.5
 20
42.275892
 30
0.0
 10
-10.275892
 20
42.5
 30
0.0
 10
-10.0
 20
42.5
 30
0.0
 10
-9.724108
 20
42.5
 30
0.0
 10
-9.5
 20
42.275892
 30
0.0
 10
-9.5
 20
42.0
 30
0.0
 10
-9.5
 20
40.344648
 30
0.0
 10
-8.155352
 20
39.0
 30
0.0
 10
-6.5
 20
39.0
 30
0.0
 10
-4.844648
 20
39.0
 30
0.0
 10
-3.5
 20
40.344648
 30
0.0
 10
-3.5
 20
42.0
 30
0.0
 10
-3.5
 20
43.833333333333
 30
0.0
 10
-3.5
 20
45.666666666667
 30
0.0
 10
-3.5
 20
47.5
 30
0.0
 10
-3.5
 20
49.333333333334
 30
0.0
 10
-3.5
 20
51.166666666667
 30
0.0
 10
-3.5
 20
53.0
 30
0.0
 10
-3.5
 20
54.655352
 30
0.0
 10
-4.844648
 20
56.0
 30
0.0
 10
-6.5
 20
56.0
 30
0.0
 10
-8.155352
 20
56.0
 30
0.0
 10
-9.5
 20
54.655352
 30
0.0
 10
-9.5
 20
53.0
 30
0.0
 10
-9.5
 20
52.724108
 30
0.0
 10
-9.724108
 20
52.5
 30
0.0
 10
-10.0
 20
52.5
 30
0.0
 10
-10.275892
 20
52.5
 30
0.0
 10
-10.5
 20
52.724108
 30
0.0
 10
-10.5
 20
53.0
 30
0.0
 10
-10.5
 20
59.333333333334
 30
0.0
 10
-10.5
 20
65.666666666667
 30
0.0
 10
-10.5
 20
72.0
 30
0.0
 10
-13.5
 20
72.0
 30
0.0
 10
-16.5
 20
72.0
 30
0.0
 10
-19.5
 20
72.0
 30
0.0
 10
-19.775892
 20
72.0
 30
0.0
 10
-20.0
 20
72.224108
 30
0.0
 10
-20.0
 20
72.5
 30
0.0
 10
-20.0
 20
78.5
 30
0.0
 10
-20.0
 20
84.5
 30
0.0
 10
-20.0
 20
90.5
 30
0.0
 10
-20.0
 20
90.775892
 30
0.0
 10
-19.775892
 20
91.0
 30
0.0
 10
-19.5
 20
91.0
 30
0.0
 10
-16.5
 20
91.0
 30
0.0
 10
-13.5
 20
91.0
 30
0.0
 10
-10.5
 20
91.0
 30
0.0
 10
-10.5
 20
97.333333333334
 30
0.0
 10
-10.5
 20
103.666666666667
 30
0.0
 10
-10.5
 20
110.0
 30
0.0
 10
-10.5
 20
110.275892
 30
0.0
 10
-10.275892
 20
110.5
 30
0.0
 10
-10.0
 20
110.5
 30
0.0
 10
-9.724108
 20
110.5
 30
0.0
 10
-9.5
 20
110.275892
 30
0.0
 10
-9.5
 20
110.0
 30
0.0
 10
-9.5
 20
108.344648
 30
0.0
 10
-8.155352000001
 20
107.0
 30
0.0
 10
-6.500000000001
 20
107.0
 30
0.0
 10
-4.844648000001
 20
107.0
 30
0.0
 10
-3.500000000001
 20
108.344648
 30
0.0
 10
-3.5
 20
110.0
 30
0.0
 10
-3.5
 20
111.833333333333
 30
0.0
 10
-3.5
 20
113.666666666666
 30
0.0
 10
-3.5
 20
115.5
 30
0.0
 10
-3.5
 20
117.333333333333
 30
0.0
 10
-3.5
 20
119.166666666666
 30
0.0
 10
-3.499999999999
 20
121.0
 30
0.0
 10
-3.499999999999
 20
122.655352
 30
0.0
 10
-4.844647999999
 20
124.0
 30
0.0
 10
-6.499999999999
 20
124.0
 30
0.0
 10
-8.155351999999
 20
124.0
 30
0.0
 10
-9.5
 20
122.655352
 30
0.0
 10
-9.5
 20
121.0
 30
0.0
 10
-9.5
 20
120.25
 30
0.0
 10
-10.75
 20
119.0
 30
0.0
 10
-11.5
 20
119.0
 30
0.0
 10
-13.5
 20
119.0
 30
0.0
 10
-15.5
 20
119.0
 30
0.0
 10
-17.5
 20
119.0
 30
0.0
 10
-18.87946
 20
119.0
 30
0.0
 10
-20.0
 20
120.12054
 30
0.0
 10
-20.0
 20
121.5
 30
0.0
 10
-20.0
 20
121.666666666667
 30
0.0
 10
-20.0
 20
121.833333333334
 30
0.0
 10
-20.0
 20
122.0
 30
0.0
 10
-20.0
 20
124.333333333334
 30
0.0
 10
-20.0
 20
126.666666666667
 30
0.0
 10
-20.0
 20
129.0
 30
0.0
 10
-45.297808340029
 20
129.0
 30
0.0
 10
-70.595616680057
 20
129.0
 30
0.0
 10
-95.893425020085
 20
129.0
 30
0.0
 10
-95.963685832541
 20
129.0
 30
0.0
 10
-96.033157851783
 20
129.014807958111
 30
0.0
 10
-96.097311810653
 20
129.04345846122
 30
0.0
 10
-96.62891103388
 20
129.280865247429
 30
0.0
 10
-97.160510257107
 20
129.518272033637
 30
0.0
 10
-97.692109480335
 20
129.755678819846
 30
0.0
 10
-104.001342568249
 20
129.203692449111
 30
0.0
 10
-110.310575656163
 20
128.651706078376
 30
0.0
 10
-116.619808744078
 20
128.099719707641
 30
0.0
 10
-117.084988589616
 20
127.538992264059
 30
0.0
 10
-117.550168435154
 20
126.978264820477
 30
0.0
 10
-118.015348280692
 20
126.417537376895
 30
0.0
 10
-118.091017962292
 20
126.326325198364
 30
0.0
 10
-118.196626841697
 20
126.264956944405
 30
0.0
 10
-118.313340322932
 20
126.244377208651
 30
0.0
 10
-121.864040939641
 20
125.618292889507
 30
0.0
 10
-125.414741556349
 20
124.992208570363
 30
0.0
 10
-128.965442173058
 20
124.366124251219
 30
0.0
 10
-129.237142753653
 20
124.318216108187
 30
0.0
 10
-129.496761995365
 20
124.500003458298
 30
0.0
 10
-129.544670138398
 20
124.771704038892
 30
0.0
 10
-129.592578281431
 20
125.043404619486
 30
0.0
 10
-129.410790931319
 20
125.303023861199
 30
0.0
 10
-129.139090350725
 20
125.350932004232
 30
0.0
 10
-127.508886867161
 20
125.638380862429
 30
0.0
 10
-126.418162766492
 20
127.196096312705
 30
0.0
 10
-126.70561162469
 20
128.826299796269
 30
0.0
 10
-126.993060482887
 20
130.456503279833
 30
0.0
 10
-128.550775933163
 20
131.547227380502
 30
0.0
 10
-130.180979416727
 20
131.259778522305
 30
0.0
 10
-131.986460297249
 20
130.941423529916
 30
0.0
 10
-133.791941177772
 20
130.623068537526
 30
0.0
 10
-135.597422058294
 20
130.304713545137
 30
0.0
 10
-137.402902938816
 20
129.986358552747
 30
0.0
 10
-139.208383819339
 20
129.668003560358
 30
0.0
 10
-141.013864699861
 20
129.349648567969
 30
0.0
 10
-142.644068183426
 20
129.062199709771
 30
0.0
 10
-143.734792284094
 20
127.504484259495
 30
0.0
 10
-143.447343425897
 20
125.874280775931
 30
0.0
 10
-143.1598945677
 20
124.244077292367
 30
0.0
 10
-141.602179117424
 20
123.153353191698
 30
0.0
 10
-139.97197563386
 20
123.440802049895
 30
0.0
 10
-139.700275053266
 20
123.488710192928
 30
0.0
 10
-139.440655811553
 20
123.306922842817
 30
0.0
 10
-139.39274766852
 20
123.035222262223
 30
0.0
 10
-139.344839525487
 20
122.763521681629
 30
0.0
 10
-139.526626875599
 20
122.503902439916
 30
0.0
 10
-139.798327456193
 20
122.455994296883
 30
0.0
 10
-145.050635472258
 20
121.529870682659
 30
0.0
 10
-150.302943488323
 20
120.603747068436
 30
0.0
 10
-155.555251504388
 20
119.677623454212
 30
0.0
 10
-154.484421075442
 20
113.604642310637
 30
0.0
 10
-153.413590646496
 20
107.531661167061
 30
0.0
 10
-152.34276021755
 20
101.458680023486
 30
0.0
 10
-152.294852074517
 20
101.186979442892
 30
0.0
 10
-152.476639424628
 20
100.92736020118
 30
0.0
 10
-152.748340005223
 20
100.879452058147
 30
0.0
 10
-153.651080445484
 20
100.720274561952
 30
0.0
 10
-154.553820885745
 20
100.561097065758
 30
0.0
 10
-155.456561326006
 20
100.401919569563
 30
0.0
 10
-154.38573089706
 20
94.328938425988
 30
0.0
 10
-153.314900468114
 20
88.255957282412
 30
0.0
 10
-152.244070039168
 20
82.182976138837
 30
0.0
 10
-152.196161896135
 20
81.911275558243
 30
0.0
 10
-152.377949246246
 20
81.65165631653
 30
0.0
 10
-152.64964982684
 20
81.603748173497
 30
0.0
 10
-155.11166920937
 20
81.16962772933
 30
0.0
 10
-157.573688591901
 20
80.735507285163
 30
0.0
 10
-160.035707974431
 20
80.301386840995
 30
0.0
 10
-158.935936182541
 20
74.064271071918
 30
0.0
 10
-157.83616439065
 20
67.827155302841
 30
0.0
 10
-156.736392598759
 20
61.590039533764
 30
0.0
 10
-154.930911718238
 20
61.908394526153
 30
0.0
 10
-153.125430837716
 20
62.226749518542
 30
0.0
 10
-151.319949957195
 20
62.545104510932
 30
0.0
 10
-151.048249376599
 20
62.593012653964
 30
0.0
 10
-150.788630134886
 20
62.411225303853
 30
0.0
 10
-150.740721991854
 20
62.139524723259
 30
0.0
 10
-149.698832925852
 20
56.230678205186
 30
0.0
 10
-148.65694385985
 20
50.321831687113
 30
0.0
 10
-147.615054793849
 20
44.412985169039
 30
0.0
 10
-147.567146650816
 20
44.141284588445
 30
0.0
 10
-147.748934000927
 20
43.881665346732
 30
0.0
 10
-148.020634581521
 20
43.8337572037
 30
0.0
 10
-149.415778898289
 20
43.587755618671
 30
0.0
 10
-150.810923215056
 20
43.341754033643
 30
0.0
 10
-152.206067531824
 20
43.095752448615
 30
0.0
 10
-151.974536628267
 20
41.782675444599
 30
0.0
 10
-151.743005724711
 20
40.469598440583
 30
0.0
 10
-151.511474821156
 20
39.156521436566
 30
0.0
 10
-151.463566678123
 20
38.884820855972
 30
0.0
 10
-151.645354028234
 20
38.62520161426
 30
0.0
 10
-151.917054608828
 20
38.577293471227
 30
0.0
 10
-152.188755189422
 20
38.529385328194
 30
0.0
 10
-152.448374431135
 20
38.711172678305
 30
0.0
 10
-152.496282574168
 20
38.982873258899
 30
0.0
 10
-152.783731432365
 20
40.613076742464
 30
0.0
 10
-154.341446882641
 20
41.703800843132
 30
0.0
 10
-155.971650366205
 20
41.416351984935
 30
0.0
 10
-157.601853849769
 20
41.128903126738
 30
0.0
 10
-158.692577950438
 20
39.571187676462
 30
0.0
 10
-158.405129092241
 20
37.940984192898
 30
0.0
 10
-158.086774099851
 20
36.135503312375
 30
0.0
 10
-157.768419107462
 20
34.330022431853
 30
0.0
 10
-157.450064115073
 20
32.524541551331
 30
0.0
 10
-157.131709122683
 20
30.719060670809
 30
0.0
 10
-156.813354130294
 20
28.913579790286
 30
0.0
 10
-156.494999137905
 20
27.108098909764
 30
0.0
 10
-156.207550279707
 20
25.477895426199
 30
0.0
 10
-154.649834829432
 20
24.38717132553
 30
0.0
 10
-153.019631345867
 20
24.674620183728
 30
0.0
 10
-151.389427862303
 20
24.962069041925
 30
0.0
 10
-150.298703761634
 20
26.519784492201
 30
0.0
 10
-150.586152619831
 20
28.149987975765
 30
0.0
 10
-150.634060762864
 20
28.421688556359
 30
0.0
 10
-150.452273412753
 20
28.681307798072
 30
0.0
 10
-150.180572832159
 20
28.729215941105
 30
0.0
 10
-149.908872251565
 20
28.777124084138
 30
0.0
 10
-149.649253009852
 20
28.595336734026
 30
0.0
 10
-149.601344866819
 20
28.323636153432
 30
0.0
 10
-149.369813963263
 20
27.010559149416
 30
0.0
 10
-149.138283059707
 20
25.697482145399
 30
0.0
 10
-148.906752156152
 20
24.384405141383
 30
0.0
 10
-134.873241675727
 20
26.858891673137
 30
0.0
 10
-120.839731195303
 20
29.333378204891
 30
0.0
 10
-106.806220714879
 20
31.807864736645
 30
0.0
 10
-107.877051143826
 20
37.88084588022
 30
0.0
 10
-108.947881572772
 20
43.953827023795
 30
0.0
 10
-110.018712001718
 20
50.02680816737
 30
0.0
 10
-110.066620144751
 20
50.298508747964
 30
0.0
 10
-109.884832794639
 20
50.558127989677
 30
0.0
 10
-109.613132214045
 20
50.60603613271
 30
0.0
 10
-108.225154169791
 20
50.850774110543
 30
0.0
 10
-106.837176125537
 20
51.095512088376
 30
0.0
 10
-105.449198081283
 20
51.340250066209
 30
0.0
 10
-105.434872360208
 20
51.342776077353
 30
0.0
 10
-105.420443227583
 20
51.344675708701
 30
0.0
 10
-105.405951863824
 20
51.345943538749
 30
0.0
 10
-104.58303874872
 20
51.417939107387
 30
0.0
 10
-103.760125633617
 20
51.489934676025
 30
0.0
 10
-102.937212518514
 20
51.561930244664
 30
0.0
 10
-102.662370370868
 20
51.585975816842
 30
0.0
 10
-102.419582870272
 20
51.382252914637
 30
0.0
 10
-102.395537298094
 20
51.107410766991
 30
0.0
 10
-102.371491725916
 20
50.832568619346
 30
0.0
 10
-102.57521462812
 20
50.58978111875
 30
0.0
 10
-102.850056775766
 20
50.565735546572
 30
0.0
 10
-104.499109661642
 20
50.421462113503
 30
0.0
 10
-105.721447074867
 20
48.964737109929
 30
0.0
 10
-105.577173641799
 20
47.315684224054
 30
0.0
 10
-105.43290020873
 20
45.666631338178
 30
0.0
 10
-103.976175205156
 20
44.444293924953
 30
0.0
 10
-102.32712231928
 20
44.588567358021
 30
0.0
 10
-100.500765372779
 20
44.748352886392
 30
0.0
 10
-98.674408426277
 20
44.908138414763
 30
0.0
 10
-96.848051479776
 20
45.067923943133
 30
0.0
 10
-95.021694533274
 20
45.227709471504
 30
0.0
 10
-93.195337586773
 20
45.387494999875
 30
0.0
 10
-91.368980640271
 20
45.547280528246
 30
0.0
 10
-89.719927754396
 20
45.691553961314
 30
0.0
 10
-88.49759034117
 20
47.148278964888
 30
0.0
 10
-88.641863774239
 20
48.797331850764
 30
0.0
 10
-88.786137207308
 20
50.446384736639
 30
0.0
 10
-90.242862210881
 20
51.668722149865
 30
0.0
 10
-91.891915096757
 20
51.524448716796
 30
0.0
 10
-92.166757244403
 20
51.500403144618
 30
0.0
 10
-92.409544744999
 20
51.704126046822
 30
0.0
 10
-92.433590317177
 20
51.978968194468
 30
0.0
 10
-92.457635889355
 20
52.253810342114
 30
0.0
 10
-92.253912987151
 20
52.49659784271
 30
0.0
 10
-91.979070839505
 20
52.520643414888
 30
0.0
 10
-90.333906516795
 20
52.664576642762
 30
0.0
 10
-88.688742194085
 20
52.808509870637
 30
0.0
 10
-87.043577871374
 20
52.952443098511
 30
0.0
 10
-86.86963438089
 20
52.967661182023
 30
0.0
 10
-86.695690890405
 20
52.982879265534
 30
0.0
 10
-86.52174739992
 20
52.998097349046
 30
0.0
  0
SPLINE
  5
e0
100
AcDbEntity
  8
Plate
100
AcDbSpline
 70
     9
 71
     3
 72
    29
 73
    25
 74
     0
 42
0.0000001
 43
0.0000001
 40
0.0
 40
0.0
 40
0.0
 40
0.0
 40
1.0
 40
1.0
 40
1.0
 40
16.375
 40
16.375
 40
16.375
 40
17.375
 40
17.375
 40
17.375
 40
30.375
 40
30.375
 40
30.375
 40
31.375
 40
31.375
 40
31.375
 40
46.75
 40
46.75
 40
46.75
 40
47.75
 40
47.75
 40
47.75
 40
60.75
 40
60.75
 40
60.75
 40
60.75
 10
-79.25
 20
50.0
 30
0.0
 10
-79.25
 20
50.275892
 30
0.0
 10
-79.025892
 20
50.5
 30
0.0
 10
-78.75
 20
50.5
 30
0.0
 10
-73.625
 20
50.5
 30
0.0
 10
-68.5
 20
50.5
 30
0.0
 10
-63.375
 20
50.5
 30
0.0
 10
-63.099108
 20
50.5
 30
0.0
 10
-62.875
 20
50.275892
 30
0.0
 10
-62.875
 20
50.0
 30
0.0
 10
-62.875
 20
45.666666666667
 30
0.0
 10
-62.875
 20
41.333333333333
 30
0.0
 10
-62.875
 20
37.0
 30
0.0
 10
-62.875
 20
36.724108
 30
0.0
 10
-63.099108
 20
36.5
 30
0.0
 10
-63.375
 20
36.5
 30
0.0
 10
-68.5
 20
36.5
 30
0.0
 10
-73.625
 20
36.5
 30
0.0
 10
-78.75
 20
36.5
 30
0.0
 10
-79.025892
 20
36.5
 30
0.0
 10
-79.25
 20
36.724108
 30
0.0
 10
-79.25
 20
37.0
 30
0.0
 10
-79.25
 20
41.333333333333
 30
0.0
 10
-79.25
 20
45.666666666667
 30
0.0
 10
-79.25
 20
50.0
 30
0.0
  0
SPLINE
  5
e1
100
AcDbEntity
  8
Plate
100
AcDbSpline
 70
     9
 71
     3
 72
    65
 73
    61
 74
     0
 42
0.0000001
 43
0.0000001
 40
0.0
 40
0.0
 40
0.0
 40
0.0
 40
1.0
 40
1.0
 40
1.0
 40
1.75
 40
1.75
 40
1.75
 40
2.25
 40
2.25
 40
2.25
 40
3.25
 40
3.25
 40
3.25
 40
9.0
 40
9.0
 40
9.0
 40
10.0
 40
10.0
 40
10.0
 40
10.5
 40
10.5
 40
10.5
 40
27.5
 40
27.5
 40
27.5
 40
28.0
 40
28.0
 40
28.0
 40
29.0
 40
29.0
 40
29.0
 40
34.75
 40
34.75
 40
34.75
 40
35.75
 40
35.75
 40
35.75
 40
36.25
 40
36.25
 40
36.25
 40
41.75
 40
41.75
 40
41.75
 40
42.75
 40
42.75
 40
42.75
 40
55.75
 40
55.75
 40
55.75
 40
56.75
 40
56.75
 40
56.75
 40
93.5
 40
93.5
 40
93.5
 40
94.5
 40
94.5
 40
94.5
 40
107.5
 40
107.5
 40
107.5
 40
107.5
 10
-53.125
 20
50.0
 30
0.0
 10
-53.125
 20
50.275892
 30
0.0
 10
-52.900892
 20
50.5
 30
0.0
 10
-52.625
 20
50.5
 30
0.0
 10
-52.375
 20
50.5
 30
0.0
 10
-52.125
 20
50.5
 30
0.0
 10
-51.875
 20
50.5
 30
0.0
 10
-51.875
 20
50.666666666667
 30
0.0
 10
-51.875
 20
50.833333333333
 30
0.0
 10
-51.875
 20
51.0
 30
0.0
 10
-51.875
 20
51.275892
 30
0.0
 10
-51.650892
 20
51.5
 30
0.0
 10
-51.375
 20
51.5
 30
0.0
 10
-49.458333333333
 20
51.5
 30
0.0
 10
-47.541666666667
 20
51.5
 30
0.0
 10
-45.625
 20
51.5
 30
0.0
 10
-45.349108
 20
51.5
 30
0.0
 10
-45.125
 20
51.275892
 30
0.0
 10
-45.125
 20
51.0
 30
0.0
 10
-45.125
 20
50.833333333333
 30
0.0
 10
-45.125
 20
50.666666666667
 30
0.0
 10
-45.125
 20
50.5
 30
0.0
 10
-39.458333333333
 20
50.5
 30
0.0
 10
-33.791666666667
 20
50.5
 30
0.0
 10
-28.125
 20
50.5
 30
0.0
 10
-28.125
 20
50.666666666667
 30
0.0
 10
-28.125
 20
50.833333333333
 30
0.0
 10
-28.125
 20
51.0
 30
0.0
 10
-28.125
 20
51.275892
 30
0.0
 10
-27.900892
 20
51.5
 30
0.0
 10
-27.625
 20
51.5
 30
0.0
 10
-25.708333333333
 20
51.5
 30
0.0
 10
-23.791666666667
 20
51.5
 30
0.0
 10
-21.875
 20
51.5
 30
0.0
 10
-21.599108
 20
51.5
 30
0.0
 10
-21.375
 20
51.275892
 30
0.0
 10
-21.375
 20
51.0
 30
0.0
 10
-21.375
 20
50.833333333333
 30
0.0
 10
-21.375
 20
50.666666666667
 30
0.0
 10
-21.375
 20
50.5
 30
0.0
 10
-19.541666666667
 20
50.5
 30
0.0
 10
-17.708333333334
 20
50.5
 30
0.0
 10
-15.875
 20
50.5
 30
0.0
 10
-15.599108
 20
50.5
 30
0.0
 10
-15.375
 20
50.275892
 30
0.0
 10
-15.375
 20
50.0
 30
0.0
 10
-15.375
 20
45.666666666667
 30
0.0
 10
-15.375
 20
41.333333333333
 30
0.0
 10
-15.375
 20
37.0
 30
0.0
 10
-15.375
 20
36.724108
 30
0.0
 10
-15.599108
 20
36.5
 30
0.0
 10
-15.875
 20
36.5
 30
0.0
 10
-28.125
 20
36.5
 30
0.0
 10
-40.375
 20
36.5
 30
0.0
 10
-52.625
 20
36.5
 30
0.0
 10
-52.900892
 20
36.5
 30
0.0
 10
-53.125
 20
36.724108
 30
0.0
 10
-53.125
 20
37.0
 30
0.0
 10
-53.125
 20
41.333333333333
 30
0.0
 10
-53.125
 20
45.666666666667
 30
0.0
 10
-53.125
 20
50.0
 30
0.0
  0
SPLINE
  5
e2
100
AcDbEntity
  8
Plate
100
AcDbSpline
 70
     9
 71
     3
 72
    29
 73
    25
 74
     0
 42
0.0000001
 43
0.0000001
 40
0.0
 40
0.0
 40
0.0
 40
0.0
 40
1.0
 40
1.0
 40
1.0
 40
14.0
 40
14.0
 40
14.0
 40
15.0
 40
15.0
 40
15.0
 40
28.0
 40
28.0
 40
28.0
 40
29.0
 40
29.0
 40
29.0
 40
42.0
 40
42.0
 40
42.0
 40
43.0
 40
43.0
 40
43.0
 40
56.0
 40
56.0
 40
56.0
 40
56.0
 10
-103.198679746757
 20
54.550514338939
 30
0.0
 10
-103.174634174579
 20
54.275672191293
 30
0.0
 10
-102.931846673983
 20
54.071949289089
 30
0.0
 10
-102.657004526337
 20
54.095994861267
 30
0.0
 10
-98.340160834606
 20
54.473669746507
 30
0.0
 10
-94.023317142875
 20
54.851344631746
 30
0.0
 10
-89.706473451145
 20
55.229019516986
 30
0.0
 10
-89.431631303499
 20
55.253065089165
 30
0.0
 10
-89.227908401294
 20
55.49585258976
 30
0.0
 10
-89.251953973473
 20
55.770694737406
 30
0.0
 10
-89.629628858712
 20
60.087538429137
 30
0.0
 10
-90.007303743952
 20
64.404382120868
 30
0.0
 10
-90.384978629192
 20
68.721225812599
 30
0.0
 10
-90.40902420137
 20
68.996067960245
 30
0.0
 10
-90.651811701966
 20
69.199790862449
 30
0.0
 10
-90.926653849612
 20
69.175745290271
 30
0.0
 10
-95.243497541343
 20
68.798070405031
 30
0.0
 10
-99.560341233074
 20
68.420395519791
 30
0.0
 10
-103.877184924805
 20
68.042720634551
 30
0.0
 10
-104.15202707245
 20
68.018675062373
 30
0.0
 10
-104.355749974655
 20
67.775887561777
 30
0.0
 10
-104.331704402477
 20
67.501045414131
 30
0.0
 10
-103.954029517237
 20
63.184201722401
 30
0.0
 10
-103.576354631997
 20
58.86735803067
 30
0.0
 10
-103.198679746757
 20
54.550514338939
 30
0.0
  0
ENDSEC
  0
SECTION
  2
OBJECTS
  0
DICTIONARY
  5
C
330
0
100
AcDbDictionary
281
     1
  3
ACAD_2007HEADERVARS_RT
350
AA
  3
ACAD_COLOR
350
6B
  3
ACAD_GROUP
350
D
  3
ACAD_LAYOUT
350
6A
  3
ACAD_MATERIAL
350
10
  3
ACAD_MLEADERSTYLE
350
6E
  3
ACAD_MLINESTYLE
350
67
  3
ACAD_PLOTSETTINGS
350
69
  3
ACAD_PLOTSTYLENAME
350
E
  3
ACAD_SCALELIST
350
3A
  3
ACAD_TABLESTYLE
350
6C
  3
ACAD_VISUALSTYLE
350
29
  3
ACDB_RECOMPOSE_DATA
350
A8
  3
AcDbVariableDictionary
350
9C
  3
DWGPROPS
350
A9
  0
DICTIONARY
  5
9A
330
5C
100
AcDbDictionary
280
     1
281
     1
  3
ADSK_XREC_LAYER_RECONCILED
360
9B
  0
DICTIONARY
  5
AA
102
{ACAD_REACTORS
330
C
102
}
330
C
100
AcDbDictionary
281
     1
  3
DIMJOGANG
350
AB
  0
DICTIONARY
  5
6B
102
{ACAD_REACTORS
330
C
102
}
330
C
100
AcDbDictionary
281
     1
  0
DICTIONARY
  5
D
102
{ACAD_REACTORS
330
C
102
}
330
C
100
AcDbDictionary
281
     1
  0
DICTIONARY
  5
6A
102
{ACAD_REACTORS
330
C
102
}
330
C
100
AcDbDictionary
281
     1
  3
Layout1
350
74
  3
Layout2
350
7C
  3
Model
350
78
  0
DICTIONARY
  5
10
102
{ACAD_REACTORS
330
C
102
}
330
C
100
AcDbDictionary
281
     1
  3
ByBlock
350
19
  3
ByLayer
350
11
  3
Global
350
21
  0
DICTIONARY
  5
6E
102
{ACAD_REACTORS
330
C
102
}
330
C
100
AcDbDictionary
281
     1
  3
Standard
350
6F
  0
DICTIONARY
  5
67
102
{ACAD_REACTORS
330
C
102
}
330
C
100
AcDbDictionary
281
     1
  3
Standard
350
68
  0
DICTIONARY
  5
69
102
{ACAD_REACTORS
330
C
102
}
330
C
100
AcDbDictionary
281
     1
  0
ACDBDICTIONARYWDFLT
  5
E
102
{ACAD_REACTORS
330
C
102
}
330
C
100
AcDbDictionary
281
     1
  3
Normal
350
F
100
AcDbDictionaryWithDefault
340
F
  0
DICTIONARY
  5
3A
102
{ACAD_REACTORS
330
C
102
}
330
C
100
AcDbDictionary
281
     1
  3
A0
350
3B
  3
A1
350
3C
  3
A2
350
3D
  3
A3
350
3E
  3
A4
350
3F
  3
A5
350
40
  3
A6
350
41
  3
A7
350
42
  3
A8
350
43
  3
A9
350
44
  3
B0
350
45
  3
B1
350
46
  3
B2
350
47
  3
B3
350
48
  3
B4
350
49
  3
B5
350
4A
  3
B6
350
4B
  3
B7
350
4C
  3
B8
350
4D
  3
B9
350
4E
  3
C0
350
4F
  3
C1
350
50
  3
C2
350
51
  3
C3
350
52
  3
C4
350
53
  3
C5
350
54
  3
C6
350
55
  3
C7
350
56
  3
C8
350
57
  3
C9
350
58
  3
D0
350
59
  3
D1
350
5A
  3
D2
350
5B
  0
DICTIONARY
  5
6C
102
{ACAD_REACTORS
330
C
102
}
330
C
100
AcDbDictionary
281
     1
  3
Standard
350
6D
  0
DICTIONARY
  5
29
102
{ACAD_REACTORS
330
C
102
}
330
C
100
AcDbDictionary
281
     1
  3
2dWireframe
350
2F
  3
3D Hidden
350
31
  3
3dWireframe
350
30
  3
Basic
350
2E
  3
Brighten
350
35
  3
ColorChange
350
39
  3
Conceptual
350
32
  3
Dim
350
34
  3
Facepattern
350
38
  3
Flat
350
2A
  3
FlatWithEdges
350
2B
  3
Gouraud
350
2C
  3
GouraudWithEdges
350
2D
  3
Linepattern
350
37
  3
Realistic
350
33
  3
Thicken
350
36
  0
XRECORD
  5
A8
102
{ACAD_REACTORS
330
C
102
}
330
C
100
AcDbXrecord
280
     1
 90
     1
330
6D
  0
DICTIONARY
  5
9C
102
{ACAD_REACTORS
330
C
102
}
330
C
100
AcDbDictionary
281
     1
  3
CANNOSCALE
350
A0
  3
CMLEADERSTYLE
350
9E
  3
CTABLESTYLE
350
9D
  3
DIMASSOC
350
A5
  3
HIDETEXT
350
A4
  3
INDEXCTL
350
A3
  3
LIGHTINGUNITS
350
A1
  3
MSLTSCALE
350
9F
  3
SORTENTS
350
A2
  0
XRECORD
  5
A9
102
{ACAD_REACTORS
330
C
102
}
330
C
100
AcDbXrecord
280
     1
  1
DWGPROPS COOKIE
  2

  3

  4

  6

  7

  8
Michael
  9

300
=
301
=
302
=
303
=
304
=
305
=
306
=
307
=
308
=
309
=
 40
0.002929872685
 41
2456236.994979560841
 42
2456236.997909063008
  1

 90
     0
  0
XRECORD
  5
9B
102
{ACAD_REACTORS
330
9A
102
}
330
9A
100
AcDbXrecord
280
     1
290
1
  0
XRECORD
  5
AB
102
{ACAD_REACTORS
330
AA
102
}
330
AA
100
AcDbXrecord
280
     1
 40
1.570796326795
  0
LAYOUT
  5
74
102
{ACAD_XDICTIONARY
360
B1
102
}
102
{ACAD_REACTORS
330
6A
102
}
330
6A
100
AcDbPlotSettings
  1

  2
Auto Canon Bubble-Jet BJC-1000 on MGIBSON-HOME
  4

  6

 40
0.0
 41
0.0
 42
0.0
 43
0.0
 44
0.0
 45
0.0
 46
0.0
 47
0.0
 48
0.0
 49
0.0
140
0.0
141
0.0
142
1.0
143
1.0
 70
   688
 72
     0
 73
     0
 74
     5
  7

 75
    16
147
1.0
148
0.0
149
0.0
100
AcDbLayout
  1
Layout1
 70
     1
 71
     1
 10
0.0
 20
0.0
 11
420.0
 21
297.0
 12
0.0
 22
0.0
 32
0.0
 14
100000000000000000000.0
 24
100000000000000000000.0
 34
100000000000000000000.0
 15
-100000000000000000000.0
 25
-100000000000000000000.0
 35
-100000000000000000000.0
146
0.0
 13
0.0
 23
0.0
 33
0.0
 16
1.0
 26
0.0
 36
0.0
 17
0.0
 27
1.0
 37
0.0
 76
     0
330
71
  0
LAYOUT
  5
7C
102
{ACAD_XDICTIONARY
360
B5
102
}
102
{ACAD_REACTORS
330
6A
102
}
330
6A
100
AcDbPlotSettings
  1

  2
Auto Canon Bubble-Jet BJC-1000 on MGIBSON-HOME
  4

  6

 40
0.0
 41
0.0
 42
0.0
 43
0.0
 44
0.0
 45
0.0
 46
0.0
 47
0.0
 48
0.0
 49
0.0
140
0.0
141
0.0
142
1.0
143
1.0
 70
   688
 72
     0
 73
     0
 74
     5
  7

 75
    16
147
1.0
148
0.0
149
0.0
100
AcDbLayout
  1
Layout2
 70
     1
 71
     2
 10
0.0
 20
0.0
 11
12.0
 21
9.0
 12
0.0
 22
0.0
 32
0.0
 14
0.0
 24
0.0
 34
0.0
 15
0.0
 25
0.0
 35
0.0
146
0.0
 13
0.0
 23
0.0
 33
0.0
 16
1.0
 26
0.0
 36
0.0
 17
0.0
 27
1.0
 37
0.0
 76
     0
330
79
  0
LAYOUT
  5
78
102
{ACAD_XDICTIONARY
360
B3
102
}
102
{ACAD_REACTORS
330
6A
102
}
330
6A
100
AcDbPlotSettings
  1

  2
Auto Canon Bubble-Jet BJC-1000 on MGIBSON-HOME
  4

  6

 40
0.0
 41
0.0
 42
0.0
 43
0.0
 44
0.0
 45
0.0
 46
0.0
 47
0.0
 48
0.0
 49
0.0
140
0.0
141
0.0
142
1.0
143
1.0
 70
  1712
 72
     0
 73
     0
 74
     0
  7

 75
     0
147
1.0
148
0.0
149
0.0
100
AcDbLayout
  1
Model
 70
     1
 71
     0
 10
0.0
 20
0.0
 11
12.0
 21
9.0
 12
0.0
 22
0.0
 32
0.0
 14
0.0
 24
0.0
 34
0.0
 15
0.0
 25
0.0
 35
0.0
146
0.0
 13
0.0
 23
0.0
 33
0.0
 16
1.0
 26
0.0
 36
0.0
 17
0.0
 27
1.0
 37
0.0
 76
     0
330
75
331
5F
  0
MATERIAL
  5
19
102
{ACAD_XDICTIONARY
360
1A
102
}
102
{ACAD_REACTORS
330
10
102
}
330
10
100
AcDbMaterial
  1
ByBlock
 72
     0
 43
0.020833333333
 43
0.0
 43
0.0
 43
0.0
 43
0.0
 43
0.020833333333
 43
0.0
 43
0.0
 43
0.0
 43
0.0
 43
1.0
 43
0.0
 43
0.0
 43
0.0
 43
0.0
 43
1.0
 77
     0
 47
0.020833333333
 47
0.0
 47
0.0
 47
0.0
 47
0.0
 47
0.020833333333
 47
0.0
 47
0.0
 47
0.0
 47
0.0
 47
1.0
 47
0.0
 47
0.0
 47
0.0
 47
0.0
 47
1.0
171
     0
 49
0.020833333333
 49
0.0
 49
0.0
 49
0.0
 49
0.0
 49
0.020833333333
 49
0.0
 49
0.0
 49
0.0
 49
0.0
 49
1.0
 49
0.0
 49
0.0
 49
0.0
 49
0.0
 49
1.0
175
     0
142
0.020833333333
142
0.0
142
0.0
142
0.0
142
0.0
142
0.020833333333
142
0.0
142
0.0
142
0.0
142
0.0
142
1.0
142
0.0
142
0.0
142
0.0
142
0.0
142
1.0
179
0
144
0.020833333333
144
0.0
144
0.0
144
0.0
144
0.0
144
0.020833333333
144
0.0
144
0.0
144
0.0
144
0.0
144
1.0
144
0.0
144
0.0
144
0.0
144
0.0
144
1.0
147
0.020833333333
147
0.0
147
0.0
147
0.0
147
0.0
147
0.020833333333
147
0.0
147
0.0
147
0.0
147
0.0
147
1.0
147
0.0
147
0.0
147
0.0
147
0.0
147
1.0
  0
MATERIAL
  5
11
102
{ACAD_XDICTIONARY
360
12
102
}
102
{ACAD_REACTORS
330
10
102
}
330
10
100
AcDbMaterial
  1
ByLayer
 72
     0
 43
0.020833333333
 43
0.0
 43
0.0
 43
0.0
 43
0.0
 43
0.020833333333
 43
0.0
 43
0.0
 43
0.0
 43
0.0
 43
1.0
 43
0.0
 43
0.0
 43
0.0
 43
0.0
 43
1.0
 77
     0
 47
0.020833333333
 47
0.0
 47
0.0
 47
0.0
 47
0.0
 47
0.020833333333
 47
0.0
 47
0.0
 47
0.0
 47
0.0
 47
1.0
 47
0.0
 47
0.0
 47
0.0
 47
0.0
 47
1.0
171
     0
 49
0.020833333333
 49
0.0
 49
0.0
 49
0.0
 49
0.0
 49
0.020833333333
 49
0.0
 49
0.0
 49
0.0
 49
0.0
 49
1.0
 49
0.0
 49
0.0
 49
0.0
 49
0.0
 49
1.0
175
     0
142
0.020833333333
142
0.0
142
0.0
142
0.0
142
0.0
142
0.020833333333
142
0.0
142
0.0
142
0.0
142
0.0
142
1.0
142
0.0
142
0.0
142
0.0
142
0.0
142
1.0
179
0
144
0.020833333333
144
0.0
144
0.0
144
0.0
144
0.0
144
0.020833333333
144
0.0
144
0.0
144
0.0
144
0.0
144
1.0
144
0.0
144
0.0
144
0.0
144
0.0
144
1.0
147
0.020833333333
147
0.0
147
0.0
147
0.0
147
0.0
147
0.020833333333
147
0.0
147
0.0
147
0.0
147
0.0
147
1.0
147
0.0
147
0.0
147
0.0
147
0.0
147
1.0
  0
MATERIAL
  5
21
102
{ACAD_XDICTIONARY
360
22
102
}
102
{ACAD_REACTORS
330
10
102
}
330
10
100
AcDbMaterial
  1
Global
 72
     0
 43
0.020833333333
 43
0.0
 43
0.0
 43
0.0
 43
0.0
 43
0.020833333333
 43
0.0
 43
0.0
 43
0.0
 43
0.0
 43
1.0
 43
0.0
 43
0.0
 43
0.0
 43
0.0
 43
1.0
 77
     0
 47
0.020833333333
 47
0.0
 47
0.0
 47
0.0
 47
0.0
 47
0.020833333333
 47
0.0
 47
0.0
 47
0.0
 47
0.0
 47
1.0
 47
0.0
 47
0.0
 47
0.0
 47
0.0
 47
1.0
171
     0
 49
0.020833333333
 49
0.0
 49
0.0
 49
0.0
 49
0.0
 49
0.020833333333
 49
0.0
 49
0.0
 49
0.0
 49
0.0
 49
1.0
 49
0.0
 49
0.0
 49
0.0
 49
0.0
 49
1.0
175
     0
142
0.020833333333
142
0.0
142
0.0
142
0.0
142
0.0
142
0.020833333333
142
0.0
142
0.0
142
0.0
142
0.0
142
1.0
142
0.0
142
0.0
142
0.0
142
0.0
142
1.0
179
0
144
0.020833333333
144
0.0
144
0.0
144
0.0
144
0.0
144
0.020833333333
144
0.0
144
0.0
144
0.0
144
0.0
144
1.0
144
0.0
144
0.0
144
0.0
144
0.0
144
1.0
147
0.020833333333
147
0.0
147
0.0
147
0.0
147
0.0
147
0.020833333333
147
0.0
147
0.0
147
0.0
147
0.0
147
1.0
147
0.0
147
0.0
147
0.0
147
0.0
147
1.0
  0
MLEADERSTYLE
  5
6F
102
{ACAD_REACTORS
330
6E
102
}
330
6E
100
AcDbMLeaderStyle
170
     2
171
     1
172
     0
 90
     2
 40
0.0
 41
0.0
173
     1
 91
-1056964608
340
63
 92
    -2
290
1
 42
0.09
291
1
 43
0.36
  3
Standard
 44
0.18
300

342
5D
174
     1
178
     6
175
     1
176
     0
 93
-1056964608
 45
0.18
292
0
297
0
 46
0.18
 94
-1056964608
 47
1.0
 49
1.0
140
1.0
293
1
141
0.0
294
1
177
     0
142
1.0
295
0
296
0
143
0.125
1001
ACAD_MLEADERVER
1070
     2
  0
MLINESTYLE
  5
68
102
{ACAD_REACTORS
330
67
102
}
330
67
100
AcDbMlineStyle
  2
STANDARD
 70
     0
  3

 62
   256
 51
90.0
 52
90.0
 71
     2
 49
0.5
 62
   256
  6
BYLAYER
 49
-0.5
 62
   256
  6
BYLAYER
  0
ACDBPLACEHOLDER
  5
F
102
{ACAD_REACTORS
330
E
102
}
330
E
  0
SCALE
  5
3B
102
{ACAD_REACTORS
330
3A
102
}
330
3A
100
AcDbScale
 70
     0
300
1:1
140
1.0
141
1.0
290
1
  0
SCALE
  5
3C
102
{ACAD_REACTORS
330
3A
102
}
330
3A
100
AcDbScale
 70
     0
300
1:2
140
1.0
141
2.0
290
0
  0
SCALE
  5
3D
102
{ACAD_REACTORS
330
3A
102
}
330
3A
100
AcDbScale
 70
     0
300
1:4
140
1.0
141
4.0
290
0
  0
SCALE
  5
3E
102
{ACAD_REACTORS
330
3A
102
}
330
3A
100
AcDbScale
 70
     0
300
1:5
140
1.0
141
5.0
290
0
  0
SCALE
  5
3F
102
{ACAD_REACTORS
330
3A
102
}
330
3A
100
AcDbScale
 70
     0
300
1:8
140
1.0
141
8.0
290
0
  0
SCALE
  5
40
102
{ACAD_REACTORS
330
3A
102
}
330
3A
100
AcDbScale
 70
     0
300
1:10
140
1.0
141
10.0
290
0
  0
SCALE
  5
41
102
{ACAD_REACTORS
330
3A
102
}
330
3A
100
AcDbScale
 70
     0
300
1:16
140
1.0
141
16.0
290
0
  0
SCALE
  5
42
102
{ACAD_REACTORS
330
3A
102
}
330
3A
100
AcDbScale
 70
     0
300
1:20
140
1.0
141
20.0
290
0
  0
SCALE
  5
43
102
{ACAD_REACTORS
330
3A
102
}
330
3A
100
AcDbScale
 70
     0
300
1:30
140
1.0
141
30.0
290
0
  0
SCALE
  5
44
102
{ACAD_REACTORS
330
3A
102
}
330
3A
100
AcDbScale
 70
     0
300
1:40
140
1.0
141
40.0
290
0
  0
SCALE
  5
45
102
{ACAD_REACTORS
330
3A
102
}
330
3A
100
AcDbScale
 70
     0
300
1:50
140
1.0
141
50.0
290
0
  0
SCALE
  5
46
102
{ACAD_REACTORS
330
3A
102
}
330
3A
100
AcDbScale
 70
     0
300
1:100
140
1.0
141
100.0
290
0
  0
SCALE
  5
47
102
{ACAD_REACTORS
330
3A
102
}
330
3A
100
AcDbScale
 70
     0
300
2:1
140
2.0
141
1.0
290
0
  0
SCALE
  5
48
102
{ACAD_REACTORS
330
3A
102
}
330
3A
100
AcDbScale
 70
     0
300
4:1
140
4.0
141
1.0
290
0
  0
SCALE
  5
49
102
{ACAD_REACTORS
330
3A
102
}
330
3A
100
AcDbScale
 70
     0
300
8:1
140
8.0
141
1.0
290
0
  0
SCALE
  5
4A
102
{ACAD_REACTORS
330
3A
102
}
330
3A
100
AcDbScale
 70
     0
300
10:1
140
10.0
141
1.0
290
0
  0
SCALE
  5
4B
102
{ACAD_REACTORS
330
3A
102
}
330
3A
100
AcDbScale
 70
     0
300
100:1
140
100.0
141
1.0
290
0
  0
SCALE
  5
4C
102
{ACAD_REACTORS
330
3A
102
}
330
3A
100
AcDbScale
 70
     0
300
1/128" = 1'-0"
140
0.0078125
141
12.0
290
0
  0
SCALE
  5
4D
102
{ACAD_REACTORS
330
3A
102
}
330
3A
100
AcDbScale
 70
     0
300
1/64" = 1'-0"
140
0.015625
141
12.0
290
0
  0
SCALE
  5
4E
102
{ACAD_REACTORS
330
3A
102
}
330
3A
100
AcDbScale
 70
     0
300
1/32" = 1'-0"
140
0.03125
141
12.0
290
0
  0
SCALE
  5
4F
102
{ACAD_REACTORS
330
3A
102
}
330
3A
100
AcDbScale
 70
     0
300
1/16" = 1'-0"
140
0.0625
141
12.0
290
0
  0
SCALE
  5
50
102
{ACAD_REACTORS
330
3A
102
}
330
3A
100
AcDbScale
 70
     0
300
3/32" = 1'-0"
140
0.09375
141
12.0
290
0
  0
SCALE
  5
51
102
{ACAD_REACTORS
330
3A
102
}
330
3A
100
AcDbScale
 70
     0
300
1/8" = 1'-0"
140
0.125
141
12.0
290
0
  0
SCALE
  5
52
102
{ACAD_REACTORS
330
3A
102
}
330
3A
100
AcDbScale
 70
     0
300
3/16" = 1'-0"
140
0.1875
141
12.0
290
0
  0
SCALE
  5
53
102
{ACAD_REACTORS
330
3A
102
}
330
3A
100
AcDbScale
 70
     0
300
1/4" = 1'-0"
140
0.25
141
12.0
290
0
  0
SCALE
  5
54
102
{ACAD_REACTORS
330
3A
102
}
330
3A
100
AcDbScale
 70
     0
300
3/8" = 1'-0"
140
0.375
141
12.0
290
0
  0
SCALE
  5
55
102
{ACAD_REACTORS
330
3A
102
}
330
3A
100
AcDbScale
 70
     0
300
1/2" = 1'-0"
140
0.5
141
12.0
290
0
  0
SCALE
  5
56
102
{ACAD_REACTORS
330
3A
102
}
330
3A
100
AcDbScale
 70
     0
300
3/4" = 1'-0"
140
0.75
141
12.0
290
0
  0
SCALE
  5
57
102
{ACAD_REACTORS
330
3A
102
}
330
3A
100
AcDbScale
 70
     0
300
1" = 1'-0"
140
1.0
141
12.0
290
0
  0
SCALE
  5
58
102
{ACAD_REACTORS
330
3A
102
}
330
3A
100
AcDbScale
 70
     0
300
1-1/2" = 1'-0"
140
1.5
141
12.0
290
0
  0
SCALE
  5
59
102
{ACAD_REACTORS
330
3A
102
}
330
3A
100
AcDbScale
 70
     0
300
3" = 1'-0"
140
3.0
141
12.0
290
0
  0
SCALE
  5
5A
102
{ACAD_REACTORS
330
3A
102
}
330
3A
100
AcDbScale
 70
     0
300
6" = 1'-0"
140
6.0
141
12.0
290
0
  0
SCALE
  5
5B
102
{ACAD_REACTORS
330
3A
102
}
330
3A
100
AcDbScale
 70
     0
300
1'-0" = 1'-0"
140
12.0
141
12.0
290
0
  0
TABLESTYLE
  5
6D
102
{ACAD_XDICTIONARY
360
A6
102
}
102
{ACAD_REACTORS
330
6C
102
}
330
6C
100
AcDbTableStyle
  3
Standard
 70
     0
 71
     0
 40
1.5
 41
1.5
280
     0
281
     0
  7
Standard
140
4.5
170
     2
 62
     0
 63
     7
283
     0
274
    -2
284
     1
 64
     0
275
    -2
285
     1
 65
     0
276
-2
286
     1
 66
     0
277
-2
287
     1
 67
     0
278
-2
288
     1
 68
     0
279
-2
289
     1
 69
     0
  7
Standard
140
6.0
170
     5
 62
     0
 63
     7
283
     0
274
    -2
284
     1
 64
     0
275
    -2
285
     1
 65
     0
276
-2
286
     1
 66
     0
277
-2
287
     1
 67
     0
278
-2
288
     1
 68
     0
279
-2
289
     1
 69
     0
  7
Standard
140
4.5
170
     5
 62
     0
 63
     7
283
     0
274
    -2
284
     1
 64
     0
275
    -2
285
     1
 65
     0
276
-2
286
     1
 66
     0
277
-2
287
     1
 67
     0
278
-2
288
     1
 68
     0
279
-2
289
     1
 69
     0
  0
VISUALSTYLE
  5
2F
102
{ACAD_REACTORS
330
29
102
}
330
29
100
AcDbVisualStyle
  2
2dWireframe
 70
     4
 71
     0
 72
     2
 73
     0
 90
     0
 40
-0.6
 41
-30.0
 62
     5
 63
     7
 74
     1
 91
     4
 64
     7
 65
   257
 75
     1
175
     1
 42
1.0
 92
     0
 66
   257
 43
1.0
 76
     1
 77
     6
 78
     2
 67
     7
 79
     5
170
     0
171
     0
290
0
174
     0
 93
     1
 44
0.0
173
     0
291
0
 45
0.0
1001
ACAD
1000
AcDbSavedByObjectVersion
1070
     0
  0
VISUALSTYLE
  5
31
102
{ACAD_REACTORS
330
29
102
}
330
29
100
AcDbVisualStyle
  2
3D Hidden
 70
     6
 71
     1
 72
     2
 73
     2
 90
     0
 40
-0.6
 41
-30.0
 62
     5
 63
     7
 74
     2
 91
     2
 64
     7
 65
   257
 75
     2
175
     1
 42
40.0
 92
     0
 66
   257
 43
1.0
 76
     1
 77
     6
 78
     2
 67
     7
 79
     3
170
     0
171
     0
290
0
174
     0
 93
     1
 44
0.0
173
     0
291
0
 45
0.0
1001
ACAD
1000
AcDbSavedByObjectVersion
1070
     0
  0
VISUALSTYLE
  5
30
102
{ACAD_REACTORS
330
29
102
}
330
29
100
AcDbVisualStyle
  2
3dWireframe
 70
     5
 71
     0
 72
     2
 73
     0
 90
     0
 40
-0.6
 41
-30.0
 62
     5
 63
     7
 74
     1
 91
     4
 64
     7
 65
   257
 75
     1
175
     1
 42
1.0
 92
     0
 66
   257
 43
1.0
 76
     1
 77
     6
 78
     2
 67
     7
 79
     5
170
     0
171
     0
290
0
174
     0
 93
     1
 44
0.0
173
     0
291
0
 45
0.0
1001
ACAD
1000
AcDbSavedByObjectVersion
1070
     0
  0
VISUALSTYLE
  5
2E
102
{ACAD_REACTORS
330
29
102
}
330
29
100
AcDbVisualStyle
  2
Basic
 70
     7
 71
     1
 72
     0
 73
     1
 90
     0
 40
-0.6
 41
-30.0
 62
     5
 63
     7
 74
     0
 91
     4
 64
     7
 65
   257
 75
     1
175
     1
 42
1.0
 92
     8
 66
     7
 43
1.0
 76
     1
 77
     6
 78
     2
 67
     7
 79
     5
170
     0
171
     0
290
0
174
     0
 93
     1
 44
0.0
173
     0
291
1
 45
0.0
1001
ACAD
1000
AcDbSavedByObjectVersion
1070
     0
  0
VISUALSTYLE
  5
35
102
{ACAD_REACTORS
330
29
102
}
330
29
100
AcDbVisualStyle
  2
Brighten
 70
    12
 71
     2
 72
     2
 73
     0
 90
     0
 40
-0.6
 41
-30.0
 62
     5
 63
     7
 74
     1
 91
     4
 64
     7
 65
   257
 75
     1
175
     1
 42
1.0
 92
     8
 66
     7
 43
1.0
 76
     1
 77
     6
 78
     2
 67
     7
 79
     5
170
     0
171
     0
290
0
174
     0
 93
     1
 44
50.0
173
     0
291
1
 45
0.0
1001
ACAD
1000
AcDbSavedByObjectVersion
1070
     0
  0
VISUALSTYLE
  5
39
102
{ACAD_REACTORS
330
29
102
}
330
29
100
AcDbVisualStyle
  2
ColorChange
 70
    16
 71
     2
 72
     2
 73
     3
 90
     0
 40
-0.6
 41
-30.0
 62
     5
 63
     8
 74
     1
 91
     4
 64
     7
 65
   257
 75
     1
175
     1
 42
1.0
 92
     8
 66
     8
 43
1.0
 76
     1
 77
     6
 78
     2
 67
     7
 79
     5
170
     0
171
     0
290
0
174
     0
 93
     1
 44
0.0
173
     0
291
1
 45
0.0
1001
ACAD
1000
AcDbSavedByObjectVersion
1070
     0
  0
VISUALSTYLE
  5
32
102
{ACAD_REACTORS
330
29
102
}
330
29
100
AcDbVisualStyle
  2
Conceptual
 70
     9
 71
     3
 72
     2
 73
     0
 90
     0
 40
-0.6
 41
-30.0
 62
     5
 63
     7
 74
     2
 91
     2
 64
     7
 65
   257
 75
     1
175
     1
 42
40.0
 92
     8
 66
     7
 43
1.0
 76
     1
 77
     6
 78
     2
 67
     7
 79
     3
170
     0
171
     0
290
0
174
     0
 93
     1
 44
0.0
173
     0
291
0
 45
0.0
1001
ACAD
1000
AcDbSavedByObjectVersion
1070
     0
  0
VISUALSTYLE
  5
34
102
{ACAD_REACTORS
330
29
102
}
330
29
100
AcDbVisualStyle
  2
Dim
 70
    11
 71
     2
 72
     2
 73
     0
 90
     0
 40
-0.6
 41
-30.0
 62
     5
 63
     7
 74
     1
 91
     4
 64
     7
 65
   257
 75
     1
175
     1
 42
1.0
 92
     8
 66
     7
 43
1.0
 76
     1
 77
     6
 78
     2
 67
     7
 79
     5
170
     0
171
     0
290
0
174
     0
 93
     1
 44
-50.0
173
     0
291
1
 45
0.0
1001
ACAD
1000
AcDbSavedByObjectVersion
1070
     0
  0
VISUALSTYLE
  5
38
102
{ACAD_REACTORS
330
29
102
}
330
29
100
AcDbVisualStyle
  2
Facepattern
 70
    15
 71
     2
 72
     2
 73
     0
 90
     0
 40
-0.6
 41
-30.0
 62
     5
 63
     7
 74
     1
 91
     4
 64
     7
 65
   257
 75
     1
175
     1
 42
1.0
 92
     8
 66
     7
 43
1.0
 76
     1
 77
     6
 78
     2
 67
     7
 79
     5
170
     0
171
     0
290
0
174
     0
 93
     1
 44
0.0
173
     0
291
1
 45
0.0
1001
ACAD
1000
AcDbSavedByObjectVersion
1070
     0
  0
VISUALSTYLE
  5
2A
102
{ACAD_REACTORS
330
29
102
}
330
29
100
AcDbVisualStyle
  2
Flat
 70
     0
 71
     2
 72
     1
 73
     1
 90
     2
 40
-0.6
 41
30.0
 62
     5
 63
     7
 74
     0
 91
     4
 64
     7
 65
   257
 75
     1
175
     1
 42
1.0
 92
     8
 66
     7
 43
1.0
 76
     1
 77
     6
 78
     2
 67
     7
 79
     5
170
     0
171
     0
290
0
174
     0
 93
    13
 44
0.0
173
     0
291
1
 45
0.0
1001
ACAD
1000
AcDbSavedByObjectVersion
1070
     0
  0
VISUALSTYLE
  5
2B
102
{ACAD_REACTORS
330
29
102
}
330
29
100
AcDbVisualStyle
  2
FlatWithEdges
 70
     1
 71
     2
 72
     1
 73
     1
 90
     2
 40
-0.6
 41
30.0
 62
     5
 63
     7
 74
     1
 91
     4
 64
     7
 65
   257
 75
     1
175
     1
 42
1.0
 92
     0
 66
   257
 43
1.0
 76
     1
 77
     6
 78
     2
 67
     7
 79
     5
170
     0
171
     0
290
0
174
     0
 93
    13
 44
0.0
173
     0
291
1
 45
0.0
1001
ACAD
1000
AcDbSavedByObjectVersion
1070
     0
  0
VISUALSTYLE
  5
2C
102
{ACAD_REACTORS
330
29
102
}
330
29
100
AcDbVisualStyle
  2
Gouraud
 70
     2
 71
     2
 72
     2
 73
     1
 90
     2
 40
-0.6
 41
30.0
 62
     5
 63
     7
 74
     0
 91
     4
 64
     7
 65
   257
 75
     1
175
     1
 42
1.0
 92
     0
 66
     7
 43
1.0
 76
     1
 77
     6
 78
     2
 67
     7
 79
     5
170
     0
171
     0
290
0
174
     0
 93
    13
 44
0.0
173
     0
291
1
 45
0.0
1001
ACAD
1000
AcDbSavedByObjectVersion
1070
     0
  0
VISUALSTYLE
  5
2D
102
{ACAD_REACTORS
330
29
102
}
330
29
100
AcDbVisualStyle
  2
GouraudWithEdges
 70
     3
 71
     2
 72
     2
 73
     1
 90
     2
 40
-0.6
 41
30.0
 62
     5
 63
     7
 74
     1
 91
     4
 64
     7
 65
   257
 75
     1
175
     1
 42
1.0
 92
     0
 66
   257
 43
1.0
 76
     1
 77
     6
 78
     2
 67
     7
 79
     5
170
     0
171
     0
290
0
174
     0
 93
    13
 44
0.0
173
     0
291
1
 45
0.0
1001
ACAD
1000
AcDbSavedByObjectVersion
1070
     0
  0
VISUALSTYLE
  5
37
102
{ACAD_REACTORS
330
29
102
}
330
29
100
AcDbVisualStyle
  2
Linepattern
 70
    14
 71
     2
 72
     2
 73
     0
 90
     0
 40
-0.6
 41
-30.0
 62
     5
 63
     7
 74
     1
 91
     4
 64
     7
 65
   257
 75
     7
175
     7
 42
1.0
 92
     8
 66
     7
 43
1.0
 76
     1
 77
     6
 78
     2
 67
     7
 79
     5
170
     0
171
     0
290
0
174
     0
 93
     1
 44
0.0
173
     0
291
1
 45
0.0
1001
ACAD
1000
AcDbSavedByObjectVersion
1070
     0
  0
VISUALSTYLE
  5
33
102
{ACAD_REACTORS
330
29
102
}
330
29
100
AcDbVisualStyle
  2
Realistic
 70
     8
 71
     2
 72
     2
 73
     0
 90
     0
 40
-0.6
 41
-30.0
 62
     5
 63
     7
 74
     1
 91
     0
 64
     7
 65
   257
 75
     1
175
     1
 42
1.0
 92
     8
 66
     8
 43
1.0
 76
     1
 77
     6
 78
     2
 67
     7
 79
     5
170
     0
171
     0
290
0
174
     0
 93
    13
 44
0.0
173
     0
291
0
 45
0.0
1001
ACAD
1000
AcDbSavedByObjectVersion
1070
     0
  0
VISUALSTYLE
  5
36
102
{ACAD_REACTORS
330
29
102
}
330
29
100
AcDbVisualStyle
  2
Thicken
 70
    13
 71
     2
 72
     2
 73
     0
 90
     0
 40
-0.6
 41
-30.0
 62
     5
 63
     7
 74
     1
 91
     4
 64
     7
 65
   257
 75
     1
175
     1
 42
1.0
 92
    12
 66
     7
 43
1.0
 76
     1
 77
     6
 78
     2
 67
     7
 79
     5
170
     0
171
     0
290
0
174
     0
 93
     1
 44
0.0
173
     0
291
1
 45
0.0
1001
ACAD
1000
AcDbSavedByObjectVersion
1070
     0
  0
DICTIONARYVAR
  5
A0
102
{ACAD_REACTORS
330
9C
102
}
330
9C
100
DictionaryVariables
280
     0
  1
1:1
  0
DICTIONARYVAR
  5
9E
102
{ACAD_REACTORS
330
9C
102
}
330
9C
100
DictionaryVariables
280
     0
  1
STANDARD
  0
DICTIONARYVAR
  5
9D
102
{ACAD_REACTORS
330
9C
102
}
330
9C
100
DictionaryVariables
280
     0
  1
STANDARD
  0
DICTIONARYVAR
  5
A5
102
{ACAD_REACTORS
330
9C
102
}
330
9C
100
DictionaryVariables
280
     0
  1
2
  0
DICTIONARYVAR
  5
A4
102
{ACAD_REACTORS
330
9C
102
}
330
9C
100
DictionaryVariables
280
     0
  1
1
  0
DICTIONARYVAR
  5
A3
102
{ACAD_REACTORS
330
9C
102
}
330
9C
100
DictionaryVariables
280
     0
  1
0
  0
DICTIONARYVAR
  5
A1
102
{ACAD_REACTORS
330
9C
102
}
330
9C
100
DictionaryVariables
280
     0
  1
2
  0
DICTIONARYVAR
  5
9F
102
{ACAD_REACTORS
330
9C
102
}
330
9C
100
DictionaryVariables
280
     0
  1
1
  0
DICTIONARYVAR
  5
A2
102
{ACAD_REACTORS
330
9C
102
}
330
9C
100
DictionaryVariables
280
     0
  1
127
  0
DICTIONARY
  5
B1
330
74
100
AcDbDictionary
280
     1
281
     1
  3
ACAD_XREC_ROUNDTRIP
360
B2
  0
DICTIONARY
  5
B5
330
7C
100
AcDbDictionary
280
     1
281
     1
  3
ACAD_XREC_ROUNDTRIP
360
B6
  0
DICTIONARY
  5
B3
330
78
100
AcDbDictionary
280
     1
281
     1
  3
ACAD_XREC_ROUNDTRIP
360
B4
  0
DICTIONARY
  5
1A
330
19
100
AcDbDictionary
280
     1
281
     1
  3
ACAD_XREC_ROUNDTRIP
360
AD
  3
BUMPTILE
360
1C
  3
DIFFUSETILE
360
1B
  3
OPACITYTILE
360
1F
  3
REFLECTIONTILE
360
1E
  3
REFRACTIONTILE
360
20
  3
SPECULARTILE
360
1D
  0
DICTIONARY
  5
12
330
11
100
AcDbDictionary
280
     1
281
     1
  3
ACAD_XREC_ROUNDTRIP
360
AC
  3
BUMPTILE
360
14
  3
DIFFUSETILE
360
13
  3
OPACITYTILE
360
17
  3
REFLECTIONTILE
360
16
  3
REFRACTIONTILE
360
18
  3
SPECULARTILE
360
15
  0
DICTIONARY
  5
22
330
21
100
AcDbDictionary
280
     1
281
     1
  3
ACAD_XREC_ROUNDTRIP
360
AE
  3
BUMPTILE
360
24
  3
DIFFUSETILE
360
23
  3
OPACITYTILE
360
27
  3
REFLECTIONTILE
360
26
  3
REFRACTIONTILE
360
28
  3
SPECULARTILE
360
25
  0
DICTIONARY
  5
A6
330
6D
100
AcDbDictionary
280
     1
281
     1
  3
ACAD_ROUNDTRIP_2008_TABLESTYLE_CELLSTYLEMAP
360
A7
  3
ACAD_XREC_ROUNDTRIP
360
B0
  0
XRECORD
  5
B2
102
{ACAD_REACTORS
330
B1
102
}
330
B1
100
AcDbXrecord
280
     1
102
SHADEPLOT
 70
     0
102
SHADEPLOTRESLEVEL
 70
     2
102
SHADEPLOTCUSTOMDPI
 70
   300
  0
XRECORD
  5
B6
102
{ACAD_REACTORS
330
B5
102
}
330
B5
100
AcDbXrecord
280
     1
102
SHADEPLOT
 70
     0
102
SHADEPLOTRESLEVEL
 70
     2
102
SHADEPLOTCUSTOMDPI
 70
   300
  0
XRECORD
  5
B4
102
{ACAD_REACTORS
330
B3
102
}
330
B3
100
AcDbXrecord
280
     1
102
SHADEPLOT
 70
     0
102
SHADEPLOTRESLEVEL
 70
     2
102
SHADEPLOTCUSTOMDPI
 70
   300
  0
XRECORD
  5
AD
102
{ACAD_REACTORS
330
1A
102
}
330
1A
100
AcDbXrecord
280
     1
102
MATERIAL
148
0.0
149
0.0
149
0.0
 93
     0
 94
   127
282
     0
 72
     0
 77
     0
171
     0
175
     0
179
0
273
     0
  0
XRECORD
  5
1C
102
{ACAD_REACTORS
330
1A
102
}
330
1A
100
AcDbXrecord
280
     1
270
     1
271
     1
  0
XRECORD
  5
1B
102
{ACAD_REACTORS
330
1A
102
}
330
1A
100
AcDbXrecord
280
     1
270
     1
271
     1
  0
XRECORD
  5
1F
102
{ACAD_REACTORS
330
1A
102
}
330
1A
100
AcDbXrecord
280
     1
270
     1
271
     1
  0
XRECORD
  5
1E
102
{ACAD_REACTORS
330
1A
102
}
330
1A
100
AcDbXrecord
280
     1
270
     1
271
     1
  0
XRECORD
  5
20
102
{ACAD_REACTORS
330
1A
102
}
330
1A
100
AcDbXrecord
280
     1
270
     1
271
     1
  0
XRECORD
  5
1D
102
{ACAD_REACTORS
330
1A
102
}
330
1A
100
AcDbXrecord
280
     1
270
     1
271
     1
  0
XRECORD
  5
AC
102
{ACAD_REACTORS
330
12
102
}
330
12
100
AcDbXrecord
280
     1
102
MATERIAL
148
0.0
149
0.0
149
0.0
 93
     0
 94
   127
282
     0
 72
     0
 77
     0
171
     0
175
     0
179
0
273
     0
  0
XRECORD
  5
14
102
{ACAD_REACTORS
330
12
102
}
330
12
100
AcDbXrecord
280
     1
270
     1
271
     1
  0
XRECORD
  5
13
102
{ACAD_REACTORS
330
12
102
}
330
12
100
AcDbXrecord
280
     1
270
     1
271
     1
  0
XRECORD
  5
17
102
{ACAD_REACTORS
330
12
102
}
330
12
100
AcDbXrecord
280
     1
270
     1
271
     1
  0
XRECORD
  5
16
102
{ACAD_REACTORS
330
12
102
}
330
12
100
AcDbXrecord
280
     1
270
     1
271
     1
  0
XRECORD
  5
18
102
{ACAD_REACTORS
330
12
102
}
330
12
100
AcDbXrecord
280
     1
270
     1
271
     1
  0
XRECORD
  5
15
102
{ACAD_REACTORS
330
12
102
}
330
12
100
AcDbXrecord
280
     1
270
     1
271
     1
  0
XRECORD
  5
AE
102
{ACAD_REACTORS
330
22
102
}
330
22
100
AcDbXrecord
280
     1
102
MATERIAL
148
0.0
149
0.0
149
0.0
 93
     0
 94
   127
282
     0
 72
     0
 77
     0
171
     0
175
     0
179
0
273
     0
  0
XRECORD
  5
24
102
{ACAD_REACTORS
330
22
102
}
330
22
100
AcDbXrecord
280
     1
270
     1
271
     1
  0
XRECORD
  5
23
102
{ACAD_REACTORS
330
22
102
}
330
22
100
AcDbXrecord
280
     1
270
     1
271
     1
  0
XRECORD
  5
27
102
{ACAD_REACTORS
330
22
102
}
330
22
100
AcDbXrecord
280
     1
270
     1
271
     1
  0
XRECORD
  5
26
102
{ACAD_REACTORS
330
22
102
}
330
22
100
AcDbXrecord
280
     1
270
     1
271
     1
  0
XRECORD
  5
28
102
{ACAD_REACTORS
330
22
102
}
330
22
100
AcDbXrecord
280
     1
270
     1
271
     1
  0
XRECORD
  5
25
102
{ACAD_REACTORS
330
22
102
}
330
22
100
AcDbXrecord
280
     1
270
     1
271
     1
  0
CELLSTYLEMAP
  5
A7
102
{ACAD_REACTORS
330
A6
102
}
330
A6
100
AcDbCellStyleMap
 90
     3
300
CELLSTYLE
  1
TABLEFORMAT_BEGIN
 90
     5
170
     1
 91
     0
 92
 32768
 62
   257
 93
     1
300
CONTENTFORMAT
  1
CONTENTFORMAT_BEGIN
 90
     0
 91
     0
 92
   512
 93
     0
300

 40
0.0
140
1.0
 94
     5
 62
     0
340
5D
144
6.0
309
CONTENTFORMAT_END
171
     1
301
MARGIN
  1
CELLMARGIN_BEGIN
 40
1.5
 40
1.5
 40
1.5
 40
1.5
 40
4.5
 40
4.5
309
CELLMARGIN_END
 94
     6
 95
     1
302
GRIDFORMAT
  1
GRIDFORMAT_BEGIN
 90
     0
 91
     1
 62
     0
 92
    -2
340
0
 93
     0
 40
1.125
309
GRIDFORMAT_END
 95
     2
302
GRIDFORMAT
  1
GRIDFORMAT_BEGIN
 90
     0
 91
     1
 62
     0
 92
    -2
340
0
 93
     0
 40
1.125
309
GRIDFORMAT_END
 95
     4
302
GRIDFORMAT
  1
GRIDFORMAT_BEGIN
 90
     0
 91
     1
 62
     0
 92
    -2
340
0
 93
     0
 40
1.125
309
GRIDFORMAT_END
 95
     8
302
GRIDFORMAT
  1
GRIDFORMAT_BEGIN
 90
     0
 91
     1
 62
     0
 92
    -2
340
0
 93
     0
 40
1.125
309
GRIDFORMAT_END
 95
    16
302
GRIDFORMAT
  1
GRIDFORMAT_BEGIN
 90
     0
 91
     1
 62
     0
 92
    -2
340
0
 93
     0
 40
1.125
309
GRIDFORMAT_END
 95
    32
302
GRIDFORMAT
  1
GRIDFORMAT_BEGIN
 90
     0
 91
     1
 62
     0
 92
    -2
340
0
 93
     0
 40
1.125
309
GRIDFORMAT_END
309
TABLEFORMAT_END
  1
CELLSTYLE_BEGIN
 90
     1
 91
     1
300
_TITLE
309
CELLSTYLE_END
300
CELLSTYLE
  1
TABLEFORMAT_BEGIN
 90
     5
170
     1
 91
     0
 92
     0
 62
   257
 93
     1
300
CONTENTFORMAT
  1
CONTENTFORMAT_BEGIN
 90
     0
 91
     0
 92
   512
 93
     0
300

 40
0.0
140
1.0
 94
     5
 62
     0
340
5D
144
4.5
309
CONTENTFORMAT_END
171
     1
301
MARGIN
  1
CELLMARGIN_BEGIN
 40
1.5
 40
1.5
 40
1.5
 40
1.5
 40
4.5
 40
4.5
309
CELLMARGIN_END
 94
     6
 95
     1
302
GRIDFORMAT
  1
GRIDFORMAT_BEGIN
 90
     0
 91
     1
 62
     0
 92
    -2
340
0
 93
     0
 40
1.125
309
GRIDFORMAT_END
 95
     2
302
GRIDFORMAT
  1
GRIDFORMAT_BEGIN
 90
     0
 91
     1
 62
     0
 92
    -2
340
0
 93
     0
 40
1.125
309
GRIDFORMAT_END
 95
     4
302
GRIDFORMAT
  1
GRIDFORMAT_BEGIN
 90
     0
 91
     1
 62
     0
 92
    -2
340
0
 93
     0
 40
1.125
309
GRIDFORMAT_END
 95
     8
302
GRIDFORMAT
  1
GRIDFORMAT_BEGIN
 90
     0
 91
     1
 62
     0
 92
    -2
340
0
 93
     0
 40
1.125
309
GRIDFORMAT_END
 95
    16
302
GRIDFORMAT
  1
GRIDFORMAT_BEGIN
 90
     0
 91
     1
 62
     0
 92
    -2
340
0
 93
     0
 40
1.125
309
GRIDFORMAT_END
 95
    32
302
GRIDFORMAT
  1
GRIDFORMAT_BEGIN
 90
     0
 91
     1
 62
     0
 92
    -2
340
0
 93
     0
 40
1.125
309
GRIDFORMAT_END
309
TABLEFORMAT_END
  1
CELLSTYLE_BEGIN
 90
     2
 91
     1
300
_HEADER
309
CELLSTYLE_END
300
CELLSTYLE
  1
TABLEFORMAT_BEGIN
 90
     5
170
     1
 91
     0
 92
     0
 62
   257
 93
     1
300
CONTENTFORMAT
  1
CONTENTFORMAT_BEGIN
 90
     0
 91
     0
 92
   512
 93
     0
300

 40
0.0
140
1.0
 94
     2
 62
     0
340
5D
144
4.5
309
CONTENTFORMAT_END
171
     1
301
MARGIN
  1
CELLMARGIN_BEGIN
 40
1.5
 40
1.5
 40
1.5
 40
1.5
 40
4.5
 40
4.5
309
CELLMARGIN_END
 94
     6
 95
     1
302
GRIDFORMAT
  1
GRIDFORMAT_BEGIN
 90
     0
 91
     1
 62
     0
 92
    -2
340
0
 93
     0
 40
1.125
309
GRIDFORMAT_END
 95
     2
302
GRIDFORMAT
  1
GRIDFORMAT_BEGIN
 90
     0
 91
     1
 62
     0
 92
    -2
340
0
 93
     0
 40
1.125
309
GRIDFORMAT_END
 95
     4
302
GRIDFORMAT
  1
GRIDFORMAT_BEGIN
 90
     0
 91
     1
 62
     0
 92
    -2
340
0
 93
     0
 40
1.125
309
GRIDFORMAT_END
 95
     8
302
GRIDFORMAT
  1
GRIDFORMAT_BEGIN
 90
     0
 91
     1
 62
     0
 92
    -2
340
0
 93
     0
 40
1.125
309
GRIDFORMAT_END
 95
    16
302
GRIDFORMAT
  1
GRIDFORMAT_BEGIN
 90
     0
 91
     1
 62
     0
 92
    -2
340
0
 93
     0
 40
1.125
309
GRIDFORMAT_END
 95
    32
302
GRIDFORMAT
  1
GRIDFORMAT_BEGIN
 90
     0
 91
     1
 62
     0
 92
    -2
340
0
 93
     0
 40
1.125
309
GRIDFORMAT_END
309
TABLEFORMAT_END
  1
CELLSTYLE_BEGIN
 90
     3
 91
     2
300
_DATA
309
CELLSTYLE_END
  0
XRECORD
  5
B0
102
{ACAD_REACTORS
330
A6
102
}
330
A6
100
AcDbXrecord
280
     1
102
ACAD_ROUNDTRIP_PRE2007_TABLESTYLE
 90
   512
 91
     0
  1

 92
   512
 93
     0
  2

 94
   512
 95
     0
  3

  0
ENDSEC
  0
EOF
